<svg width="1240" height="470" viewBox="0 0 1240 470" fill="none" xmlns="http://www.w3.org/2000/svg">
<g clip-path="url(#clip0_524_757)">
<rect width="1240" height="470" rx="55" fill="#FF355A"/>
<g opacity="0.21">
<path d="M1183.81 42.2633C1183.55 43.8 1183.17 45.3368 1182.66 46.8736C1182.14 48.4103 1181.63 49.9471 1181.12 51.4838C1180.86 52.5084 1180.74 54.0451 1180.74 56.0941C1179.97 56.8625 1179.2 57.759 1178.43 58.7835C1177.92 59.5518 1177.15 60.5763 1176.13 61.857C1176.13 62.8815 1175.87 64.4183 1175.36 66.4673C1174.33 67.2357 1173.31 68.004 1172.28 68.7724C1171.26 69.5408 1170.11 70.3092 1168.83 71.0776C1168.57 72.1021 1168.19 73.1266 1167.67 74.1511C1167.16 74.9195 1166.65 75.944 1166.14 77.2246C1163.32 79.7859 1160.76 82.6033 1158.46 85.6768C1156.41 88.7503 1153.97 91.6958 1151.16 94.5132C1149.62 95.0254 1148.08 94.5132 1146.55 92.9764C1145.01 91.4397 1143.35 90.031 1141.55 88.7503C1140.02 87.2136 1138.23 85.9329 1136.18 84.9084C1135.41 84.3962 1134.9 84.012 1134.64 83.7559C1134.38 83.4997 1134 83.1155 1133.49 82.6033C1132.46 82.6033 1131.31 82.3472 1130.03 81.8349C1129.01 81.3226 1127.98 80.9385 1126.96 80.6823C1125.68 80.4262 1124.53 79.9139 1123.5 79.1456C1122.48 78.3772 1121.45 77.6088 1120.43 76.8404L1116.2 72.2301C1113.64 72.7424 1111.21 72.4863 1108.9 71.4617C1106.86 70.4372 1104.55 69.4127 1101.99 68.3882C1100.2 68.6444 1098.41 68.7724 1096.61 68.7724C1094.82 68.7724 1092.9 68.9005 1090.85 69.1566C1089.06 70.1811 1087.27 71.3337 1085.47 72.6143C1083.68 73.895 1081.89 75.1756 1080.1 76.4562C1077.79 78.2491 1075.49 79.9139 1073.18 81.4507C1071.13 82.7313 1068.7 83.6278 1065.88 84.14C1065.63 84.14 1065.24 84.3962 1064.73 84.9084C1064.22 85.1646 1063.71 85.4207 1063.19 85.6768C1062.17 86.7013 1061.02 87.9819 1059.74 89.5187C1058.71 91.0555 1057.69 92.4642 1056.66 93.7448C1055.38 97.5867 1054.36 101.044 1053.59 104.118C1053.85 105.142 1053.98 106.039 1053.98 106.807C1054.23 107.576 1054.49 108.344 1054.74 109.112C1054.74 110.649 1053.98 112.058 1052.44 113.339C1051.67 114.363 1050.77 115.259 1049.75 116.028C1048.98 116.54 1048.34 117.565 1047.83 119.101L1050.52 123.327C1050.77 124.352 1050.39 125.376 1049.37 126.401C1048.6 127.426 1047.96 128.578 1047.44 129.859C1047.44 130.115 1047.32 130.243 1047.06 130.243C1046.8 130.243 1046.68 130.371 1046.68 130.627C1047.19 132.42 1047.57 134.469 1047.83 136.774C1048.34 138.823 1048.73 140.872 1048.98 142.921C1051.54 144.97 1053.72 147.147 1055.51 149.452C1057.56 151.758 1059.48 154.191 1061.27 156.752C1062.55 158.289 1063.83 159.698 1065.11 160.978C1066.65 162.259 1068.06 163.539 1069.34 164.82C1071.9 166.101 1074.46 167.381 1077.02 168.662C1079.84 169.686 1082.53 170.455 1085.09 170.967C1087.14 171.223 1088.93 171.864 1090.47 172.888C1092.26 173.656 1094.31 174.425 1096.61 175.193C1098.92 175.193 1101.48 175.321 1104.29 175.577C1107.11 175.577 1109.93 175.577 1112.75 175.577C1114.54 175.577 1115.69 175.449 1116.2 175.193C1119.02 174.425 1121.71 174.041 1124.27 174.041C1126.83 173.784 1129.39 173.272 1131.95 172.504C1134.77 171.992 1137.46 171.607 1140.02 171.351C1142.84 171.095 1145.52 170.839 1148.08 170.583C1148.6 170.583 1149.24 170.327 1150.01 169.815C1151.03 169.302 1151.93 169.302 1152.69 169.815C1153.72 170.839 1154.49 171.864 1155 172.888C1155.51 173.913 1156.15 175.065 1156.92 176.346C1156.66 177.114 1156.54 178.139 1156.54 179.419C1156.54 180.444 1156.54 181.596 1156.54 182.877C1162.17 192.354 1166.39 203.239 1169.21 215.533C1165.37 218.351 1161.53 221.296 1157.69 224.37C1154.1 227.187 1150.26 230.26 1146.16 233.59C1144.37 234.359 1142.32 234.871 1140.02 235.127C1137.97 235.127 1136.31 236.151 1135.02 238.2C1134 237.688 1132.98 237.304 1131.95 237.048C1131.18 236.792 1130.54 236.536 1130.03 236.279C1129.01 236.536 1128.37 237.048 1128.11 237.816C1127.85 238.585 1127.47 239.225 1126.96 239.737C1125.42 238.969 1124.01 238.2 1122.73 237.432C1122.48 237.688 1121.84 237.944 1120.81 238.2C1120.04 238.457 1119.4 238.713 1118.89 238.969C1116.33 239.481 1113.9 239.993 1111.59 240.506C1109.29 241.274 1106.86 241.658 1104.29 241.658C1102.5 241.658 1100.45 241.658 1098.15 241.658C1095.84 241.914 1093.67 242.17 1091.62 242.427C1091.11 242.427 1090.47 242.298 1089.7 242.042C1088.93 242.042 1088.03 241.914 1087.01 241.658C1083.68 240.634 1081.5 239.865 1080.48 239.353C1079.46 238.841 1077.28 237.56 1073.95 235.511C1071.9 235.255 1070.36 235.895 1069.34 237.432C1068.57 239.225 1067.55 240.121 1066.27 240.121H1061.66C1059.61 239.353 1057.56 238.585 1055.51 237.816C1053.46 237.048 1051.29 236.536 1048.98 236.279C1047.19 236.023 1045.52 235.639 1043.99 235.127C1042.71 234.359 1041.17 233.718 1039.38 233.206C1037.59 231.669 1035.67 230.132 1033.62 228.596C1031.82 226.803 1029.9 225.394 1027.85 224.37C1026.06 223.601 1024.27 222.577 1022.48 221.296C1020.94 219.759 1019.53 218.223 1018.25 216.686C1017.23 215.149 1016.08 213.996 1014.79 213.228C1013.51 212.204 1012.36 211.051 1011.34 209.77C1009.54 206.953 1007.37 204.392 1004.81 202.087C1003.53 200.806 1002.37 199.525 1001.35 198.245C1000.58 196.708 999.558 195.299 998.277 194.019C997.509 190.433 996.741 186.847 995.973 183.261C995.461 179.675 994.948 175.962 994.436 172.12C993.924 171.607 993.284 170.839 992.516 169.815C992.003 168.534 991.235 167.381 990.211 166.357C989.955 164.308 989.571 162.131 989.059 159.826C988.546 157.264 987.65 154.959 986.37 152.91C986.626 151.886 987.01 150.605 987.522 149.068C987.522 147.788 987.522 147.147 987.522 147.147C985.473 141.512 984.833 136.134 985.601 131.011C986.114 127.426 986.498 123.712 986.754 119.87C987.266 115.772 987.65 111.802 987.906 107.96C988.674 107.448 989.315 106.935 989.827 106.423C990.595 105.911 991.363 105.399 992.132 104.886C989.059 100.02 989.059 94.6412 992.132 88.7503C990.851 86.189 990.211 84.14 990.211 82.6033C990.211 81.0665 990.211 80.2981 990.211 80.2981C991.235 79.2736 992.131 78.2491 992.9 77.2246C993.668 76.2001 994.564 75.1756 995.589 74.1511C997.637 72.3582 999.43 70.1811 1000.97 67.6199C1001.73 66.3392 1002.37 64.9305 1002.89 63.3937C1003.66 61.857 1003.91 60.4483 1003.66 59.1676C1005.7 57.887 1007.75 56.9906 1009.8 56.4783C1012.11 55.7099 1013.9 54.5574 1015.18 53.0206C1015.43 52.7645 1015.69 52.2522 1015.95 51.4838C1015.95 50.7155 1015.82 49.819 1015.56 48.7945C1015.56 47.77 1015.56 46.6174 1015.56 45.3368C1016.33 44.3123 1016.97 42.9036 1017.48 41.1107C1019.28 40.0862 1020.81 39.3178 1022.09 38.8056C1023.37 38.2933 1024.65 37.653 1025.93 36.8846C1026.45 36.3723 1026.83 35.8601 1027.09 35.3479C1027.6 34.8356 1027.98 34.3233 1028.24 33.8111C1030.8 29.713 1034 26.7676 1037.84 24.9747C1039.38 24.4624 1040.91 23.8221 1042.45 23.0538C1043.99 22.2854 1045.4 21.6451 1046.68 21.1328C1047.44 20.6205 1048.09 20.1083 1048.6 19.596C1049.37 18.8277 1050.13 18.1873 1050.9 17.6751C1052.69 17.1628 1054.62 16.5225 1056.66 15.7541C1058.46 14.9858 1060.25 14.2174 1062.04 13.449C1064.09 12.6806 1066.14 12.1684 1068.19 11.9122C1069.98 11.4 1071.64 10.7597 1073.18 9.99127C1074.97 9.2229 1076.64 8.71064 1078.17 8.4545C1079.46 7.94225 1080.48 8.07032 1081.25 8.83871C1082.27 9.35096 1083.3 9.86321 1084.32 10.3755H1092.39C1093.67 9.86321 1094.56 9.22289 1095.08 8.4545C1095.59 7.43001 1096.36 6.78969 1097.38 6.53355C1100.97 5.76518 1103.65 5.25292 1105.45 4.99678C1107.24 4.74066 1109.54 4.74066 1112.36 4.99678C1115.18 4.99678 1119.4 5.25292 1125.04 5.76518C1126.32 6.0213 1127.34 6.53356 1128.11 7.30194C1129.13 8.07031 1130.29 8.58257 1131.57 8.83871C1133.36 8.83871 1135.02 9.09483 1136.56 9.60708C1138.35 9.8632 1140.15 10.2474 1141.94 10.7597C1144.24 12.5525 1146.68 14.2174 1149.24 15.7541C1151.8 17.0348 1154.74 17.8032 1158.07 18.0593C1159.61 20.6205 1161.53 22.6696 1163.83 24.2063C1166.39 25.7431 1168.96 27.1518 1171.52 28.4324C1173.82 29.7131 1176 31.2498 1178.05 33.0427C1180.09 34.8356 1182.02 36.7566 1183.81 38.8056C1183.81 39.3178 1183.81 39.9581 1183.81 40.7265C1184.06 41.2388 1184.06 41.751 1183.81 42.2633Z" fill="#FFE1BE"/>
<path d="M662.538 242.922C662.899 243.463 662.99 244.094 662.809 244.814C662.628 245.355 662.357 245.895 661.995 246.436C661.452 246.796 660.91 247.337 660.367 248.057C659.825 248.598 659.192 249.048 658.468 249.409C657.383 250.129 656.298 250.94 655.213 251.841C654.128 252.742 653.043 253.643 651.958 254.544C649.607 256.345 647.527 258.147 645.719 259.949C644.091 261.57 642.102 263.823 639.751 266.705C639.389 267.066 638.937 267.426 638.394 267.786C638.033 268.327 637.58 268.777 637.038 269.138C636.857 269.318 636.495 269.498 635.953 269.678C635.591 269.858 635.229 270.038 634.868 270.219C634.687 270.038 634.416 269.858 634.054 269.678C633.692 269.678 633.33 269.588 632.969 269.408C631.522 267.966 629.985 266.525 628.357 265.084C626.91 263.642 625.373 262.291 623.745 261.03C621.394 259.408 619.315 257.607 617.506 255.625C615.698 253.463 613.799 251.391 611.809 249.409C611.267 248.868 610.815 248.238 610.453 247.517C610.272 246.616 610.001 245.805 609.639 245.085C608.916 244.724 608.102 244.364 607.198 244.003C606.474 243.463 605.751 242.922 605.028 242.382C604.304 241.661 603.581 240.85 602.857 239.95C602.315 239.049 601.772 238.148 601.23 237.247C600.325 235.806 599.421 234.454 598.517 233.193C597.613 231.932 596.528 230.671 595.262 229.409C594.538 228.509 593.996 227.518 593.634 226.437C593.272 225.356 592.549 224.455 591.464 223.734C590.379 223.374 589.203 223.103 587.937 222.923C586.671 222.563 585.496 222.293 584.411 222.112C582.783 222.473 581.517 223.644 580.613 225.626C578.262 230.671 574.374 234.815 568.948 238.058C567.501 238.959 566.235 240.13 565.15 241.571C564.065 243.013 562.799 244.454 561.352 245.895C559.182 249.319 556.56 252.291 553.486 254.814C550.592 257.336 547.337 259.679 543.72 261.841C543.177 262.381 542.544 262.922 541.821 263.462C541.097 264.003 540.284 264.633 539.379 265.354L530.97 268.057C528.076 266.795 525.635 264.994 523.645 262.651C521.837 260.309 519.667 258.507 517.135 257.246C515.688 255.084 514.513 252.922 513.608 250.76C512.704 248.598 511.981 246.436 511.438 244.274C512.342 242.292 513.156 240.49 513.88 238.869C514.784 237.247 515.779 235.896 516.864 234.815C519.034 233.193 520.39 231.211 520.933 228.869C521.837 227.788 522.56 226.617 523.103 225.356C523.826 224.995 524.369 224.815 524.731 224.815C525.273 224.815 525.816 224.725 526.358 224.545C527.624 224.184 528.257 223.554 528.257 222.653C528.257 221.572 528.619 220.851 529.342 220.491C530.066 219.95 530.789 219.59 531.512 219.41C532.055 219.23 532.507 219.23 532.869 219.41C533.411 219.41 533.954 219.32 534.496 219.14C534.677 218.779 534.858 218.509 535.039 218.329C535.22 217.968 535.31 217.698 535.31 217.518C535.31 216.437 535.401 215.446 535.582 214.545C535.762 213.464 536.305 212.563 537.209 211.843C537.209 209.861 537.752 208.419 538.837 207.518C540.103 206.618 541.459 205.627 542.906 204.546C543.448 203.104 543.991 201.663 544.534 200.221C545.076 198.78 545.528 197.609 545.89 196.708C546.613 194.906 547.608 193.645 548.874 192.924C550.14 192.204 550.863 191.123 551.044 189.681C550.863 189.501 550.773 189.231 550.773 188.871C549.869 187.97 548.874 187.069 547.789 186.168C546.885 185.087 545.98 184.006 545.076 182.925C544.172 181.844 543.358 180.763 542.635 179.682C541.911 178.421 541.007 177.339 539.922 176.439C539.199 175.718 538.656 174.727 538.294 173.466C537.933 172.205 537.39 171.394 536.667 171.033C536.124 170.493 535.401 170.042 534.496 169.682C534.316 168.781 534.044 167.971 533.683 167.25C533.502 166.529 533.321 165.718 533.14 164.817C532.959 164.637 532.688 164.457 532.326 164.277C531.965 163.917 531.603 163.646 531.241 163.466C529.433 162.565 527.805 161.394 526.358 159.953C524.911 158.331 523.465 156.89 522.018 155.629C521.294 155.088 520.752 154.458 520.39 153.737C519.305 151.214 517.858 149.052 516.05 147.251C514.241 145.269 512.342 143.197 510.353 141.035C509.449 139.413 508.545 137.701 507.64 135.9C506.736 133.918 505.922 131.936 505.199 129.954C504.475 128.513 503.662 127.071 502.757 125.63C502.034 124.008 501.401 122.387 500.858 120.765C500.497 120.405 500.316 119.594 500.316 118.333C501.763 116.351 503.481 114.819 505.47 113.738C507.459 112.477 508.997 110.856 510.082 108.874C511.167 108.694 512.162 108.694 513.066 108.874C514.151 109.054 515.055 108.784 515.779 108.063C516.321 107.522 517.135 107.252 518.22 107.252C520.571 106.712 522.922 106.081 525.273 105.36C527.624 104.46 529.975 103.829 532.326 103.469C532.688 103.288 533.14 103.108 533.683 102.928C534.225 102.748 534.677 102.658 535.039 102.658C537.571 102.297 539.56 102.838 541.007 104.279C541.369 104.64 541.73 105 542.092 105.36C542.635 105.541 542.996 105.811 543.177 106.171C544.443 107.973 545.799 109.594 547.246 111.036C548.874 112.297 550.502 113.468 552.129 114.549C553.395 117.252 554.209 119.054 554.571 119.954C554.932 120.855 555.384 121.576 555.927 122.116C556.47 122.477 557.555 123.198 559.182 124.279C559.363 124.459 559.544 124.729 559.725 125.089C559.906 125.27 559.996 125.54 559.996 125.9C560.539 128.603 562.076 130.224 564.608 130.765C565.693 131.125 566.326 131.305 566.507 131.305C567.411 132.026 567.863 133.017 567.863 134.278C568.044 135.359 568.767 136.35 570.033 137.251C571.118 137.251 572.023 137.611 572.746 138.332C573.289 138.512 573.741 138.692 574.102 138.873C574.645 138.873 575.007 138.873 575.187 138.873C576.815 140.134 577.81 141.755 578.171 143.737C578.714 145.539 579.709 146.98 581.155 148.061H582.512C583.959 147.521 585.405 146.98 586.852 146.44C588.299 145.899 589.746 145.359 591.193 144.818C591.916 143.917 592.549 143.017 593.092 142.116C593.634 141.215 594.267 140.314 594.99 139.413C595.895 137.972 596.889 136.53 597.974 135.089C599.06 133.467 600.145 132.026 601.23 130.765C602.315 129.323 603.129 127.792 603.671 126.17C604.214 124.549 604.937 123.107 605.841 121.846C606.746 120.405 607.65 119.144 608.554 118.063C609.639 116.801 610.815 115.45 612.081 114.009C613.347 110.225 615.155 106.622 617.506 103.198C620.038 99.775 622.932 96.622 626.187 93.7393C628.176 94.4599 629.985 95.0905 631.612 95.6311C633.24 96.1716 634.868 96.9824 636.495 98.0634C638.485 99.8651 641.197 101.216 644.633 102.117C645.538 102.297 646.352 102.568 647.075 102.928C647.798 103.288 648.522 103.559 649.245 103.739C650.511 104.82 651.325 105.901 651.687 106.982C652.229 108.063 652.681 109.234 653.043 110.495C653.405 110.676 653.766 110.856 654.128 111.036C654.671 111.216 655.123 111.396 655.484 111.576C655.846 112.297 656.208 113.108 656.57 114.009C657.112 114.729 657.564 115.54 657.926 116.441C658.468 117.162 659.101 117.882 659.825 118.603C660.729 119.144 661.272 119.954 661.452 121.035C661.272 121.936 660.91 122.927 660.367 124.008C660.006 124.909 659.644 125.81 659.282 126.711V132.386C658.559 133.648 657.655 134.548 656.57 135.089C655.665 135.449 654.761 135.9 653.857 136.44C653.676 136.801 653.405 137.161 653.043 137.521C652.862 137.701 652.591 137.972 652.229 138.332C651.144 140.314 649.969 142.206 648.703 144.007C647.618 145.809 646.261 147.611 644.633 149.413C643.548 150.674 642.554 152.025 641.649 153.467C640.745 154.908 639.751 156.349 638.665 157.791V161.034C637.942 161.755 637.128 162.565 636.224 163.466C635.501 164.187 634.868 165.088 634.325 166.169C633.602 167.25 632.788 168.151 631.884 168.871C630.979 169.592 630.346 170.583 629.985 171.844C629.442 173.105 628.628 174.096 627.543 174.817C626.458 175.358 625.554 176.529 624.831 178.33C624.65 179.051 624.469 179.952 624.288 181.033C624.288 182.114 624.107 183.285 623.745 184.546C628.086 190.132 631.884 196.077 635.139 202.384V205.627C636.043 206.528 636.857 207.338 637.58 208.059C638.485 208.78 639.208 209.5 639.751 210.221C643.187 214.545 646.804 218.329 650.602 221.572C651.325 222.293 651.958 223.103 652.5 224.004C653.224 224.725 653.586 225.626 653.586 226.707C653.766 227.428 654.128 228.148 654.671 228.869C655.213 229.59 655.575 230.22 655.756 230.761C657.203 232.562 658.378 234.544 659.282 236.706C660.187 238.869 661.272 240.941 662.538 242.922Z" fill="#FFE1BE"/>
<path d="M459.308 7.97441C457.428 10.5813 456.134 13.2122 455.427 15.867C455.327 16.6835 455.048 17.5261 454.592 18.3946C454.185 19.1099 453.779 19.8253 453.373 20.5406C453.017 21.1027 452.688 21.8434 452.384 22.7625C452.234 23.7322 451.904 24.4728 451.395 24.9844C450.735 25.9555 450.38 27.0278 450.332 28.2013C450.335 29.2217 450.261 30.2167 450.111 31.1864C449.45 32.1575 448.739 33.2818 447.977 34.5593C447.266 35.6836 446.734 37.037 446.381 38.6194C445.774 40.4577 444.937 42.22 443.87 43.9065C443.362 44.9282 443.008 46.0005 442.807 47.1234C442.762 49.3172 442.359 51.308 441.599 53.0956C440.838 54.8833 439.848 56.595 438.628 58.2308C437.661 59.1007 437 60.0718 436.646 61.1442C436.243 62.8798 435.481 64.4124 434.363 65.7418C433.244 67.0713 432.049 68.3754 430.777 69.6543C430.472 70.0632 430.039 70.345 429.478 70.4995C428.917 70.6541 428.408 70.9106 427.95 71.2689C425.713 74.438 424.036 76.6873 422.917 78.0167C421.849 79.193 419.966 81.0347 417.269 83.5418C417.015 83.7975 416.582 84.0793 415.97 84.3871C415.359 84.6948 414.85 84.9513 414.442 85.1564C414.188 85.4122 413.882 85.5661 413.525 85.618C413.321 85.7206 413.194 85.8485 413.143 86.0017C411.873 87.7907 410.397 89.1722 408.716 90.146C407.035 91.1199 405.38 92.0171 403.749 92.8378C402.934 93.2481 402.17 93.7603 401.458 94.3745C400.949 94.886 400.262 95.4235 399.396 95.987C397.51 96.5533 395.701 97.1449 393.968 97.7617C392.235 98.3786 390.425 98.9702 388.539 99.5364C387.418 99.8456 386.322 100.078 385.251 100.234C384.077 100.186 382.853 100.292 381.578 100.55C380.354 100.655 379.156 100.684 377.982 100.636C376.707 100.895 375.458 101.077 374.234 101.182C373.061 101.134 371.836 101.24 370.562 101.498L365.277 99.7522C364.41 99.8055 363.441 99.9102 362.37 100.066C361.503 100.119 360.635 99.9177 359.767 99.4609C358.898 99.0041 357.903 98.9303 356.782 99.2394C355.864 99.4459 354.92 99.474 353.951 99.3235C353.542 99.0185 353.056 98.6882 352.494 98.3326C351.932 97.977 351.345 97.698 350.732 97.4956C349.967 97.7527 349.203 98.0099 348.438 98.267C347.878 98.4216 347.215 98.6274 346.45 98.8846C346.297 98.834 346.042 98.8346 345.685 98.8866C345.532 98.836 345.302 98.7601 344.996 98.6589C344.383 98.4565 343.668 98.3054 342.852 98.2055C342.239 98.0031 341.652 97.7241 341.09 97.3685C340.22 96.4015 339.3 95.8428 338.331 95.6924C337.361 95.5419 336.416 95.0598 335.495 94.246C334.371 93.5348 333.986 92.643 334.34 91.5707C334.796 90.1921 334.308 89.0965 332.878 88.2841C332.418 88.1323 331.933 88.0571 331.423 88.0584C331.117 87.9572 330.734 87.8307 330.274 87.6789C329.712 87.3233 329.277 86.8398 328.97 86.2284C328.662 85.6171 328.252 85.057 327.741 84.5482C327.177 83.6824 326.512 82.8679 325.745 82.1047C325.028 81.1884 324.159 80.4765 323.137 79.969C322.269 79.5122 321.426 78.9788 320.608 78.3688C319.994 77.6562 319.329 77.0968 318.614 76.6906C317.131 75.5212 316.361 73.7377 316.304 71.3401C316.502 69.1968 316.191 67.31 315.37 65.6797C315.113 64.9151 314.908 64.2525 314.753 63.6917C314.649 62.9778 314.545 62.2638 314.441 61.5498C314.236 61.1423 314.082 60.5815 313.978 59.8675C313.874 59.1536 313.694 58.6694 313.438 58.415C312.21 56.9898 311.364 55.4361 310.9 53.7538C310.59 52.1221 310.381 50.4391 310.275 48.7048C310.172 48.501 310.095 48.2206 310.043 47.8636C310.144 47.5573 310.144 47.3022 310.041 47.0984C309.171 46.1314 308.939 45.0352 309.344 43.8097C309.748 42.5842 309.975 41.3846 310.023 40.2111C309.818 39.8035 309.561 39.2941 309.253 38.6827C308.946 38.0713 308.663 37.3834 308.406 36.6188C308.505 35.2921 308.527 33.9401 308.472 32.5628C308.417 31.1855 308.464 29.7569 308.613 28.277C309.423 25.826 309.929 24.039 310.13 22.9161C310.535 21.6906 310.837 20.5164 311.039 19.3935C311.29 18.1174 311.464 16.3058 311.56 13.9587C311.965 12.7332 312.599 11.5837 313.464 10.51C314.481 9.48689 315.115 8.08222 315.365 6.29596C315.159 5.3782 315.003 4.30726 314.898 3.08314C314.946 1.90962 314.84 0.685496 314.582 -0.589232C314.683 -0.895609 314.733 -1.30387 314.732 -1.81404C314.884 -2.2736 315.01 -2.65656 315.111 -2.96294C315.669 -4.13783 316.125 -5.26144 316.48 -6.33376C316.834 -7.40607 317.188 -8.47838 317.542 -9.55069C317.947 -10.7762 318.505 -11.9511 319.217 -13.0754C319.978 -14.3528 320.613 -15.5024 321.12 -16.5241C321.983 -18.108 322.745 -19.6405 323.404 -21.1218C324.267 -22.7057 325.13 -24.2895 325.993 -25.8734C327.109 -28.2232 328.455 -30.497 330.03 -32.695C331.606 -34.893 333.258 -37.0657 334.987 -39.213C337.026 -39.7287 338.887 -40.2184 340.569 -40.6821C342.405 -41.0951 344.265 -41.5848 346.151 -42.1511L356.032 -38.8871L358.255 -37.133C358.971 -36.7268 359.737 -36.4738 360.553 -36.3739C361.42 -36.4273 362.262 -36.404 363.078 -36.3042C363.693 -35.5916 364.358 -34.7771 365.075 -33.8608C365.995 -33.047 366.865 -32.08 367.684 -30.9598C367.583 -30.6535 367.533 -30.2452 367.534 -29.735C367.689 -29.1742 367.715 -28.7407 367.614 -28.4343C367.26 -27.362 366.804 -26.2384 366.246 -25.0635C365.841 -23.838 365.206 -22.6884 364.342 -21.6147C363.58 -20.3372 363.099 -18.882 362.9 -17.2489C362.901 -16.7387 362.725 -15.9475 362.37 -14.8752C361.812 -13.7003 361.152 -12.4741 360.39 -11.1966C359.629 -9.91913 358.816 -8.74354 357.951 -7.66986C357.596 -7.10771 357.317 -6.52027 357.114 -5.90753C356.962 -5.44796 356.887 -4.96309 356.888 -4.45293C356.943 -3.07562 356.564 -1.92671 355.75 -1.00622C355.089 -0.0351145 354.735 1.0372 354.687 2.21072C354.999 4.3526 354.597 6.59842 353.481 8.9482C353.076 10.1737 352.977 11.2453 353.183 12.1631C353.493 13.7948 353.421 15.3 352.966 16.6787C352.714 17.9548 352.284 19.2569 351.675 20.5849C350.964 21.7092 350.482 22.9094 350.231 24.1855C350.132 25.5122 350.136 26.7876 350.241 28.0118C350.55 29.1333 350.706 30.2043 350.709 31.2246C350.762 32.0917 350.918 33.1627 351.176 34.4374C351.689 35.4564 352.253 36.5772 352.869 37.8C353.484 39.0227 353.896 40.348 354.104 41.776C354.004 42.5925 354.313 43.714 355.031 45.1406C355.031 45.1406 355.21 45.3697 355.568 45.8279C356.284 46.2341 357.024 46.5637 357.79 46.8167C358.709 47.1203 359.552 47.3987 360.318 47.6517C360.881 48.5174 361.393 49.2813 361.854 49.9433C362.315 50.6053 362.776 51.2673 363.237 51.9292C364.308 51.7733 365.302 51.5921 366.22 51.3855C367.137 51.179 368.08 50.8959 369.049 50.5361L372.493 50.9095C372.646 50.9601 372.8 51.0107 372.953 51.0613C373.31 51.0093 373.54 51.0852 373.642 51.289C377.476 54.0846 381.25 53.7173 384.964 50.1872C385.574 49.3692 386.338 48.6019 387.254 47.8852C388.17 47.1685 388.959 46.3246 389.619 45.3535C390.179 44.6888 390.79 44.126 391.451 43.665C392.113 43.2041 392.775 42.7431 393.437 42.2822L394.5 39.0653C395.061 38.9107 395.647 38.6796 396.258 38.3718C397.073 37.9615 397.838 37.7043 398.552 37.6004C399.111 36.9357 399.594 36.2456 400 35.5303C400.56 34.8656 401.196 34.2261 401.908 33.612C402.417 33.1005 402.824 32.6402 403.129 32.2313C403.638 31.7197 404.223 31.2335 404.885 30.7726C404.985 29.956 405.034 29.2927 405.033 28.7825C405.031 28.2723 405.055 27.6856 405.105 27.0222C406.987 24.9254 408.384 22.7535 409.296 20.5063C409.702 19.7909 409.955 19.025 410.055 18.2084C410.359 17.2893 410.586 16.3449 410.736 15.3752C411.296 14.7104 411.753 14.097 412.109 13.5349C412.668 12.8701 413.126 12.2567 413.481 11.6946C413.886 10.4691 414.113 9.26955 414.16 8.09603C414.412 6.81993 414.868 5.69633 415.529 4.72523C416.189 3.75412 416.519 3.01349 416.518 2.50333C416.715 -0.150088 417.346 -2.5751 418.411 -4.7717C419.477 -6.9683 420.645 -8.9611 421.916 -10.7501C422.015 -11.5667 422.115 -12.3832 422.215 -13.1997C422.468 -13.9657 422.721 -14.7316 422.974 -15.4975C423.382 -15.7027 423.764 -15.8313 424.121 -15.8833C424.478 -15.9352 424.809 -16.1657 425.114 -16.5747C425.779 -16.0153 426.29 -15.5065 426.648 -15.0483C427.211 -14.6927 427.773 -14.3371 428.335 -13.9815C430.226 -12.5071 432.168 -11.1859 434.161 -10.0179C436.154 -8.84983 438.4 -8.19266 440.9 -8.04635C443.454 -7.03289 446.007 -6.01942 448.561 -5.00596C451.318 -4.09508 453.872 -2.82654 456.223 -1.20033C458.165 0.120882 459.087 1.69992 458.99 3.5368L459.308 7.97441Z" fill="#FFE1BE"/>
<path d="M199.949 123.528C200.473 125.429 199.969 126.847 198.437 127.78C195.653 128.803 193.183 130.506 191.029 132.889C189.047 134.969 186.848 136.726 184.432 138.158C181.279 138.771 178.343 139.707 175.624 140.968C172.905 142.228 169.785 142.959 166.263 143.162C165.919 143.768 165.456 144.407 164.875 145.079C164.293 145.75 163.712 146.422 163.13 147.094C162.18 147.355 161.144 147.769 160.022 148.333C158.9 148.898 157.745 149.344 156.558 149.671L147.652 152.124C145.752 152.647 143.885 153.289 142.05 154.05C140.15 154.573 138.217 154.978 136.252 155.263C134.114 155.852 132.345 156.85 130.945 158.259C129.479 159.43 127.796 160.277 125.896 160.8C124.946 161.062 124.147 161.41 123.5 161.844C122.788 162.04 122.108 162.355 121.461 162.789C119.668 162.771 117.907 162.873 116.179 163.093C114.623 163.01 113.243 164.029 112.039 166.151C111.964 170.519 112.041 174.974 112.269 179.514C112.735 183.989 113.287 188.313 113.925 192.484C114.391 196.96 115.504 201.001 117.264 204.608C117.632 205.018 117.882 205.461 118.013 205.936C118.381 206.346 118.75 206.756 119.118 207.166L129.805 204.223C131.664 204.478 133.556 204.852 135.48 205.345C137.642 205.773 139.837 206.319 142.064 206.985C142.604 207.092 143.264 207.166 144.042 207.207C144.992 206.946 145.974 206.803 146.99 206.779C147.768 206.82 148.664 206.829 149.68 206.805C150.695 206.781 151.744 206.876 152.824 207.09C154.487 206.632 155.9 205.732 157.063 204.388C158.226 203.045 159.606 202.026 161.203 201.33L162.984 200.84C164.172 200.513 165.273 200.337 166.289 200.313C167.542 200.224 168.61 199.93 169.495 199.43C172.386 197.867 175.473 197.017 178.757 196.879C181.976 196.505 185.01 195.925 187.86 195.14C189.76 194.617 191.639 194.483 193.498 194.738C195.594 194.928 197.605 195.269 199.529 195.762C202.705 203.583 205.32 211.686 207.373 220.071C209.599 228.153 211.706 236.268 213.695 244.416C213.957 245.367 213.764 246.059 213.117 246.493C212.47 246.927 211.757 247.123 210.979 247.082C210.439 246.975 209.78 246.901 209.002 246.859C208.461 246.752 207.683 246.711 206.668 246.735L186.006 252.425C183.803 252.776 181.784 253.332 179.95 254.093C178.353 254.788 176.571 255.279 174.606 255.565C172.64 255.85 170.708 256.254 168.808 256.778C166.842 257.063 164.758 257.381 162.555 257.732C160.827 257.953 159.013 258.324 157.113 258.848C155.213 259.371 153.162 259.808 150.959 260.159C149.771 260.486 148.4 260.608 146.844 260.525C145.525 260.376 144.24 260.347 142.987 260.436C141.39 261.132 140.247 262.086 139.559 263.298C139.109 264.445 138.42 265.658 137.495 266.936C137.388 267.477 137.228 268.288 137.015 269.369C136.974 270.148 136.814 270.959 136.536 271.803C136.97 272.451 137.317 273.25 137.579 274.201C139.16 275.3 140.33 276.768 141.092 278.604C142.025 280.138 142.753 281.855 143.277 283.757C144.063 286.609 144.967 289.429 145.99 292.216C147.251 294.938 148.036 297.791 148.347 300.774C149.001 303.151 149.656 305.528 150.311 307.905C151.203 310.217 152.418 312.312 153.958 314.19C154.326 314.6 154.674 315.399 155.001 316.587C154.493 320.308 153.477 324.04 151.953 327.784C150.036 330.103 147.956 331.826 145.712 332.956C143.77 334.258 141.657 335.862 139.372 337.771C138.357 337.794 137.255 337.97 136.068 338.297C135.118 338.559 134.049 338.853 132.862 339.18C131.977 339.679 130.663 340.936 128.918 342.951L116.805 346.287C114.906 346.81 112.887 347.366 110.749 347.955C108.915 348.716 106.81 349.423 104.435 350.077C102.06 350.731 100.103 350.12 98.5639 348.242C98.0645 347.356 97.6512 346.319 97.3239 345.131C96.9965 343.942 96.5177 342.667 95.8875 341.307C94.8476 340.314 93.9593 339.408 93.2224 338.588C92.4201 337.53 91.6505 336.591 90.9137 335.771C90.2834 334.41 89.6531 333.05 89.0228 331.689C88.63 330.262 88.1512 328.988 87.5864 327.865C87.7097 325.529 87.747 323.345 87.6983 321.312C87.887 319.214 88.0431 316.998 88.1664 314.662C85.7107 309.456 83.5785 304.033 81.7699 298.394C79.8957 292.516 78.6154 286.475 77.9287 280.271C77.6014 279.082 77.0038 277.84 76.1361 276.545C75.5058 275.184 75.3177 273.574 75.572 271.713C76.2768 268.706 75.5894 266.21 73.5098 264.225C72.8141 262.627 72.1183 261.028 71.4226 259.43C70.9643 257.766 70.7435 256.036 70.7603 254.241C71.0389 253.398 71.0473 252.5 70.7854 251.549C70.5235 250.598 70.2617 249.648 69.9998 248.697C69.91 247.443 69.4312 246.168 68.5634 244.873C67.6956 243.577 67.1841 242.184 67.0288 240.692C67.1764 239.372 67.0866 238.118 66.7593 236.93C66.604 235.438 66.33 233.979 65.9372 232.553C65.4789 230.889 65.1394 229.192 64.9186 227.463C64.6979 225.734 64.6286 224.09 64.7108 222.533C64.015 220.935 63.3848 219.574 62.8199 218.451C62.4272 217.024 61.9156 215.631 61.2853 214.27C61.7527 211.328 61.6263 208.55 60.9062 205.935C60.3581 203.017 59.6913 200.132 58.9057 197.279C58.382 195.377 57.8583 193.476 57.3345 191.574C56.8108 189.672 56.4386 187.857 56.2178 186.127C55.9316 184.16 55.5594 182.345 55.1011 180.681C54.8149 178.714 54.4426 176.898 53.9844 175.234C53.8535 174.759 53.6038 174.316 53.2354 173.906C53.039 173.193 52.994 172.566 53.1006 172.025C53.5269 169.862 53.3921 167.981 52.6964 166.382C52.1727 164.48 51.8004 162.665 51.5797 160.935C51.1869 159.509 50.7941 158.083 50.4013 156.657C50.1805 154.927 49.9925 153.317 49.8372 151.825C49.2724 150.702 48.5561 149.492 47.6883 148.197C46.8205 146.902 46.1369 145.811 45.6376 144.926C45.5478 143.672 45.4579 142.418 45.3681 141.164C45.5158 139.844 45.4259 138.59 45.0986 137.402C44.5505 134.484 45.9268 132.059 49.2274 130.127C53.1095 127.523 57.3274 125.211 61.8809 123.19C63.5434 122.732 64.7187 121.897 65.4068 120.684C66.2259 119.947 67.2291 119.415 68.4166 119.088C69.9071 118.933 71.3321 118.541 72.6916 117.911C74.2886 117.215 75.8856 116.52 77.4826 115.824C79.0553 114.112 81.0291 112.929 83.404 112.275C87.851 110.795 92.1998 108.958 96.4504 106.764C100.701 104.571 105.05 102.734 109.497 101.253C111.806 100.362 114.03 99.6215 116.167 99.0328C118.239 98.2065 120.561 97.8228 123.132 97.8819C125.098 97.5964 127.063 97.3108 129.029 97.0253C130.928 96.5021 132.828 95.9788 134.728 95.4556C135.678 95.1939 136.628 94.9323 137.578 94.6707C138.463 94.1714 139.38 93.7909 140.33 93.5293C143.59 92.3759 146.083 91.6891 147.811 91.469C149.474 91.0112 151.169 90.6722 152.897 90.452C154.625 90.2319 157.25 90.0206 160.771 89.818C162.499 89.5979 164.108 89.4105 165.598 89.2558C167.261 88.7979 168.87 88.6105 170.426 88.6935C173.366 89.1626 176.445 89.2097 179.663 88.8349C180.916 88.7456 181.997 88.9594 182.906 89.4763C183.749 89.7555 184.474 90.0674 185.08 90.412C187.078 93.9538 188.092 97.6384 188.124 101.466C189.426 103.409 190.826 105.709 192.324 108.365C192.389 108.603 192.434 109.23 192.459 110.246C192.655 110.959 192.819 111.553 192.95 112.029C193.277 113.217 193.592 113.898 193.895 114.07C194.632 114.89 195.401 115.829 196.204 116.887C196.941 117.707 197.559 118.56 198.058 119.445C198.729 120.027 199.163 120.675 199.36 121.388C199.556 122.101 199.753 122.814 199.949 123.528Z" fill="#FFE1BE"/>
<path d="M787.455 296.666C787.115 298.078 787.073 299.536 787.329 301.04C787.397 302.576 788.03 304.015 789.227 305.359C789.732 306.046 790.048 306.766 790.176 307.518C790.084 308.114 790.118 308.882 790.279 309.822C790.751 310.322 791.318 310.805 791.978 311.273C792.607 311.553 793.173 312.036 793.678 312.724C794.118 313.036 794.575 313.442 795.047 313.941C795.331 314.473 795.882 314.863 796.699 315.111C797.607 314.762 798.72 314.476 800.037 314.251C801.355 314.027 802.578 313.818 803.706 313.626C806.529 313.144 809.197 313.463 811.711 314.582C812.592 315.206 813.441 315.641 814.258 315.889C815.042 315.948 815.843 316.102 816.66 316.35C817.981 317.285 818.55 318.349 818.366 319.541L819.279 324.898C819.379 326.622 819.48 328.345 819.58 330.069C819.46 331.637 819.654 333.345 820.163 335.193C820.415 335.536 820.511 336.1 820.451 336.884C820.359 337.48 820.251 337.982 820.127 338.39C820.444 339.11 820.838 339.72 821.311 340.22C821.563 340.563 821.847 341.095 822.164 341.815C822.104 342.599 822.044 343.383 821.984 344.167C821.892 344.763 821.816 345.453 821.756 346.237C821.916 347.177 822.122 347.819 822.374 348.162C822.943 349.226 823.512 350.29 824.08 351.353C824.461 352.449 824.935 353.529 825.504 354.593C826.293 355.812 826.595 357.018 826.411 358.21C826.227 359.402 826.513 360.514 827.27 361.545C827.943 365.493 828.788 369.314 829.806 373.009C830.823 376.704 831.746 380.416 832.575 384.143C833.409 389.03 833.411 394.156 832.583 399.52C832.119 401.34 831.04 402.394 829.347 402.683C828.938 402.559 828.514 402.341 828.074 402.03C827.445 401.75 826.833 401.564 826.236 401.472C825.672 401.569 825.233 401.837 824.921 402.277C823.704 404.225 822.203 405.642 820.418 406.527C817.535 407.792 816.945 409.44 818.647 411.471C819.435 412.69 819.958 414.052 820.214 415.556C820.283 417.092 820.539 418.595 820.984 420.067C822.065 424.138 822.974 428.336 823.711 432.659C824.417 436.794 824.855 441.072 825.028 445.491C825.381 447.559 825.793 448.843 826.266 449.342C826.582 450.062 827.903 450.998 830.229 452.148L831.076 452.004C832.549 451.559 834.022 451.115 835.496 450.67C836.781 450.258 838.066 449.845 839.351 449.433C843.022 449.387 846.269 449.124 849.091 448.642C850.44 448.606 851.805 448.663 853.186 448.814C854.412 449.186 855.761 449.149 857.234 448.705C858.675 448.072 860.18 447.815 861.75 447.935C863.319 448.054 864.856 447.985 866.362 447.729C867.05 447.224 867.755 446.814 868.475 446.498C869.008 446.214 869.712 445.803 870.589 445.267C875.233 445.249 879.829 444.949 884.377 444.367C888.924 443.785 893.566 443.187 898.302 442.573C899.019 441.097 899.751 439.715 900.5 438.426C901.28 437.326 901.951 436.148 902.511 434.892C902.663 433.512 903.223 432.256 904.192 431.123C904.972 430.023 905.769 429.017 906.582 428.104C906.449 426.193 906.521 424.343 906.797 422.555C906.917 420.987 906.661 419.483 906.028 418.044C905.303 417.2 904.955 416.292 904.983 415.32C905.071 413.564 904.876 411.857 904.4 410.197C903.703 408.381 903.022 406.66 902.357 405.032L901.78 401.649C900.211 401.529 898.658 401.504 897.12 401.573C895.551 401.454 894.046 401.71 892.605 402.343C891.788 402.095 891.065 401.832 890.437 401.552C889.776 401.084 889.021 400.633 888.173 400.197C887.296 400.733 886.419 401.27 885.543 401.806C884.666 402.342 883.695 402.895 882.63 403.463C880.556 402.656 878.136 401.521 875.37 400.059C874.801 398.995 874.469 398.181 874.373 397.617C874.02 395.55 873.667 393.482 873.315 391.414C872.93 389.159 872.468 387.013 871.927 384.977L871.783 384.132C872.215 382.124 872.193 380.29 871.716 378.63C871.24 376.97 870.935 375.185 870.803 373.273L870.178 369.607C869.064 365.348 868.249 361.135 867.732 356.968C866.995 352.644 866.352 348.305 865.803 343.95L863.202 340.621C863.23 339.649 863.258 338.677 863.286 337.705C863.314 336.733 863.342 335.761 863.37 334.789C863.021 333.882 862.689 333.068 862.373 332.348C861.868 331.66 861.442 330.863 861.093 329.955C860.965 329.203 860.963 328.623 861.087 328.215C861.643 325.799 861.667 323.667 861.159 321.819L860.437 317.59C860.309 316.838 860.401 316.242 860.713 315.802C860.994 315.174 861.07 314.484 860.941 313.732C860.689 313.388 860.451 312.558 860.226 311.243C860.222 310.083 860.218 308.923 860.214 307.763C860.21 306.603 860.3 305.427 860.484 304.235C861.264 303.135 862.251 302.676 863.444 302.86C864.605 302.855 865.64 302.679 866.549 302.331C867.425 301.794 868.428 301.43 869.557 301.237C870.686 301.045 871.909 300.836 873.226 300.612C874.415 299.635 875.872 299.097 877.598 298.996C879.103 298.739 880.56 298.201 881.969 297.38C882.562 296.312 882.746 295.12 882.521 293.804C882.109 292.52 882.137 291.549 882.605 290.888C882.853 290.072 882.693 289.133 882.124 288.069C881.524 286.817 881.331 285.689 881.548 284.685C880.635 283.874 880.428 283.232 880.929 282.76C881.429 282.288 881.301 281.536 880.544 280.504C879.819 279.661 879.361 278.675 879.169 277.547C878.944 276.231 878.392 275.262 877.511 274.638C877.071 274.326 876.88 273.778 876.94 272.994C876.78 272.055 876.542 271.225 876.225 270.505C875.785 270.193 874.906 270.15 873.589 270.374C872.24 270.411 871.439 270.257 871.187 269.913C870.274 269.102 869.315 268.588 868.31 268.373C867.117 268.189 865.908 267.912 864.683 267.54C864.307 267.604 863.836 267.685 863.272 267.781C862.675 267.689 862.001 267.707 861.248 267.836C859.743 268.092 858.144 268.365 856.45 268.654C854.757 268.943 853.142 269.121 851.604 269.19C850.035 269.071 848.482 269.045 846.944 269.114C845.375 268.995 843.727 268.985 842.002 269.086C840.244 268.999 838.567 269.382 836.97 270.234C834.652 271.403 831.625 271.823 827.89 271.492C827.106 271.433 826.415 271.357 825.818 271.265C825.222 271.174 824.719 271.066 824.311 270.942C823.026 271.354 821.929 271.735 821.02 272.083C819.924 272.464 818.999 272.718 818.246 272.846C817.682 272.943 817.101 272.945 816.505 272.853C815.72 272.794 815.139 272.796 814.763 272.86C812.882 273.181 811.204 273.564 809.731 274.008C808.038 274.297 806.376 274.774 804.747 275.438C801.268 276.612 798.102 277.345 795.247 277.638C794.274 277.611 793.522 277.739 792.989 278.023C792.237 278.152 791.766 278.232 791.578 278.264C790.293 278.676 789.432 279.307 788.996 280.155C788.34 280.847 787.855 281.413 787.543 281.853C785.045 285.374 784.916 288.588 787.154 291.495C787.374 291.651 787.58 292.293 787.773 293.42C787.649 293.828 787.635 294.314 787.731 294.878C787.607 295.286 787.515 295.882 787.455 296.666Z" fill="#FFE1BE"/>
<path d="M834.662 253.651C834.581 253.576 834.501 253.54 834.422 253.543L834.544 253.655C834.234 253.821 834.01 254.179 833.871 254.729C833.811 255.276 833.627 255.672 833.321 255.916C833.25 256.152 832.986 256.511 832.53 256.994C832.073 257.476 831.726 257.683 831.487 257.613C830.378 257.417 829.08 257.461 827.593 257.745C827.365 257.987 827.137 258.228 826.908 258.469C826.68 258.711 826.375 258.994 825.992 259.318C825.913 259.321 825.836 259.362 825.76 259.443C825.681 259.445 825.563 259.449 825.406 259.455C825.172 259.541 824.82 259.591 824.347 259.608C821.827 259.615 819.365 260.166 816.96 261.26C816.414 261.435 815.828 261.571 815.201 261.67C814.572 261.692 813.939 261.597 813.301 261.385C812.821 261.168 812.345 261.067 811.873 261.083C811.477 261.019 811.044 261.033 810.575 261.127C809.552 261.162 808.564 261.04 807.609 260.761C807.218 260.852 806.788 260.945 806.319 261.038C805.928 261.13 805.538 261.26 805.15 261.429C804.762 261.597 804.375 261.805 803.99 262.052C803.607 262.376 803.178 262.508 802.703 262.446C802.62 262.293 802.496 262.142 802.334 261.992C802.168 261.764 802.002 261.497 801.834 261.191C801.674 261.119 801.475 261.048 801.236 260.978C800.995 260.83 800.794 260.72 800.634 260.648C799.606 260.527 798.65 260.209 797.766 259.695C796.56 258.957 795.399 258.413 794.285 258.061C793.729 257.925 793.248 257.668 792.841 257.293C792.511 256.837 792.143 256.46 791.739 256.163C791.399 255.396 791.098 254.666 790.839 253.974C790.579 253.283 790.397 252.549 790.292 251.774C790.05 251.627 789.848 251.478 789.686 251.328C789.521 251.1 789.357 250.911 789.194 250.761C788.712 250.466 788.466 250.201 788.458 249.968C788.356 249.271 788.102 248.735 787.695 248.359C787.289 247.984 786.916 247.451 786.578 246.762C786.573 246.607 786.525 246.375 786.436 246.066C786.426 245.755 786.376 245.446 786.287 245.137C786.282 244.982 786.275 244.787 786.267 244.554C786.257 244.243 786.209 244.011 786.125 243.858C785.79 243.247 785.455 242.674 785.122 242.141C784.787 241.529 784.491 240.955 784.237 240.419C784.224 240.03 784.283 239.444 784.414 238.661C784.752 237.015 784.659 235.422 784.135 233.883C783.88 233.347 783.704 232.808 783.607 232.266C783.51 231.724 783.374 231.184 783.198 230.645C783.272 230.487 783.344 230.29 783.415 230.054C783.561 229.737 783.711 229.499 783.863 229.338L782.954 226.916C782.784 226.533 782.536 226.191 782.211 225.891C781.961 225.51 781.714 225.168 781.467 224.865C781.367 224.245 781.466 223.658 781.762 223.103C782.137 222.545 782.355 221.993 782.415 221.446C782.407 221.213 782.36 220.981 782.273 220.75C782.265 220.517 782.258 220.283 782.25 220.05C782.85 219.173 783.213 218.266 783.339 217.327C783.544 216.386 783.668 215.409 783.713 214.395C784.253 214.065 784.713 213.699 785.094 213.297C785.474 212.895 785.732 212.38 785.869 211.752C785.939 211.516 785.97 211.243 785.959 210.932C786.027 210.618 786.095 210.304 786.164 209.991C786.536 209.355 786.908 208.72 787.281 208.084C787.729 207.368 788.141 206.731 788.516 206.174C788.66 205.78 788.764 205.348 788.827 204.879C788.968 204.407 789.191 204.01 789.495 203.688C789.881 203.441 790.146 203.121 790.29 202.727C790.513 202.33 790.696 201.934 790.841 201.54C791.389 201.444 791.857 201.311 792.245 201.142C792.633 200.973 792.983 200.844 793.295 200.756C793.681 200.509 793.87 200.269 793.862 200.036C794.061 198.939 794.507 198.146 795.199 197.655C795.968 197.084 796.82 196.666 797.756 196.4C798.068 196.312 798.342 196.263 798.578 196.255C798.812 196.17 799.124 196.081 799.515 195.99C799.667 195.829 799.857 195.628 800.085 195.387C800.311 195.068 800.536 194.748 800.762 194.429C801.228 194.258 801.656 194.088 802.044 193.919C802.511 193.747 802.899 193.578 803.208 193.412L804.035 193.384C804.672 193.596 805.309 193.807 805.946 194.019C806.66 194.151 807.414 194.32 808.208 194.526C808.835 194.427 809.461 194.289 810.085 194.112C810.785 193.855 811.452 193.793 812.087 193.927C812.166 193.925 812.246 193.961 812.327 194.036C812.406 194.033 812.483 193.992 812.559 193.911C813.11 193.892 813.658 193.796 814.204 193.622C814.749 193.447 815.298 193.39 815.852 193.449C816.324 193.433 816.795 193.378 817.264 193.284C817.812 193.187 818.318 193.015 818.783 192.765C819.173 192.674 819.526 192.623 819.841 192.612C820.232 192.521 820.626 192.547 821.025 192.689C821.269 192.914 821.513 193.139 821.757 193.365C821.998 193.512 822.281 193.736 822.606 194.036C823.238 194.093 823.912 194.226 824.628 194.435C825.42 194.563 826.214 194.731 827.008 194.938C827.404 195.002 827.765 195.184 828.09 195.485C828.494 195.782 828.974 196 829.53 196.136C830.007 196.276 830.483 196.376 830.958 196.438C831.509 196.419 832.059 196.401 832.61 196.382C833.911 197.583 835.435 198.388 837.181 198.796C837.341 198.868 837.501 198.94 837.661 199.013C837.821 199.085 837.981 199.158 838.141 199.23C838.789 199.753 839.399 200.316 839.971 200.919C840.618 201.442 841.227 201.967 841.796 202.492C842.368 203.096 842.705 203.746 842.807 204.443C843.455 204.966 843.823 205.382 843.913 205.69C844.078 205.918 844.181 206.654 844.223 207.898C844.703 208.116 845.145 208.373 845.549 208.671C845.95 208.891 846.2 209.271 846.297 209.813C846.465 210.119 846.632 210.424 846.8 210.73C846.965 210.958 847.093 211.226 847.182 211.535C847.428 211.838 847.674 212.102 847.917 212.327C848.237 212.472 848.56 212.694 848.885 212.995C849.14 213.531 849.355 214.069 849.53 214.608C849.704 215.069 849.722 215.613 849.586 216.241C849.447 216.791 849.427 217.375 849.527 217.995C849.626 218.614 849.649 219.275 849.594 219.978C849.536 220.602 849.558 221.263 849.66 221.961C849.763 222.658 849.864 223.316 849.963 223.935C850.053 224.244 850.104 224.592 850.117 224.981C850.127 225.292 850.176 225.563 850.263 225.794C850.596 226.327 850.771 226.866 850.79 227.411C850.887 227.952 850.905 228.497 850.845 229.044C850.855 229.355 850.866 229.666 850.876 229.977C850.963 230.208 851.013 230.517 851.026 230.906C850.745 231.928 850.505 232.987 850.306 234.084C850.104 235.103 849.783 236.087 849.342 237.036C848.899 237.907 848.456 238.779 848.013 239.65C847.57 240.522 847.047 241.357 846.443 242.156L846.51 244.139C846.125 244.386 845.741 244.671 845.358 244.996C845.051 245.24 844.782 245.444 844.551 245.607C844.032 246.559 843.707 247.427 843.576 248.21C843.521 248.912 843.386 249.578 843.171 250.209C842.866 250.53 842.562 250.852 842.258 251.174C841.954 251.496 841.61 251.819 841.227 252.143C840.845 252.468 840.382 252.756 839.839 253.008C839.372 253.179 838.82 253.159 838.183 252.947C837.469 252.816 836.881 252.875 836.416 253.124C836.104 253.213 835.792 253.301 835.48 253.39C835.168 253.478 834.895 253.565 834.662 253.651ZM831.884 227.353C831.713 226.97 831.583 226.624 831.494 226.316C831.481 225.927 831.428 225.539 831.337 225.153C831.316 224.531 831.259 224.027 831.167 223.641C830.989 223.024 830.731 222.371 830.392 221.682C830.13 220.912 829.83 220.183 829.491 219.494C829.402 219.185 829.234 218.88 828.988 218.577C828.817 218.193 828.648 217.849 828.48 217.543C827.809 216.32 826.801 215.615 825.455 215.427C825.217 215.357 824.939 215.289 824.621 215.222C824.301 215.077 824.021 214.931 823.779 214.783C823.297 214.488 822.817 214.271 822.34 214.132C821.862 213.992 821.386 213.892 820.912 213.83C820.277 213.696 819.603 213.563 818.89 213.432C818.174 213.222 817.5 213.09 816.867 213.033C816.068 212.671 815.321 212.736 814.629 213.226C812.534 214.154 810.644 215.347 808.961 216.806C807.274 218.187 805.841 220.065 804.661 222.441C804.436 222.76 804.211 223.118 803.988 223.515C803.844 223.909 803.7 224.303 803.556 224.697C803.254 225.097 802.993 225.534 802.773 226.008C802.55 226.405 802.366 226.801 802.222 227.195C802.322 227.814 802.614 228.31 803.1 228.683C803.585 229.056 803.877 229.552 803.977 230.171C803.987 230.482 803.88 230.798 803.654 231.117C803.426 231.358 803.278 231.635 803.21 231.949C803.378 232.255 803.586 232.598 803.835 232.979C804.084 233.36 804.294 233.742 804.465 234.125C804.714 234.506 804.886 234.928 804.98 235.392C805.151 235.776 805.283 236.2 805.378 236.663C805.548 237.047 805.679 237.432 805.771 237.818C805.941 238.201 806.073 238.586 806.164 238.972L807.86 240.199C808.101 240.347 808.345 240.572 808.592 240.875C808.914 241.098 809.236 241.281 809.555 241.426C810.507 241.627 811.341 241.832 812.057 242.042C812.692 242.176 813.245 242.235 813.718 242.219C814.19 242.203 814.701 242.185 815.252 242.166C815.252 242.166 815.212 242.168 815.134 242.17C815.134 242.17 815.135 242.209 815.138 242.287L815.374 242.279C815.295 242.282 815.254 242.244 815.252 242.166C815.404 242.006 815.598 241.921 815.834 241.913C816.067 241.827 816.263 241.782 816.42 241.776C816.892 241.76 817.366 241.783 817.84 241.845C818.391 241.826 818.94 241.768 819.488 241.672C819.641 241.511 819.837 241.504 820.079 241.652C820.396 241.719 820.674 241.787 820.913 241.857C821.227 241.846 821.461 241.761 821.613 241.6C821.602 241.289 821.554 241.018 821.467 240.787C821.459 240.554 821.571 240.355 821.802 240.192C822.806 239.613 823.775 239.152 824.709 238.808C825.092 238.484 825.397 238.201 825.625 237.96C825.932 237.716 826.198 237.434 826.424 237.115C826.733 236.949 826.963 236.746 827.112 236.508C827.34 236.266 827.61 236.102 827.922 236.013C828.623 235.756 829.202 235.425 829.661 235.02C830.196 234.534 830.692 234.05 831.148 233.568C831.222 233.41 831.257 233.292 831.254 233.214C831.328 233.056 831.401 232.897 831.475 232.739C832.28 230.921 832.416 229.126 831.884 227.353Z" fill="#FFE1BE"/>
</g>
</g>
<defs>
<clipPath id="clip0_524_757">
<rect width="1240" height="470" rx="55" fill="white"/>
</clipPath>
</defs>
</svg>
