<svg width="25" height="25" viewBox="0 0 25 25" fill="none" xmlns="http://www.w3.org/2000/svg">
<path d="M12.0996 0C11.2074 0 10.3151 0.339406 9.63618 1.01835L5.30095 5.35358H5.43185C6.53732 5.35358 7.57261 5.78064 8.35601 6.56405L11.3941 9.60211C11.7858 9.9851 12.4134 9.9851 12.8051 9.60211L15.8432 6.56405C16.6266 5.78064 17.6619 5.35358 18.7674 5.35358H18.8983L14.563 1.01835C13.8841 0.339406 12.9918 0 12.0996 0ZM3.99528 6.65925L1.01842 9.63611C-0.339474 10.994 -0.339474 13.2051 1.01842 14.563L3.99528 17.5398H5.43185C6.18914 17.5398 6.90359 17.2446 7.43456 16.7136L10.4726 13.6755C11.3692 12.779 12.83 12.779 13.7266 13.6755L16.7647 16.7136C17.2956 17.2446 18.0101 17.5398 18.7674 17.5398H20.2039L23.1808 14.563C24.5387 13.2051 24.5387 10.994 23.1808 9.63611L20.2039 6.65925H18.7674C18.0101 6.65925 17.2956 6.95452 16.7647 7.48549L13.7266 10.5236C13.2827 10.9675 12.6915 11.1951 12.0996 11.1951C11.5077 11.1951 10.9165 10.9675 10.4726 10.5236L7.43456 7.48549C6.90359 6.95452 6.18914 6.65925 5.43185 6.65925H3.99528ZM12.0996 14.3097C11.845 14.3097 11.5899 14.4055 11.3941 14.597L8.35601 17.635C7.57261 18.4184 6.53732 18.8455 5.43185 18.8455H5.30095L9.63618 23.1807C10.9941 24.5386 13.2051 24.5386 14.563 23.1807L18.8983 18.8455H18.7674C17.6619 18.8455 16.6266 18.4184 15.8432 17.635L12.8051 14.597C12.6093 14.4055 12.3542 14.3097 12.0996 14.3097Z" fill="#FF355A"/>
</svg>
