<svg width="18" height="21" viewBox="0 0 18 21" fill="none" xmlns="http://www.w3.org/2000/svg">
<path d="M9.21742 0.0168376C10.3199 6.33299e-08 11.4144 0.00875554 12.5082 0C12.5445 1.36788 13.0995 2.59905 13.9825 3.51097L13.9811 3.50962C14.9314 4.36565 16.168 4.92061 17.5311 5.0149L17.55 5.01625V8.40801C16.2623 8.37568 15.0513 8.07867 13.9596 7.56815L14.0148 7.59105C13.4868 7.33714 13.0402 7.0765 12.6159 6.78554L12.6509 6.80844C12.6429 9.26606 12.659 11.7237 12.6341 14.1725C12.5647 15.4205 12.1499 16.5587 11.4844 17.5091L11.4979 17.4882C10.3853 19.0817 8.58298 20.1276 6.53351 20.1896H6.52408C6.44124 20.1936 6.34358 20.1957 6.24525 20.1957C5.08009 20.1957 3.99104 19.871 3.06295 19.3073L3.08989 19.3228C1.40075 18.3065 0.235586 16.5675 0.0200648 14.545L0.0173709 14.5174C0.000533281 14.0964 -0.00754881 13.6755 0.00928876 13.2633C0.339305 10.0446 3.03601 7.55468 6.31395 7.55468C6.68236 7.55468 7.04335 7.58634 7.39425 7.64628L7.35653 7.64089C7.37337 8.8862 7.32286 10.1322 7.32286 11.3775C7.03797 11.2744 6.7093 11.2145 6.36648 11.2145C5.10838 11.2145 4.03818 12.0187 3.64216 13.1414L3.6361 13.1616C3.54653 13.4492 3.49467 13.7799 3.49467 14.122C3.49467 14.2608 3.50342 14.3981 3.51959 14.5328L3.51824 14.5167C3.74184 15.8947 4.92317 16.9346 6.34763 16.9346C6.38871 16.9346 6.42912 16.9339 6.46953 16.9319H6.46347C7.4488 16.9022 8.30415 16.3722 8.78773 15.5889L8.79446 15.5768C8.97429 15.3262 9.09754 15.0232 9.13862 14.6938L9.1393 14.6844C9.22348 13.1778 9.18981 11.6799 9.19789 10.1733C9.20597 6.7815 9.18981 3.39782 9.21473 0.0148171L9.21742 0.0168376Z" fill="#9E5B34"/>
</svg>
