<svg width="499" height="469" viewBox="0 0 499 469" fill="none" xmlns="http://www.w3.org/2000/svg">
<g clip-path="url(#clip0_458_1444)">
<path d="M29.2272 54.968C44.4062 54.968 56.7112 42.663 56.7112 27.484C56.7112 12.305 44.4062 0 29.2272 0C14.0482 0 1.74316 12.305 1.74316 27.484C1.74316 42.663 14.0482 54.968 29.2272 54.968Z" fill="#FCD8B3"/>
<path d="M84.1949 54.9685C99.3739 54.9685 111.679 42.6635 111.679 27.4845C111.679 12.3055 99.3739 0.000488281 84.1949 0.000488281C69.0159 0.000488281 56.7109 12.3055 56.7109 27.4845C56.7109 42.6635 69.0159 54.9685 84.1949 54.9685Z" fill="#FCD8B3"/>
<path d="M139.163 54.9685C154.342 54.9685 166.647 42.6635 166.647 27.4845C166.647 12.3055 154.342 0.000488281 139.163 0.000488281C123.984 0.000488281 111.679 12.3055 111.679 27.4845C111.679 42.6635 123.984 54.9685 139.163 54.9685Z" fill="#FCD8B3"/>
<path d="M194.131 54.9685C209.31 54.9685 221.615 42.6635 221.615 27.4845C221.615 12.3055 209.31 0.000488281 194.131 0.000488281C178.952 0.000488281 166.647 12.3055 166.647 27.4845C166.647 42.6635 178.952 54.9685 194.131 54.9685Z" fill="#FCD8B3"/>
<path d="M249.099 54.9685C264.278 54.9685 276.583 42.6635 276.583 27.4845C276.583 12.3055 264.278 0.000488281 249.099 0.000488281C233.92 0.000488281 221.615 12.3055 221.615 27.4845C221.615 42.6635 233.92 54.9685 249.099 54.9685Z" fill="#FCD8B3"/>
<path d="M304.067 54.9685C319.246 54.9685 331.551 42.6635 331.551 27.4845C331.551 12.3055 319.246 0.000488281 304.067 0.000488281C288.888 0.000488281 276.583 12.3055 276.583 27.4845C276.583 42.6635 288.888 54.9685 304.067 54.9685Z" fill="#FCD8B3"/>
<path d="M359.035 54.9685C374.214 54.9685 386.519 42.6635 386.519 27.4845C386.519 12.3055 374.214 0.000488281 359.035 0.000488281C343.856 0.000488281 331.551 12.3055 331.551 27.4845C331.551 42.6635 343.856 54.9685 359.035 54.9685Z" fill="#FCD8B3"/>
<path d="M414.003 54.9685C429.182 54.9685 441.487 42.6635 441.487 27.4845C441.487 12.3055 429.182 0.000488281 414.003 0.000488281C398.824 0.000488281 386.519 12.3055 386.519 27.4845C386.519 42.6635 398.824 54.9685 414.003 54.9685Z" fill="#FCD8B3"/>
<path d="M468.971 54.9685C484.15 54.9685 496.455 42.6635 496.455 27.4845C496.455 12.3055 484.15 0.000488281 468.971 0.000488281C453.792 0.000488281 441.487 12.3055 441.487 27.4845C441.487 42.6635 453.792 54.9685 468.971 54.9685Z" fill="#FCD8B3"/>
<path d="M84.1949 468.031C99.3739 468.031 111.679 455.726 111.679 440.547C111.679 425.368 99.3739 413.063 84.1949 413.063C69.0159 413.063 56.7109 425.368 56.7109 440.547C56.7109 455.726 69.0159 468.031 84.1949 468.031Z" fill="#FCD8B3"/>
<path d="M139.163 468.031C154.342 468.031 166.647 455.726 166.647 440.547C166.647 425.368 154.342 413.063 139.163 413.063C123.984 413.063 111.679 425.368 111.679 440.547C111.679 455.726 123.984 468.031 139.163 468.031Z" fill="#FCD8B3"/>
<path d="M194.131 468.031C209.31 468.031 221.615 455.726 221.615 440.547C221.615 425.368 209.31 413.063 194.131 413.063C178.952 413.063 166.647 425.368 166.647 440.547C166.647 455.726 178.952 468.031 194.131 468.031Z" fill="#FCD8B3"/>
<path d="M249.099 468.031C264.278 468.031 276.583 455.726 276.583 440.547C276.583 425.368 264.278 413.063 249.099 413.063C233.92 413.063 221.615 425.368 221.615 440.547C221.615 455.726 233.92 468.031 249.099 468.031Z" fill="#FCD8B3"/>
<path d="M304.067 468.031C319.246 468.031 331.551 455.726 331.551 440.547C331.551 425.368 319.246 413.063 304.067 413.063C288.888 413.063 276.583 425.368 276.583 440.547C276.583 455.726 288.888 468.031 304.067 468.031Z" fill="#FCD8B3"/>
<path d="M359.035 468.031C374.214 468.031 386.519 455.726 386.519 440.547C386.519 425.368 374.214 413.063 359.035 413.063C343.856 413.063 331.551 425.368 331.551 440.547C331.551 455.726 343.856 468.031 359.035 468.031Z" fill="#FCD8B3"/>
<path d="M414.003 468.031C429.182 468.031 441.487 455.726 441.487 440.547C441.487 425.368 429.182 413.063 414.003 413.063C398.824 413.063 386.519 425.368 386.519 440.547C386.519 455.726 398.824 468.031 414.003 468.031Z" fill="#FCD8B3"/>
<path d="M440.546 29.6287C440.546 45.7702 453.632 58.8554 469.773 58.8554C485.915 58.8554 499 45.7702 499 29.6287C499 13.4871 485.915 0.401855 469.773 0.401855C453.632 0.401855 440.546 13.4871 440.546 29.6287Z" fill="#FCD8B3"/>
<path d="M440.546 88.0818C440.546 104.223 453.632 117.309 469.773 117.309C485.915 117.309 499 104.223 499 88.0818C499 71.9403 485.915 58.855 469.773 58.855C453.632 58.855 440.546 71.9403 440.546 88.0818Z" fill="#FCD8B3"/>
<path d="M440.546 146.536C440.546 162.677 453.632 175.763 469.773 175.763C485.915 175.763 499 162.677 499 146.536C499 130.394 485.915 117.309 469.773 117.309C453.632 117.309 440.546 130.394 440.546 146.536Z" fill="#FCD8B3"/>
<path d="M440.546 204.99C440.546 221.132 453.632 234.217 469.773 234.217C485.915 234.217 499 221.132 499 204.99C499 188.848 485.915 175.763 469.773 175.763C453.632 175.763 440.546 188.848 440.546 204.99Z" fill="#FCD8B3"/>
<path d="M440.546 263.443C440.546 279.585 453.632 292.67 469.773 292.67C485.915 292.67 499 279.585 499 263.443C499 247.302 485.915 234.216 469.773 234.216C453.632 234.216 440.546 247.302 440.546 263.443Z" fill="#FCD8B3"/>
<path d="M440.546 321.897C440.546 338.039 453.632 351.124 469.773 351.124C485.915 351.124 499 338.039 499 321.897C499 305.756 485.915 292.67 469.773 292.67C453.632 292.67 440.546 305.756 440.546 321.897Z" fill="#FCD8B3"/>
<path d="M440.546 380.35C440.546 396.491 453.632 409.577 469.773 409.577C485.915 409.577 499 396.491 499 380.35C499 364.208 485.915 351.123 469.773 351.123C453.632 351.123 440.546 364.208 440.546 380.35Z" fill="#FCD8B3"/>
<path d="M440.546 438.804C440.546 454.945 453.632 468.031 469.773 468.031C485.915 468.031 499 454.945 499 438.804C499 422.662 485.915 409.577 469.773 409.577C453.632 409.577 440.546 422.662 440.546 438.804Z" fill="#FCD8B3"/>
<path d="M-0.000473022 29.6287C-0.000473022 45.7702 13.0848 58.8555 29.2263 58.8555C45.3678 58.8555 58.4531 45.7702 58.4531 29.6287C58.4531 13.4871 45.3678 0.401855 29.2263 0.401855C13.0848 0.401855 -0.000473022 13.4871 -0.000473022 29.6287Z" fill="#FCD8B3"/>
<path d="M-0.000476837 88.0818C-0.000476837 104.223 13.0848 117.309 29.2263 117.309C45.3678 117.309 58.4531 104.223 58.4531 88.0818C58.4531 71.9403 45.3678 58.855 29.2263 58.855C13.0848 58.855 -0.000476837 71.9403 -0.000476837 88.0818Z" fill="#FCD8B3"/>
<path d="M-0.000480652 146.536C-0.000480652 162.677 13.0848 175.763 29.2263 175.763C45.3678 175.763 58.4531 162.677 58.4531 146.536C58.4531 130.394 45.3678 117.309 29.2263 117.309C13.0848 117.309 -0.000480652 130.394 -0.000480652 146.536Z" fill="#FCD8B3"/>
<path d="M-0.000473022 204.99C-0.000473022 221.132 13.0848 234.217 29.2263 234.217C45.3678 234.217 58.4531 221.132 58.4531 204.99C58.4531 188.848 45.3678 175.763 29.2263 175.763C13.0848 175.763 -0.000473022 188.848 -0.000473022 204.99Z" fill="#FCD8B3"/>
<path d="M-0.000473022 263.443C-0.000473022 279.585 13.0848 292.67 29.2263 292.67C45.3678 292.67 58.4531 279.585 58.4531 263.443C58.4531 247.302 45.3678 234.216 29.2263 234.216C13.0848 234.216 -0.000473022 247.302 -0.000473022 263.443Z" fill="#FCD8B3"/>
<path d="M-0.000488281 321.897C-0.000488281 338.039 13.0848 351.124 29.2263 351.124C45.3678 351.124 58.4531 338.039 58.4531 321.897C58.4531 305.756 45.3678 292.67 29.2263 292.67C13.0848 292.67 -0.000488281 305.756 -0.000488281 321.897Z" fill="#FCD8B3"/>
<path d="M-0.000488281 380.35C-0.000488281 396.491 13.0848 409.577 29.2263 409.577C45.3678 409.577 58.4531 396.491 58.4531 380.35C58.4531 364.208 45.3678 351.123 29.2263 351.123C13.0848 351.123 -0.000488281 364.208 -0.000488281 380.35Z" fill="#FCD8B3"/>
<path d="M-0.000457764 438.804C-0.000457764 454.945 13.0848 468.031 29.2263 468.031C45.3679 468.031 58.4531 454.945 58.4531 438.804C58.4531 422.662 45.3679 409.577 29.2263 409.577C13.0848 409.577 -0.000457764 422.662 -0.000457764 438.804Z" fill="#FCD8B3"/>
<path d="M469 27H29V449H469V27Z" fill="#FCD8B3"/>
</g>
<defs>
<clipPath id="clip0_458_1444">
<rect width="499" height="469" fill="white"/>
</clipPath>
</defs>
</svg>
