<svg width="1440" height="957" viewBox="0 0 1440 957" fill="none" xmlns="http://www.w3.org/2000/svg">
<ellipse cx="24.8453" cy="92.7407" rx="87.2691" ry="92.7407" fill="#FF355A"/>
<ellipse cx="199.384" cy="92.7407" rx="87.2691" ry="92.7407" fill="#FF355A"/>
<ellipse cx="373.921" cy="92.7407" rx="87.2691" ry="92.7407" fill="#FF355A"/>
<ellipse cx="548.461" cy="92.7407" rx="87.2691" ry="92.7407" fill="#FF355A"/>
<ellipse cx="723.003" cy="92.7407" rx="87.2691" ry="92.7407" fill="#FF355A"/>
<ellipse cx="897.535" cy="92.7407" rx="87.2691" ry="92.7407" fill="#FF355A"/>
<ellipse cx="1072.08" cy="92.7407" rx="87.2691" ry="92.7407" fill="#FF355A"/>
<ellipse cx="1246.62" cy="92.7407" rx="87.2691" ry="92.7407" fill="#FF355A"/>
<ellipse cx="1421.15" cy="92.7407" rx="87.2691" ry="92.7407" fill="#FF355A"/>
<ellipse cx="24.8453" cy="864.26" rx="87.2691" ry="92.7407" fill="#FF355A"/>
<ellipse cx="199.384" cy="864.26" rx="87.2691" ry="92.7407" fill="#FF355A"/>
<ellipse cx="373.921" cy="864.26" rx="87.2691" ry="92.7407" fill="#FF355A"/>
<ellipse cx="548.461" cy="864.26" rx="87.2691" ry="92.7407" fill="#FF355A"/>
<ellipse cx="723.003" cy="864.26" rx="87.2691" ry="92.7407" fill="#FF355A"/>
<ellipse cx="897.535" cy="864.26" rx="87.2691" ry="92.7407" fill="#FF355A"/>
<ellipse cx="1072.08" cy="864.26" rx="87.2691" ry="92.7407" fill="#FF355A"/>
<ellipse cx="1246.62" cy="864.26" rx="87.2691" ry="92.7407" fill="#FF355A"/>
<ellipse cx="1421.15" cy="864.26" rx="87.2691" ry="92.7407" fill="#FF355A"/>
<rect x="-237" y="79.7024" width="1920" height="784.271" fill="#FF355A"/>
</svg>
