<svg width="248" height="248" viewBox="0 0 248 248" fill="none" xmlns="http://www.w3.org/2000/svg">
<circle cx="124" cy="124" r="124" fill="#00C4D8"/>
<path d="M103.692 118.122C103.807 118.295 103.836 118.497 103.778 118.727C103.721 118.9 103.634 119.073 103.519 119.246C103.346 119.361 103.173 119.534 103.001 119.764C102.828 119.937 102.626 120.081 102.395 120.197C102.05 120.427 101.704 120.686 101.358 120.975C101.012 121.263 100.667 121.551 100.321 121.839C99.5717 122.415 98.909 122.992 98.3327 123.568C97.814 124.086 97.1801 124.807 96.431 125.729C96.3157 125.844 96.1716 125.959 95.9988 126.075C95.8835 126.247 95.7394 126.392 95.5665 126.507C95.5089 126.564 95.3937 126.622 95.2208 126.68C95.1055 126.737 94.9903 126.795 94.875 126.853C94.8174 126.795 94.7309 126.737 94.6157 126.68C94.5004 126.68 94.3852 126.651 94.2699 126.593C93.8089 126.132 93.3191 125.671 92.8004 125.21C92.3394 124.749 91.8496 124.317 91.3309 123.914C90.5817 123.395 89.919 122.819 89.3428 122.185C88.7665 121.493 88.1614 120.83 87.5275 120.197C87.3546 120.024 87.2105 119.822 87.0953 119.591C87.0376 119.303 86.9512 119.044 86.836 118.814C86.6054 118.698 86.3461 118.583 86.058 118.468C85.8275 118.295 85.597 118.122 85.3664 117.949C85.1359 117.719 84.9054 117.459 84.6749 117.171C84.502 116.883 84.3291 116.595 84.1563 116.307C83.8681 115.846 83.58 115.413 83.2918 115.01C83.0037 114.607 82.6579 114.203 82.2545 113.8C82.024 113.512 81.8512 113.195 81.7359 112.849C81.6206 112.503 81.3901 112.215 81.0444 111.985C80.6986 111.869 80.324 111.783 79.9206 111.725C79.5172 111.61 79.1427 111.524 78.7969 111.466C78.2782 111.581 77.8748 111.956 77.5867 112.59C76.8375 114.203 75.5985 115.529 73.8697 116.566C73.4087 116.854 73.0053 117.229 72.6595 117.69C72.3138 118.151 71.9104 118.612 71.4494 119.073C70.7578 120.168 69.9222 121.119 68.9425 121.925C68.0205 122.732 66.9832 123.481 65.8306 124.173C65.6578 124.346 65.4561 124.519 65.2256 124.692C64.995 124.864 64.7357 125.066 64.4476 125.297L61.7679 126.161C60.8459 125.758 60.0679 125.181 59.434 124.432C58.8577 123.683 58.1662 123.107 57.3594 122.703C56.8984 122.012 56.5238 121.32 56.2356 120.629C55.9475 119.937 55.717 119.246 55.5441 118.554C55.8322 117.92 56.0916 117.344 56.3221 116.825C56.6102 116.307 56.9272 115.875 57.2729 115.529C57.9645 115.01 58.3967 114.376 58.5696 113.627C58.8577 113.281 59.0882 112.907 59.2611 112.503C59.4916 112.388 59.6645 112.33 59.7797 112.33C59.9526 112.33 60.1255 112.302 60.2984 112.244C60.7018 112.129 60.9035 111.927 60.9035 111.639C60.9035 111.293 61.0187 111.063 61.2492 110.947C61.4798 110.774 61.7103 110.659 61.9408 110.602C62.1137 110.544 62.2577 110.544 62.373 110.602C62.5459 110.602 62.7188 110.573 62.8916 110.515C62.9493 110.4 63.0069 110.313 63.0645 110.256C63.1221 110.141 63.151 110.054 63.151 109.996C63.151 109.651 63.1798 109.334 63.2374 109.046C63.295 108.7 63.4679 108.412 63.7561 108.181C63.7561 107.547 63.9289 107.086 64.2747 106.798C64.6781 106.51 65.1103 106.193 65.5713 105.847C65.7442 105.386 65.9171 104.925 66.09 104.464C66.2629 104.003 66.4069 103.629 66.5222 103.34C66.7527 102.764 67.0696 102.361 67.473 102.13C67.8764 101.9 68.1069 101.554 68.1646 101.093C68.1069 101.035 68.0781 100.949 68.0781 100.834C67.79 100.546 67.473 100.257 67.1273 99.9693C66.8391 99.6235 66.551 99.2777 66.2629 98.932C65.9747 98.5862 65.7154 98.2404 65.4849 97.8947C65.2544 97.4913 64.9662 97.1455 64.6205 96.8574C64.39 96.6269 64.2171 96.3099 64.1018 95.9065C63.9866 95.5031 63.8137 95.2438 63.5832 95.1285C63.4103 94.9557 63.1798 94.8116 62.8916 94.6963C62.834 94.4082 62.7476 94.1489 62.6323 93.9184C62.5747 93.6878 62.5171 93.4285 62.4594 93.1404C62.4018 93.0828 62.3154 93.0251 62.2001 92.9675C62.0848 92.8522 61.9696 92.7658 61.8543 92.7082C61.2781 92.42 60.7594 92.0455 60.2984 91.5844C59.8374 91.0658 59.3763 90.6048 58.9153 90.2014C58.6848 90.0285 58.5119 89.8268 58.3967 89.5963C58.0509 88.7895 57.5899 88.098 57.0136 87.5217C56.4373 86.8878 55.8322 86.2251 55.1983 85.5335C54.9102 85.0149 54.6221 84.4674 54.3339 83.8911C54.0458 83.2572 53.7865 82.6233 53.5559 81.9894C53.3254 81.5284 53.0661 81.0674 52.778 80.6064C52.5475 80.0877 52.3458 79.5691 52.1729 79.0504C52.0576 78.9351 52 78.6758 52 78.2724C52.461 77.6385 53.0085 77.1487 53.6424 76.8029C54.2763 76.3995 54.7661 75.8809 55.1119 75.247C55.4577 75.1894 55.7746 75.1894 56.0628 75.247C56.4085 75.3046 56.6967 75.2182 56.9272 74.9877C57.1001 74.8148 57.3594 74.7283 57.7051 74.7283C58.4543 74.5554 59.2035 74.3537 59.9526 74.1232C60.7018 73.8351 61.4509 73.6334 62.2001 73.5181C62.3154 73.4605 62.4594 73.4029 62.6323 73.3453C62.8052 73.2876 62.9493 73.2588 63.0645 73.2588C63.8713 73.1436 64.5052 73.3164 64.9662 73.7775C65.0815 73.8927 65.1967 74.008 65.312 74.1232C65.4849 74.1809 65.6001 74.2673 65.6578 74.3826C66.0612 74.9588 66.4934 75.4775 66.9544 75.9385C67.473 76.3419 67.9917 76.7165 68.5103 77.0622C68.9137 77.9267 69.1731 78.5029 69.2883 78.7911C69.4036 79.0792 69.5476 79.3097 69.7205 79.4826C69.8934 79.5979 70.2392 79.8284 70.7578 80.1741C70.8154 80.2318 70.8731 80.3182 70.9307 80.4335C70.9883 80.4911 71.0171 80.5775 71.0171 80.6928C71.19 81.5572 71.6799 82.0759 72.4867 82.2487C72.8324 82.364 73.0341 82.4216 73.0917 82.4216C73.3799 82.6521 73.524 82.9691 73.524 83.3725C73.5816 83.7182 73.8121 84.0352 74.2155 84.3233C74.5612 84.3233 74.8494 84.4386 75.0799 84.6691C75.2528 84.7267 75.3969 84.7844 75.5121 84.842C75.685 84.842 75.8002 84.842 75.8579 84.842C76.3765 85.2454 76.6935 85.764 76.8087 86.3979C76.9816 86.9742 77.2986 87.4352 77.7596 87.781H78.1918C78.6528 87.6081 79.1138 87.4352 79.5749 87.2624C80.0359 87.0895 80.4969 86.9166 80.9579 86.7437C81.1884 86.4556 81.3901 86.1674 81.563 85.8793C81.7359 85.5911 81.9376 85.303 82.1681 85.0149C82.4562 84.5539 82.7732 84.0928 83.119 83.6318C83.4647 83.1132 83.8105 82.6521 84.1563 82.2487C84.502 81.7877 84.7614 81.2979 84.9342 80.7792C85.1071 80.2606 85.3376 79.7996 85.6258 79.3962C85.9139 78.9351 86.202 78.5318 86.4902 78.186C86.8359 77.7826 87.2105 77.3504 87.6139 76.8894C88.0173 75.6792 88.5936 74.5266 89.3428 73.4317C90.1495 72.3368 91.0716 71.3283 92.1089 70.4062C92.7428 70.6368 93.3191 70.8385 93.8377 71.0113C94.3564 71.1842 94.875 71.4435 95.3937 71.7893C96.0276 72.3656 96.892 72.7978 97.9869 73.0859C98.2751 73.1436 98.5344 73.23 98.7649 73.3453C98.9954 73.4605 99.2259 73.547 99.4564 73.6046C99.8598 73.9504 100.119 74.2961 100.234 74.6419C100.407 74.9877 100.551 75.3622 100.667 75.7656C100.782 75.8233 100.897 75.8809 101.012 75.9385C101.185 75.9961 101.329 76.0538 101.445 76.1114C101.56 76.3419 101.675 76.6012 101.79 76.8894C101.963 77.1199 102.107 77.3792 102.223 77.6673C102.395 77.8979 102.597 78.1284 102.828 78.3589C103.116 78.5318 103.289 78.7911 103.346 79.1368C103.289 79.425 103.173 79.7419 103.001 80.0877C102.885 80.3758 102.77 80.664 102.655 80.9521V82.7674C102.424 83.1708 102.136 83.4589 101.79 83.6318C101.502 83.7471 101.214 83.8911 100.926 84.064C100.868 84.1793 100.782 84.2945 100.667 84.4098C100.609 84.4674 100.523 84.5539 100.407 84.6691C100.062 85.303 99.6869 85.9081 99.2835 86.4844C98.9378 87.0607 98.5056 87.6369 97.9869 88.2132C97.6411 88.6166 97.3242 89.0488 97.0361 89.5098C96.7479 89.9709 96.431 90.4319 96.0852 90.8929V91.9302C95.8547 92.1607 95.5954 92.42 95.3072 92.7082C95.0767 92.9387 94.875 93.2268 94.7021 93.5726C94.4716 93.9184 94.2123 94.2065 93.9242 94.437C93.636 94.6675 93.4343 94.9845 93.3191 95.3879C93.1462 95.7913 92.8869 96.1082 92.5411 96.3387C92.1953 96.5116 91.9072 96.8862 91.6767 97.4625C91.619 97.693 91.5614 97.9811 91.5038 98.3269C91.5038 98.6726 91.4462 99.0472 91.3309 99.4506C92.714 101.237 93.9242 103.139 94.9615 105.156V106.193C95.2496 106.481 95.5089 106.741 95.7394 106.971C96.0276 107.202 96.2581 107.432 96.431 107.663C97.5259 109.046 98.6784 110.256 99.8886 111.293C100.119 111.524 100.321 111.783 100.494 112.071C100.724 112.302 100.839 112.59 100.839 112.935C100.897 113.166 101.012 113.397 101.185 113.627C101.358 113.858 101.473 114.059 101.531 114.232C101.992 114.808 102.367 115.442 102.655 116.134C102.943 116.825 103.289 117.488 103.692 118.122Z" fill="#FFF4E6"/>
<path d="M152.132 191.484C151.535 191.739 150.894 191.866 150.212 191.865C149.529 191.95 148.846 191.778 148.164 191.351C147.823 191.18 147.482 191.094 147.141 191.093C146.885 191.178 146.543 191.22 146.117 191.22C145.861 191.049 145.605 190.835 145.349 190.579C145.179 190.323 144.923 190.109 144.582 189.938C144.412 189.767 144.199 189.596 143.943 189.425C143.687 189.339 143.474 189.126 143.304 188.784C143.39 188.358 143.433 187.846 143.434 187.248C143.435 186.651 143.435 186.096 143.436 185.584C143.438 184.304 143.098 183.152 142.417 182.127C142.076 181.785 141.82 181.444 141.65 181.102C141.565 180.761 141.438 180.419 141.267 180.077C140.756 179.565 140.244 179.393 139.732 179.563L137.3 179.56C136.532 179.645 135.764 179.729 134.996 179.813C134.313 179.983 133.545 180.025 132.692 179.938C132.521 179.853 132.265 179.852 131.924 179.937C131.667 180.022 131.454 180.107 131.283 180.192C130.942 180.106 130.643 179.978 130.388 179.807C130.217 179.721 129.961 179.636 129.62 179.55C129.279 179.635 128.937 179.72 128.596 179.805C128.34 179.89 128.041 179.975 127.699 180.059C127.273 180.059 126.974 180.016 126.804 179.93C126.292 179.759 125.78 179.588 125.268 179.416C124.756 179.33 124.244 179.202 123.733 179.03C123.136 178.773 122.581 178.73 122.069 178.9C121.557 179.07 121.045 179.027 120.533 178.77C118.741 178.768 116.992 178.68 115.285 178.507C113.579 178.334 111.872 178.204 110.166 178.116C107.947 178.113 105.685 178.494 103.38 179.259C102.612 179.6 102.227 180.154 102.226 180.922C102.311 181.092 102.439 181.263 102.609 181.434C102.78 181.69 102.907 181.947 102.992 182.203C102.992 182.459 102.907 182.672 102.736 182.842C101.967 183.524 101.454 184.291 101.197 185.144C100.853 186.509 100.17 186.892 99.147 186.294C98.5501 186.037 97.9102 185.908 97.2276 185.907C96.5448 185.992 95.8621 185.991 95.1796 185.904C93.3025 185.731 91.3826 185.643 89.4199 185.641C87.5426 185.638 85.6224 185.764 83.6594 186.017C82.7207 186.016 82.1235 185.93 81.8677 185.759C81.5265 185.673 81.0152 185.16 80.3338 184.221L80.3343 183.837C80.4205 183.154 80.5068 182.472 80.593 181.789C80.6791 181.192 80.7653 180.595 80.8514 179.997C80.5975 178.376 80.4715 176.925 80.4731 175.645C80.3886 175.047 80.2614 174.45 80.0915 173.852C79.8362 173.34 79.7517 172.743 79.8379 172.06C80.0095 171.378 80.0104 170.695 79.8406 170.012C79.6709 169.329 79.5864 168.646 79.5873 167.964C79.7585 167.623 79.8869 167.281 79.9727 166.94C80.0584 166.684 80.1868 166.343 80.3581 165.917C80.0194 163.868 79.8088 161.82 79.7262 159.772C79.6436 157.724 79.561 155.633 79.4785 153.5C80.0764 153.074 80.6316 152.648 81.1442 152.222C81.5714 151.796 82.0413 151.412 82.5537 151.072C83.1513 150.902 83.6637 150.561 84.0911 150.05C84.5183 149.624 84.9029 149.197 85.2448 148.771C86.0982 148.687 86.9091 148.517 87.6775 148.262C88.3604 148.093 89.043 148.094 89.7255 148.265C90.1518 148.522 90.5783 148.608 91.0051 148.523C91.7734 148.353 92.5414 148.312 93.3093 148.398C94.1624 148.57 94.9728 148.741 95.7406 148.913L97.2766 148.915C97.4464 149.598 97.5735 150.281 97.6579 150.964C97.8277 151.647 97.8268 152.329 97.6552 153.012C97.8254 153.353 97.9957 153.652 98.166 153.908C98.4216 154.165 98.6773 154.464 98.9328 154.805C98.7616 155.232 98.5903 155.658 98.4191 156.085C98.2479 156.511 98.0766 156.98 97.9052 157.492C98.4161 158.346 99.0975 159.328 99.9493 160.439C100.461 160.61 100.845 160.696 101.101 160.696C102.04 160.697 102.978 160.699 103.917 160.7C104.941 160.701 105.922 160.745 106.861 160.832L107.245 160.832C108.099 160.492 108.909 160.365 109.677 160.452C110.445 160.538 111.256 160.539 112.109 160.455L113.773 160.457C115.736 160.63 117.656 160.675 119.533 160.593C121.496 160.595 123.459 160.555 125.421 160.472L127.084 161.371C127.511 161.286 127.938 161.201 128.364 161.116C128.791 161.032 129.218 160.947 129.645 160.862C130.071 160.948 130.455 161.034 130.796 161.12C131.138 161.291 131.521 161.419 131.948 161.505C132.289 161.506 132.545 161.463 132.716 161.378C133.741 160.953 134.68 160.783 135.533 160.87L137.453 160.872C137.794 160.873 138.05 160.788 138.221 160.617C138.477 160.447 138.776 160.362 139.117 160.363C139.288 160.448 139.672 160.491 140.269 160.492C140.781 160.407 141.294 160.323 141.806 160.238C142.318 160.154 142.83 160.026 143.342 159.856C143.769 159.43 143.898 158.961 143.728 158.449C143.643 157.937 143.644 157.467 143.73 157.041C143.901 156.614 143.987 156.145 143.988 155.633C143.988 155.121 143.989 154.566 143.99 153.969C144.332 153.372 144.461 152.69 144.377 151.922C144.378 151.239 144.506 150.556 144.763 149.874C145.19 149.533 145.703 149.363 146.3 149.364C146.897 149.45 147.324 149.365 147.58 149.11C147.922 148.94 148.349 148.94 148.86 149.112C149.458 149.283 149.97 149.284 150.396 149.114C150.823 149.455 151.121 149.499 151.292 149.243C151.463 148.987 151.805 148.987 152.316 149.244C152.743 149.501 153.212 149.629 153.724 149.63C154.321 149.631 154.79 149.802 155.131 150.144C155.301 150.315 155.557 150.358 155.899 150.273C156.326 150.273 156.709 150.317 157.051 150.402C157.221 150.573 157.306 150.957 157.305 151.555C157.39 152.152 157.517 152.494 157.688 152.579C158.114 152.921 158.412 153.306 158.582 153.732C158.752 154.245 158.965 154.757 159.22 155.269C159.22 155.44 159.22 155.653 159.219 155.909C159.304 156.165 159.347 156.464 159.346 156.805C159.345 157.488 159.344 158.213 159.343 158.981C159.342 159.749 159.384 160.475 159.468 161.158C159.638 161.84 159.765 162.523 159.85 163.206C160.019 163.889 160.147 164.615 160.231 165.383C160.4 166.151 160.357 166.919 160.1 167.686C159.757 168.795 159.798 170.161 160.222 171.783C160.307 172.124 160.392 172.423 160.477 172.679C160.562 172.935 160.647 173.149 160.732 173.319C160.646 173.917 160.56 174.428 160.474 174.855C160.388 175.367 160.345 175.793 160.345 176.135C160.344 176.391 160.387 176.647 160.472 176.903C160.556 177.244 160.599 177.5 160.599 177.671C160.597 178.524 160.554 179.292 160.467 179.975C160.466 180.743 160.38 181.511 160.208 182.279C159.95 183.9 159.863 185.35 159.947 186.63C160.031 187.057 160.031 187.398 159.945 187.654C159.945 187.996 159.945 188.209 159.944 188.294C159.858 188.891 159.644 189.318 159.303 189.573C159.046 189.914 158.833 190.17 158.662 190.341C157.295 191.704 155.886 192.001 154.437 191.231C154.351 191.146 154.053 191.102 153.541 191.102C153.37 191.187 153.157 191.229 152.901 191.229C152.73 191.314 152.474 191.399 152.132 191.484Z" fill="#FFF4E6"/>
<path d="M163.206 55.75V66.375H161.956C154.863 66.375 149.228 69.1246 144.939 74.665L144.935 74.6709C140.615 80.1836 138.409 87.2607 138.409 96C138.409 104.735 140.612 111.851 144.934 117.438H144.935C149.221 122.906 154.857 125.625 161.956 125.625C168.833 125.625 174.337 123.074 178.571 117.942L178.976 117.438C183.313 111.832 185.503 105.07 185.503 97.083C185.503 92.9829 185.209 89.5813 184.639 86.8584C184.068 84.1247 183.233 82.1538 182.21 80.8447L182.206 80.8398L182.202 80.834C180.005 77.9571 177.575 76.667 174.893 76.667C172.062 76.667 169.642 77.6554 167.571 79.6709C165.534 81.6543 164.5 84.1741 164.5 87.333C164.5 89.3153 164.925 90.8664 165.694 92.0605C166.373 93.0496 167.331 93.5585 168.748 93.5586C170.005 93.5586 170.858 93.0695 171.472 92.0322C172.148 90.892 172.565 89.0203 172.565 86.25V85H183.69V86.25C183.69 91.1394 182.565 95.3641 180.248 98.8574L180.24 98.8682C177.792 102.477 173.859 104.184 168.748 104.184C163.656 104.184 159.677 102.564 157.079 99.1387C154.592 95.8585 153.375 91.8996 153.375 87.333C153.375 81.0938 155.511 75.9447 159.818 72.0029C164.067 68.0419 169.075 66.042 174.786 66.042C180.137 66.0421 185.028 68.0058 189.43 71.8379L189.855 72.2148L189.857 72.2158C192.286 74.4204 194.177 77.5857 195.587 81.6123C197.01 85.6759 197.706 90.4074 197.706 95.7832C197.706 107.501 194.546 117.228 188.141 124.861L188.137 124.866C181.69 132.475 172.914 136.25 161.956 136.25C150.997 136.25 142.221 132.475 135.774 124.866L135.77 124.862L136.727 124.059L135.77 124.861C129.368 117.231 126.206 107.577 126.206 96C126.206 84.425 129.366 74.8061 135.77 67.2461L136.382 66.5381C142.767 59.3302 151.336 55.75 161.956 55.75H163.206Z" fill="#FFF4E6" stroke="#FFF4E6" stroke-width="2.5"/>
</svg>
