<svg width="248" height="248" viewBox="0 0 248 248" fill="none" xmlns="http://www.w3.org/2000/svg">
<circle cx="124" cy="124" r="124" fill="#FF6600"/>
<path d="M108.698 158.582C108.777 158.48 108.861 158.422 108.952 158.41L108.834 158.564C109.221 158.695 109.548 159.063 109.814 159.669C109.99 160.287 110.278 160.707 110.677 160.928C110.804 161.186 111.176 161.548 111.793 162.014C112.41 162.481 112.848 162.65 113.107 162.523C114.34 162.08 115.835 161.876 117.594 161.911C117.902 162.144 118.211 162.377 118.519 162.611C118.827 162.844 119.233 163.11 119.734 163.408C119.825 163.396 119.922 163.429 120.025 163.506C120.115 163.494 120.251 163.475 120.432 163.451C120.716 163.504 121.13 163.493 121.674 163.419C124.562 162.933 127.49 163.084 130.458 163.872C131.117 163.965 131.815 164.008 132.552 163.999C133.277 163.9 133.984 163.666 134.672 163.296C135.179 162.952 135.705 162.743 136.249 162.668C136.69 162.516 137.188 162.448 137.744 162.464C138.922 162.303 140.031 161.968 141.07 161.46C141.535 161.488 142.046 161.51 142.602 161.526C143.067 161.554 143.538 161.627 144.016 161.746C144.493 161.864 144.977 162.028 145.467 162.236C145.969 162.535 146.485 162.602 147.017 162.437C147.083 162.245 147.195 162.046 147.352 161.841C147.496 161.546 147.635 161.206 147.768 160.821C147.937 160.706 148.151 160.585 148.411 160.458C148.658 160.24 148.867 160.074 149.036 159.959C150.19 159.618 151.222 159.064 152.134 158.297C153.372 157.211 154.594 156.356 155.802 155.732C156.412 155.465 156.914 155.075 157.306 154.563C157.595 153.973 157.942 153.467 158.347 153.044C158.587 152.094 158.789 151.194 158.951 150.346C159.114 149.498 159.179 148.617 159.148 147.704C159.395 147.487 159.598 147.275 159.755 147.07C159.899 146.775 160.05 146.525 160.207 146.32C160.702 145.886 160.931 145.533 160.895 145.263C160.876 144.44 161.063 143.772 161.455 143.259C161.847 142.747 162.17 142.06 162.423 141.2C162.398 141.02 162.407 140.743 162.449 140.37C162.4 140.01 162.397 139.643 162.439 139.27C162.414 139.09 162.384 138.865 162.347 138.595C162.299 138.234 162.307 137.958 162.374 137.765C162.639 136.995 162.91 136.269 163.187 135.589C163.452 134.819 163.678 134.1 163.865 133.432C163.804 132.981 163.622 132.318 163.319 131.441C162.61 129.611 162.406 127.758 162.706 125.881C162.893 125.213 162.989 124.558 162.994 123.915C162.999 123.271 163.05 122.622 163.146 121.967C163.031 121.799 162.91 121.586 162.783 121.328C162.553 120.992 162.335 120.747 162.129 120.591L162.697 117.623C162.818 117.147 163.035 116.705 163.349 116.295C163.56 115.807 163.777 115.365 164 114.967C163.993 114.234 163.766 113.577 163.318 112.995C162.78 112.426 162.423 111.833 162.247 111.214C162.21 110.944 162.219 110.667 162.273 110.385C162.237 110.114 162.2 109.844 162.163 109.574C161.304 108.681 160.711 107.707 160.384 106.651C159.966 105.606 159.632 104.505 159.383 103.346C158.7 103.072 158.102 102.74 157.588 102.352C157.074 101.963 156.677 101.421 156.398 100.725C156.271 100.467 156.183 100.157 156.135 99.7969C155.995 99.4489 155.856 99.1008 155.717 98.7527C155.166 98.0937 154.616 97.4347 154.065 96.7756C153.412 96.0389 152.816 95.386 152.277 94.8171C152.035 94.3913 151.832 93.9143 151.668 93.386C151.414 92.8701 151.081 92.4566 150.67 92.1457C150.18 91.9372 149.815 91.62 149.572 91.1942C149.24 90.7808 148.952 90.3612 148.71 89.9354C148.063 89.9318 147.501 89.8709 147.024 89.7525C146.546 89.6342 146.12 89.5547 145.746 89.5141C145.256 89.3056 144.993 89.0662 144.956 88.7958C144.514 87.5714 143.848 86.7445 142.959 86.3152C141.968 85.8082 140.91 85.4937 139.786 85.3718C139.411 85.3312 139.088 85.3294 138.816 85.3665C138.532 85.3135 138.157 85.2729 137.692 85.2447C137.486 85.0892 137.229 84.8948 136.921 84.6616C136.6 84.3383 136.28 84.015 135.959 83.6916C135.391 83.5856 134.868 83.4735 134.391 83.3551C133.823 83.2491 133.345 83.1307 132.958 83L132.007 83.1299C131.318 83.4992 130.63 83.8685 129.941 84.2378C129.15 84.5293 128.319 84.8721 127.449 85.2662C126.712 85.2751 125.969 85.2389 125.219 85.1576C124.367 84.9986 123.591 85.0587 122.89 85.3379C122.8 85.3503 122.715 85.4077 122.637 85.5102C122.546 85.5225 122.449 85.4899 122.346 85.4121C121.712 85.4987 121.065 85.4952 120.407 85.4016C119.748 85.308 119.107 85.3495 118.485 85.5262C117.941 85.6004 117.391 85.6296 116.835 85.6137C116.189 85.6102 115.575 85.5104 114.995 85.3143C114.53 85.286 114.116 85.2967 113.753 85.3461C113.288 85.3179 112.841 85.4248 112.412 85.6669C112.177 85.9743 111.941 86.2818 111.706 86.5892C111.458 86.8065 111.178 87.1202 110.864 87.5301C110.151 87.7192 109.405 88.0045 108.626 88.3862C107.744 88.6901 106.868 89.0391 105.998 89.4332C105.558 89.5851 105.18 89.8661 104.866 90.276C104.462 90.6983 103.955 91.0429 103.345 91.3097C102.825 91.5641 102.3 91.7735 101.768 91.9379C101.134 92.0245 100.499 92.111 99.8648 92.1976C98.6096 93.8373 97.0216 95.0636 95.1008 95.8764C94.9317 95.9913 94.7626 96.1061 94.5935 96.221C94.4244 96.3358 94.2554 96.4507 94.0863 96.5655C93.4465 97.2953 92.8581 98.0639 92.3211 98.8714C91.6813 99.6011 91.0868 100.325 90.5377 101.042C90.0007 101.85 89.7417 102.665 89.7606 103.488C89.1208 104.218 88.78 104.769 88.7381 105.142C88.5934 105.437 88.6184 106.306 88.8133 107.747C88.306 108.092 87.8502 108.475 87.4457 108.898C87.0291 109.23 86.8181 109.718 86.8127 110.361C86.6802 110.746 86.5476 111.131 86.4151 111.516C86.2703 111.811 86.177 112.145 86.1351 112.518C85.9119 112.916 85.6827 113.268 85.4473 113.576C85.1091 113.805 84.7832 114.125 84.4694 114.535C84.2827 115.203 84.1414 115.865 84.0454 116.52C83.9372 117.085 84.0224 117.716 84.3011 118.412C84.5676 119.018 84.7043 119.688 84.7111 120.421C84.7179 121.155 84.8214 121.92 85.0216 122.719C85.2097 123.428 85.3132 124.194 85.3322 125.017C85.3512 125.84 85.3641 126.619 85.3709 127.352C85.329 127.725 85.3384 128.136 85.3993 128.587C85.448 128.947 85.4453 129.269 85.3912 129.552C85.1139 130.232 85.018 130.887 85.1032 131.518C85.0978 132.161 85.1831 132.792 85.359 133.41C85.4077 133.771 85.4564 134.131 85.5051 134.492C85.451 134.774 85.4544 135.141 85.5153 135.592C86.0361 136.714 86.5177 137.887 86.9601 139.111C87.3903 140.246 87.9504 141.316 88.6403 142.323C89.3181 143.24 89.9958 144.157 90.6735 145.074C91.3512 145.991 92.1135 146.851 92.9604 147.653L93.271 149.951C93.7607 150.159 94.2564 150.413 94.7582 150.711C95.1573 150.932 95.5049 151.114 95.8012 151.257C96.5817 152.252 97.1236 153.188 97.4266 154.064C97.6268 154.863 97.9117 155.604 98.281 156.288C98.6922 156.599 99.1034 156.909 99.5147 157.22C99.9259 157.531 100.382 157.836 100.884 158.135C101.386 158.433 101.973 158.674 102.644 158.858C103.212 158.964 103.84 158.833 104.528 158.463C105.32 158.172 106.006 158.124 106.586 158.32C106.961 158.361 107.335 158.401 107.71 158.442C108.085 158.483 108.414 158.529 108.698 158.582ZM106.745 127.738C106.865 127.263 106.946 126.839 106.988 126.466C106.927 126.015 106.912 125.559 106.942 125.096C106.844 124.375 106.81 123.783 106.84 123.32C106.924 122.574 107.092 121.771 107.345 120.911C107.495 119.973 107.697 119.073 107.95 118.213C107.992 117.84 108.124 117.455 108.347 117.057C108.468 116.582 108.594 116.152 108.727 115.767C109.257 114.226 110.274 113.215 111.778 112.735C112.038 112.607 112.343 112.474 112.693 112.334C113.031 112.105 113.324 111.881 113.572 111.664C114.067 111.229 114.574 110.885 115.094 110.63C115.613 110.376 116.139 110.166 116.67 110.002C117.371 109.723 118.117 109.437 118.908 109.146C119.687 108.764 120.433 108.479 121.146 108.29C121.992 107.715 122.859 107.643 123.747 108.072C126.328 108.729 128.725 109.733 130.938 111.083C133.139 112.342 135.148 114.225 136.963 116.73C137.284 117.054 137.61 117.422 137.943 117.836C138.185 118.261 138.427 118.687 138.67 119.113C139.093 119.514 139.477 119.966 139.822 120.47C140.155 120.883 140.442 121.303 140.684 121.729C140.691 122.462 140.453 123.091 139.97 123.616C139.487 124.141 139.249 124.77 139.256 125.503C139.305 125.863 139.49 126.205 139.81 126.529C140.119 126.762 140.342 127.052 140.482 127.4C140.349 127.786 140.177 128.222 139.966 128.71C139.755 129.197 139.59 129.679 139.469 130.154C139.258 130.642 139.144 131.162 139.127 131.715C139.006 132.19 138.937 132.705 138.92 133.258C138.799 133.733 138.724 134.202 138.695 134.665C138.574 135.14 138.499 135.609 138.469 136.072L136.767 137.819C136.52 138.036 136.284 138.344 136.061 138.741C135.735 139.061 135.403 139.336 135.065 139.566C134.014 139.984 133.099 140.385 132.32 140.766C131.619 141.045 130.997 141.222 130.453 141.296C129.909 141.371 129.32 141.451 128.686 141.538C128.686 141.538 128.731 141.531 128.821 141.519C128.821 141.519 128.828 141.564 128.84 141.654L128.568 141.691C128.659 141.679 128.698 141.628 128.686 141.538C128.48 141.382 128.241 141.323 127.969 141.36C127.685 141.307 127.453 141.293 127.271 141.318C126.728 141.392 126.19 141.511 125.658 141.675C125.024 141.762 124.383 141.804 123.737 141.8C123.531 141.645 123.305 141.676 123.057 141.893C122.707 142.033 122.402 142.166 122.142 142.293C121.779 142.343 121.495 142.29 121.29 142.134C121.241 141.774 121.244 141.452 121.298 141.169C121.261 140.899 121.095 140.692 120.799 140.549C119.535 140.079 118.335 139.738 117.199 139.526C116.697 139.228 116.292 138.962 115.984 138.729C115.585 138.508 115.225 138.236 114.904 137.912C114.517 137.782 114.215 137.594 113.997 137.348C113.689 137.115 113.347 136.978 112.972 136.937C112.12 136.778 111.392 136.51 110.787 136.134C110.08 135.68 109.417 135.22 108.801 134.753C108.686 134.586 108.622 134.457 108.61 134.366C108.495 134.199 108.38 134.031 108.265 133.863C106.988 131.926 106.481 129.885 106.745 127.738Z" fill="#FFF4E6"/>
</svg>
