<svg width="248" height="248" viewBox="0 0 248 248" fill="none" xmlns="http://www.w3.org/2000/svg">
<circle cx="124" cy="124" r="124" fill="#FF355A"/>
<path d="M161.203 106C161.203 114.667 159.219 122 155.25 128C151.281 133.867 144.865 136.8 136.002 136.8C127.138 136.8 120.59 134 116.356 128.4C112.123 122.8 110.006 116 110.006 108C110.006 97.0667 113.71 88.2 121.119 81.4C128.527 74.4667 137.192 71 147.114 71C156.639 71 165.37 74.6 173.308 81.8C177.409 85.5333 180.716 91 183.23 98.2C185.743 105.4 187 113.867 187 123.6C187 144.8 181.311 162.2 169.934 175.8C158.557 189.267 143.079 196 123.5 196C103.921 196 88.4427 189.267 77.0656 175.8C65.6885 162.2 60 144.933 60 124C60 103.067 65.6885 85.8667 77.0656 72.4C88.4427 58.8 103.921 52 123.5 52V67C109.742 67 98.6953 72.4 90.3609 83.2C82.0266 93.8667 77.8594 107.467 77.8594 124C77.8594 140.533 82.0266 154.2 90.3609 165C98.6953 175.667 109.742 181 123.5 181C137.258 181 148.305 175.667 156.639 165C164.973 154.2 169.141 141.2 169.141 126C169.141 110.667 166.958 100.2 162.592 94.6C158.227 88.8667 153.133 86 147.313 86C141.492 86 136.465 88.0667 132.231 92.2C127.998 96.3333 125.881 101.6 125.881 108C125.881 112 126.741 115.333 128.461 118C130.181 120.533 132.694 121.8 136.002 121.8C142.219 121.8 145.328 116.533 145.328 106H161.203Z" fill="#FFF4E6"/>
</svg>
