<svg width="183" height="202" viewBox="0 0 183 202" fill="none" xmlns="http://www.w3.org/2000/svg">
<path d="M55.2362 94.122C55.3514 94.2949 55.3802 94.4966 55.3226 94.7271C55.265 94.8999 55.1785 95.0728 55.0633 95.2457C54.8904 95.361 54.7175 95.5339 54.5446 95.7644C54.3717 95.9372 54.17 96.0813 53.9395 96.1966C53.5938 96.4271 53.248 96.6864 52.9022 96.9745C52.5565 97.2627 52.2107 97.5508 51.8649 97.839C51.1158 98.4152 50.4531 98.9915 49.8768 99.5678C49.3581 100.086 48.7242 100.807 47.9751 101.729C47.8598 101.844 47.7157 101.959 47.5429 102.075C47.4276 102.247 47.2835 102.392 47.1107 102.507C47.053 102.564 46.9378 102.622 46.7649 102.68C46.6496 102.737 46.5344 102.795 46.4191 102.853C46.3615 102.795 46.275 102.737 46.1598 102.68C46.0445 102.68 45.9293 102.651 45.814 102.593C45.353 102.132 44.8632 101.671 44.3445 101.21C43.8835 100.749 43.3937 100.317 42.875 99.9136C42.1259 99.3949 41.4631 98.8186 40.8869 98.1847C40.3106 97.4932 39.7055 96.8305 39.0716 96.1966C38.8987 96.0237 38.7546 95.822 38.6394 95.5915C38.5818 95.3033 38.4953 95.044 38.3801 94.8135C38.1495 94.6983 37.8902 94.583 37.6021 94.4677C37.3716 94.2949 37.1411 94.122 36.9105 93.9491C36.68 93.7186 36.4495 93.4593 36.219 93.1711C36.0461 92.883 35.8732 92.5948 35.7004 92.3067C35.4122 91.8457 35.1241 91.4135 34.836 91.0101C34.5478 90.6067 34.202 90.2033 33.7987 89.7999C33.5681 89.5118 33.3953 89.1948 33.28 88.849C33.1647 88.5033 32.9342 88.2151 32.5885 87.9846C32.2427 87.8694 31.8681 87.7829 31.4647 87.7253C31.0613 87.61 30.6868 87.5236 30.341 87.466C29.8223 87.5812 29.4189 87.9558 29.1308 88.5897C28.3816 90.2033 27.1426 91.5287 25.4138 92.566C24.9528 92.8542 24.5494 93.2287 24.2036 93.6898C23.8579 94.1508 23.4545 94.6118 22.9935 95.0728C22.3019 96.1678 21.4663 97.1186 20.4867 97.9254C19.5646 98.7322 18.5273 99.4814 17.3748 100.173C17.2019 100.346 17.0002 100.519 16.7697 100.692C16.5392 100.864 16.2798 101.066 15.9917 101.297L13.312 102.161C12.39 101.758 11.612 101.181 10.9781 100.432C10.4018 99.683 9.71027 99.1068 8.90348 98.7034C8.44246 98.0118 8.06788 97.3203 7.77974 96.6288C7.4916 95.9372 7.26109 95.2457 7.08821 94.5542C7.37635 93.9203 7.63567 93.344 7.86618 92.8254C8.15432 92.3067 8.47127 91.8745 8.81704 91.5287C9.50857 91.0101 9.94078 90.3762 10.1137 89.627C10.4018 89.2812 10.6323 88.9067 10.8052 88.5033C11.0357 88.388 11.2086 88.3304 11.3238 88.3304C11.4967 88.3304 11.6696 88.3016 11.8425 88.2439C12.2459 88.1287 12.4476 87.927 12.4476 87.6389C12.4476 87.2931 12.5628 87.0626 12.7934 86.9473C13.0239 86.7744 13.2544 86.6592 13.4849 86.6016C13.6578 86.5439 13.8018 86.5439 13.9171 86.6016C14.09 86.6016 14.2629 86.5727 14.4357 86.5151C14.4934 86.3999 14.551 86.3134 14.6086 86.2558C14.6663 86.1405 14.6951 86.0541 14.6951 85.9965C14.6951 85.6507 14.7239 85.3337 14.7815 85.0456C14.8391 84.6998 15.012 84.4117 15.3002 84.1812C15.3002 83.5473 15.473 83.0863 15.8188 82.7981C16.2222 82.51 16.6544 82.193 17.1154 81.8473C17.2883 81.3863 17.4612 80.9252 17.6341 80.4642C17.807 80.0032 17.951 79.6286 18.0663 79.3405C18.2968 78.7642 18.6138 78.3608 19.0171 78.1303C19.4205 77.8998 19.651 77.554 19.7087 77.093C19.651 77.0354 19.6222 76.9489 19.6222 76.8337C19.3341 76.5455 19.0171 76.2574 18.6714 75.9692C18.3832 75.6235 18.0951 75.2777 17.807 74.9319C17.5188 74.5862 17.2595 74.2404 17.029 73.8946C16.7985 73.4913 16.5103 73.1455 16.1646 72.8573C15.9341 72.6268 15.7612 72.3099 15.6459 71.9065C15.5307 71.5031 15.3578 71.2438 15.1273 71.1285C14.9544 70.9556 14.7239 70.8116 14.4357 70.6963C14.3781 70.4082 14.2917 70.1488 14.1764 69.9183C14.1188 69.6878 14.0612 69.4285 14.0035 69.1404C13.9459 69.0827 13.8595 69.0251 13.7442 68.9675C13.629 68.8522 13.5137 68.7658 13.3984 68.7082C12.8222 68.42 12.3035 68.0454 11.8425 67.5844C11.3815 67.0658 10.9205 66.6047 10.4594 66.2013C10.2289 66.0285 10.056 65.8268 9.94078 65.5963C9.59501 64.7895 9.13399 64.0979 8.55771 63.5217C7.98144 62.8878 7.37635 62.225 6.74244 61.5335C6.4543 61.0149 6.16617 60.4674 5.87803 59.8911C5.58989 59.2572 5.33056 58.6233 5.10005 57.9894C4.86954 57.5284 4.61022 57.0674 4.32208 56.6063C4.09157 56.0877 3.88987 55.569 3.71699 55.0504C3.60173 54.9351 3.5441 54.6758 3.5441 54.2724C4.00513 53.6385 4.55259 53.1487 5.18649 52.8029C5.8204 52.3995 6.31023 51.8809 6.656 51.247C7.00177 51.1893 7.31872 51.1893 7.60686 51.247C7.95262 51.3046 8.24076 51.2181 8.47127 50.9876C8.64416 50.8147 8.90348 50.7283 9.24925 50.7283C9.99841 50.5554 10.7476 50.3537 11.4967 50.1232C12.2459 49.8351 12.995 49.6334 13.7442 49.5181C13.8595 49.4605 14.0035 49.4029 14.1764 49.3452C14.3493 49.2876 14.4934 49.2588 14.6086 49.2588C15.4154 49.1435 16.0493 49.3164 16.5103 49.7775C16.6256 49.8927 16.7408 50.008 16.8561 50.1232C17.029 50.1808 17.1442 50.2673 17.2019 50.3825C17.6053 50.9588 18.0375 51.4775 18.4985 51.9385C19.0171 52.3419 19.5358 52.7165 20.0544 53.0622C20.4578 53.9266 20.7172 54.5029 20.8324 54.7911C20.9477 55.0792 21.0917 55.3097 21.2646 55.4826C21.4375 55.5979 21.7833 55.8284 22.3019 56.1741C22.3596 56.2318 22.4172 56.3182 22.4748 56.4335C22.5324 56.4911 22.5612 56.5775 22.5612 56.6928C22.7341 57.5572 23.224 58.0758 24.0308 58.2487C24.3765 58.364 24.5782 58.4216 24.6358 58.4216C24.924 58.6521 25.0681 58.9691 25.0681 59.3725C25.1257 59.7182 25.3562 60.0352 25.7596 60.3233C26.1054 60.3233 26.3935 60.4386 26.624 60.6691C26.7969 60.7267 26.941 60.7843 27.0562 60.842C27.2291 60.842 27.3443 60.842 27.402 60.842C27.9206 61.2454 28.2376 61.764 28.3528 62.3979C28.5257 62.9742 28.8427 63.4352 29.3037 63.781H29.7359C30.1969 63.6081 30.6579 63.4352 31.119 63.2623C31.58 63.0895 32.041 62.9166 32.502 62.7437C32.7325 62.4555 32.9342 62.1674 33.1071 61.8793C33.28 61.5911 33.4817 61.303 33.7122 61.0149C34.0003 60.5538 34.3173 60.0928 34.6631 59.6318C35.0088 59.1131 35.3546 58.6521 35.7004 58.2487C36.0461 57.7877 36.3055 57.2979 36.4783 56.7792C36.6512 56.2606 36.8817 55.7995 37.1699 55.3962C37.458 54.9351 37.7462 54.5317 38.0343 54.186C38.3801 53.7826 38.7546 53.3504 39.158 52.8893C39.5614 51.6792 40.1377 50.5266 40.8869 49.4317C41.6936 48.3368 42.6157 47.3283 43.653 46.4062C44.2869 46.6367 44.8632 46.8384 45.3818 47.0113C45.9005 47.1842 46.4191 47.4435 46.9378 47.7893C47.5717 48.3656 48.4361 48.7978 49.531 49.0859C49.8192 49.1435 50.0785 49.23 50.309 49.3452C50.5395 49.4605 50.77 49.5469 51.0005 49.6046C51.4039 49.9503 51.6632 50.2961 51.7785 50.6419C51.9514 50.9876 52.0955 51.3622 52.2107 51.7656C52.326 51.8232 52.4412 51.8809 52.5565 51.9385C52.7294 51.9961 52.8734 52.0537 52.9887 52.1114C53.1039 52.3419 53.2192 52.6012 53.3344 52.8893C53.5073 53.1199 53.6514 53.3792 53.7667 53.6673C53.9395 53.8978 54.1412 54.1283 54.3717 54.3589C54.6599 54.5317 54.8328 54.7911 54.8904 55.1368C54.8328 55.425 54.7175 55.7419 54.5446 56.0877C54.4294 56.3758 54.3141 56.664 54.1989 56.9521V58.7674C53.9683 59.1708 53.6802 59.4589 53.3344 59.6318C53.0463 59.747 52.7582 59.8911 52.47 60.064C52.4124 60.1793 52.326 60.2945 52.2107 60.4098C52.1531 60.4674 52.0666 60.5538 51.9514 60.6691C51.6056 61.303 51.231 61.9081 50.8276 62.4844C50.4819 63.0606 50.0497 63.6369 49.531 64.2132C49.1852 64.6166 48.8683 65.0488 48.5802 65.5098C48.292 65.9708 47.9751 66.4319 47.6293 66.8929V67.9302C47.3988 68.1607 47.1395 68.42 46.8513 68.7082C46.6208 68.9387 46.4191 69.2268 46.2462 69.5726C46.0157 69.9183 45.7564 70.2065 45.4683 70.437C45.1801 70.6675 44.9784 70.9844 44.8632 71.3878C44.6903 71.7912 44.431 72.1082 44.0852 72.3387C43.7394 72.5116 43.4513 72.8862 43.2208 73.4624C43.1632 73.693 43.1055 73.9811 43.0479 74.3269C43.0479 74.6726 42.9903 75.0472 42.875 75.4506C44.2581 77.2371 45.4683 79.1388 46.5056 81.1557V82.193C46.7937 82.4812 47.053 82.7405 47.2835 82.971C47.5717 83.2015 47.8022 83.432 47.9751 83.6625C49.07 85.0456 50.2225 86.2558 51.4327 87.2931C51.6632 87.5236 51.8649 87.7829 52.0378 88.0711C52.2683 88.3016 52.3836 88.5897 52.3836 88.9355C52.4412 89.166 52.5565 89.3965 52.7294 89.627C52.9022 89.8575 53.0175 90.0592 53.0751 90.2321C53.5361 90.8084 53.9107 91.4423 54.1989 92.1338C54.487 92.8254 54.8328 93.4881 55.2362 94.122Z" fill="#00C4D8"/>
<path d="M103.676 167.484C103.079 167.739 102.438 167.866 101.756 167.866C101.073 167.95 100.391 167.778 99.7085 167.351C99.3674 167.18 99.0262 167.094 98.6848 167.094C98.4287 167.179 98.0873 167.221 97.6607 167.22C97.4049 167.049 97.1492 166.835 96.8935 166.579C96.7232 166.323 96.4675 166.109 96.1264 165.938C95.9559 165.767 95.7428 165.596 95.487 165.425C95.2311 165.34 95.0181 165.126 94.8479 164.784C94.9338 164.358 94.9771 163.846 94.9779 163.249C94.9787 162.651 94.9794 162.097 94.9801 161.585C94.9818 160.305 94.642 159.152 93.9607 158.127C93.6198 157.785 93.3643 157.444 93.1941 157.102C93.1092 156.761 92.9816 156.419 92.8114 156.078C92.3001 155.565 91.7883 155.394 91.2761 155.564L88.8441 155.56C88.076 155.645 87.3079 155.729 86.5398 155.813C85.8569 155.983 85.0888 156.025 84.2356 155.938C84.0651 155.853 83.809 155.852 83.4676 155.937C83.2115 156.022 82.998 156.107 82.8273 156.192C82.486 156.107 82.1875 155.978 81.9318 155.807C81.7612 155.722 81.5053 155.636 81.1641 155.55C80.8227 155.635 80.4812 155.72 80.1398 155.805C79.8837 155.89 79.5849 155.975 79.2434 156.06C78.8168 156.059 78.5182 156.016 78.3476 155.931C77.8358 155.759 77.3241 155.588 76.8123 155.417C76.3004 155.33 75.7886 155.202 75.2768 155.03C74.6798 154.774 74.1252 154.73 73.613 154.9C73.1007 155.07 72.5888 155.027 72.0771 154.77C70.2851 154.768 68.5359 154.68 66.8295 154.507C65.123 154.334 63.4166 154.204 61.71 154.116C59.4913 154.114 57.2295 154.495 54.9245 155.259C54.156 155.6 53.7713 156.154 53.7703 156.922C53.8554 157.093 53.9832 157.264 54.1536 157.434C54.3239 157.691 54.4516 157.947 54.5366 158.203C54.5362 158.459 54.4506 158.672 54.2797 158.843C53.5108 159.524 52.9978 160.292 52.7407 161.145C52.3975 162.509 51.7144 162.893 50.6911 162.294C50.0942 162.037 49.4543 161.908 48.7717 161.907C48.0889 161.992 47.4062 161.991 46.7237 161.905C44.8466 161.731 42.9267 161.644 40.964 161.641C39.0867 161.638 37.1665 161.764 35.2035 162.017C34.2648 162.016 33.6676 161.93 33.4118 161.759C33.0706 161.673 32.5593 161.16 31.8779 160.221L31.8784 159.837C31.9646 159.154 32.0509 158.472 32.1371 157.789C32.2232 157.192 32.3094 156.595 32.3955 155.998C32.1416 154.376 32.0156 152.925 32.0172 151.645C31.9327 151.048 31.8055 150.45 31.6356 149.853C31.3803 149.34 31.2958 148.743 31.382 148.06C31.5536 147.378 31.5545 146.695 31.3847 146.012C31.215 145.329 31.1305 144.647 31.1314 143.964C31.3026 143.623 31.431 143.282 31.5168 142.94C31.6025 142.685 31.7309 142.343 31.9021 141.917C31.5635 139.868 31.3529 137.82 31.2703 135.772C31.1877 133.724 31.1051 131.633 31.0226 129.5C31.6205 129.074 32.1757 128.648 32.6883 128.222C33.1155 127.796 33.5854 127.412 34.0978 127.072C34.6954 126.902 35.2078 126.561 35.6352 126.05C36.0624 125.624 36.447 125.198 36.7889 124.771C37.6423 124.687 38.4532 124.518 39.2216 124.263C39.9045 124.093 40.5871 124.094 41.2696 124.265C41.6959 124.522 42.1224 124.608 42.5492 124.523C43.3175 124.353 44.0855 124.312 44.8534 124.398C45.7065 124.57 46.5169 124.742 47.2847 124.913L48.8207 124.915C48.9905 125.598 49.1176 126.281 49.202 126.964C49.3718 127.647 49.3709 128.329 49.1993 129.012C49.3695 129.353 49.5398 129.652 49.7101 129.909C49.9657 130.165 50.2214 130.464 50.4769 130.806C50.3057 131.232 50.1344 131.658 49.9632 132.085C49.792 132.511 49.6207 132.98 49.4493 133.492C49.9602 134.346 50.6416 135.328 51.4934 136.439C52.0052 136.61 52.3891 136.696 52.6451 136.696C53.5838 136.698 54.5224 136.699 55.4611 136.7C56.4851 136.702 57.4664 136.745 58.4049 136.832L58.7889 136.833C59.6427 136.492 60.4535 136.365 61.2214 136.452C61.9893 136.538 62.8 136.539 63.6534 136.455L65.3174 136.457C67.2799 136.631 69.1998 136.676 71.0772 136.593C73.0399 136.595 75.0026 136.555 76.9654 136.473L78.6282 137.371C79.055 137.286 79.4818 137.201 79.9086 137.117C80.3353 137.032 80.7621 136.947 81.1889 136.862C81.6155 136.948 81.9993 137.034 82.3406 137.12C82.6817 137.291 83.0655 137.419 83.492 137.505C83.8334 137.506 84.0894 137.463 84.2602 137.378C85.2848 136.953 86.2237 136.784 87.0769 136.87L88.9969 136.873C89.3382 136.873 89.5943 136.788 89.7652 136.618C90.0215 136.447 90.3202 136.362 90.6616 136.363C90.8321 136.448 91.2161 136.492 91.8134 136.492C92.3255 136.408 92.8376 136.323 93.3497 136.238C93.8618 136.154 94.374 136.026 94.8862 135.856C95.3135 135.43 95.4421 134.961 95.2721 134.449C95.1875 133.937 95.1881 133.468 95.274 133.041C95.4452 132.615 95.5312 132.145 95.5318 131.633C95.5325 131.121 95.5333 130.567 95.5341 129.969C95.8762 129.372 96.0051 128.69 95.9208 127.922C95.9217 127.239 96.0506 126.557 96.3075 125.874C96.7346 125.534 97.2468 125.364 97.8442 125.364C98.4414 125.45 98.8682 125.366 99.1245 125.11C99.4661 124.94 99.8927 124.94 100.404 125.112C101.002 125.283 101.514 125.284 101.94 125.114C102.367 125.456 102.665 125.499 102.836 125.243C103.007 124.987 103.349 124.988 103.86 125.244C104.287 125.501 104.756 125.63 105.268 125.63C105.865 125.631 106.334 125.802 106.675 126.144C106.846 126.315 107.102 126.358 107.443 126.273C107.87 126.274 108.254 126.317 108.595 126.403C108.765 126.574 108.85 126.958 108.849 127.555C108.934 128.152 109.061 128.494 109.232 128.579C109.658 128.921 109.956 129.306 110.126 129.733C110.296 130.245 110.509 130.757 110.764 131.27C110.764 131.44 110.764 131.654 110.763 131.91C110.848 132.166 110.891 132.464 110.89 132.806C110.889 133.488 110.888 134.214 110.887 134.982C110.886 135.75 110.928 136.475 111.013 137.158C111.182 137.841 111.309 138.524 111.394 139.206C111.564 139.889 111.691 140.615 111.775 141.383C111.945 142.151 111.901 142.919 111.644 143.687C111.301 144.796 111.342 146.161 111.766 147.783C111.851 148.124 111.936 148.423 112.021 148.679C112.106 148.935 112.191 149.149 112.276 149.32C112.19 149.917 112.104 150.429 112.018 150.855C111.932 151.367 111.889 151.794 111.889 152.135C111.888 152.391 111.931 152.647 112.016 152.903C112.101 153.245 112.143 153.501 112.143 153.671C112.142 154.525 112.098 155.293 112.012 155.975C112.011 156.743 111.924 157.511 111.753 158.279C111.494 159.9 111.407 161.35 111.491 162.63C111.576 163.057 111.575 163.399 111.489 163.654C111.489 163.996 111.489 164.209 111.489 164.294C111.402 164.892 111.189 165.318 110.847 165.574C110.59 165.915 110.377 166.17 110.206 166.341C108.839 167.704 107.43 168.001 105.981 167.231C105.895 167.146 105.597 167.103 105.085 167.102C104.914 167.187 104.701 167.229 104.445 167.229C104.274 167.314 104.018 167.399 103.676 167.484Z" fill="#FF355A"/>
<path d="M114.75 31.75V42.375H113.5C106.407 42.375 100.772 45.1246 96.4834 50.665L96.4795 50.6709C92.1591 56.1836 89.9531 63.2607 89.9531 72C89.9531 80.7354 92.1565 87.8506 96.4785 93.4375H96.4795C100.766 98.9063 106.401 101.625 113.5 101.625C120.377 101.625 125.881 99.0739 130.115 93.9424L130.521 93.4375C134.857 87.8324 137.047 81.0697 137.047 73.083C137.047 68.9829 136.753 65.5813 136.184 62.8584C135.612 60.1247 134.778 58.1538 133.754 56.8447L133.75 56.8398L133.746 56.834C131.549 53.9571 129.119 52.667 126.438 52.667C123.606 52.667 121.186 53.6554 119.115 55.6709C117.078 57.6543 116.044 60.1741 116.044 63.333C116.044 65.3153 116.469 66.8664 117.238 68.0605C117.918 69.0496 118.875 69.5585 120.292 69.5586C121.55 69.5586 122.402 69.0695 123.017 68.0322C123.692 66.892 124.109 65.0203 124.109 62.25V61H135.234V62.25C135.234 67.1394 134.11 71.3641 131.792 74.8574L131.784 74.8682C129.336 78.4766 125.403 80.1836 120.292 80.1836C115.2 80.1836 111.221 78.5645 108.623 75.1387C106.136 71.8585 104.919 67.8996 104.919 63.333C104.919 57.0938 107.055 51.9447 111.362 48.0029C115.611 44.0419 120.619 42.042 126.33 42.042C131.681 42.0421 136.572 44.0058 140.975 47.8379L141.399 48.2148L141.401 48.2158C143.83 50.4204 145.721 53.5857 147.131 57.6123C148.554 61.6759 149.25 66.4074 149.25 71.7832C149.25 83.5007 146.091 93.2278 139.686 100.861L139.682 100.866C133.234 108.475 124.458 112.25 113.5 112.25C102.542 112.25 93.7656 108.475 87.3184 100.866L87.3145 100.862L88.2715 100.059L87.3145 100.861C80.9117 93.2306 77.75 83.5774 77.75 72C77.75 60.425 80.9101 50.8061 87.3145 43.2461L87.9258 42.5381C94.3112 35.3302 102.88 31.75 113.5 31.75H114.75Z" fill="#FF6600" stroke="#FF6600" stroke-width="2.5"/>
</svg>
