<svg width="121" height="37" viewBox="0 0 121 37" fill="none" xmlns="http://www.w3.org/2000/svg">
<path d="M39.6914 13.9359C39.5364 14.4267 39.4719 14.8917 39.4977 15.3308C39.5235 15.46 39.5235 15.6021 39.4977 15.7571C39.4719 15.8863 39.446 16.0154 39.4202 16.1446C39.3944 16.2479 39.3814 16.3771 39.3814 16.5321C39.4073 16.6871 39.3944 16.8162 39.3427 16.9196C39.291 17.1004 39.291 17.2812 39.3427 17.4621C39.3944 17.6171 39.4331 17.7721 39.4589 17.9271C39.4073 18.1079 39.3556 18.3145 39.3039 18.547C39.2523 18.7537 39.2394 18.9862 39.2652 19.2445C39.2652 19.5545 39.2264 19.8645 39.1489 20.1745C39.1231 20.3553 39.1231 20.5362 39.1489 20.717C39.2523 21.0528 39.291 21.3757 39.2652 21.6857C39.2394 21.9957 39.1748 22.3057 39.0714 22.6157C38.9681 22.7966 38.9165 22.9774 38.9165 23.1582C38.9423 23.4424 38.9035 23.7136 38.8002 23.972C38.6969 24.2303 38.5806 24.4886 38.4515 24.7469C38.4256 24.8244 38.374 24.889 38.2965 24.9407C38.219 24.9924 38.1544 25.0569 38.1027 25.1344C37.9219 25.7286 37.7798 26.1548 37.6765 26.4132C37.5731 26.6457 37.3794 27.0202 37.0952 27.5369C37.0694 27.5886 37.0177 27.6531 36.9402 27.7306C36.8627 27.8081 36.7982 27.8727 36.7465 27.9244C36.7207 27.9761 36.6819 28.0148 36.6302 28.0406C36.6044 28.0665 36.5915 28.0923 36.5915 28.1181C36.4882 28.454 36.3332 28.7381 36.1265 28.9706C35.9198 29.2031 35.7132 29.4227 35.5065 29.6294C35.4032 29.7327 35.3128 29.8489 35.2353 29.9781C35.1836 30.0814 35.1061 30.1977 35.0028 30.3269C34.7444 30.5077 34.499 30.6885 34.2665 30.8693C34.034 31.0502 33.7886 31.231 33.5303 31.4118C33.3753 31.5152 33.2203 31.6056 33.0653 31.6831C32.8845 31.7348 32.7036 31.8122 32.5228 31.9156C32.342 31.9931 32.1611 32.0577 31.9803 32.1093C31.7995 32.2127 31.6187 32.3031 31.4378 32.3806C31.257 32.4322 31.0762 32.5097 30.8953 32.6131H30.0041C29.8749 32.6647 29.7328 32.7293 29.5779 32.8068C29.4487 32.8585 29.3066 32.8714 29.1516 32.8456C28.9966 32.8197 28.8416 32.8585 28.6866 32.9618C28.5574 33.0393 28.4154 33.091 28.2604 33.1168C28.1829 33.091 28.0925 33.0651 27.9891 33.0393C27.8858 33.0135 27.7825 33.0006 27.6791 33.0006C27.5758 33.0781 27.4725 33.1556 27.3691 33.2331C27.2916 33.2847 27.2012 33.3493 27.0979 33.4268C27.0721 33.4268 27.0333 33.4397 26.9816 33.4656C26.9558 33.4656 26.9171 33.4656 26.8654 33.4656C26.7621 33.4656 26.6458 33.4785 26.5166 33.5043C26.4133 33.5043 26.31 33.4914 26.2067 33.4656C26.0258 33.3622 25.8579 33.3235 25.7029 33.3493C25.5479 33.3751 25.38 33.3493 25.1992 33.2718C24.9925 33.2201 24.8892 33.1039 24.8892 32.9231C24.8892 32.6906 24.76 32.5485 24.5017 32.4968C24.4242 32.4968 24.3467 32.5097 24.2692 32.5356C24.2175 32.5356 24.1529 32.5356 24.0754 32.5356C23.9721 32.5097 23.8817 32.4581 23.8042 32.3806C23.7267 32.3031 23.6363 32.2385 23.5329 32.1868C23.4038 32.0835 23.2617 31.9931 23.1067 31.9156C22.9517 31.8122 22.7838 31.7477 22.603 31.7218C22.448 31.696 22.293 31.6573 22.138 31.6056C22.0088 31.5281 21.8796 31.4764 21.7505 31.4506C21.4663 31.3473 21.2596 31.1148 21.1305 30.7531C21.053 30.4173 20.9109 30.146 20.7042 29.9394C20.6267 29.836 20.5622 29.7456 20.5105 29.6681C20.4588 29.5648 20.4072 29.4615 20.3555 29.3581C20.3038 29.3065 20.2522 29.229 20.2005 29.1256C20.1488 29.0223 20.0972 28.9577 20.0455 28.9319C19.7872 28.7769 19.5805 28.5831 19.4255 28.3506C19.2963 28.1181 19.1801 27.8727 19.0768 27.6144C19.0509 27.5886 19.0251 27.5498 18.9993 27.4982C18.9993 27.4465 18.9864 27.4077 18.9605 27.3819C18.7797 27.2786 18.6893 27.1236 18.6893 26.9169C18.6893 26.7102 18.6634 26.5165 18.6118 26.3357C18.5601 26.284 18.4955 26.2194 18.418 26.1419C18.3405 26.0644 18.263 25.974 18.1855 25.8707C18.1339 25.664 18.0693 25.4573 17.9918 25.2507C17.9143 25.044 17.8497 24.8244 17.798 24.5919C17.798 24.1786 17.7851 23.8815 17.7593 23.7007C17.7593 23.494 17.7464 23.3003 17.7205 23.1195C17.6947 22.9128 17.6301 22.6286 17.5268 22.267C17.5268 22.0603 17.5655 21.8537 17.643 21.647C17.7464 21.4403 17.7722 21.1949 17.7205 20.9108C17.643 20.7816 17.5655 20.6266 17.488 20.4458C17.4364 20.2649 17.3589 20.0841 17.2555 19.9033C17.2555 19.8516 17.2426 19.787 17.2168 19.7095C17.2168 19.632 17.2168 19.5674 17.2168 19.5158C17.2426 19.3091 17.2555 19.1154 17.2555 18.9345C17.2555 18.7537 17.2555 18.5729 17.2555 18.392C17.2555 18.1854 17.2814 17.9787 17.333 17.7721C17.3847 17.5396 17.4235 17.3329 17.4493 17.1521C17.501 16.8679 17.5397 16.5967 17.5655 16.3383C17.6172 16.0542 17.6689 15.77 17.7205 15.4858C17.7722 15.0725 17.8626 14.6592 17.9918 14.2459C18.1209 13.8325 18.263 13.4192 18.418 13.0059C18.7022 12.8251 18.9605 12.6571 19.193 12.5021C19.4513 12.3471 19.7097 12.1792 19.968 11.9984H21.6342L22.0605 12.1534C22.1896 12.1792 22.3188 12.1792 22.448 12.1534C22.5771 12.1017 22.7063 12.063 22.8355 12.0371C22.9646 12.1146 23.1067 12.2051 23.2617 12.3084C23.4425 12.3859 23.6234 12.4892 23.8042 12.6184C23.8042 12.6701 23.8171 12.7346 23.8429 12.8121C23.8946 12.8896 23.9204 12.9542 23.9204 13.0059C23.9204 13.1867 23.9075 13.3805 23.8817 13.5871C23.8817 13.7938 23.8429 14.0004 23.7654 14.2071C23.7138 14.4396 23.7138 14.685 23.7654 14.9434C23.7913 15.0208 23.8042 15.15 23.8042 15.3308C23.7784 15.5375 23.7396 15.7571 23.6879 15.9896C23.6363 16.2221 23.5717 16.4417 23.4942 16.6483C23.4684 16.7517 23.4554 16.855 23.4554 16.9583C23.4554 17.0358 23.4684 17.1133 23.4942 17.1908C23.5717 17.3975 23.5717 17.5912 23.4942 17.7721C23.4425 17.9529 23.4425 18.1337 23.4942 18.3145C23.6492 18.6245 23.7009 18.9862 23.6492 19.3995C23.6492 19.6062 23.6879 19.7741 23.7654 19.9033C23.8946 20.1358 23.9592 20.3683 23.9592 20.6008C23.985 20.8074 23.985 21.027 23.9592 21.2595C23.9075 21.4662 23.8946 21.6728 23.9204 21.8795C23.9721 22.0862 24.0367 22.2799 24.1142 22.4607C24.2175 22.6157 24.295 22.7707 24.3467 22.9257C24.3983 23.0549 24.4758 23.2099 24.5792 23.3907C24.7083 23.5199 24.8504 23.662 25.0054 23.817C25.1604 23.972 25.2896 24.1528 25.3929 24.3595C25.4187 24.4886 25.5221 24.6436 25.7029 24.8244C25.7029 24.8244 25.7417 24.8503 25.8192 24.9019C25.9483 24.9278 26.0775 24.9407 26.2067 24.9407C26.3617 24.9407 26.5037 24.9407 26.6329 24.9407C26.7621 25.044 26.8783 25.1344 26.9816 25.2119C27.085 25.2894 27.1883 25.3669 27.2916 25.4444C27.4466 25.3669 27.5887 25.2894 27.7179 25.2119C27.847 25.1344 27.9762 25.044 28.1054 24.9407L28.6479 24.8244C28.6737 24.8244 28.6995 24.8244 28.7254 24.8244C28.777 24.7986 28.8158 24.7986 28.8416 24.8244C29.5649 25.0569 30.1203 24.8115 30.5078 24.0882C30.5595 23.9332 30.637 23.7782 30.7403 23.6232C30.8437 23.4682 30.9212 23.3003 30.9728 23.1195C31.0245 22.9903 31.0891 22.8741 31.1666 22.7707C31.2441 22.6674 31.3216 22.5641 31.3991 22.4607V21.9182C31.4766 21.8666 31.5541 21.802 31.6316 21.7245C31.7349 21.6212 31.8382 21.5437 31.9416 21.492C31.9932 21.3628 32.032 21.2337 32.0578 21.1045C32.1095 20.9753 32.1741 20.8462 32.2516 20.717C32.3032 20.6137 32.342 20.5233 32.3678 20.4458C32.4195 20.3424 32.4841 20.2391 32.5616 20.1358C32.5357 20.0066 32.5099 19.9033 32.4841 19.8258C32.4582 19.7483 32.4324 19.6579 32.4066 19.5545C32.5874 19.1412 32.6907 18.7408 32.7165 18.3533C32.7424 18.2241 32.7424 18.095 32.7165 17.9658C32.7165 17.8108 32.7036 17.6558 32.6778 17.5008C32.7295 17.3716 32.7682 17.2554 32.794 17.1521C32.8457 17.0229 32.8845 16.9067 32.9103 16.8033C32.9103 16.5967 32.8845 16.4029 32.8328 16.2221C32.807 16.0154 32.8199 15.8217 32.8715 15.6408C32.9232 15.46 32.9361 15.3308 32.9103 15.2533C32.807 14.84 32.7811 14.4396 32.8328 14.0521C32.8845 13.6646 32.962 13.303 33.0653 12.9671C33.0395 12.838 33.0136 12.7088 32.9878 12.5796C32.9878 12.4505 32.9878 12.3213 32.9878 12.1921C33.0395 12.1405 33.0911 12.1017 33.1428 12.0759C33.1945 12.0501 33.2332 11.9984 33.259 11.9209C33.3882 11.9726 33.4915 12.0242 33.569 12.0759C33.6724 12.1017 33.7757 12.1276 33.879 12.1534C34.2407 12.2826 34.6024 12.3859 34.964 12.4634C35.3257 12.5409 35.7003 12.528 36.0877 12.4246C36.5269 12.4505 36.9661 12.4763 37.4052 12.5021C37.8702 12.5021 38.3223 12.5667 38.7615 12.6959C39.1231 12.7992 39.3427 12.993 39.4202 13.2771L39.6914 13.9359Z" fill="#FFE1BE"/>
<path d="M61.9602 24.1846C62.0119 24.2621 62.0248 24.3525 61.999 24.4558C61.9731 24.5333 61.9344 24.6108 61.8827 24.6883C61.8052 24.74 61.7277 24.8175 61.6502 24.9208C61.5727 24.9983 61.4823 25.0629 61.379 25.1146C61.224 25.2179 61.069 25.3341 60.914 25.4633C60.759 25.5925 60.604 25.7216 60.449 25.8508C60.1132 26.1091 59.8161 26.3675 59.5578 26.6258C59.3253 26.8583 59.0411 27.1812 58.7053 27.5945C58.6536 27.6462 58.589 27.6979 58.5115 27.7495C58.4599 27.827 58.3953 27.8916 58.3178 27.9433C58.2919 27.9691 58.2403 27.9949 58.1628 28.0208C58.1111 28.0466 58.0594 28.0724 58.0078 28.0983C57.9819 28.0724 57.9432 28.0466 57.8915 28.0208C57.8399 28.0208 57.7882 28.0079 57.7365 27.982C57.5299 27.7754 57.3103 27.5687 57.0778 27.362C56.8711 27.1554 56.6516 26.9616 56.4191 26.7808C56.0832 26.5483 55.7861 26.29 55.5278 26.0058C55.2695 25.6958 54.9982 25.3987 54.7141 25.1146C54.6366 25.0371 54.572 24.9467 54.5203 24.8433C54.4945 24.7142 54.4558 24.5979 54.4041 24.4946C54.3008 24.4429 54.1845 24.3912 54.0553 24.3396C53.952 24.2621 53.8487 24.1846 53.7453 24.1071C53.642 24.0037 53.5387 23.8875 53.4354 23.7583C53.3579 23.6292 53.2804 23.5 53.2029 23.3708C53.0737 23.1642 52.9445 22.9704 52.8154 22.7896C52.6862 22.6088 52.5312 22.4279 52.3504 22.2471C52.247 22.1179 52.1695 21.9759 52.1179 21.8209C52.0662 21.6659 51.9629 21.5367 51.8079 21.4334C51.6529 21.3817 51.485 21.343 51.3041 21.3171C51.1233 21.2655 50.9554 21.2267 50.8004 21.2009C50.5679 21.2525 50.3871 21.4205 50.2579 21.7046C49.9221 22.4279 49.3667 23.0221 48.5917 23.4871C48.385 23.6163 48.2042 23.7842 48.0492 23.9908C47.8942 24.1975 47.7134 24.4042 47.5067 24.6108C47.1967 25.1017 46.8221 25.5279 46.383 25.8896C45.9696 26.2512 45.5046 26.587 44.988 26.897C44.9105 26.9745 44.8201 27.052 44.7167 27.1295C44.6134 27.207 44.4972 27.2974 44.368 27.4008L43.1668 27.7883C42.7534 27.6074 42.4047 27.3491 42.1205 27.0133C41.8622 26.6775 41.5522 26.4191 41.1905 26.2383C40.9839 25.9283 40.816 25.6183 40.6868 25.3083C40.5576 24.9983 40.4543 24.6883 40.3768 24.3783C40.506 24.0942 40.6222 23.8358 40.7256 23.6033C40.8547 23.3708 40.9968 23.1771 41.1518 23.0221C41.4618 22.7896 41.6555 22.5054 41.733 22.1696C41.8622 22.0146 41.9655 21.8467 42.043 21.6659C42.1464 21.6142 42.2239 21.5884 42.2755 21.5884C42.353 21.5884 42.4305 21.5755 42.508 21.5496C42.6889 21.498 42.7793 21.4075 42.7793 21.2784C42.7793 21.1234 42.8309 21.02 42.9343 20.9684C43.0376 20.8909 43.1409 20.8392 43.2443 20.8134C43.3218 20.7876 43.3863 20.7876 43.438 20.8134C43.5155 20.8134 43.593 20.8005 43.6705 20.7746C43.6963 20.723 43.7222 20.6842 43.748 20.6584C43.7738 20.6067 43.7868 20.568 43.7868 20.5421C43.7868 20.3871 43.7997 20.2451 43.8255 20.1159C43.8513 19.9609 43.9288 19.8317 44.058 19.7284C44.058 19.4442 44.1355 19.2376 44.2905 19.1084C44.4713 18.9792 44.6651 18.8372 44.8717 18.6822C44.9492 18.4755 45.0267 18.2688 45.1042 18.0622C45.1817 17.8555 45.2463 17.6876 45.298 17.5584C45.4013 17.3001 45.5434 17.1193 45.7242 17.0159C45.9051 16.9126 46.0084 16.7576 46.0342 16.551C46.0084 16.5251 45.9955 16.4864 45.9955 16.4347C45.8663 16.3055 45.7242 16.1764 45.5692 16.0472C45.4401 15.8922 45.3109 15.7372 45.1817 15.5822C45.0526 15.4272 44.9363 15.2722 44.833 15.1172C44.7297 14.9364 44.6005 14.7814 44.4455 14.6522C44.3422 14.5489 44.2647 14.4068 44.213 14.226C44.1613 14.0452 44.0838 13.9289 43.9805 13.8772C43.903 13.7997 43.7997 13.7352 43.6705 13.6835C43.6447 13.5543 43.6059 13.4381 43.5543 13.3348C43.5284 13.2314 43.5026 13.1152 43.4768 12.986C43.4509 12.9602 43.4122 12.9343 43.3605 12.9085C43.3088 12.8568 43.2572 12.8181 43.2055 12.7923C42.9472 12.6631 42.7147 12.4952 42.508 12.2885C42.3014 12.056 42.0947 11.8494 41.888 11.6685C41.7847 11.591 41.7072 11.5006 41.6555 11.3973C41.5005 11.0356 41.2939 10.7256 41.0356 10.4673C40.7772 10.1831 40.506 9.88606 40.2218 9.57606C40.0926 9.34357 39.9635 9.09815 39.8343 8.83983C39.7052 8.55566 39.5889 8.2715 39.4856 7.98734C39.3822 7.78067 39.266 7.57401 39.1368 7.36735C39.0335 7.13485 38.9431 6.90236 38.8656 6.66986C38.8139 6.61819 38.7881 6.50195 38.7881 6.32111C38.9947 6.03695 39.2402 5.81737 39.5243 5.66238C39.8085 5.48154 40.0281 5.24905 40.1831 4.96489C40.3381 4.93905 40.4801 4.93905 40.6093 4.96489C40.7643 4.99072 40.8935 4.95197 40.9968 4.84864C41.0743 4.77114 41.1905 4.73239 41.3455 4.73239C41.6814 4.65489 42.0172 4.56448 42.353 4.46114C42.6889 4.33198 43.0247 4.24156 43.3605 4.1899C43.4122 4.16407 43.4768 4.13823 43.5543 4.1124C43.6318 4.08657 43.6963 4.07365 43.748 4.07365C44.1097 4.02198 44.3938 4.09948 44.6005 4.30615C44.6522 4.35781 44.7038 4.40948 44.7555 4.46114C44.833 4.48698 44.8847 4.52573 44.9105 4.57739C45.0913 4.83572 45.2851 5.06822 45.4917 5.27488C45.7242 5.45571 45.9567 5.62363 46.1892 5.77862C46.37 6.16612 46.4863 6.42445 46.538 6.55361C46.5896 6.68278 46.6542 6.78611 46.7317 6.86361C46.8092 6.91527 46.9642 7.0186 47.1967 7.1736C47.2225 7.19943 47.2484 7.23818 47.2742 7.28985C47.3 7.31568 47.313 7.35443 47.313 7.4061C47.3904 7.79359 47.61 8.02609 47.9717 8.10359C48.1267 8.15525 48.2171 8.18108 48.2429 8.18108C48.3721 8.28442 48.4367 8.4265 48.4367 8.60733C48.4625 8.76233 48.5658 8.90441 48.7467 9.03357C48.9017 9.03357 49.0308 9.08524 49.1342 9.18857C49.2117 9.2144 49.2763 9.24024 49.3279 9.26607C49.4054 9.26607 49.4571 9.26607 49.4829 9.26607C49.7154 9.4469 49.8575 9.67939 49.9092 9.96356C49.9867 10.2219 50.1287 10.4285 50.3354 10.5835H50.5291C50.7358 10.506 50.9425 10.4285 51.1491 10.3511C51.3558 10.2736 51.5625 10.1961 51.7691 10.1186C51.8725 9.98939 51.9629 9.86023 52.0404 9.73106C52.1179 9.6019 52.2083 9.47273 52.3116 9.34357C52.4408 9.1369 52.5829 8.93024 52.7379 8.72358C52.8929 8.49108 53.0479 8.28442 53.2029 8.10359C53.3579 7.89692 53.4741 7.67734 53.5516 7.44485C53.6291 7.21235 53.7324 7.00569 53.8616 6.82486C53.9908 6.61819 54.1199 6.43736 54.2491 6.28237C54.4041 6.10154 54.572 5.90779 54.7528 5.70113C54.9337 5.15863 55.192 4.64197 55.5278 4.15115C55.8895 3.66032 56.3028 3.20825 56.7678 2.79492C57.052 2.89825 57.3103 2.98867 57.5428 3.06617C57.7753 3.14367 58.0078 3.25991 58.2403 3.41491C58.5244 3.67324 58.9119 3.86699 59.4028 3.99615C59.5319 4.02199 59.6482 4.06073 59.7515 4.1124C59.8548 4.16407 59.9582 4.20281 60.0615 4.22865C60.2423 4.38365 60.3586 4.53864 60.4102 4.69364C60.4877 4.84864 60.5523 5.01655 60.604 5.19738C60.6557 5.22322 60.7073 5.24905 60.759 5.27488C60.8365 5.30071 60.9011 5.32655 60.9527 5.35238C61.0044 5.45571 61.0561 5.57196 61.1077 5.70113C61.1852 5.80446 61.2498 5.92071 61.3015 6.04987C61.379 6.1532 61.4694 6.25653 61.5727 6.35987C61.7019 6.43736 61.7794 6.55361 61.8052 6.70861C61.7794 6.83777 61.7277 6.97986 61.6502 7.13485C61.5986 7.26402 61.5469 7.39318 61.4952 7.52235V8.33608C61.3919 8.51691 61.2627 8.64608 61.1077 8.72358C60.9786 8.77524 60.8494 8.83982 60.7202 8.91732C60.6944 8.96899 60.6557 9.02066 60.604 9.07232C60.5782 9.09815 60.5394 9.1369 60.4877 9.18857C60.3327 9.47273 60.1648 9.74398 59.984 10.0023C59.829 10.2606 59.6353 10.519 59.4028 10.7773C59.2478 10.9581 59.1057 11.1519 58.9765 11.3585C58.8474 11.5652 58.7053 11.7719 58.5503 11.9785V12.4435C58.4469 12.5468 58.3307 12.6631 58.2015 12.7923C58.0982 12.8956 58.0078 13.0248 57.9303 13.1798C57.8269 13.3348 57.7107 13.4639 57.5815 13.5673C57.4524 13.6706 57.362 13.8127 57.3103 13.9935C57.2328 14.1743 57.1165 14.3164 56.9615 14.4197C56.8065 14.4972 56.6774 14.6651 56.5741 14.9235C56.5482 15.0268 56.5224 15.156 56.4966 15.311C56.4966 15.466 56.4707 15.6339 56.4191 15.8147C57.039 16.6155 57.5815 17.468 58.0465 18.3722V18.8372C58.1757 18.9663 58.2919 19.0826 58.3953 19.1859C58.5244 19.2892 58.6278 19.3926 58.7053 19.4959C59.1961 20.1159 59.7128 20.6584 60.2552 21.1234C60.3586 21.2267 60.449 21.343 60.5265 21.4721C60.6298 21.5755 60.6815 21.7046 60.6815 21.8596C60.7073 21.9629 60.759 22.0663 60.8365 22.1696C60.914 22.2729 60.9656 22.3634 60.9915 22.4409C61.1981 22.6992 61.3661 22.9833 61.4952 23.2933C61.6244 23.6033 61.7794 23.9004 61.9602 24.1846Z" fill="#FFE1BE"/>
<path d="M74.2487 14.2163C74.3262 14.3972 74.3649 14.5909 74.3649 14.7976C74.3907 15.0042 74.3391 15.2109 74.2099 15.4176C74.1582 15.5209 74.1324 15.6242 74.1324 15.7276C74.1582 15.805 74.1712 15.9084 74.1712 16.0375C74.1195 16.115 74.0549 16.1925 73.9774 16.27C73.8999 16.3217 73.8353 16.3992 73.7837 16.5025C73.732 16.5542 73.6803 16.6188 73.6287 16.6963C73.6028 16.7738 73.5383 16.8384 73.4349 16.89C73.3058 16.8642 73.1508 16.8513 72.9699 16.8513C72.7891 16.8513 72.6212 16.8513 72.4662 16.8513C72.0787 16.8513 71.7299 16.9546 71.42 17.1613C71.3166 17.2646 71.2133 17.3421 71.11 17.3938C71.0066 17.4196 70.9033 17.4584 70.8 17.51C70.645 17.665 70.5933 17.82 70.645 17.975V18.7113C70.6708 18.9437 70.6966 19.1762 70.7225 19.4087C70.7741 19.6154 70.787 19.8479 70.7612 20.1062C70.7354 20.1579 70.7354 20.2354 70.7612 20.3387C70.787 20.4162 70.8129 20.4808 70.8387 20.5325C70.8129 20.6358 70.7741 20.7262 70.7225 20.8037C70.6966 20.8554 70.6708 20.9329 70.645 21.0362C70.6708 21.1395 70.6966 21.2429 70.7225 21.3462C70.7483 21.4237 70.7741 21.5141 70.8 21.6175C70.8 21.7466 70.787 21.837 70.7612 21.8887C70.7095 22.0437 70.6579 22.1987 70.6062 22.3537C70.5804 22.5087 70.5416 22.6637 70.49 22.8187C70.4125 22.9995 70.3996 23.1674 70.4512 23.3224C70.5029 23.4774 70.49 23.6324 70.4125 23.7874C70.4125 24.3299 70.3866 24.8595 70.335 25.3761C70.2833 25.8928 70.2446 26.4095 70.2187 26.9261C70.2187 27.5978 70.335 28.2824 70.5675 28.9798C70.6708 29.2123 70.8387 29.3286 71.0712 29.3286C71.1229 29.3028 71.1745 29.264 71.2262 29.2123C71.3037 29.1607 71.3812 29.1219 71.4587 29.0961C71.5362 29.0961 71.6008 29.1219 71.6525 29.1736C71.8591 29.4061 72.0916 29.5611 72.3499 29.6386C72.7633 29.7419 72.8795 29.9486 72.6987 30.2586C72.6212 30.4394 72.5824 30.6331 72.5824 30.8398C72.6083 31.0465 72.6083 31.2531 72.5824 31.4598C72.5308 32.0281 72.5049 32.6094 72.5049 33.2035C72.5049 33.7718 72.5437 34.3531 72.6212 34.9472C72.6212 35.2314 72.5954 35.4122 72.5437 35.4897C72.5179 35.5931 72.3629 35.7481 72.0787 35.9547H71.9624C71.7558 35.9289 71.5491 35.9031 71.3425 35.8772C71.1616 35.8514 70.9808 35.8256 70.8 35.7997C70.3091 35.8772 69.87 35.916 69.4825 35.916C69.3017 35.9418 69.1208 35.9806 68.94 36.0322C68.785 36.1097 68.6042 36.1356 68.3975 36.1097C68.1908 36.0581 67.9842 36.0581 67.7775 36.1097C67.5708 36.1614 67.3642 36.1872 67.1575 36.1872C67.0542 36.1356 66.9509 36.0968 66.8475 36.071C66.77 36.0451 66.6667 36.0064 66.5375 35.9547C65.9175 36.0581 65.2976 36.1226 64.6776 36.1485C64.0576 36.1743 63.4247 36.2001 62.7788 36.226C62.6497 36.0451 62.5205 35.8772 62.3913 35.7222C62.2622 35.5931 62.1459 35.451 62.0426 35.296C61.9909 35.1152 61.8876 34.9602 61.7326 34.831C61.6034 34.7018 61.4743 34.5856 61.3451 34.4823C61.3193 34.2239 61.2676 33.9785 61.1901 33.746C61.1385 33.5394 61.1385 33.3327 61.1901 33.126C61.2676 32.9969 61.2934 32.8677 61.2676 32.7385C61.2159 32.506 61.203 32.2735 61.2289 32.041C61.2805 31.7827 61.3322 31.5373 61.3839 31.3048V30.8398C61.5905 30.7881 61.7972 30.7494 62.0039 30.7236C62.2105 30.6719 62.4172 30.6719 62.6238 30.7236C62.7272 30.6719 62.8176 30.6202 62.8951 30.5686C62.9726 30.4911 63.063 30.4136 63.1663 30.3361C63.2955 30.3877 63.4247 30.4394 63.5538 30.4911C63.683 30.5427 63.8251 30.5944 63.9801 30.6461C64.2384 30.4911 64.5355 30.2844 64.8713 30.0261C64.923 29.8711 64.9488 29.7548 64.9488 29.6773C64.9488 29.3932 64.9488 29.109 64.9488 28.8248C64.9488 28.5148 64.9617 28.2178 64.9876 27.9336V27.8174C64.8842 27.559 64.8455 27.3136 64.8713 27.0811C64.8971 26.8486 64.8971 26.6032 64.8713 26.3449V25.8411C64.923 25.247 64.9359 24.6657 64.9101 24.0974C64.9101 23.5033 64.8971 22.9091 64.8713 22.3149L65.1426 21.8112C65.1167 21.682 65.0909 21.5529 65.0651 21.4237C65.0392 21.2945 65.0134 21.1654 64.9876 21.0362C65.0134 20.9071 65.0392 20.7908 65.0651 20.6875C65.1167 20.5841 65.1555 20.4679 65.1813 20.3387C65.1813 20.2354 65.1684 20.1579 65.1426 20.1062C65.0134 19.7962 64.9617 19.5121 64.9876 19.2537V18.6725C64.9876 18.5692 64.9617 18.4917 64.9101 18.44C64.8584 18.3625 64.8326 18.2721 64.8326 18.1688C64.8584 18.1171 64.8713 18.0008 64.8713 17.82C64.8455 17.665 64.8196 17.51 64.7938 17.355C64.768 17.2 64.7292 17.045 64.6776 16.89C64.5484 16.7609 64.4063 16.7221 64.2513 16.7738C64.0963 16.7996 63.9542 16.7996 63.8251 16.7738C63.6959 16.7221 63.5538 16.6963 63.3988 16.6963C63.2438 16.6963 63.0759 16.6963 62.8951 16.6963C62.7143 16.593 62.5076 16.5542 62.2751 16.58C62.0684 16.58 61.8618 16.5413 61.6551 16.4638C61.5518 16.3346 61.5001 16.1796 61.5001 15.9988C61.5259 15.818 61.5001 15.6888 61.4226 15.6113C61.3709 15.508 61.3709 15.3788 61.4226 15.2238C61.4743 15.043 61.4743 14.888 61.4226 14.7588C61.5259 14.6297 61.5389 14.5392 61.4614 14.4876C61.3839 14.4359 61.3839 14.3326 61.4614 14.1776C61.5389 14.0484 61.5776 13.9063 61.5776 13.7513C61.5776 13.5705 61.6293 13.4284 61.7326 13.3251C61.7843 13.2734 61.7972 13.1959 61.7714 13.0926C61.7714 12.9634 61.7843 12.8472 61.8101 12.7438C61.8618 12.6922 61.978 12.6663 62.1589 12.6663C62.3397 12.6405 62.443 12.6018 62.4688 12.5501C62.5722 12.4209 62.6884 12.3305 62.8176 12.2789C62.9726 12.2272 63.1276 12.1626 63.2826 12.0851C63.3342 12.0851 63.3988 12.0851 63.4763 12.0851C63.5538 12.0593 63.6442 12.0464 63.7476 12.0464C63.9542 12.0464 64.1738 12.0464 64.4063 12.0464C64.6388 12.0464 64.8584 12.0334 65.0651 12.0076C65.2717 11.9559 65.4784 11.9172 65.685 11.8914C65.8917 11.8397 66.1113 11.8009 66.3438 11.7751C66.5763 11.7234 66.8088 11.7364 67.0413 11.8139C67.3771 11.9172 67.7904 11.9043 68.2813 11.7751C68.3846 11.7493 68.475 11.7234 68.5525 11.6976C68.63 11.6718 68.6946 11.6459 68.7462 11.6201C68.9271 11.6459 69.0821 11.6718 69.2112 11.6976C69.3662 11.7234 69.4954 11.7364 69.5987 11.7364C69.6762 11.7364 69.7537 11.7234 69.8312 11.6976C69.9346 11.6718 70.0121 11.6589 70.0637 11.6589C70.3221 11.6589 70.5546 11.6718 70.7612 11.6976C70.9937 11.6976 71.2262 11.7234 71.4587 11.7751C71.9495 11.8526 72.3887 11.8784 72.7762 11.8526C72.9053 11.8268 73.0087 11.8268 73.0862 11.8526C73.1895 11.8526 73.2541 11.8526 73.2799 11.8526C73.4608 11.8784 73.5899 11.943 73.6674 12.0464C73.7707 12.1239 73.8482 12.1884 73.8999 12.2401C74.3132 12.6534 74.4037 13.0797 74.1712 13.5188C74.1453 13.5447 74.1324 13.6351 74.1324 13.7901C74.1582 13.8417 74.1712 13.9063 74.1712 13.9838C74.197 14.0355 74.2228 14.113 74.2487 14.2163Z" fill="#FFE1BE"/>
<path d="M98.2149 12.7006C98.189 12.8556 98.1503 13.0106 98.0986 13.1656C98.0469 13.3206 97.9953 13.4756 97.9436 13.6306C97.9178 13.7339 97.9049 13.8889 97.9049 14.0956C97.8274 14.1731 97.7499 14.2635 97.6724 14.3668C97.6207 14.4443 97.5432 14.5477 97.4399 14.6768C97.4399 14.7802 97.414 14.9352 97.3624 15.1418C97.259 15.2193 97.1557 15.2968 97.0524 15.3743C96.949 15.4518 96.8328 15.5293 96.7036 15.6068C96.6778 15.7101 96.6391 15.8135 96.5874 15.9168C96.5357 15.9943 96.4841 16.0976 96.4324 16.2268C96.1482 16.4851 95.8899 16.7693 95.6574 17.0793C95.4507 17.3893 95.2053 17.6864 94.9212 17.9705C94.7662 18.0222 94.6112 17.9705 94.4562 17.8155C94.3012 17.6605 94.1333 17.5184 93.9524 17.3893C93.7974 17.2343 93.6166 17.1051 93.4099 17.0018C93.3324 16.9501 93.2808 16.9114 93.2549 16.8855C93.2291 16.8597 93.1904 16.821 93.1387 16.7693C93.0354 16.7693 92.9191 16.7435 92.7899 16.6918C92.6866 16.6401 92.5833 16.6014 92.48 16.5755C92.3508 16.5497 92.2345 16.498 92.1312 16.4205C92.0279 16.343 91.9245 16.2655 91.8212 16.188L91.395 15.7231C91.1366 15.7747 90.8912 15.7489 90.6587 15.6456C90.4521 15.5422 90.2196 15.4389 89.9612 15.3356C89.7804 15.3614 89.5996 15.3743 89.4188 15.3743C89.2379 15.3743 89.0442 15.3872 88.8375 15.4131C88.6567 15.5164 88.4759 15.6326 88.295 15.7618C88.1142 15.891 87.9334 16.0201 87.7525 16.1493C87.52 16.3301 87.2875 16.498 87.055 16.653C86.8484 16.7822 86.603 16.8726 86.3188 16.9243C86.293 16.9243 86.2542 16.9501 86.2026 17.0018C86.1509 17.0276 86.0992 17.0535 86.0476 17.0793C85.9442 17.1826 85.828 17.3118 85.6988 17.4668C85.5955 17.6218 85.4921 17.7639 85.3888 17.893C85.2597 18.2805 85.1563 18.6293 85.0788 18.9393C85.1047 19.0426 85.1176 19.133 85.1176 19.2105C85.1434 19.288 85.1692 19.3655 85.1951 19.443C85.1951 19.598 85.1176 19.7401 84.9626 19.8692C84.8851 19.9726 84.7947 20.063 84.6913 20.1405C84.6138 20.1922 84.5492 20.2955 84.4976 20.4505L84.7688 20.8767C84.7947 20.9801 84.7559 21.0834 84.6526 21.1867C84.5751 21.2901 84.5105 21.4063 84.4588 21.5355C84.4588 21.5613 84.4459 21.5742 84.4201 21.5742C84.3942 21.5742 84.3813 21.5871 84.3813 21.613C84.433 21.7938 84.4717 22.0005 84.4976 22.233C84.5492 22.4396 84.588 22.6463 84.6138 22.8529C84.8722 23.0596 85.0917 23.2792 85.2726 23.5117C85.4792 23.7442 85.673 23.9896 85.8538 24.2479C85.983 24.4029 86.1121 24.545 86.2413 24.6742C86.3963 24.8033 86.5384 24.9325 86.6675 25.0617C86.9259 25.1908 87.1842 25.32 87.4425 25.4492C87.7267 25.5525 87.9979 25.63 88.2563 25.6816C88.4629 25.7075 88.6438 25.7721 88.7988 25.8754C88.9796 25.9529 89.1863 26.0304 89.4188 26.1079C89.6512 26.1079 89.9096 26.1208 90.1937 26.1466C90.4779 26.1466 90.7621 26.1466 91.0462 26.1466C91.2271 26.1466 91.3433 26.1337 91.395 26.1079C91.6791 26.0304 91.9504 25.9916 92.2087 25.9916C92.467 25.9658 92.7254 25.9141 92.9837 25.8366C93.2679 25.785 93.5391 25.7462 93.7974 25.7204C94.0816 25.6946 94.3528 25.6687 94.6112 25.6429C94.6628 25.6429 94.7274 25.6171 94.8049 25.5654C94.9082 25.5137 94.9987 25.5137 95.0762 25.5654C95.1795 25.6687 95.257 25.7721 95.3087 25.8754C95.3603 25.9787 95.4249 26.095 95.5024 26.2241C95.4766 26.3016 95.4637 26.405 95.4637 26.5341C95.4637 26.6375 95.4637 26.7537 95.4637 26.8829C96.032 27.8387 96.4582 28.9366 96.7424 30.1766C96.3549 30.4607 95.9674 30.7578 95.5799 31.0678C95.2182 31.352 94.8308 31.662 94.4174 31.9978C94.2366 32.0753 94.0299 32.127 93.7974 32.1528C93.5908 32.1528 93.4229 32.2561 93.2937 32.4628C93.1904 32.4111 93.087 32.3724 92.9837 32.3465C92.9062 32.3207 92.8416 32.2949 92.7899 32.269C92.6866 32.2949 92.622 32.3465 92.5962 32.424C92.5704 32.5015 92.5316 32.5661 92.48 32.6178C92.325 32.5403 92.1829 32.4628 92.0537 32.3853C92.0279 32.4111 91.9633 32.437 91.86 32.4628C91.7825 32.4886 91.7179 32.5145 91.6662 32.5403C91.4079 32.592 91.1625 32.6436 90.93 32.6953C90.6975 32.7728 90.4521 32.8115 90.1937 32.8115C90.0129 32.8115 89.8062 32.8115 89.5738 32.8115C89.3413 32.8374 89.1217 32.8632 88.915 32.889C88.8633 32.889 88.7988 32.8761 88.7213 32.8503C88.6438 32.8503 88.5533 32.8374 88.45 32.8115C88.1142 32.7082 87.8946 32.6307 87.7913 32.579C87.6879 32.5274 87.4684 32.3982 87.1325 32.1915C86.9259 32.1657 86.7709 32.2303 86.6675 32.3853C86.59 32.5661 86.4867 32.6565 86.3576 32.6565H85.8926C85.6859 32.579 85.4792 32.5015 85.2726 32.424C85.0659 32.3465 84.8463 32.2949 84.6138 32.269C84.433 32.2432 84.2651 32.2045 84.1101 32.1528C83.9809 32.0753 83.8259 32.0107 83.6451 31.959C83.4643 31.804 83.2705 31.6491 83.0639 31.4941C82.883 31.3132 82.6893 31.1711 82.4826 31.0678C82.3018 30.9903 82.121 30.887 81.9401 30.7578C81.7851 30.6028 81.643 30.4478 81.5139 30.2928C81.4105 30.1378 81.2943 30.0216 81.1651 29.9441C81.036 29.8407 80.9197 29.7245 80.8164 29.5953C80.6356 29.3112 80.416 29.0528 80.1576 28.8203C80.0285 28.6912 79.9122 28.562 79.8089 28.4329C79.7314 28.2779 79.6281 28.1358 79.4989 28.0066C79.4214 27.645 79.3439 27.2833 79.2664 26.9216C79.2147 26.56 79.1631 26.1854 79.1114 25.7979C79.0598 25.7462 78.9952 25.6687 78.9177 25.5654C78.866 25.4362 78.7885 25.32 78.6852 25.2167C78.6593 25.01 78.6206 24.7904 78.5689 24.5579C78.5173 24.2996 78.4268 24.0671 78.2977 23.8604C78.3235 23.7571 78.3623 23.6279 78.4139 23.4729C78.4139 23.3438 78.4139 23.2792 78.4139 23.2792C78.2073 22.7109 78.1427 22.1684 78.2202 21.6517C78.2718 21.2901 78.3106 20.9155 78.3364 20.528C78.3881 20.1147 78.4268 19.7142 78.4527 19.3267C78.5302 19.2751 78.5948 19.2234 78.6464 19.1718C78.7239 19.1201 78.8014 19.0684 78.8789 19.0168C78.5689 18.5259 78.5689 17.9834 78.8789 17.3893C78.7498 17.131 78.6852 16.9243 78.6852 16.7693C78.6852 16.6143 78.6852 16.5368 78.6852 16.5368C78.7885 16.4335 78.8789 16.3301 78.9564 16.2268C79.0339 16.1235 79.1243 16.0201 79.2277 15.9168C79.4343 15.736 79.6152 15.5164 79.7702 15.2581C79.8477 15.1289 79.9122 14.9868 79.9639 14.8318C80.0414 14.6768 80.0672 14.5347 80.0414 14.4056C80.2481 14.2764 80.4547 14.186 80.6614 14.1343C80.8939 14.0568 81.0747 13.9406 81.2039 13.7856C81.2297 13.7598 81.2555 13.7081 81.2814 13.6306C81.2814 13.5531 81.2685 13.4627 81.2426 13.3593C81.2426 13.256 81.2426 13.1398 81.2426 13.0106C81.3201 12.9073 81.3847 12.7652 81.4364 12.5844C81.6172 12.481 81.7722 12.4035 81.9014 12.3519C82.0305 12.3002 82.1597 12.2356 82.2889 12.1581C82.3405 12.1064 82.3793 12.0548 82.4051 12.0031C82.4568 11.9514 82.4955 11.8998 82.5214 11.8481C82.7797 11.4348 83.1026 11.1377 83.4901 10.9569C83.6451 10.9052 83.8001 10.8406 83.9551 10.7631C84.1101 10.6856 84.2522 10.6211 84.3813 10.5694C84.4588 10.5177 84.5234 10.4661 84.5751 10.4144C84.6526 10.3369 84.7301 10.2723 84.8076 10.2206C84.9884 10.169 85.1822 10.1044 85.3888 10.0269C85.5696 9.9494 85.7505 9.8719 85.9313 9.7944C86.138 9.7169 86.3446 9.66524 86.5513 9.6394C86.7321 9.58774 86.9 9.52315 87.055 9.44566C87.2359 9.36816 87.4038 9.31649 87.5588 9.29066C87.6879 9.23899 87.7913 9.25191 87.8688 9.32941C87.9721 9.38107 88.0754 9.43274 88.1788 9.48441H88.9925C89.1217 9.43274 89.2121 9.36816 89.2638 9.29066C89.3154 9.18733 89.3929 9.12274 89.4963 9.09691C89.8579 9.01941 90.1292 8.96775 90.31 8.94191C90.4908 8.91608 90.7233 8.91608 91.0075 8.94191C91.2916 8.94191 91.7179 8.96775 92.2862 9.01941C92.4154 9.04525 92.5187 9.09691 92.5962 9.17441C92.6995 9.25191 92.8158 9.30357 92.9449 9.32941C93.1258 9.32941 93.2937 9.35524 93.4487 9.40691C93.6295 9.43274 93.8103 9.47149 93.9912 9.52316C94.2237 9.70398 94.4691 9.8719 94.7274 10.0269C94.9857 10.1561 95.2828 10.2336 95.6187 10.2594C95.7737 10.5177 95.9674 10.7244 96.1999 10.8794C96.4582 11.0344 96.7166 11.1765 96.9749 11.3056C97.2074 11.4348 97.427 11.5898 97.6336 11.7706C97.8403 11.9514 98.034 12.1452 98.2149 12.3519C98.2149 12.4035 98.2149 12.4681 98.2149 12.5456C98.2407 12.5973 98.2407 12.6489 98.2149 12.7006Z" fill="#FFE1BE"/>
<path d="M116.207 17.3148C116.207 18.7359 115.881 19.9385 115.228 20.9223C114.575 21.8843 113.52 22.3653 112.062 22.3653C110.604 22.3653 109.527 21.9062 108.831 20.9879C108.135 20.0696 107.787 18.9546 107.787 17.6428C107.787 15.8499 108.396 14.396 109.614 13.2809C110.833 12.144 112.258 11.5756 113.89 11.5756C115.456 11.5756 116.893 12.1659 118.198 13.3465C118.873 13.9587 119.417 14.8551 119.83 16.0358C120.243 17.2164 120.45 18.6048 120.45 20.2008C120.45 23.6772 119.514 26.5304 117.643 28.7605C115.772 30.9687 113.226 32.0729 110.006 32.0729C106.786 32.0729 104.24 30.9687 102.369 28.7605C100.497 26.5304 99.5618 23.699 99.5618 20.2664C99.5618 16.8338 100.497 14.0134 102.369 11.8051C104.24 9.57501 106.786 8.45996 110.006 8.45996V10.9196C107.743 10.9196 105.926 11.8051 104.555 13.5761C103.185 15.3252 102.499 17.5553 102.499 20.2664C102.499 22.9775 103.185 25.2186 104.555 26.9895C105.926 28.7386 107.743 29.6132 110.006 29.6132C112.269 29.6132 114.086 28.7386 115.456 26.9895C116.827 25.2186 117.513 23.0868 117.513 20.5944C117.513 18.08 117.154 16.3637 116.436 15.4454C115.718 14.5053 114.88 14.0352 113.923 14.0352C112.965 14.0352 112.138 14.3741 111.442 15.0519C110.746 15.7297 110.398 16.5933 110.398 17.6428C110.398 18.2987 110.539 18.8453 110.822 19.2825C111.105 19.698 111.518 19.9057 112.062 19.9057C113.085 19.9057 113.596 19.042 113.596 17.3148H116.207Z" fill="#FFE1BE"/>
<path d="M17.0497 9.26871C17.0497 9.47538 16.9593 9.60454 16.7785 9.65621C16.4685 9.68204 16.1714 9.78537 15.8872 9.9662C15.6289 10.1212 15.3577 10.2374 15.0735 10.3149C14.7377 10.2891 14.4148 10.302 14.1048 10.3537C13.7948 10.4054 13.459 10.3924 13.0973 10.3149C13.0456 10.3666 12.981 10.4183 12.9035 10.4699C12.826 10.5216 12.7485 10.5733 12.671 10.6249C12.5677 10.6249 12.4515 10.6379 12.3223 10.6637C12.1931 10.6895 12.064 10.7024 11.9348 10.7024H10.9661C10.7594 10.7024 10.5527 10.7154 10.3461 10.7412C10.1394 10.7412 9.93276 10.7283 9.7261 10.7024C9.4936 10.7024 9.28693 10.7541 9.1061 10.8574C8.92527 10.9349 8.73153 10.9737 8.52487 10.9737C8.42153 10.9737 8.33112 10.9866 8.25362 11.0124C8.17612 11.0124 8.09862 11.0254 8.02112 11.0512C7.84029 10.9995 7.65946 10.9608 7.47863 10.9349C7.32363 10.8833 7.15572 10.9479 6.97489 11.1287C6.84572 11.5678 6.72948 12.0199 6.62614 12.4849C6.54865 12.9499 6.48406 13.402 6.4324 13.8411C6.3549 14.3061 6.3549 14.7453 6.4324 15.1586C6.45823 15.2103 6.47115 15.262 6.47115 15.3136C6.49698 15.3653 6.52281 15.4169 6.54865 15.4686H7.71113C7.89196 15.5461 8.07279 15.6365 8.25362 15.7399C8.46028 15.8432 8.66695 15.9594 8.87361 16.0886C8.92528 16.1144 8.98986 16.1403 9.06736 16.1661C9.17069 16.1661 9.27402 16.179 9.37735 16.2049C9.45485 16.2307 9.54526 16.2565 9.6486 16.2824C9.75193 16.3082 9.85526 16.3469 9.95859 16.3986C10.1394 16.3986 10.3073 16.3469 10.4623 16.2436C10.6173 16.1403 10.7852 16.0757 10.9661 16.0499H11.1598C11.289 16.0499 11.4052 16.0628 11.5086 16.0886C11.6377 16.1144 11.754 16.1144 11.8573 16.0886C12.1931 16.0111 12.529 16.0111 12.8648 16.0886C13.2006 16.1403 13.5235 16.1661 13.8335 16.1661C14.0402 16.1661 14.2339 16.2049 14.4148 16.2824C14.6214 16.3598 14.8152 16.4503 14.996 16.5536C15.0993 17.4319 15.1381 18.3232 15.1123 19.2273C15.1123 20.1056 15.0993 20.9839 15.0735 21.8623C15.0735 21.9656 15.0348 22.0302 14.9573 22.056C14.8798 22.0818 14.8023 22.0818 14.7248 22.056C14.6731 22.0302 14.6085 22.0043 14.531 21.9785C14.4794 21.9527 14.4019 21.9268 14.2985 21.901H12.0511C11.8186 21.8752 11.599 21.8752 11.3923 21.901C11.2115 21.9268 11.0177 21.9268 10.8111 21.901C10.6044 21.8752 10.3978 21.8623 10.1911 21.8623C9.98442 21.8364 9.76484 21.8106 9.53235 21.7848C9.35152 21.7589 9.15777 21.746 8.95111 21.746C8.74444 21.746 8.52486 21.7331 8.29237 21.7073C8.1632 21.7073 8.02112 21.6814 7.86613 21.6298C7.73696 21.5781 7.6078 21.5394 7.47863 21.5135C7.2978 21.5394 7.15572 21.6039 7.05239 21.7073C6.97489 21.8106 6.87156 21.9139 6.74239 22.0173C6.71656 22.0689 6.67781 22.1464 6.62614 22.2498C6.60031 22.3273 6.56156 22.4048 6.5099 22.4823C6.53573 22.5598 6.54865 22.6502 6.54865 22.7535C6.67781 22.9085 6.75531 23.0893 6.78114 23.296C6.83281 23.4768 6.85864 23.6706 6.85864 23.8772C6.85864 24.1872 6.87156 24.4972 6.89739 24.8072C6.94906 25.1172 6.94906 25.4272 6.89739 25.7372C6.89739 25.9955 6.89739 26.2539 6.89739 26.5122C6.92322 26.7705 6.98781 27.0159 7.09114 27.2484C7.11697 27.3001 7.12989 27.3905 7.12989 27.5197C6.97489 27.8813 6.76823 28.2301 6.5099 28.5659C6.25157 28.7467 5.99324 28.863 5.73491 28.9146C5.50241 28.9921 5.24408 29.0955 4.95992 29.2246C4.85659 29.1988 4.74034 29.1859 4.61118 29.1859C4.50784 29.1859 4.3916 29.1859 4.26243 29.1859C4.1591 29.2117 3.99119 29.3021 3.75869 29.4571H2.44121C2.23455 29.4571 2.01497 29.4571 1.78247 29.4571C1.57581 29.483 1.34331 29.4959 1.08498 29.4959C0.826653 29.4959 0.645823 29.3796 0.542491 29.1471C0.516658 29.0438 0.503742 28.9276 0.503742 28.7984C0.503742 28.6692 0.490826 28.5272 0.464993 28.3722C0.387494 28.243 0.322912 28.1267 0.271246 28.0234C0.21958 27.8943 0.167914 27.778 0.116248 27.6747C0.0904152 27.5197 0.0645823 27.3647 0.0387493 27.2097C0.0387493 27.0547 0.0258329 26.9126 0 26.7834C0.0774987 26.5509 0.142081 26.3314 0.193747 26.1247C0.271246 25.918 0.348744 25.6985 0.426243 25.466C0.322912 24.8718 0.258329 24.2647 0.232496 23.6447C0.206663 22.9989 0.245413 22.3531 0.348744 21.7073C0.348744 21.5781 0.322912 21.436 0.271246 21.281C0.245413 21.126 0.271246 20.9581 0.348744 20.7773C0.503742 20.4931 0.503742 20.2219 0.348744 19.9635C0.322911 19.7827 0.297079 19.6019 0.271246 19.4211C0.271246 19.2402 0.297079 19.0594 0.348744 18.8786C0.40041 18.8011 0.426243 18.7106 0.426243 18.6073C0.426243 18.504 0.426243 18.4007 0.426243 18.2973C0.452076 18.1682 0.43916 18.0261 0.387494 17.8711C0.335828 17.7161 0.322911 17.5611 0.348744 17.4061C0.40041 17.2769 0.426243 17.1478 0.426243 17.0186C0.452076 16.8636 0.464993 16.7086 0.464993 16.5536C0.464993 16.3728 0.477909 16.1919 0.503742 16.0111C0.529575 15.8303 0.568324 15.6624 0.61999 15.5074C0.594157 15.3265 0.568324 15.1715 0.542491 15.0424C0.542491 14.8874 0.529575 14.7324 0.503742 14.5774C0.632907 14.2932 0.697489 14.0091 0.697489 13.7249C0.723322 13.4149 0.736238 13.1049 0.736238 12.7949C0.736238 12.5882 0.736238 12.3816 0.736238 12.1749C0.736238 11.9683 0.749155 11.7745 0.774988 11.5937C0.800821 11.387 0.813737 11.1933 0.813737 11.0124C0.83957 10.8058 0.852486 10.612 0.852486 10.4312C0.852486 10.3795 0.83957 10.3279 0.813737 10.2762C0.813737 10.1987 0.826653 10.1341 0.852486 10.0825C0.955818 9.87579 0.994567 9.68204 0.968735 9.50121C0.968735 9.29455 0.981651 9.1008 1.00748 8.91997C1.00748 8.76497 1.00748 8.60997 1.00748 8.45498C1.03332 8.27415 1.05915 8.10623 1.08498 7.95123C1.05915 7.82207 1.0204 7.67999 0.968735 7.52499C0.917069 7.36999 0.878319 7.24083 0.852486 7.1375C0.878319 7.00833 0.904152 6.87917 0.929985 6.75C0.981651 6.62084 1.00748 6.49167 1.00748 6.36251C1.03332 6.05251 1.23998 5.84585 1.62747 5.74252C2.09247 5.58752 2.58329 5.47127 3.09995 5.39378C3.28078 5.39378 3.42286 5.34211 3.52619 5.23878C3.62953 5.18711 3.74577 5.16128 3.87494 5.16128C4.02994 5.18711 4.18493 5.18711 4.33993 5.16128C4.52076 5.13545 4.70159 5.10961 4.88242 5.08378C5.08909 4.95462 5.32158 4.89003 5.57991 4.89003C6.07074 4.8642 6.56156 4.79962 7.05239 4.69629C7.54321 4.59295 8.03404 4.52837 8.52487 4.50254C8.78319 4.47671 9.02861 4.46379 9.2611 4.46379C9.4936 4.43796 9.73901 4.46379 9.99734 4.54129C10.204 4.56712 10.4107 4.59295 10.6173 4.61879C10.824 4.61879 11.0307 4.61879 11.2373 4.61879C11.3407 4.61879 11.444 4.61879 11.5473 4.61879C11.6506 4.59295 11.754 4.58004 11.8573 4.58004C12.219 4.55421 12.4902 4.55421 12.671 4.58004C12.8519 4.58004 13.0327 4.59295 13.2135 4.61879C13.3944 4.64462 13.6656 4.69629 14.0273 4.77378C14.2081 4.79962 14.376 4.82545 14.531 4.85128C14.7118 4.85128 14.8798 4.87712 15.0348 4.92878C15.3189 5.05795 15.6289 5.14836 15.9647 5.20003C16.0939 5.22586 16.1972 5.27753 16.2747 5.35502C16.3522 5.40669 16.4168 5.45836 16.4685 5.51002C16.5718 5.92335 16.5718 6.32376 16.4685 6.71125C16.546 6.94375 16.6235 7.215 16.701 7.52499C16.701 7.55082 16.6881 7.61541 16.6622 7.71874C16.6622 7.79624 16.6622 7.86082 16.6622 7.91249C16.6622 8.04165 16.6752 8.11915 16.701 8.14498C16.7527 8.24831 16.8043 8.36456 16.856 8.49373C16.9076 8.59706 16.9464 8.70039 16.9722 8.80372C17.0239 8.88122 17.0497 8.95872 17.0497 9.03622C17.0497 9.11372 17.0497 9.19121 17.0497 9.26871Z" fill="#FFE1BE"/>
<path d="M66.972 9.2132C66.9812 9.20132 66.991 9.19466 67.0016 9.19323L66.9879 9.21105C67.0329 9.2262 67.071 9.2689 67.102 9.33915C67.1225 9.41083 67.156 9.45947 67.2025 9.48507C67.2173 9.51497 67.2606 9.55695 67.3325 9.61102C67.4044 9.66509 67.4554 9.68475 67.4857 9.67C67.6292 9.61859 67.8034 9.59493 68.0083 9.59902C68.0442 9.62605 68.0801 9.65308 68.1161 9.68012C68.152 9.70715 68.1992 9.73797 68.2577 9.77258C68.2682 9.77115 68.2795 9.77494 68.2915 9.78395C68.302 9.78251 68.3179 9.78036 68.339 9.77749C68.3721 9.78364 68.4203 9.78241 68.4836 9.7738C68.8201 9.71747 69.1611 9.73497 69.5069 9.8263C69.5836 9.83716 69.6649 9.84207 69.7508 9.84104C69.8353 9.82957 69.9176 9.80243 69.9978 9.75962C70.0569 9.71969 70.1181 9.69541 70.1815 9.68681C70.2328 9.66919 70.2909 9.66131 70.3557 9.66315C70.4929 9.64451 70.622 9.60569 70.7431 9.5467C70.7973 9.54998 70.8568 9.55254 70.9215 9.55438C70.9757 9.55765 71.0306 9.56615 71.0863 9.57987C71.1419 9.59359 71.1982 9.61253 71.2553 9.6367C71.3137 9.67131 71.3739 9.67909 71.4359 9.66004C71.4436 9.63772 71.4566 9.61468 71.4749 9.59092C71.4917 9.55672 71.5079 9.51729 71.5233 9.47264C71.543 9.45933 71.568 9.4453 71.5982 9.43055C71.6271 9.40536 71.6513 9.38611 71.671 9.37279C71.8054 9.33326 71.9258 9.26905 72.032 9.18016C72.1761 9.0542 72.3186 8.95507 72.4593 8.88277C72.5304 8.85184 72.5887 8.80668 72.6344 8.74729C72.6682 8.67888 72.7086 8.6202 72.7557 8.57125C72.7837 8.46107 72.8072 8.35682 72.8261 8.25851C72.845 8.1602 72.8527 8.05811 72.849 7.95222C72.8779 7.92703 72.9014 7.90256 72.9197 7.8788C72.9366 7.84459 72.9541 7.81561 72.9724 7.79186C73.0301 7.74147 73.0568 7.70061 73.0525 7.66928C73.0503 7.57384 73.0721 7.49642 73.1178 7.43703C73.1635 7.37763 73.201 7.29806 73.2305 7.19832C73.2277 7.17743 73.2287 7.14538 73.2336 7.10216C73.2279 7.06038 73.2275 7.01789 73.2324 6.97467C73.2295 6.95378 73.226 6.92767 73.2217 6.89633C73.2161 6.85455 73.2171 6.8225 73.2248 6.80018C73.2557 6.71088 73.2873 6.62681 73.3196 6.54796C73.3505 6.45866 73.3768 6.3753 73.3985 6.29789C73.3914 6.24566 73.3702 6.16876 73.3349 6.06717C73.2523 5.855 73.2285 5.64016 73.2635 5.42265C73.2852 5.34524 73.2964 5.26925 73.2971 5.1947C73.2977 5.12015 73.3036 5.04489 73.3148 4.9689C73.3014 4.94945 73.2873 4.92477 73.2725 4.89487C73.2457 4.85596 73.2203 4.82749 73.1963 4.80947L73.2625 4.46539C73.2765 4.4103 73.3018 4.35899 73.3384 4.31148C73.363 4.25495 73.3883 4.20364 73.4142 4.15756C73.4135 4.07257 73.387 3.99638 73.3348 3.929C73.2721 3.86306 73.2305 3.79424 73.21 3.72256C73.2058 3.69123 73.2068 3.65917 73.2131 3.6264C73.2088 3.59507 73.2046 3.56373 73.2003 3.5324C73.1002 3.42897 73.0311 3.31603 72.993 3.19355C72.9443 3.07252 72.9055 2.94482 72.8765 2.81047C72.7969 2.77873 72.7271 2.74033 72.6673 2.69527C72.6074 2.65022 72.5612 2.58734 72.5287 2.50665C72.5139 2.47675 72.5037 2.44091 72.498 2.39913C72.4818 2.35878 72.4655 2.31844 72.4493 2.27809C72.3852 2.2017 72.321 2.12531 72.2569 2.04892C72.1808 1.96352 72.1114 1.88784 72.0486 1.8219C72.0204 1.77254 71.9968 1.71724 71.9777 1.65601C71.9481 1.5962 71.9093 1.54828 71.8614 1.51224C71.8044 1.48807 71.7618 1.45131 71.7335 1.40195C71.6948 1.35403 71.6613 1.30539 71.6331 1.25603C71.5578 1.25562 71.4923 1.24856 71.4367 1.23484C71.381 1.22112 71.3314 1.21191 71.2877 1.2072C71.2307 1.18303 71.2001 1.15528 71.1958 1.12395C71.1443 0.982017 71.0667 0.88617 70.9632 0.836406C70.8477 0.77763 70.7245 0.741178 70.5935 0.727051C70.5499 0.722342 70.5122 0.722139 70.4805 0.726441C70.4474 0.720297 70.4038 0.715588 70.3496 0.712313C70.3256 0.694291 70.2957 0.671763 70.2598 0.64473C70.2224 0.607252 70.1851 0.569773 70.1477 0.532295C70.0815 0.520009 70.0206 0.507006 69.965 0.493285C69.8988 0.480999 69.8432 0.467279 69.7981 0.452125L69.6873 0.467182C69.6071 0.509989 69.5269 0.552795 69.4467 0.595603C69.3545 0.629398 69.2577 0.669134 69.1564 0.714809C69.0705 0.715836 68.9839 0.71164 68.8966 0.702221C68.7974 0.683792 68.7069 0.690759 68.6253 0.723121C68.6147 0.724554 68.6049 0.731211 68.5957 0.74309C68.5852 0.744524 68.5739 0.740735 68.5619 0.731724C68.488 0.741762 68.4127 0.741355 68.336 0.730503C68.2592 0.719651 68.1846 0.724466 68.1121 0.744948C68.0488 0.753552 67.9847 0.756934 67.92 0.755093C67.8446 0.754686 67.7732 0.743116 67.7056 0.720385C67.6514 0.71711 67.6031 0.71834 67.5609 0.724076C67.5067 0.720801 67.4546 0.733193 67.4047 0.761253C67.3773 0.79689 67.3498 0.832528 67.3224 0.868165C67.2936 0.893357 67.2609 0.929711 67.2243 0.977227C67.1413 0.999144 67.0544 1.03222 66.9636 1.07646C66.8609 1.11169 66.7589 1.15215 66.6575 1.19782C66.6062 1.21544 66.5622 1.248 66.5256 1.29552C66.4785 1.34447 66.4194 1.38441 66.3484 1.41533C66.2879 1.44483 66.2266 1.4691 66.1647 1.48815C66.0908 1.49819 66.0169 1.50822 65.943 1.51826C65.7968 1.70833 65.6118 1.85047 65.388 1.94469C65.3683 1.958 65.3486 1.97131 65.3289 1.98463C65.3092 1.99794 65.2896 2.01125 65.2699 2.02456C65.1953 2.10915 65.1268 2.19824 65.0642 2.29184C64.9897 2.37643 64.9204 2.4603 64.8565 2.54345C64.7939 2.63705 64.7637 2.73157 64.766 2.82701C64.6914 2.9116 64.6517 2.9755 64.6468 3.01871C64.63 3.05292 64.6329 3.15358 64.6556 3.3207C64.5965 3.36064 64.5434 3.40508 64.4963 3.45403C64.4478 3.49254 64.4232 3.54906 64.4225 3.62361C64.4071 3.66826 64.3917 3.71291 64.3762 3.75756C64.3594 3.79176 64.3485 3.83047 64.3436 3.87368C64.3176 3.91977 64.2909 3.96063 64.2635 3.99626C64.2241 4.02289 64.1861 4.05996 64.1496 4.10748C64.1278 4.18489 64.1114 4.26159 64.1002 4.33758C64.0876 4.40312 64.0975 4.47623 64.13 4.55692C64.161 4.62717 64.1769 4.70479 64.1777 4.78979C64.1785 4.87478 64.1906 4.96356 64.2139 5.05613C64.2358 5.13826 64.2479 5.22704 64.2501 5.32248C64.2523 5.41792 64.2538 5.50814 64.2546 5.59313C64.2497 5.63635 64.2508 5.68407 64.2579 5.73629C64.2636 5.77807 64.2633 5.81535 64.257 5.84812C64.2247 5.92697 64.2135 6.00295 64.2234 6.07607C64.2228 6.15062 64.2327 6.22373 64.2532 6.29541C64.2589 6.33719 64.2645 6.37897 64.2702 6.42075C64.2639 6.45352 64.2643 6.49602 64.2714 6.54825C64.3321 6.6783 64.3882 6.81429 64.4397 6.95621C64.4898 7.0877 64.5551 7.21181 64.6354 7.32855C64.7144 7.43484 64.7933 7.54113 64.8723 7.64742C64.9513 7.75371 65.0401 7.85335 65.1387 7.94633L65.1749 8.21267C65.2319 8.23684 65.2897 8.26623 65.3481 8.30084C65.3946 8.32644 65.4351 8.34753 65.4696 8.36412C65.5606 8.47942 65.6237 8.58786 65.659 8.68945C65.6823 8.78202 65.7155 8.86793 65.7585 8.94719C65.8064 8.98324 65.8543 9.01928 65.9022 9.05533C65.9501 9.09137 66.0033 9.1267 66.0618 9.16131C66.1202 9.19592 66.1885 9.22387 66.2667 9.24517C66.3329 9.25745 66.4061 9.24219 66.4863 9.19939C66.5785 9.16559 66.6584 9.16006 66.726 9.18279C66.7696 9.1875 66.8133 9.19221 66.8569 9.19692C66.9006 9.20163 66.9389 9.20705 66.972 9.2132ZM66.7445 5.63791C66.7585 5.58281 66.768 5.53366 66.7728 5.49045C66.7657 5.43822 66.7639 5.38528 66.7674 5.33162C66.756 5.24806 66.7521 5.17945 66.7556 5.12579C66.7653 5.03936 66.7849 4.94628 66.8144 4.84653C66.8319 4.73778 66.8554 4.63354 66.8848 4.53379C66.8897 4.49058 66.9052 4.44593 66.9312 4.39985C66.9452 4.34476 66.9599 4.29489 66.9754 4.25024C67.0371 4.07164 67.1556 3.95449 67.3308 3.89878C67.3611 3.88403 67.3966 3.86857 67.4374 3.85239C67.4768 3.82576 67.5109 3.79985 67.5398 3.77466C67.5974 3.72428 67.6565 3.68434 67.717 3.65484C67.7776 3.62535 67.8388 3.60108 67.9007 3.58203C67.9823 3.54967 68.0692 3.51659 68.1614 3.48279C68.2522 3.43855 68.3391 3.40547 68.4221 3.38356C68.5206 3.31699 68.6216 3.30859 68.7251 3.35835C69.0258 3.43453 69.305 3.55085 69.5628 3.70732C69.8192 3.85334 70.0532 4.07155 70.2647 4.36196C70.302 4.39943 70.3401 4.44214 70.3788 4.49006C70.407 4.53942 70.4352 4.58877 70.4635 4.63813C70.5128 4.68462 70.5575 4.73705 70.5977 4.79542C70.6365 4.84334 70.67 4.89198 70.6982 4.94134C70.699 5.02633 70.6712 5.09924 70.615 5.16007C70.5587 5.2209 70.531 5.29381 70.5318 5.37881C70.5375 5.42059 70.559 5.46022 70.5963 5.4977C70.6323 5.52473 70.6583 5.55842 70.6746 5.59877C70.6591 5.64341 70.6391 5.694 70.6145 5.75053C70.59 5.80706 70.5707 5.86287 70.5566 5.91796C70.5321 5.97449 70.5187 6.0348 70.5167 6.09891C70.5027 6.154 70.4946 6.2136 70.4926 6.2777C70.4786 6.3328 70.4698 6.38717 70.4664 6.44083C70.4523 6.49593 70.4436 6.5503 70.4401 6.60396L70.2418 6.80642C70.213 6.83161 70.1856 6.86725 70.1596 6.91333C70.1216 6.9504 70.0829 6.98225 70.0435 7.00887C69.9211 7.05742 69.8145 7.10381 69.7237 7.14805C69.6421 7.18041 69.5696 7.2009 69.5063 7.2095C69.4429 7.2181 69.3743 7.22742 69.3004 7.23746C69.3004 7.23746 69.3057 7.23674 69.3162 7.23531C69.3162 7.23531 69.3169 7.24053 69.3184 7.25098L69.2867 7.25528C69.2973 7.25385 69.3018 7.24791 69.3004 7.23746C69.2764 7.21944 69.2486 7.21258 69.217 7.21688C69.1839 7.21074 69.1568 7.2091 69.1357 7.21197C69.0723 7.22057 69.0097 7.2344 68.9477 7.25345C68.8738 7.26349 68.7992 7.2683 68.7239 7.26789C68.6999 7.24987 68.6736 7.25346 68.6447 7.27865C68.6039 7.29483 68.5684 7.31029 68.5381 7.32504C68.4959 7.33078 68.4628 7.32463 68.4388 7.30661C68.4332 7.26483 68.4335 7.22756 68.4398 7.19479C68.4355 7.16345 68.4161 7.13949 68.3816 7.1229C68.2345 7.06843 68.0947 7.02891 67.9623 7.00433C67.9038 6.96972 67.8567 6.9389 67.8207 6.91187C67.7742 6.88627 67.7323 6.85473 67.695 6.81725C67.6499 6.8021 67.6147 6.78029 67.5893 6.75182C67.5534 6.72479 67.5136 6.70891 67.4699 6.70421C67.3707 6.68578 67.2858 6.65475 67.2154 6.61113C67.133 6.5585 67.0558 6.50515 66.984 6.45108C66.9706 6.43163 66.9632 6.41667 66.9617 6.40623C66.9483 6.38677 66.9349 6.36732 66.9216 6.34786C66.7728 6.1234 66.7138 5.88675 66.7445 5.63791Z" fill="#FFE1BE"/>
</svg>
