<svg width="289" height="85" viewBox="0 0 289 85" fill="none" xmlns="http://www.w3.org/2000/svg">
<path d="M95.0817 31.4997C94.7104 32.6755 94.5557 33.7894 94.6176 34.8414C94.6795 35.1508 94.6795 35.4912 94.6176 35.8625C94.5557 36.1719 94.4938 36.4813 94.4319 36.7907C94.3701 37.0382 94.3391 37.3477 94.3391 37.719C94.401 38.0903 94.3701 38.3997 94.2463 38.6472C94.1225 39.0804 94.1225 39.5136 94.2463 39.9467C94.3701 40.318 94.4629 40.6893 94.5248 41.0606C94.401 41.4938 94.2772 41.9889 94.1535 42.5458C94.0297 43.0409 93.9988 43.5979 94.0606 44.2167C94.0606 44.9593 93.9678 45.7019 93.7822 46.4445C93.7203 46.8777 93.7203 47.3108 93.7822 47.744C94.0297 48.5485 94.1225 49.322 94.0606 50.0646C93.9988 50.8072 93.844 51.5498 93.5965 52.2924C93.349 52.7256 93.2252 53.1588 93.2252 53.592C93.2871 54.2727 93.1943 54.9225 92.9467 55.5413C92.6992 56.1601 92.4207 56.779 92.1113 57.3978C92.0494 57.5835 91.9257 57.7382 91.74 57.8619C91.5544 57.9857 91.3997 58.1404 91.2759 58.3261C90.8427 59.7494 90.5024 60.7704 90.2548 61.3893C90.0073 61.9462 89.5432 62.8435 88.8624 64.0812C88.8006 64.205 88.6768 64.3597 88.4911 64.5453C88.3055 64.731 88.1508 64.8857 88.027 65.0094C87.9651 65.1332 87.8723 65.226 87.7486 65.2879C87.6867 65.3498 87.6557 65.4117 87.6557 65.4736C87.4082 66.278 87.0369 66.9588 86.5418 67.5157C86.0468 68.0727 85.5517 68.5987 85.0566 69.0937C84.8091 69.3413 84.5925 69.6197 84.4069 69.9291C84.2831 70.1767 84.0974 70.4552 83.8499 70.7646C83.2311 71.1978 82.6432 71.6309 82.0862 72.0641C81.5293 72.4973 80.9414 72.9305 80.3226 73.3637C79.9513 73.6112 79.58 73.8278 79.2087 74.0134C78.7755 74.1372 78.3423 74.3229 77.9091 74.5704C77.4759 74.756 77.0428 74.9107 76.6096 75.0345C76.1764 75.282 75.7432 75.4986 75.31 75.6843C74.8769 75.8081 74.4437 75.9937 74.0105 76.2412H71.8755C71.5661 76.365 71.2257 76.5197 70.8544 76.7054C70.545 76.8291 70.2047 76.8601 69.8334 76.7982C69.4621 76.7363 69.0908 76.8291 68.7195 77.0767C68.4101 77.2623 68.0697 77.3861 67.6984 77.448C67.5128 77.3861 67.2962 77.3242 67.0486 77.2623C66.8011 77.2004 66.5536 77.1695 66.306 77.1695C66.0585 77.3551 65.811 77.5408 65.5634 77.7264C65.3778 77.8502 65.1612 78.0049 64.9137 78.1906C64.8518 78.1906 64.759 78.2215 64.6352 78.2834C64.5733 78.2834 64.4805 78.2834 64.3567 78.2834C64.1092 78.2834 63.8307 78.3143 63.5213 78.3762C63.2738 78.3762 63.0262 78.3453 62.7787 78.2834C62.3455 78.0358 61.9433 77.943 61.572 78.0049C61.2007 78.0668 60.7984 78.0049 60.3652 77.8193C59.8702 77.6955 59.6226 77.417 59.6226 76.9838C59.6226 76.4269 59.3132 76.0865 58.6944 75.9628C58.5088 75.9628 58.3231 75.9937 58.1375 76.0556C58.0137 76.0556 57.859 76.0556 57.6733 76.0556C57.4258 75.9937 57.2092 75.8699 57.0236 75.6843C56.8379 75.4986 56.6213 75.3439 56.3738 75.2202C56.0644 74.9726 55.724 74.756 55.3527 74.5704C54.9814 74.3229 54.5792 74.1681 54.146 74.1063C53.7747 74.0444 53.4034 73.9516 53.0321 73.8278C52.7227 73.6421 52.4133 73.5184 52.1038 73.4565C51.4231 73.209 50.9281 72.652 50.6186 71.7856C50.433 70.9812 50.0926 70.3314 49.5976 69.8363C49.4119 69.5888 49.2572 69.3722 49.1334 69.1866C49.0097 68.939 48.8859 68.6915 48.7621 68.444C48.6384 68.3202 48.5146 68.1345 48.3909 67.887C48.2671 67.6395 48.1433 67.4848 48.0196 67.4229C47.4007 67.0516 46.9057 66.5875 46.5344 66.0305C46.2249 65.4736 45.9465 64.8857 45.6989 64.2668C45.637 64.205 45.5752 64.1121 45.5133 63.9884C45.5133 63.8646 45.4823 63.7718 45.4205 63.7099C44.9873 63.4624 44.7707 63.0911 44.7707 62.596C44.7707 62.1009 44.7088 61.6368 44.585 61.2036C44.4613 61.0799 44.3066 60.9251 44.1209 60.7395C43.9353 60.5538 43.7496 60.3373 43.564 60.0897C43.4402 59.5947 43.2855 59.0996 43.0998 58.6045C42.9142 58.1095 42.7595 57.5835 42.6357 57.0265C42.6357 56.0364 42.6048 55.3247 42.5429 54.8915C42.5429 54.3965 42.5119 53.9323 42.4501 53.4992C42.3882 53.0041 42.2335 52.3234 41.9859 51.457C41.9859 50.962 42.0788 50.4669 42.2644 49.9718C42.5119 49.4768 42.5738 48.8889 42.4501 48.2082C42.2644 47.8987 42.0788 47.5274 41.8931 47.0943C41.7693 46.6611 41.5837 46.2279 41.3362 45.7947C41.3362 45.6709 41.3052 45.5162 41.2433 45.3306C41.2433 45.1449 41.2433 44.9902 41.2433 44.8665C41.3052 44.3714 41.3362 43.9073 41.3362 43.4741C41.3362 43.0409 41.3362 42.6077 41.3362 42.1745C41.3362 41.6795 41.398 41.1844 41.5218 40.6893C41.6456 40.1324 41.7384 39.6373 41.8003 39.2042C41.9241 38.5234 42.0169 37.8737 42.0788 37.2548C42.2025 36.5741 42.3263 35.8934 42.4501 35.2127C42.5738 34.2226 42.7904 33.2324 43.0998 32.2423C43.4093 31.2522 43.7496 30.262 44.1209 29.2719C44.8016 28.8387 45.4205 28.4365 45.9774 28.0652C46.5962 27.6939 47.2151 27.2916 47.8339 26.8585H51.8254L52.8464 27.2298C53.1559 27.2916 53.4653 27.2916 53.7747 27.2298C54.0841 27.106 54.3935 27.0132 54.7029 26.9513C55.0123 27.1369 55.3527 27.3535 55.724 27.6011C56.1572 27.7867 56.5904 28.0342 57.0236 28.3437C57.0236 28.4674 57.0545 28.6221 57.1164 28.8078C57.2401 28.9934 57.302 29.1481 57.302 29.2719C57.302 29.7051 57.2711 30.1692 57.2092 30.6643C57.2092 31.1593 57.1164 31.6544 56.9307 32.1495C56.807 32.7064 56.807 33.2943 56.9307 33.9131C56.9926 34.0988 57.0236 34.4082 57.0236 34.8414C56.9617 35.3365 56.8688 35.8625 56.7451 36.4194C56.6213 36.9764 56.4666 37.5024 56.281 37.9974C56.2191 38.245 56.1881 38.4925 56.1881 38.74C56.1881 38.9257 56.2191 39.1113 56.281 39.297C56.4666 39.792 56.4666 40.2562 56.281 40.6893C56.1572 41.1225 56.1572 41.5557 56.281 41.9889C56.6523 42.7315 56.776 43.5979 56.6523 44.588C56.6523 45.0831 56.7451 45.4853 56.9307 45.7947C57.2401 46.3517 57.3949 46.9086 57.3949 47.4656C57.4567 47.9606 57.4567 48.4866 57.3949 49.0436C57.2711 49.5386 57.2401 50.0337 57.302 50.5288C57.4258 51.0238 57.5805 51.488 57.7662 51.9211C58.0137 52.2924 58.1993 52.6637 58.3231 53.035C58.4469 53.3445 58.6325 53.7158 58.8801 54.1489C59.1895 54.4584 59.5298 54.7987 59.9011 55.17C60.2724 55.5413 60.5818 55.9745 60.8294 56.4696C60.8913 56.779 61.1388 57.1503 61.572 57.5835C61.572 57.5835 61.6648 57.6453 61.8504 57.7691C62.1599 57.831 62.4693 57.8619 62.7787 57.8619C63.15 57.8619 63.4903 57.8619 63.7998 57.8619C64.1092 58.1095 64.3877 58.3261 64.6352 58.5117C64.8827 58.6974 65.1303 58.883 65.3778 59.0687C65.7491 58.883 66.0894 58.6974 66.3989 58.5117C66.7083 58.3261 67.0177 58.1095 67.3271 57.8619L68.6266 57.5835C68.6885 57.5835 68.7504 57.5835 68.8123 57.5835C68.9361 57.5216 69.0289 57.5216 69.0908 57.5835C70.8235 58.1404 72.154 57.5525 73.0822 55.8198C73.206 55.4485 73.3917 55.0772 73.6392 54.7059C73.8867 54.3346 74.0724 53.9323 74.1961 53.4992C74.3199 53.1897 74.4746 52.9113 74.6603 52.6637C74.8459 52.4162 75.0316 52.1687 75.2172 51.9211V50.6216C75.4029 50.4978 75.5885 50.3431 75.7742 50.1575C76.0217 49.9099 76.2692 49.7243 76.5168 49.6005C76.6405 49.2911 76.7333 48.9817 76.7952 48.6723C76.919 48.3629 77.0737 48.0534 77.2594 47.744C77.3831 47.4965 77.4759 47.2799 77.5378 47.0943C77.6616 46.8467 77.8163 46.5992 78.002 46.3517C77.9401 46.0422 77.8782 45.7947 77.8163 45.6091C77.7544 45.4234 77.6925 45.2068 77.6307 44.9593C78.0638 43.9692 78.3114 43.01 78.3733 42.0817C78.4351 41.7723 78.4351 41.4629 78.3733 41.1535C78.3733 40.7822 78.3423 40.4109 78.2804 40.0396C78.4042 39.7302 78.497 39.4517 78.5589 39.2042C78.6827 38.8947 78.7755 38.6163 78.8374 38.3687C78.8374 37.8737 78.7755 37.4095 78.6517 36.9764C78.5898 36.4813 78.6208 36.0172 78.7446 35.584C78.8683 35.1508 78.8993 34.8414 78.8374 34.6557C78.5898 33.6656 78.528 32.7064 78.6517 31.7782C78.7755 30.8499 78.9611 29.9836 79.2087 29.1791C79.1468 28.8697 79.0849 28.5602 79.023 28.2508C79.023 27.9414 79.023 27.632 79.023 27.3226C79.1468 27.1988 79.2706 27.106 79.3943 27.0441C79.5181 26.9822 79.6109 26.8585 79.6728 26.6728C79.9822 26.7966 80.2297 26.9203 80.4154 27.0441C80.6629 27.106 80.9105 27.1679 81.158 27.2298C82.0244 27.5392 82.8907 27.7867 83.7571 27.9724C84.6235 28.158 85.5208 28.1271 86.449 27.8795C87.501 27.9414 88.553 28.0033 89.605 28.0652C90.7189 28.0652 91.8019 28.2199 92.8539 28.5293C93.7203 28.7768 94.2463 29.241 94.4319 29.9217L95.0817 31.4997Z" fill="#FFA500"/>
<path d="M148.427 56.0526C148.55 56.2383 148.581 56.4549 148.52 56.7024C148.458 56.888 148.365 57.0737 148.241 57.2593C148.055 57.3831 147.87 57.5688 147.684 57.8163C147.498 58.0019 147.282 58.1567 147.034 58.2804C146.663 58.528 146.292 58.8064 145.92 59.1158C145.549 59.4253 145.178 59.7347 144.807 60.0441C144.002 60.6629 143.29 61.2818 142.672 61.9006C142.115 62.4575 141.434 63.2311 140.629 64.2212C140.506 64.345 140.351 64.4687 140.165 64.5925C140.042 64.7781 139.887 64.9329 139.701 65.0566C139.639 65.1185 139.516 65.1804 139.33 65.2423C139.206 65.3042 139.082 65.366 138.959 65.4279C138.897 65.366 138.804 65.3042 138.68 65.2423C138.556 65.2423 138.433 65.2113 138.309 65.1495C137.814 64.6544 137.288 64.1593 136.731 63.6643C136.236 63.1692 135.71 62.7051 135.153 62.2719C134.348 61.7149 133.637 61.0961 133.018 60.4154C132.399 59.6728 131.749 58.9611 131.068 58.2804C130.883 58.0948 130.728 57.8782 130.604 57.6306C130.542 57.3212 130.45 57.0428 130.326 56.7952C130.078 56.6715 129.8 56.5477 129.49 56.4239C129.243 56.2383 128.995 56.0526 128.748 55.867C128.5 55.6194 128.253 55.341 128.005 55.0316C127.82 54.7221 127.634 54.4127 127.448 54.1033C127.139 53.6082 126.829 53.1441 126.52 52.7109C126.211 52.2777 125.839 51.8446 125.406 51.4114C125.159 51.102 124.973 50.7616 124.849 50.3903C124.725 50.019 124.478 49.7096 124.107 49.4621C123.735 49.3383 123.333 49.2455 122.9 49.1836C122.467 49.0598 122.064 48.967 121.693 48.9051C121.136 49.0289 120.703 49.4311 120.394 50.1118C119.589 51.8446 118.259 53.2679 116.402 54.3818C115.907 54.6912 115.474 55.0934 115.103 55.5885C114.731 56.0836 114.298 56.5786 113.803 57.0737C113.06 58.2495 112.163 59.2705 111.111 60.1369C110.121 61.0033 109.007 61.8078 107.769 62.5504C107.584 62.736 107.367 62.9217 107.12 63.1073C106.872 63.293 106.594 63.5095 106.284 63.7571L103.407 64.6853C102.417 64.2521 101.581 63.6333 100.9 62.8288C100.282 62.0243 99.539 61.4055 98.6726 60.9723C98.1775 60.2297 97.7753 59.4871 97.4659 58.7445C97.1565 58.0019 96.9089 57.2593 96.7233 56.5167C97.0327 55.836 97.3112 55.2172 97.5587 54.6603C97.8681 54.1033 98.2085 53.6392 98.5798 53.2679C99.3224 52.7109 99.7865 52.0302 99.9721 51.2257C100.282 50.8544 100.529 50.4522 100.715 50.019C100.962 49.8952 101.148 49.8334 101.272 49.8334C101.457 49.8334 101.643 49.8024 101.829 49.7405C102.262 49.6168 102.478 49.4002 102.478 49.0908C102.478 48.7195 102.602 48.4719 102.85 48.3482C103.097 48.1625 103.345 48.0388 103.592 47.9769C103.778 47.915 103.933 47.915 104.056 47.9769C104.242 47.9769 104.428 47.9459 104.613 47.884C104.675 47.7603 104.737 47.6675 104.799 47.6056C104.861 47.4818 104.892 47.389 104.892 47.3271C104.892 46.9558 104.923 46.6154 104.985 46.306C105.047 45.9347 105.232 45.6253 105.542 45.3778C105.542 44.6971 105.727 44.202 106.099 43.8926C106.532 43.5832 106.996 43.2428 107.491 42.8715C107.677 42.3764 107.862 41.8814 108.048 41.3863C108.234 40.8912 108.388 40.489 108.512 40.1796C108.76 39.5608 109.1 39.1276 109.533 38.88C109.966 38.6325 110.214 38.2612 110.276 37.7661C110.214 37.7043 110.183 37.6114 110.183 37.4877C109.873 37.1783 109.533 36.8688 109.162 36.5594C108.852 36.1881 108.543 35.8168 108.234 35.4455C107.924 35.0742 107.646 34.7029 107.398 34.3316C107.151 33.8984 106.841 33.5271 106.47 33.2177C106.222 32.9702 106.037 32.6298 105.913 32.1967C105.789 31.7635 105.604 31.485 105.356 31.3612C105.17 31.1756 104.923 31.0209 104.613 30.8971C104.551 30.5877 104.459 30.3092 104.335 30.0617C104.273 29.8142 104.211 29.5357 104.149 29.2263C104.087 29.1644 103.995 29.1025 103.871 29.0406C103.747 28.9168 103.623 28.824 103.499 28.7621C102.881 28.4527 102.324 28.0505 101.829 27.5554C101.334 26.9985 100.839 26.5034 100.343 26.0702C100.096 25.8846 99.9103 25.668 99.7865 25.4204C99.4152 24.5541 98.9201 23.8115 98.3013 23.1927C97.6825 22.5119 97.0327 21.8003 96.352 21.0577C96.0426 20.5007 95.7331 19.9128 95.4237 19.294C95.1143 18.6133 94.8358 17.9326 94.5883 17.2519C94.3408 16.7568 94.0623 16.2617 93.7529 15.7667C93.5054 15.2097 93.2888 14.6528 93.1031 14.0958C92.9793 13.9721 92.9175 13.6936 92.9175 13.2604C93.4125 12.5797 94.0004 12.0537 94.6811 11.6824C95.3618 11.2492 95.8879 10.6923 96.2592 10.0115C96.6305 9.94966 96.9708 9.94966 97.2802 10.0115C97.6515 10.0734 97.9609 9.98059 98.2085 9.73306C98.3941 9.54741 98.6726 9.45459 99.0439 9.45459C99.8484 9.26894 100.653 9.05235 101.457 8.80481C102.262 8.4954 103.066 8.27881 103.871 8.15504C103.995 8.09316 104.149 8.03127 104.335 7.96939C104.521 7.90751 104.675 7.87657 104.799 7.87657C105.665 7.7528 106.346 7.93845 106.841 8.43351C106.965 8.55728 107.089 8.68105 107.212 8.80481C107.398 8.8667 107.522 8.95952 107.584 9.08329C108.017 9.70212 108.481 10.2591 108.976 10.7541C109.533 11.1873 110.09 11.5896 110.647 11.9609C111.08 12.8891 111.359 13.5079 111.482 13.8174C111.606 14.1268 111.761 14.3743 111.947 14.5599C112.132 14.6837 112.503 14.9312 113.06 15.3025C113.122 15.3644 113.184 15.4573 113.246 15.581C113.308 15.6429 113.339 15.7357 113.339 15.8595C113.525 16.7877 114.051 17.3447 114.917 17.5303C115.288 17.6541 115.505 17.716 115.567 17.716C115.876 17.9635 116.031 18.3039 116.031 18.7371C116.093 19.1084 116.34 19.4487 116.773 19.7581C117.145 19.7581 117.454 19.8819 117.702 20.1294C117.887 20.1913 118.042 20.2532 118.166 20.3151C118.351 20.3151 118.475 20.3151 118.537 20.3151C119.094 20.7483 119.434 21.3052 119.558 21.9859C119.744 22.6048 120.084 23.0998 120.579 23.4711H121.043C121.538 23.2855 122.033 23.0998 122.529 22.9142C123.024 22.7285 123.519 22.5429 124.014 22.3572C124.261 22.0478 124.478 21.7384 124.664 21.429C124.849 21.1196 125.066 20.8102 125.313 20.5007C125.623 20.0057 125.963 19.5106 126.334 19.0155C126.706 18.4586 127.077 17.9635 127.448 17.5303C127.82 17.0353 128.098 16.5093 128.284 15.9523C128.469 15.3954 128.717 14.9003 129.026 14.4671C129.336 13.9721 129.645 13.5389 129.955 13.1676C130.326 12.7344 130.728 12.2703 131.161 11.7752C131.594 10.4757 132.213 9.23799 133.018 8.06221C133.884 6.88643 134.874 5.80348 135.988 4.81335C136.669 5.06088 137.288 5.27747 137.845 5.46312C138.402 5.64877 138.959 5.92725 139.516 6.29854C140.196 6.91738 141.124 7.3815 142.3 7.69092C142.61 7.7528 142.888 7.84563 143.136 7.96939C143.383 8.09316 143.631 8.18598 143.878 8.24787C144.311 8.61917 144.59 8.99046 144.714 9.36176C144.899 9.73306 145.054 10.1353 145.178 10.5685C145.302 10.6304 145.425 10.6922 145.549 10.7541C145.735 10.816 145.889 10.8779 146.013 10.9398C146.137 11.1873 146.261 11.4658 146.385 11.7752C146.57 12.0227 146.725 12.3012 146.849 12.6106C147.034 12.8582 147.251 13.1057 147.498 13.3532C147.808 13.5389 147.993 13.8174 148.055 14.1886C147.993 14.4981 147.87 14.8384 147.684 15.2097C147.56 15.5191 147.437 15.8286 147.313 16.138V18.0873C147.065 18.5205 146.756 18.8299 146.385 19.0155C146.075 19.1393 145.766 19.294 145.456 19.4797C145.394 19.6034 145.302 19.7272 145.178 19.851C145.116 19.9128 145.023 20.0057 144.899 20.1294C144.528 20.8102 144.126 21.4599 143.693 22.0788C143.321 22.6976 142.857 23.3164 142.3 23.9353C141.929 24.3684 141.589 24.8326 141.279 25.3276C140.97 25.8227 140.629 26.3178 140.258 26.8128V27.9267C140.011 28.1742 139.732 28.4527 139.423 28.7621C139.175 29.0097 138.959 29.3191 138.773 29.6904C138.525 30.0617 138.247 30.3711 137.937 30.6186C137.628 30.8662 137.411 31.2065 137.288 31.6397C137.102 32.0729 136.824 32.4132 136.452 32.6608C136.081 32.8464 135.772 33.2487 135.524 33.8675C135.462 34.115 135.4 34.4245 135.338 34.7957C135.338 35.167 135.276 35.5693 135.153 36.0025C136.638 37.9208 137.937 39.963 139.051 42.1289V43.2428C139.361 43.5522 139.639 43.8307 139.887 44.0782C140.196 44.3258 140.444 44.5733 140.629 44.8208C141.805 46.306 143.043 47.6056 144.342 48.7195C144.59 48.967 144.807 49.2455 144.992 49.5549C145.24 49.8024 145.363 50.1118 145.363 50.4831C145.425 50.7307 145.549 50.9782 145.735 51.2257C145.92 51.4733 146.044 51.6899 146.106 51.8755C146.601 52.4943 147.003 53.1751 147.313 53.9177C147.622 54.6603 147.993 55.3719 148.427 56.0526Z" fill="#00C4D8"/>
<path d="M177.864 32.1736C178.049 32.6068 178.142 33.0709 178.142 33.566C178.204 34.061 178.08 34.5561 177.771 35.0512C177.647 35.2987 177.585 35.5462 177.585 35.7938C177.647 35.9794 177.678 36.2269 177.678 36.5364C177.554 36.722 177.399 36.9076 177.214 37.0933C177.028 37.2171 176.873 37.4027 176.75 37.6502C176.626 37.774 176.502 37.9287 176.378 38.1144C176.316 38.3 176.162 38.4547 175.914 38.5785C175.605 38.5166 175.233 38.4857 174.8 38.4857C174.367 38.4857 173.965 38.4857 173.594 38.4857C172.665 38.4857 171.83 38.7332 171.087 39.2283C170.84 39.4758 170.592 39.6615 170.345 39.7852C170.097 39.8471 169.85 39.9399 169.602 40.0637C169.231 40.435 169.107 40.8063 169.231 41.1776V42.9413C169.293 43.4982 169.355 44.0552 169.416 44.6121C169.54 45.1072 169.571 45.6641 169.509 46.283C169.447 46.4067 169.447 46.5924 169.509 46.8399C169.571 47.0255 169.633 47.1803 169.695 47.304C169.633 47.5516 169.54 47.7681 169.416 47.9538C169.355 48.0776 169.293 48.2632 169.231 48.5107C169.293 48.7583 169.355 49.0058 169.416 49.2533C169.478 49.439 169.54 49.6556 169.602 49.9031C169.602 50.2125 169.571 50.4291 169.509 50.5529C169.386 50.9242 169.262 51.2955 169.138 51.6668C169.076 52.0381 168.983 52.4094 168.86 52.7807C168.674 53.2139 168.643 53.6161 168.767 53.9874C168.89 54.3587 168.86 54.73 168.674 55.1013C168.674 56.4008 168.612 57.6695 168.488 58.9071C168.364 60.1448 168.272 61.3824 168.21 62.6201C168.21 64.2291 168.488 65.869 169.045 67.5398C169.293 68.0968 169.695 68.3752 170.252 68.3752C170.376 68.3134 170.499 68.2205 170.623 68.0968C170.809 67.973 170.994 67.8802 171.18 67.8183C171.366 67.8183 171.521 67.8802 171.644 68.0039C172.139 68.5609 172.696 68.9322 173.315 69.1178C174.305 69.3654 174.584 69.8604 174.151 70.603C173.965 71.0362 173.872 71.5003 173.872 71.9954C173.934 72.4905 173.934 72.9855 173.872 73.4806C173.748 74.842 173.686 76.2344 173.686 77.6577C173.686 79.0192 173.779 80.4115 173.965 81.8348C173.965 82.5156 173.903 82.9487 173.779 83.1344C173.717 83.3819 173.346 83.7532 172.665 84.2483H172.387C171.892 84.1864 171.397 84.1245 170.902 84.0626C170.468 84.0007 170.035 83.9389 169.602 83.877C168.426 84.0626 167.374 84.1555 166.446 84.1555C166.013 84.2173 165.58 84.3102 165.147 84.4339C164.775 84.6196 164.342 84.6815 163.847 84.6196C163.352 84.4958 162.857 84.4958 162.362 84.6196C161.867 84.7433 161.372 84.8052 160.877 84.8052C160.629 84.6815 160.382 84.5886 160.134 84.5268C159.948 84.4649 159.701 84.372 159.391 84.2483C157.906 84.4958 156.421 84.6505 154.936 84.7124C153.451 84.7743 151.934 84.8362 150.387 84.8981C150.078 84.4649 149.769 84.0626 149.459 83.6913C149.15 83.3819 148.871 83.0416 148.624 82.6703C148.5 82.2371 148.252 81.8658 147.881 81.5564C147.572 81.247 147.262 80.9685 146.953 80.7209C146.891 80.1021 146.767 79.5142 146.582 78.9573C146.458 78.4622 146.458 77.9671 146.582 77.4721C146.767 77.1627 146.829 76.8532 146.767 76.5438C146.643 75.9869 146.613 75.4299 146.674 74.873C146.798 74.2541 146.922 73.6663 147.046 73.1093V71.9954C147.541 71.8716 148.036 71.7788 148.531 71.7169C149.026 71.5932 149.521 71.5932 150.016 71.7169C150.264 71.5932 150.48 71.4694 150.666 71.3456C150.852 71.16 151.068 70.9743 151.316 70.7887C151.625 70.9125 151.934 71.0362 152.244 71.16C152.553 71.2838 152.894 71.4075 153.265 71.5313C153.884 71.16 154.595 70.6649 155.4 70.0461C155.524 69.6748 155.586 69.3963 155.586 69.2107C155.586 68.53 155.586 67.8492 155.586 67.1685C155.586 66.4259 155.617 65.7143 155.678 65.0336V64.7551C155.431 64.1362 155.338 63.5484 155.4 62.9914C155.462 62.4345 155.462 61.8466 155.4 61.2277V60.021C155.524 58.5977 155.555 57.2053 155.493 55.8439C155.493 54.4206 155.462 52.9973 155.4 51.574L156.05 50.3672C155.988 50.0578 155.926 49.7484 155.864 49.439C155.802 49.1296 155.74 48.8202 155.678 48.5107C155.74 48.2013 155.802 47.9229 155.864 47.6753C155.988 47.4278 156.081 47.1493 156.143 46.8399C156.143 46.5924 156.112 46.4067 156.05 46.283C155.74 45.5404 155.617 44.8596 155.678 44.2408V42.8484C155.678 42.6009 155.617 42.4153 155.493 42.2915C155.369 42.1058 155.307 41.8892 155.307 41.6417C155.369 41.5179 155.4 41.2395 155.4 40.8063C155.338 40.435 155.276 40.0637 155.214 39.6924C155.152 39.3211 155.06 38.9498 154.936 38.5785C154.626 38.2691 154.286 38.1763 153.915 38.3C153.543 38.3619 153.203 38.3619 152.894 38.3C152.584 38.1763 152.244 38.1144 151.873 38.1144C151.501 38.1144 151.099 38.1144 150.666 38.1144C150.233 37.8668 149.738 37.774 149.181 37.8359C148.686 37.8359 148.191 37.7431 147.695 37.5574C147.448 37.248 147.324 36.8767 147.324 36.4435C147.386 36.0103 147.324 35.7009 147.139 35.5153C147.015 35.2677 147.015 34.9583 147.139 34.587C147.262 34.1538 147.262 33.7825 147.139 33.4731C147.386 33.1637 147.417 32.9471 147.231 32.8234C147.046 32.6996 147.046 32.4521 147.231 32.0808C147.417 31.7713 147.51 31.431 147.51 31.0597C147.51 30.6265 147.634 30.2861 147.881 30.0386C148.005 29.9148 148.036 29.7292 147.974 29.4817C147.974 29.1723 148.005 28.8938 148.067 28.6462C148.191 28.5225 148.469 28.4606 148.902 28.4606C149.335 28.3987 149.583 28.3059 149.645 28.1821C149.892 27.8727 150.171 27.6561 150.48 27.5323C150.852 27.4086 151.223 27.2539 151.594 27.0682C151.718 27.0682 151.873 27.0682 152.058 27.0682C152.244 27.0063 152.46 26.9754 152.708 26.9754C153.203 26.9754 153.729 26.9754 154.286 26.9754C154.843 26.9754 155.369 26.9445 155.864 26.8826C156.359 26.7588 156.854 26.666 157.349 26.6041C157.844 26.4803 158.37 26.3875 158.927 26.3256C159.484 26.2019 160.041 26.2328 160.598 26.4185C161.403 26.666 162.393 26.635 163.569 26.3256C163.816 26.2637 164.033 26.2019 164.218 26.14C164.404 26.0781 164.559 26.0162 164.682 25.9543C165.116 26.0162 165.487 26.0781 165.796 26.14C166.168 26.2019 166.477 26.2328 166.725 26.2328C166.91 26.2328 167.096 26.2019 167.282 26.14C167.529 26.0781 167.715 26.0472 167.838 26.0472C168.457 26.0472 169.014 26.0781 169.509 26.14C170.066 26.14 170.623 26.2019 171.18 26.3256C172.356 26.5113 173.408 26.5732 174.336 26.5113C174.646 26.4494 174.893 26.4494 175.079 26.5113C175.326 26.5113 175.481 26.5113 175.543 26.5113C175.976 26.5732 176.286 26.7279 176.471 26.9754C176.719 27.161 176.904 27.3158 177.028 27.4395C178.018 28.4297 178.235 29.4507 177.678 30.5027C177.616 30.5646 177.585 30.7812 177.585 31.1525C177.647 31.2763 177.678 31.431 177.678 31.6166C177.74 31.7404 177.802 31.9261 177.864 32.1736Z" fill="#FF355A"/>
<path d="M235.276 28.5422C235.214 28.9135 235.121 29.2848 234.997 29.6561C234.874 30.0274 234.75 30.3987 234.626 30.77C234.564 31.0175 234.533 31.3888 234.533 31.8839C234.348 32.0695 234.162 32.2861 233.976 32.5336C233.853 32.7193 233.667 32.9668 233.419 33.2762C233.419 33.5238 233.358 33.8951 233.234 34.3901C232.986 34.5758 232.739 34.7614 232.491 34.9471C232.244 35.1327 231.965 35.3184 231.656 35.504C231.594 35.7516 231.501 35.9991 231.377 36.2466C231.254 36.4323 231.13 36.6798 231.006 36.9892C230.325 37.6081 229.706 38.2888 229.149 39.0314C228.654 39.774 228.067 40.4856 227.386 41.1663C227.015 41.2901 226.643 41.1663 226.272 40.795C225.901 40.4237 225.498 40.0834 225.065 39.774C224.694 39.4027 224.261 39.0933 223.766 38.8457C223.58 38.722 223.456 38.6291 223.394 38.5673C223.332 38.5054 223.24 38.4125 223.116 38.2888C222.868 38.2888 222.59 38.2269 222.28 38.1031C222.033 37.9794 221.785 37.8865 221.538 37.8247C221.228 37.7628 220.95 37.639 220.702 37.4534C220.455 37.2677 220.207 37.0821 219.96 36.8964L218.939 35.7825C218.32 35.9063 217.732 35.8444 217.175 35.5969C216.68 35.3493 216.123 35.1018 215.504 34.8543C215.071 34.9161 214.638 34.9471 214.205 34.9471C213.772 34.9471 213.307 34.978 212.812 35.0399C212.379 35.2874 211.946 35.5659 211.513 35.8753C211.08 36.1848 210.646 36.4942 210.213 36.8036C209.656 37.2368 209.099 37.639 208.542 38.0103C208.047 38.3197 207.459 38.5363 206.779 38.6601C206.717 38.6601 206.624 38.722 206.5 38.8457C206.376 38.9076 206.253 38.9695 206.129 39.0314C205.881 39.2789 205.603 39.5883 205.294 39.9596C205.046 40.3309 204.798 40.6713 204.551 40.9807C204.242 41.9089 203.994 42.7444 203.808 43.487C203.87 43.7345 203.901 43.9511 203.901 44.1367C203.963 44.3224 204.025 44.508 204.087 44.6937C204.087 45.065 203.901 45.4053 203.53 45.7148C203.344 45.9623 203.128 46.1789 202.88 46.3645C202.694 46.4883 202.54 46.7358 202.416 47.1071L203.066 48.1282C203.128 48.3757 203.035 48.6233 202.787 48.8708C202.602 49.1183 202.447 49.3968 202.323 49.7062C202.323 49.7681 202.292 49.7991 202.23 49.7991C202.168 49.7991 202.137 49.83 202.137 49.8919C202.261 50.3251 202.354 50.8201 202.416 51.3771C202.54 51.8721 202.633 52.3672 202.694 52.8623C203.313 53.3573 203.839 53.8833 204.272 54.4403C204.768 54.9972 205.232 55.5851 205.665 56.204C205.974 56.5753 206.284 56.9156 206.593 57.225C206.964 57.5345 207.305 57.8439 207.614 58.1533C208.233 58.4627 208.852 58.7721 209.471 59.0815C210.151 59.3291 210.801 59.5147 211.42 59.6385C211.915 59.7004 212.348 59.8551 212.72 60.1026C213.153 60.2883 213.648 60.4739 214.205 60.6595C214.762 60.6595 215.38 60.6905 216.061 60.7524C216.742 60.7524 217.423 60.7524 218.103 60.7524C218.537 60.7524 218.815 60.7214 218.939 60.6595C219.619 60.4739 220.269 60.3811 220.888 60.3811C221.507 60.3192 222.126 60.1954 222.745 60.0098C223.425 59.886 224.075 59.7932 224.694 59.7313C225.375 59.6694 226.024 59.6075 226.643 59.5457C226.767 59.5457 226.922 59.4838 227.107 59.36C227.355 59.2362 227.571 59.2362 227.757 59.36C228.005 59.6075 228.19 59.8551 228.314 60.1026C228.438 60.3501 228.593 60.6286 228.778 60.938C228.716 61.1237 228.685 61.3712 228.685 61.6806C228.685 61.9282 228.685 62.2066 228.685 62.516C230.047 64.8057 231.068 67.4358 231.749 70.4062C230.82 71.0869 229.892 71.7985 228.964 72.5411C228.097 73.2218 227.169 73.9644 226.179 74.7689C225.746 74.9546 225.251 75.0783 224.694 75.1402C224.199 75.1402 223.797 75.3877 223.487 75.8828C223.24 75.759 222.992 75.6662 222.745 75.6043C222.559 75.5425 222.404 75.4806 222.28 75.4187C222.033 75.4806 221.878 75.6043 221.816 75.79C221.754 75.9756 221.662 76.1303 221.538 76.2541C221.167 76.0685 220.826 75.8828 220.517 75.6972C220.455 75.759 220.3 75.8209 220.053 75.8828C219.867 75.9447 219.712 76.0066 219.589 76.0685C218.97 76.1922 218.382 76.316 217.825 76.4398C217.268 76.6254 216.68 76.7182 216.061 76.7182C215.628 76.7182 215.133 76.7182 214.576 76.7182C214.019 76.7801 213.493 76.842 212.998 76.9039C212.874 76.9039 212.72 76.8729 212.534 76.8111C212.348 76.8111 212.132 76.7801 211.884 76.7182C211.08 76.4707 210.554 76.2851 210.306 76.1613C210.059 76.0375 209.533 75.7281 208.728 75.233C208.233 75.1712 207.862 75.3259 207.614 75.6972C207.429 76.1303 207.181 76.3469 206.872 76.3469H205.758C205.263 76.1613 204.768 75.9756 204.272 75.79C203.777 75.6043 203.251 75.4806 202.694 75.4187C202.261 75.3568 201.859 75.264 201.488 75.1402C201.178 74.9546 200.807 74.7999 200.374 74.6761C199.941 74.3048 199.477 73.9335 198.981 73.5622C198.548 73.129 198.084 72.7887 197.589 72.5411C197.156 72.3555 196.723 72.1079 196.29 71.7985C195.918 71.4272 195.578 71.0559 195.268 70.6846C195.021 70.3133 194.742 70.0349 194.433 69.8492C194.124 69.6017 193.845 69.3232 193.598 69.0138C193.164 68.3331 192.638 67.7142 192.02 67.1573C191.71 66.8479 191.432 66.5385 191.184 66.229C190.999 65.8577 190.751 65.5174 190.442 65.208C190.256 64.3416 190.07 63.4752 189.885 62.6089C189.761 61.7425 189.637 60.8452 189.513 59.917C189.39 59.7932 189.235 59.6075 189.049 59.36C188.925 59.0506 188.74 58.7721 188.492 58.5246C188.43 58.0295 188.338 57.5035 188.214 56.9466C188.09 56.3277 187.873 55.7708 187.564 55.2757C187.626 55.0282 187.719 54.7188 187.842 54.3475C187.842 54.038 187.842 53.8833 187.842 53.8833C187.347 52.5219 187.193 51.2224 187.378 49.9847C187.502 49.1183 187.595 48.221 187.657 47.2928C187.781 46.3027 187.873 45.3435 187.935 44.4152C188.121 44.2914 188.276 44.1677 188.399 44.0439C188.585 43.9202 188.771 43.7964 188.956 43.6726C188.214 42.4968 188.214 41.1973 188.956 39.774C188.647 39.1551 188.492 38.6601 188.492 38.2888C188.492 37.9175 188.492 37.7318 188.492 37.7318C188.74 37.4843 188.956 37.2368 189.142 36.9892C189.328 36.7417 189.544 36.4942 189.792 36.2466C190.287 35.8135 190.72 35.2874 191.091 34.6686C191.277 34.3592 191.432 34.0188 191.555 33.6475C191.741 33.2762 191.803 32.9359 191.741 32.6265C192.236 32.3171 192.731 32.1005 193.226 31.9767C193.783 31.791 194.216 31.5126 194.526 31.1413C194.588 31.0794 194.65 30.9556 194.712 30.77C194.712 30.5843 194.681 30.3677 194.619 30.1202C194.619 29.8727 194.619 29.5942 194.619 29.2848C194.804 29.0372 194.959 28.6969 195.083 28.2637C195.516 28.0162 195.887 27.8305 196.197 27.7068C196.506 27.583 196.816 27.4283 197.125 27.2426C197.249 27.1189 197.342 26.9951 197.403 26.8713C197.527 26.7476 197.62 26.6238 197.682 26.5C198.301 25.5099 199.074 24.7982 200.003 24.3651C200.374 24.2413 200.745 24.0866 201.116 23.9009C201.488 23.7153 201.828 23.5606 202.137 23.4368C202.323 23.3131 202.478 23.1893 202.602 23.0655C202.787 22.8799 202.973 22.7252 203.159 22.6014C203.592 22.4776 204.056 22.3229 204.551 22.1373C204.984 21.9516 205.417 21.766 205.85 21.5803C206.346 21.3947 206.841 21.2709 207.336 21.209C207.769 21.0853 208.171 20.9305 208.542 20.7449C208.976 20.5593 209.378 20.4355 209.749 20.3736C210.059 20.2498 210.306 20.2808 210.492 20.4664C210.739 20.5902 210.987 20.714 211.234 20.8377H213.184C213.493 20.714 213.71 20.5592 213.833 20.3736C213.957 20.1261 214.143 19.9714 214.39 19.9095C215.257 19.7238 215.906 19.6001 216.34 19.5382C216.773 19.4763 217.33 19.4763 218.011 19.5382C218.691 19.5382 219.712 19.6001 221.074 19.7238C221.383 19.7857 221.631 19.9095 221.816 20.0951C222.064 20.2808 222.342 20.4045 222.652 20.4664C223.085 20.4664 223.487 20.5283 223.858 20.6521C224.292 20.714 224.725 20.8068 225.158 20.9305C225.715 21.3637 226.303 21.766 226.922 22.1373C227.541 22.4467 228.252 22.6323 229.057 22.6942C229.428 23.3131 229.892 23.8081 230.449 24.1794C231.068 24.5507 231.687 24.8911 232.306 25.2005C232.862 25.5099 233.388 25.8812 233.884 26.3144C234.379 26.7476 234.843 27.2117 235.276 27.7068C235.276 27.8305 235.276 27.9852 235.276 28.1709C235.338 28.2946 235.338 28.4184 235.276 28.5422Z" fill="#FFA500"/>
<path d="M278.376 40.3935C278.376 43.7979 277.594 46.6785 276.03 49.0354C274.467 51.3399 271.939 52.4922 268.446 52.4922C264.954 52.4922 262.374 51.3923 260.706 49.1925C259.038 46.9928 258.204 44.3217 258.204 41.1792C258.204 36.8844 259.664 33.4015 262.583 30.7303C265.501 28.0068 268.916 26.6451 272.825 26.6451C276.578 26.6451 280.018 28.0592 283.145 30.8874C284.761 32.3539 286.064 34.5013 287.054 37.3296C288.045 40.1578 288.54 43.4837 288.54 47.307C288.54 55.6347 286.299 62.4696 281.816 67.8119C277.333 73.1018 271.235 75.7467 263.521 75.7467C255.807 75.7467 249.708 73.1018 245.225 67.8119C240.743 62.4696 238.502 55.6871 238.502 47.4642C238.502 39.2413 240.743 32.4849 245.225 27.195C249.708 21.8527 255.807 19.1816 263.521 19.1816V25.0738C258.1 25.0738 253.748 27.195 250.464 31.4374C247.18 35.6274 245.538 40.9696 245.538 47.4642C245.538 53.9587 247.18 59.3271 250.464 63.5695C253.748 67.7595 258.1 69.8545 263.521 69.8545C268.942 69.8545 273.294 67.7595 276.578 63.5695C279.861 59.3271 281.503 54.2206 281.503 48.2498C281.503 42.2267 280.643 38.1152 278.923 35.9155C277.203 33.6633 275.196 32.5373 272.903 32.5373C270.61 32.5373 268.629 33.3491 266.961 34.9727C265.293 36.5963 264.459 38.6651 264.459 41.1792C264.459 42.7504 264.798 44.0598 265.475 45.1073C266.153 46.1024 267.143 46.6 268.446 46.6C270.896 46.6 272.121 44.5312 272.121 40.3935H278.376Z" fill="#FF6600"/>
<path d="M40.8429 20.3207C40.8429 20.8158 40.6263 21.1252 40.1931 21.249C39.4505 21.3108 38.7389 21.5584 38.0582 21.9916C37.4393 22.3629 36.7896 22.6413 36.1088 22.827C35.3044 22.7651 34.5308 22.796 33.7882 22.9198C33.0456 23.0436 32.2411 23.0126 31.3748 22.827C31.251 22.9507 31.0963 23.0745 30.9107 23.1983C30.725 23.322 30.5393 23.4458 30.3537 23.5696C30.1062 23.5696 29.8277 23.6005 29.5183 23.6624C29.2089 23.7243 28.8994 23.7552 28.59 23.7552H26.2694C25.7743 23.7552 25.2793 23.7862 24.7842 23.848C24.2891 23.848 23.7941 23.8171 23.299 23.7552C22.7421 23.7552 22.247 23.879 21.8138 24.1265C21.3806 24.3122 20.9165 24.405 20.4214 24.405C20.1739 24.405 19.9573 24.4359 19.7717 24.4978C19.586 24.4978 19.4004 24.5288 19.2147 24.5906C18.7815 24.4669 18.3484 24.3741 17.9152 24.3122C17.5439 24.1884 17.1416 24.3431 16.7085 24.7763C16.399 25.8283 16.1206 26.9113 15.873 28.0252C15.6874 29.1391 15.5327 30.222 15.4089 31.274C15.2233 32.3879 15.2233 33.4399 15.4089 34.4301C15.4708 34.5538 15.5017 34.6776 15.5017 34.8014C15.5636 34.9251 15.6255 35.0489 15.6874 35.1727H18.4721C18.9053 35.3583 19.3385 35.5749 19.7717 35.8224C20.2667 36.07 20.7618 36.3484 21.2569 36.6579C21.3806 36.7197 21.5353 36.7816 21.721 36.8435C21.9685 36.8435 22.2161 36.8745 22.4636 36.9363C22.6492 36.9982 22.8658 37.0601 23.1134 37.122C23.3609 37.1839 23.6084 37.2767 23.856 37.4005C24.2891 37.4005 24.6914 37.2767 25.0627 37.0292C25.434 36.7816 25.8362 36.6269 26.2694 36.565H26.7335C27.0429 36.565 27.3214 36.596 27.569 36.6579C27.8784 36.7197 28.1568 36.7197 28.4044 36.6579C29.2089 36.4722 30.0133 36.4722 30.8178 36.6579C31.6223 36.7816 32.3958 36.8435 33.1384 36.8435C33.6335 36.8435 34.0976 36.9363 34.5308 37.122C35.0259 37.3076 35.49 37.5242 35.9232 37.7718C36.1707 39.8758 36.2635 42.0108 36.2017 44.1767C36.2017 46.2807 36.1707 48.3847 36.1088 50.4888C36.1088 50.7363 36.016 50.891 35.8304 50.9529C35.6447 51.0148 35.4591 51.0148 35.2734 50.9529C35.1496 50.891 34.9949 50.8291 34.8093 50.7672C34.6855 50.7053 34.4999 50.6435 34.2523 50.5816H28.8685C28.3116 50.5197 27.7855 50.5197 27.2905 50.5816C26.8573 50.6435 26.3932 50.6435 25.8981 50.5816C25.403 50.5197 24.908 50.4888 24.4129 50.4888C23.9178 50.4269 23.3918 50.365 22.8349 50.3031C22.4017 50.2412 21.9376 50.2103 21.4425 50.2103C20.9475 50.2103 20.4214 50.1793 19.8645 50.1175C19.5551 50.1175 19.2147 50.0556 18.8434 49.9318C18.534 49.808 18.2246 49.7152 17.9152 49.6533C17.482 49.7152 17.1416 49.8699 16.8941 50.1175C16.7085 50.365 16.4609 50.6125 16.1515 50.8601C16.0896 50.9838 15.9968 51.1695 15.873 51.417C15.8112 51.6027 15.7183 51.7883 15.5946 51.974C15.6564 52.1596 15.6874 52.3762 15.6874 52.6237C15.9968 52.995 16.1825 53.4282 16.2443 53.9233C16.3681 54.3565 16.43 54.8206 16.43 55.3156C16.43 56.0582 16.4609 56.8008 16.5228 57.5434C16.6466 58.286 16.6466 59.0286 16.5228 59.7712C16.5228 60.3901 16.5228 61.0089 16.5228 61.6277C16.5847 62.2466 16.7394 62.8345 16.9869 63.3914C17.0488 63.5152 17.0798 63.7318 17.0798 64.0412C16.7085 64.9075 16.2134 65.743 15.5946 66.5474C14.9757 66.9806 14.3569 67.2591 13.7381 67.3829C13.1811 67.5685 12.5623 67.816 11.8816 68.1255C11.634 68.0636 11.3556 68.0326 11.0461 68.0326C10.7986 68.0326 10.5201 68.0326 10.2107 68.0326C9.96319 68.0945 9.56095 68.3111 9.004 68.6824H5.84796C5.3529 68.6824 4.82689 68.6824 4.26994 68.6824C3.77487 68.7443 3.21793 68.7752 2.59909 68.7752C1.98026 68.7752 1.54708 68.4968 1.29955 67.9398C1.23766 67.6923 1.20672 67.4138 1.20672 67.1044C1.20672 66.795 1.17578 66.4546 1.1139 66.0833C0.928248 65.7739 0.77354 65.4954 0.649773 65.2479C0.526007 64.9385 0.402241 64.66 0.278474 64.4125C0.216591 64.0412 0.154708 63.6699 0.0928246 63.2986C0.0928246 62.9273 0.0618831 62.5869 0 62.2775C0.185649 61.7206 0.340357 61.1945 0.464124 60.6995C0.649773 60.2044 0.835423 59.6784 1.02107 59.1215C0.77354 57.6981 0.618832 56.2439 0.556949 54.7587C0.495065 53.2116 0.58789 51.6645 0.835423 50.1175C0.835423 49.808 0.77354 49.4677 0.649773 49.0964C0.58789 48.7251 0.649773 48.3228 0.835423 47.8897C1.20672 47.2089 1.20672 46.5592 0.835423 45.9403C0.77354 45.5072 0.711656 45.074 0.649773 44.6408C0.649773 44.2076 0.711656 43.7744 0.835423 43.3412C0.959189 43.1556 1.02107 42.939 1.02107 42.6915C1.02107 42.4439 1.02107 42.1964 1.02107 41.9489C1.08296 41.6395 1.05201 41.2991 0.928248 40.9278C0.804481 40.5565 0.77354 40.1852 0.835423 39.8139C0.959189 39.5045 1.02107 39.1951 1.02107 38.8857C1.08296 38.5144 1.1139 38.1431 1.1139 37.7718C1.1139 37.3386 1.14484 36.9054 1.20672 36.4722C1.26861 36.039 1.36143 35.6368 1.4852 35.2655C1.42331 34.8323 1.36143 34.461 1.29955 34.1516C1.29955 33.7803 1.26861 33.409 1.20672 33.0377C1.51614 32.357 1.67085 31.6763 1.67085 30.9956C1.73273 30.253 1.76367 29.5104 1.76367 28.7678C1.76367 28.2727 1.76367 27.7776 1.76367 27.2826C1.76367 26.7875 1.79461 26.3234 1.8565 25.8902C1.91838 25.3951 1.94932 24.931 1.94932 24.4978C2.0112 24.0028 2.04214 23.5386 2.04214 23.1054C2.04214 22.9817 2.0112 22.8579 1.94932 22.7341C1.94932 22.5485 1.98026 22.3938 2.04214 22.27C2.28968 21.775 2.3825 21.3108 2.32062 20.8777C2.32062 20.3826 2.35156 19.9185 2.41344 19.4853C2.41344 19.114 2.41344 18.7427 2.41344 18.3714C2.47533 17.9382 2.53721 17.536 2.59909 17.1647C2.53721 16.8552 2.44439 16.5149 2.32062 16.1436C2.19685 15.7723 2.10403 15.4629 2.04214 15.2153C2.10403 14.9059 2.16591 14.5965 2.22779 14.2871C2.35156 13.9777 2.41344 13.6683 2.41344 13.3588C2.47533 12.6162 2.97039 12.1212 3.89864 11.8737C5.01254 11.5024 6.18832 11.2239 7.42598 11.0382C7.85916 11.0382 8.19952 10.9145 8.44705 10.6669C8.69459 10.5432 8.97306 10.4813 9.28248 10.4813C9.65378 10.5432 10.0251 10.5432 10.3964 10.4813C10.8296 10.4194 11.2627 10.3575 11.6959 10.2956C12.191 9.98621 12.7479 9.83151 13.3668 9.83151C14.5425 9.76962 15.7183 9.61492 16.8941 9.36738C18.0699 9.11985 19.2457 8.96514 20.4214 8.90326C21.0403 8.84137 21.6282 8.81043 22.1851 8.81043C22.7421 8.74855 23.33 8.81043 23.9488 8.99608C24.4439 9.05797 24.9389 9.11985 25.434 9.18173C25.9291 9.18173 26.4241 9.18173 26.9192 9.18173C27.1667 9.18173 27.4143 9.18173 27.6618 9.18173C27.9093 9.11985 28.1568 9.08891 28.4044 9.08891C29.2707 9.02702 29.9205 9.02702 30.3537 9.08891C30.7869 9.08891 31.2201 9.11985 31.6532 9.18173C32.0864 9.24362 32.7362 9.36738 33.6026 9.55303C34.0357 9.61491 34.438 9.6768 34.8093 9.73868C35.2425 9.73868 35.6447 9.80057 36.016 9.92433C36.6967 10.2337 37.4393 10.4503 38.2438 10.5741C38.5532 10.636 38.8008 10.7598 38.9864 10.9454C39.1721 11.0692 39.3268 11.1929 39.4505 11.3167C39.6981 12.3068 39.6981 13.266 39.4505 14.1943C39.6362 14.7512 39.8218 15.401 40.0075 16.1436C40.0075 16.2055 39.9765 16.3602 39.9147 16.6077C39.9147 16.7934 39.9147 16.9481 39.9147 17.0718C39.9147 17.3813 39.9456 17.5669 40.0075 17.6288C40.1312 17.8763 40.255 18.1548 40.3788 18.4642C40.5025 18.7117 40.5954 18.9593 40.6572 19.2068C40.781 19.3925 40.8429 19.5781 40.8429 19.7638C40.8429 19.9494 40.8429 20.1351 40.8429 20.3207Z" fill="#FF6600"/>
<path d="M160.432 20.9873C160.454 20.9588 160.478 20.9429 160.503 20.9394L160.47 20.9821C160.578 21.0184 160.669 21.1207 160.744 21.289C160.793 21.4607 160.873 21.5772 160.984 21.6386C161.02 21.7102 161.124 21.8108 161.296 21.9403C161.468 22.0698 161.59 22.1169 161.663 22.0816C162.006 21.9584 162.424 21.9017 162.914 21.9115C163.001 21.9763 163.087 22.041 163.173 22.1058C163.259 22.1706 163.372 22.2444 163.512 22.3273C163.537 22.3239 163.564 22.3329 163.593 22.3545C163.618 22.3511 163.656 22.3459 163.707 22.3391C163.786 22.3538 163.901 22.3508 164.053 22.3302C164.859 22.1953 165.676 22.2372 166.504 22.456C166.688 22.482 166.883 22.4938 167.089 22.4913C167.291 22.4638 167.488 22.3988 167.68 22.2963C167.822 22.2006 167.969 22.1424 168.12 22.1218C168.243 22.0796 168.382 22.0607 168.538 22.0652C168.866 22.0205 169.176 21.9275 169.466 21.7862C169.596 21.7941 169.738 21.8002 169.893 21.8046C170.023 21.8124 170.155 21.8328 170.288 21.8657C170.421 21.8985 170.556 21.9439 170.693 22.0018C170.833 22.0847 170.977 22.1033 171.125 22.0577C171.144 22.0042 171.175 21.949 171.219 21.8921C171.259 21.8102 171.298 21.7157 171.335 21.6088C171.382 21.5769 171.442 21.5433 171.514 21.508C171.583 21.4476 171.641 21.4015 171.689 21.3696C172.011 21.2749 172.299 21.1211 172.553 20.9082C172.899 20.6064 173.24 20.3689 173.577 20.1957C173.747 20.1217 173.887 20.0135 173.997 19.8712C174.077 19.7073 174.174 19.5668 174.287 19.4495C174.354 19.1855 174.41 18.9358 174.456 18.7003C174.501 18.4648 174.519 18.2203 174.511 17.9666C174.58 17.9063 174.636 17.8476 174.68 17.7907C174.72 17.7088 174.762 17.6394 174.806 17.5824C174.944 17.4617 175.008 17.3639 174.998 17.2888C174.993 17.0602 175.045 16.8747 175.154 16.7324C175.264 16.5902 175.354 16.3996 175.424 16.1606C175.418 16.1106 175.42 16.0338 175.432 15.9303C175.418 15.8302 175.417 15.7284 175.429 15.6249C175.422 15.5748 175.414 15.5123 175.403 15.4372C175.39 15.3371 175.392 15.2603 175.411 15.2069C175.485 14.993 175.56 14.7915 175.638 14.6027C175.712 14.3887 175.775 14.1891 175.827 14.0036C175.81 13.8785 175.759 13.6943 175.674 13.4509C175.477 12.9427 175.42 12.428 175.503 11.907C175.556 11.7215 175.582 11.5395 175.584 11.3609C175.585 11.1823 175.599 11.002 175.626 10.82C175.594 10.7734 175.56 10.7143 175.525 10.6427C175.461 10.5494 175.4 10.4813 175.343 10.4381L175.501 9.61384C175.535 9.48186 175.595 9.35896 175.683 9.24514C175.742 9.10972 175.802 8.98682 175.865 8.87643C175.863 8.67283 175.799 8.49032 175.674 8.32891C175.524 8.17094 175.424 8.00609 175.375 7.83438C175.365 7.75932 175.368 7.68253 175.383 7.60404C175.372 7.52897 175.362 7.45391 175.352 7.37884C175.112 7.13109 174.947 6.86052 174.855 6.56714C174.739 6.27719 174.646 5.97129 174.576 5.64945C174.386 5.57341 174.219 5.48142 174.075 5.37349C173.932 5.26556 173.821 5.11495 173.743 4.92165C173.708 4.85002 173.683 4.76416 173.67 4.66408C173.631 4.56743 173.592 4.47078 173.553 4.37413C173.399 4.19113 173.246 4.00814 173.092 3.82514C172.91 3.62056 172.743 3.43928 172.593 3.28131C172.526 3.16307 172.469 3.03061 172.423 2.88392C172.352 2.74066 172.259 2.62586 172.145 2.53951C172.008 2.48162 171.906 2.39356 171.838 2.27533C171.746 2.16053 171.665 2.04401 171.598 1.92577C171.417 1.9248 171.26 1.90787 171.127 1.87501C170.994 1.84214 170.875 1.82007 170.77 1.80879C170.634 1.7509 170.56 1.68442 170.55 1.60936C170.427 1.26936 170.241 1.03976 169.993 0.92055C169.716 0.779752 169.421 0.692432 169.107 0.65859C169.003 0.64731 168.913 0.646822 168.837 0.657128C168.758 0.64241 168.653 0.631129 168.523 0.623284C168.466 0.580112 168.394 0.526147 168.308 0.461388C168.218 0.371608 168.129 0.281828 168.04 0.192048C167.881 0.162616 167.735 0.131467 167.602 0.098599C167.443 0.0691678 167.31 0.0363015 167.202 0L166.936 0.0360688C166.744 0.138613 166.552 0.241157 166.36 0.343703C166.139 0.424661 165.908 0.519847 165.665 0.629263C165.459 0.631723 165.252 0.621672 165.043 0.599109C164.805 0.554963 164.588 0.571651 164.392 0.649174C164.367 0.652609 164.344 0.668554 164.322 0.69701C164.296 0.700445 164.269 0.69137 164.241 0.669784C164.064 0.69383 163.883 0.692855 163.699 0.666859C163.516 0.640861 163.337 0.652396 163.163 0.701462C163.011 0.722073 162.858 0.730173 162.703 0.725763C162.522 0.724788 162.351 0.697074 162.189 0.64262C162.059 0.634775 161.944 0.637722 161.843 0.651463C161.713 0.643617 161.588 0.673303 161.469 0.740521C161.403 0.825891 161.337 0.91126 161.271 0.99663C161.202 1.05698 161.124 1.14406 161.036 1.25789C160.838 1.31039 160.629 1.38963 160.412 1.49561C160.166 1.58001 159.921 1.67691 159.679 1.78633C159.556 1.82852 159.45 1.90653 159.363 2.02036C159.25 2.13762 159.108 2.2333 158.938 2.30738C158.793 2.37804 158.647 2.43618 158.498 2.48181C158.321 2.50586 158.144 2.5299 157.967 2.55395C157.617 3.00925 157.174 3.34975 156.638 3.57545C156.59 3.60735 156.543 3.63924 156.496 3.67113C156.449 3.70302 156.402 3.73491 156.355 3.7668C156.176 3.96943 156.012 4.18286 155.862 4.40707C155.683 4.6097 155.517 4.81061 155.364 5.00981C155.214 5.23403 155.142 5.46045 155.147 5.68907C154.969 5.8917 154.874 6.04478 154.862 6.1483C154.822 6.23023 154.829 6.47137 154.883 6.87171C154.741 6.96739 154.614 7.07385 154.501 7.19111C154.385 7.28335 154.326 7.41877 154.325 7.59735C154.288 7.70431 154.251 7.81126 154.214 7.91822C154.173 8.00015 154.147 8.09288 154.136 8.1964C154.073 8.30679 154.009 8.40467 153.944 8.49004C153.849 8.55382 153.758 8.64263 153.671 8.75645C153.619 8.94191 153.579 9.12564 153.553 9.30766C153.522 9.46466 153.546 9.63981 153.624 9.83311C153.698 10.0014 153.736 10.1873 153.738 10.3909C153.74 10.5945 153.769 10.8072 153.825 11.029C153.877 11.2257 153.906 11.4384 153.912 11.667C153.917 11.8956 153.921 12.1118 153.922 12.3154C153.911 12.4189 153.913 12.5332 153.93 12.6583C153.944 12.7584 153.943 12.8477 153.928 12.9262C153.851 13.1151 153.824 13.2971 153.848 13.4722C153.846 13.6508 153.87 13.826 153.919 13.9977C153.933 14.0978 153.946 14.1979 153.96 14.2979C153.945 14.3764 153.946 14.4782 153.963 14.6034C154.108 14.9149 154.242 15.2407 154.366 15.5806C154.486 15.8956 154.642 16.1929 154.835 16.4726C155.024 16.7272 155.213 16.9818 155.402 17.2364C155.591 17.4911 155.804 17.7297 156.04 17.9525L156.127 18.5905C156.264 18.6484 156.402 18.7188 156.542 18.8017C156.653 18.863 156.75 18.9136 156.833 18.9533C157.051 19.2295 157.202 19.4893 157.287 19.7326C157.343 19.9544 157.422 20.1602 157.525 20.3501C157.64 20.4364 157.755 20.5228 157.869 20.6091C157.984 20.6954 158.112 20.7801 158.252 20.863C158.392 20.9459 158.555 21.0129 158.742 21.0639C158.901 21.0933 159.076 21.0568 159.269 20.9542C159.489 20.8732 159.681 20.86 159.843 20.9144C159.947 20.9257 160.052 20.937 160.156 20.9483C160.261 20.9596 160.353 20.9726 160.432 20.9873ZM159.887 12.4226C159.921 12.2906 159.943 12.1729 159.955 12.0694C159.938 11.9443 159.934 11.8174 159.942 11.6889C159.915 11.4887 159.905 11.3244 159.914 11.1958C159.937 10.9888 159.984 10.7658 160.055 10.5269C160.096 10.2664 160.153 10.0166 160.223 9.7777C160.235 9.67418 160.272 9.56723 160.334 9.45684C160.368 9.32486 160.403 9.20539 160.44 9.09844C160.588 8.67062 160.872 8.38998 161.292 8.25652C161.364 8.22119 161.449 8.18414 161.547 8.14538C161.641 8.0816 161.723 8.01953 161.792 7.95919C161.93 7.83849 162.072 7.74281 162.217 7.67216C162.362 7.60151 162.508 7.54337 162.657 7.49773C162.852 7.42021 163.06 7.34097 163.281 7.26001C163.499 7.15403 163.707 7.07479 163.906 7.02229C164.142 6.86283 164.384 6.84271 164.632 6.96192C165.352 7.1444 166.021 7.42305 166.638 7.79786C167.253 8.14765 167.813 8.67039 168.32 9.36606C168.409 9.45584 168.5 9.55813 168.593 9.67293C168.661 9.79117 168.728 9.90941 168.796 10.0276C168.914 10.139 169.021 10.2646 169.117 10.4044C169.21 10.5192 169.291 10.6357 169.358 10.754C169.36 10.9576 169.294 11.1322 169.159 11.278C169.024 11.4237 168.958 11.5983 168.96 11.802C168.973 11.902 169.025 11.997 169.114 12.0867C169.2 12.1515 169.263 12.2322 169.302 12.3289C169.265 12.4358 169.217 12.557 169.158 12.6924C169.099 12.8278 169.053 12.9615 169.019 13.0935C168.96 13.2289 168.928 13.3734 168.923 13.527C168.89 13.6589 168.871 13.8017 168.866 13.9553C168.832 14.0872 168.811 14.2175 168.803 14.346C168.769 14.478 168.748 14.6083 168.74 14.7368L168.265 15.2218C168.196 15.2822 168.13 15.3675 168.068 15.4779C167.977 15.5667 167.884 15.643 167.79 15.7068C167.497 15.8231 167.241 15.9342 167.024 16.0402C166.828 16.1177 166.655 16.1668 166.503 16.1874C166.351 16.208 166.187 16.2303 166.01 16.2544C166.01 16.2544 166.022 16.2527 166.048 16.2492C166.048 16.2492 166.049 16.2617 166.053 16.2868L165.977 16.2971C166.002 16.2936 166.013 16.2794 166.01 16.2544C165.952 16.2112 165.886 16.1948 165.81 16.2051C165.731 16.1904 165.666 16.1864 165.615 16.1933C165.463 16.2139 165.313 16.247 165.165 16.2927C164.988 16.3167 164.809 16.3283 164.629 16.3273C164.571 16.2841 164.508 16.2927 164.439 16.353C164.341 16.3918 164.256 16.4289 164.184 16.4642C164.083 16.4779 164.003 16.4632 163.946 16.42C163.932 16.3199 163.933 16.2307 163.948 16.1522C163.938 16.0771 163.892 16.0197 163.809 15.98C163.456 15.8495 163.121 15.7548 162.804 15.6959C162.664 15.613 162.551 15.5392 162.465 15.4744C162.354 15.4131 162.253 15.3375 162.164 15.2478C162.056 15.2115 161.972 15.1592 161.911 15.091C161.825 15.0263 161.729 14.9882 161.625 14.977C161.387 14.9328 161.184 14.8585 161.015 14.754C160.818 14.6279 160.633 14.5001 160.461 14.3706C160.429 14.324 160.411 14.2882 160.407 14.2632C160.375 14.2165 160.343 14.1699 160.311 14.1233C159.955 13.5856 159.813 13.0187 159.887 12.4226Z" fill="#FF355A"/>
</svg>
