<svg width="406" height="182" viewBox="0 0 406 182" fill="none" xmlns="http://www.w3.org/2000/svg">
<path d="M136.232 105.44C135.72 107.061 135.507 108.597 135.592 110.048C135.677 110.475 135.677 110.944 135.592 111.456C135.507 111.883 135.421 112.309 135.336 112.736C135.251 113.077 135.208 113.504 135.208 114.016C135.293 114.528 135.251 114.955 135.08 115.296C134.909 115.893 134.909 116.491 135.08 117.088C135.251 117.6 135.379 118.112 135.464 118.624C135.293 119.221 135.123 119.904 134.952 120.672C134.781 121.355 134.739 122.123 134.824 122.976C134.824 124 134.696 125.024 134.44 126.048C134.355 126.645 134.355 127.243 134.44 127.84C134.781 128.949 134.909 130.016 134.824 131.04C134.739 132.064 134.525 133.088 134.184 134.112C133.843 134.709 133.672 135.307 133.672 135.904C133.757 136.843 133.629 137.739 133.288 138.592C132.947 139.445 132.563 140.299 132.136 141.152C132.051 141.408 131.88 141.621 131.624 141.792C131.368 141.963 131.155 142.176 130.984 142.432C130.387 144.395 129.917 145.803 129.576 146.656C129.235 147.424 128.595 148.661 127.656 150.368C127.571 150.539 127.4 150.752 127.144 151.008C126.888 151.264 126.675 151.477 126.504 151.648C126.419 151.819 126.291 151.947 126.12 152.032C126.035 152.117 125.992 152.203 125.992 152.288C125.651 153.397 125.139 154.336 124.456 155.104C123.773 155.872 123.091 156.597 122.408 157.28C122.067 157.621 121.768 158.005 121.512 158.432C121.341 158.773 121.085 159.157 120.744 159.584C119.891 160.181 119.08 160.779 118.312 161.376C117.544 161.973 116.733 162.571 115.88 163.168C115.368 163.509 114.856 163.808 114.344 164.064C113.747 164.235 113.149 164.491 112.552 164.832C111.955 165.088 111.357 165.301 110.76 165.472C110.163 165.813 109.565 166.112 108.968 166.368C108.371 166.539 107.773 166.795 107.176 167.136H104.232C103.805 167.307 103.336 167.52 102.824 167.776C102.397 167.947 101.928 167.989 101.416 167.904C100.904 167.819 100.392 167.947 99.88 168.288C99.4533 168.544 98.984 168.715 98.472 168.8C98.216 168.715 97.9173 168.629 97.576 168.544C97.2347 168.459 96.8933 168.416 96.552 168.416C96.2107 168.672 95.8693 168.928 95.528 169.184C95.272 169.355 94.9733 169.568 94.632 169.824C94.5467 169.824 94.4187 169.867 94.248 169.952C94.1627 169.952 94.0347 169.952 93.864 169.952C93.5227 169.952 93.1387 169.995 92.712 170.08C92.3707 170.08 92.0293 170.037 91.688 169.952C91.0907 169.611 90.536 169.483 90.024 169.568C89.512 169.653 88.9573 169.568 88.36 169.312C87.6773 169.141 87.336 168.757 87.336 168.16C87.336 167.392 86.9093 166.923 86.056 166.752C85.8 166.752 85.544 166.795 85.288 166.88C85.1173 166.88 84.904 166.88 84.648 166.88C84.3067 166.795 84.008 166.624 83.752 166.368C83.496 166.112 83.1973 165.899 82.856 165.728C82.4293 165.387 81.96 165.088 81.448 164.832C80.936 164.491 80.3813 164.277 79.784 164.192C79.272 164.107 78.76 163.979 78.248 163.808C77.8213 163.552 77.3947 163.381 76.968 163.296C76.0293 162.955 75.3467 162.187 74.92 160.992C74.664 159.883 74.1947 158.987 73.512 158.304C73.256 157.963 73.0427 157.664 72.872 157.408C72.7013 157.067 72.5307 156.725 72.36 156.384C72.1893 156.213 72.0187 155.957 71.848 155.616C71.6773 155.275 71.5067 155.061 71.336 154.976C70.4827 154.464 69.8 153.824 69.288 153.056C68.8613 152.288 68.4773 151.477 68.136 150.624C68.0507 150.539 67.9653 150.411 67.88 150.24C67.88 150.069 67.8373 149.941 67.752 149.856C67.1547 149.515 66.856 149.003 66.856 148.32C66.856 147.637 66.7707 146.997 66.6 146.4C66.4293 146.229 66.216 146.016 65.96 145.76C65.704 145.504 65.448 145.205 65.192 144.864C65.0213 144.181 64.808 143.499 64.552 142.816C64.296 142.133 64.0827 141.408 63.912 140.64C63.912 139.275 63.8693 138.293 63.784 137.696C63.784 137.013 63.7413 136.373 63.656 135.776C63.5707 135.093 63.3573 134.155 63.016 132.96C63.016 132.277 63.144 131.595 63.4 130.912C63.7413 130.229 63.8267 129.419 63.656 128.48C63.4 128.053 63.144 127.541 62.888 126.944C62.7173 126.347 62.4613 125.749 62.12 125.152C62.12 124.981 62.0773 124.768 61.992 124.512C61.992 124.256 61.992 124.043 61.992 123.872C62.0773 123.189 62.12 122.549 62.12 121.952C62.12 121.355 62.12 120.757 62.12 120.16C62.12 119.477 62.2053 118.795 62.376 118.112C62.5467 117.344 62.6747 116.661 62.76 116.064C62.9307 115.125 63.0587 114.229 63.144 113.376C63.3147 112.437 63.4853 111.499 63.656 110.56C63.8267 109.195 64.1253 107.829 64.552 106.464C64.9787 105.099 65.448 103.733 65.96 102.368C66.8987 101.771 67.752 101.216 68.52 100.704C69.3733 100.192 70.2267 99.6373 71.08 99.04H76.584L77.992 99.552C78.4187 99.6373 78.8453 99.6373 79.272 99.552C79.6987 99.3813 80.1253 99.2533 80.552 99.168C80.9787 99.424 81.448 99.7227 81.96 100.064C82.5573 100.32 83.1547 100.661 83.752 101.088C83.752 101.259 83.7947 101.472 83.88 101.728C84.0507 101.984 84.136 102.197 84.136 102.368C84.136 102.965 84.0933 103.605 84.008 104.288C84.008 104.971 83.88 105.653 83.624 106.336C83.4533 107.104 83.4533 107.915 83.624 108.768C83.7093 109.024 83.752 109.451 83.752 110.048C83.6667 110.731 83.5387 111.456 83.368 112.224C83.1973 112.992 82.984 113.717 82.728 114.4C82.6427 114.741 82.6 115.083 82.6 115.424C82.6 115.68 82.6427 115.936 82.728 116.192C82.984 116.875 82.984 117.515 82.728 118.112C82.5573 118.709 82.5573 119.307 82.728 119.904C83.24 120.928 83.4107 122.123 83.24 123.488C83.24 124.171 83.368 124.725 83.624 125.152C84.0507 125.92 84.264 126.688 84.264 127.456C84.3493 128.139 84.3493 128.864 84.264 129.632C84.0933 130.315 84.0507 130.997 84.136 131.68C84.3067 132.363 84.52 133.003 84.776 133.6C85.1173 134.112 85.3733 134.624 85.544 135.136C85.7147 135.563 85.9707 136.075 86.312 136.672C86.7387 137.099 87.208 137.568 87.72 138.08C88.232 138.592 88.6587 139.189 89 139.872C89.0853 140.299 89.4267 140.811 90.024 141.408C90.024 141.408 90.152 141.493 90.408 141.664C90.8347 141.749 91.2613 141.792 91.688 141.792C92.2 141.792 92.6693 141.792 93.096 141.792C93.5227 142.133 93.9067 142.432 94.248 142.688C94.5893 142.944 94.9307 143.2 95.272 143.456C95.784 143.2 96.2533 142.944 96.68 142.688C97.1067 142.432 97.5333 142.133 97.96 141.792L99.752 141.408C99.8373 141.408 99.9227 141.408 100.008 141.408C100.179 141.323 100.307 141.323 100.392 141.408C102.781 142.176 104.616 141.365 105.896 138.976C106.067 138.464 106.323 137.952 106.664 137.44C107.005 136.928 107.261 136.373 107.432 135.776C107.603 135.349 107.816 134.965 108.072 134.624C108.328 134.283 108.584 133.941 108.84 133.6V131.808C109.096 131.637 109.352 131.424 109.608 131.168C109.949 130.827 110.291 130.571 110.632 130.4C110.803 129.973 110.931 129.547 111.016 129.12C111.187 128.693 111.4 128.267 111.656 127.84C111.827 127.499 111.955 127.2 112.04 126.944C112.211 126.603 112.424 126.261 112.68 125.92C112.595 125.493 112.509 125.152 112.424 124.896C112.339 124.64 112.253 124.341 112.168 124C112.765 122.635 113.107 121.312 113.192 120.032C113.277 119.605 113.277 119.179 113.192 118.752C113.192 118.24 113.149 117.728 113.064 117.216C113.235 116.789 113.363 116.405 113.448 116.064C113.619 115.637 113.747 115.253 113.832 114.912C113.832 114.229 113.747 113.589 113.576 112.992C113.491 112.309 113.533 111.669 113.704 111.072C113.875 110.475 113.917 110.048 113.832 109.792C113.491 108.427 113.405 107.104 113.576 105.824C113.747 104.544 114.003 103.349 114.344 102.24C114.259 101.813 114.173 101.387 114.088 100.96C114.088 100.533 114.088 100.107 114.088 99.68C114.259 99.5093 114.429 99.3813 114.6 99.296C114.771 99.2107 114.899 99.04 114.984 98.784C115.411 98.9547 115.752 99.1253 116.008 99.296C116.349 99.3813 116.691 99.4667 117.032 99.552C118.227 99.9787 119.421 100.32 120.616 100.576C121.811 100.832 123.048 100.789 124.328 100.448C125.779 100.533 127.229 100.619 128.68 100.704C130.216 100.704 131.709 100.917 133.16 101.344C134.355 101.685 135.08 102.325 135.336 103.264L136.232 105.44Z" fill="#FFA500"/>
<path d="M209.792 139.296C209.963 139.552 210.005 139.851 209.92 140.192C209.835 140.448 209.707 140.704 209.536 140.96C209.28 141.131 209.024 141.387 208.768 141.728C208.512 141.984 208.213 142.197 207.872 142.368C207.36 142.709 206.848 143.093 206.336 143.52C205.824 143.947 205.312 144.373 204.8 144.8C203.691 145.653 202.709 146.507 201.856 147.36C201.088 148.128 200.149 149.195 199.04 150.56C198.869 150.731 198.656 150.901 198.4 151.072C198.229 151.328 198.016 151.541 197.76 151.712C197.675 151.797 197.504 151.883 197.248 151.968C197.077 152.053 196.907 152.139 196.736 152.224C196.651 152.139 196.523 152.053 196.352 151.968C196.181 151.968 196.011 151.925 195.84 151.84C195.157 151.157 194.432 150.475 193.664 149.792C192.981 149.109 192.256 148.469 191.488 147.872C190.379 147.104 189.397 146.251 188.544 145.312C187.691 144.288 186.795 143.307 185.856 142.368C185.6 142.112 185.387 141.813 185.216 141.472C185.131 141.045 185.003 140.661 184.832 140.32C184.491 140.149 184.107 139.979 183.68 139.808C183.339 139.552 182.997 139.296 182.656 139.04C182.315 138.699 181.973 138.315 181.632 137.888C181.376 137.461 181.12 137.035 180.864 136.608C180.437 135.925 180.011 135.285 179.584 134.688C179.157 134.091 178.645 133.493 178.048 132.896C177.707 132.469 177.451 132 177.28 131.488C177.109 130.976 176.768 130.549 176.256 130.208C175.744 130.037 175.189 129.909 174.592 129.824C173.995 129.653 173.44 129.525 172.928 129.44C172.16 129.611 171.563 130.165 171.136 131.104C170.027 133.493 168.192 135.456 165.632 136.992C164.949 137.419 164.352 137.973 163.84 138.656C163.328 139.339 162.731 140.021 162.048 140.704C161.024 142.325 159.787 143.733 158.336 144.928C156.971 146.123 155.435 147.232 153.728 148.256C153.472 148.512 153.173 148.768 152.832 149.024C152.491 149.28 152.107 149.579 151.68 149.92L147.712 151.2C146.347 150.603 145.195 149.749 144.256 148.64C143.403 147.531 142.379 146.677 141.184 146.08C140.501 145.056 139.947 144.032 139.52 143.008C139.093 141.984 138.752 140.96 138.496 139.936C138.923 138.997 139.307 138.144 139.648 137.376C140.075 136.608 140.544 135.968 141.056 135.456C142.08 134.688 142.72 133.749 142.976 132.64C143.403 132.128 143.744 131.573 144 130.976C144.341 130.805 144.597 130.72 144.768 130.72C145.024 130.72 145.28 130.677 145.536 130.592C146.133 130.421 146.432 130.123 146.432 129.696C146.432 129.184 146.603 128.843 146.944 128.672C147.285 128.416 147.627 128.245 147.968 128.16C148.224 128.075 148.437 128.075 148.608 128.16C148.864 128.16 149.12 128.117 149.376 128.032C149.461 127.861 149.547 127.733 149.632 127.648C149.717 127.477 149.76 127.349 149.76 127.264C149.76 126.752 149.803 126.283 149.888 125.856C149.973 125.344 150.229 124.917 150.656 124.576C150.656 123.637 150.912 122.955 151.424 122.528C152.021 122.101 152.661 121.632 153.344 121.12C153.6 120.437 153.856 119.755 154.112 119.072C154.368 118.389 154.581 117.835 154.752 117.408C155.093 116.555 155.563 115.957 156.16 115.616C156.757 115.275 157.099 114.763 157.184 114.08C157.099 113.995 157.056 113.867 157.056 113.696C156.629 113.269 156.16 112.843 155.648 112.416C155.221 111.904 154.795 111.392 154.368 110.88C153.941 110.368 153.557 109.856 153.216 109.344C152.875 108.747 152.448 108.235 151.936 107.808C151.595 107.467 151.339 106.997 151.168 106.4C150.997 105.803 150.741 105.419 150.4 105.248C150.144 104.992 149.803 104.779 149.376 104.608C149.291 104.181 149.163 103.797 148.992 103.456C148.907 103.115 148.821 102.731 148.736 102.304C148.651 102.219 148.523 102.133 148.352 102.048C148.181 101.877 148.011 101.749 147.84 101.664C146.987 101.237 146.219 100.683 145.536 100C144.853 99.232 144.171 98.5493 143.488 97.952C143.147 97.696 142.891 97.3973 142.72 97.056C142.208 95.8613 141.525 94.8373 140.672 93.984C139.819 93.0453 138.923 92.064 137.984 91.04C137.557 90.272 137.131 89.4613 136.704 88.608C136.277 87.6693 135.893 86.7307 135.552 85.792C135.211 85.1093 134.827 84.4267 134.4 83.744C134.059 82.976 133.76 82.208 133.504 81.44C133.333 81.2693 133.248 80.8853 133.248 80.288C133.931 79.3493 134.741 78.624 135.68 78.112C136.619 77.5147 137.344 76.7467 137.856 75.808C138.368 75.7227 138.837 75.7227 139.264 75.808C139.776 75.8933 140.203 75.7653 140.544 75.424C140.8 75.168 141.184 75.04 141.696 75.04C142.805 74.784 143.915 74.4853 145.024 74.144C146.133 73.7173 147.243 73.4187 148.352 73.248C148.523 73.1627 148.736 73.0773 148.992 72.992C149.248 72.9067 149.461 72.864 149.632 72.864C150.827 72.6933 151.765 72.9493 152.448 73.632C152.619 73.8027 152.789 73.9733 152.96 74.144C153.216 74.2293 153.387 74.3573 153.472 74.528C154.069 75.3813 154.709 76.1493 155.392 76.832C156.16 77.4293 156.928 77.984 157.696 78.496C158.293 79.776 158.677 80.6293 158.848 81.056C159.019 81.4827 159.232 81.824 159.488 82.08C159.744 82.2507 160.256 82.592 161.024 83.104C161.109 83.1893 161.195 83.3173 161.28 83.488C161.365 83.5733 161.408 83.7013 161.408 83.872C161.664 85.152 162.389 85.92 163.584 86.176C164.096 86.3467 164.395 86.432 164.48 86.432C164.907 86.7733 165.12 87.2427 165.12 87.84C165.205 88.352 165.547 88.8213 166.144 89.248C166.656 89.248 167.083 89.4187 167.424 89.76C167.68 89.8453 167.893 89.9307 168.064 90.016C168.32 90.016 168.491 90.016 168.576 90.016C169.344 90.6133 169.813 91.3813 169.984 92.32C170.24 93.1733 170.709 93.856 171.392 94.368H172.032C172.715 94.112 173.397 93.856 174.08 93.6C174.763 93.344 175.445 93.088 176.128 92.832C176.469 92.4053 176.768 91.9787 177.024 91.552C177.28 91.1253 177.579 90.6987 177.92 90.272C178.347 89.5893 178.816 88.9067 179.328 88.224C179.84 87.456 180.352 86.7733 180.864 86.176C181.376 85.4933 181.76 84.768 182.016 84C182.272 83.232 182.613 82.5493 183.04 81.952C183.467 81.2693 183.893 80.672 184.32 80.16C184.832 79.5627 185.387 78.9227 185.984 78.24C186.581 76.448 187.435 74.7413 188.544 73.12C189.739 71.4987 191.104 70.0053 192.64 68.64C193.579 68.9813 194.432 69.28 195.2 69.536C195.968 69.792 196.736 70.176 197.504 70.688C198.443 71.5413 199.723 72.1813 201.344 72.608C201.771 72.6933 202.155 72.8213 202.496 72.992C202.837 73.1627 203.179 73.2907 203.52 73.376C204.117 73.888 204.501 74.4 204.672 74.912C204.928 75.424 205.141 75.9787 205.312 76.576C205.483 76.6613 205.653 76.7467 205.824 76.832C206.08 76.9173 206.293 77.0027 206.464 77.088C206.635 77.4293 206.805 77.8133 206.976 78.24C207.232 78.5813 207.445 78.9653 207.616 79.392C207.872 79.7333 208.171 80.0747 208.512 80.416C208.939 80.672 209.195 81.056 209.28 81.568C209.195 81.9947 209.024 82.464 208.768 82.976C208.597 83.4027 208.427 83.8293 208.256 84.256V86.944C207.915 87.5413 207.488 87.968 206.976 88.224C206.549 88.3947 206.123 88.608 205.696 88.864C205.611 89.0347 205.483 89.2053 205.312 89.376C205.227 89.4613 205.099 89.5893 204.928 89.76C204.416 90.6987 203.861 91.5947 203.264 92.448C202.752 93.3013 202.112 94.1547 201.344 95.008C200.832 95.6053 200.363 96.2453 199.936 96.928C199.509 97.6107 199.04 98.2933 198.528 98.976V100.512C198.187 100.853 197.803 101.237 197.376 101.664C197.035 102.005 196.736 102.432 196.48 102.944C196.139 103.456 195.755 103.883 195.328 104.224C194.901 104.565 194.603 105.035 194.432 105.632C194.176 106.229 193.792 106.699 193.28 107.04C192.768 107.296 192.341 107.851 192 108.704C191.915 109.045 191.829 109.472 191.744 109.984C191.744 110.496 191.659 111.051 191.488 111.648C193.536 114.293 195.328 117.109 196.864 120.096V121.632C197.291 122.059 197.675 122.443 198.016 122.784C198.443 123.125 198.784 123.467 199.04 123.808C200.661 125.856 202.368 127.648 204.16 129.184C204.501 129.525 204.8 129.909 205.056 130.336C205.397 130.677 205.568 131.104 205.568 131.616C205.653 131.957 205.824 132.299 206.08 132.64C206.336 132.981 206.507 133.28 206.592 133.536C207.275 134.389 207.829 135.328 208.256 136.352C208.683 137.376 209.195 138.357 209.792 139.296Z" fill="#00C4D8"/>
<path d="M250.384 106.368C250.64 106.965 250.768 107.605 250.768 108.288C250.853 108.971 250.683 109.653 250.256 110.336C250.085 110.677 250 111.019 250 111.36C250.085 111.616 250.128 111.957 250.128 112.384C249.957 112.64 249.744 112.896 249.488 113.152C249.232 113.323 249.019 113.579 248.848 113.92C248.677 114.091 248.507 114.304 248.336 114.56C248.251 114.816 248.037 115.029 247.696 115.2C247.269 115.115 246.757 115.072 246.16 115.072C245.563 115.072 245.008 115.072 244.496 115.072C243.216 115.072 242.064 115.413 241.04 116.096C240.699 116.437 240.357 116.693 240.016 116.864C239.675 116.949 239.333 117.077 238.992 117.248C238.48 117.76 238.309 118.272 238.48 118.784V121.216C238.565 121.984 238.651 122.752 238.736 123.52C238.907 124.203 238.949 124.971 238.864 125.824C238.779 125.995 238.779 126.251 238.864 126.592C238.949 126.848 239.035 127.061 239.12 127.232C239.035 127.573 238.907 127.872 238.736 128.128C238.651 128.299 238.565 128.555 238.48 128.896C238.565 129.237 238.651 129.579 238.736 129.92C238.821 130.176 238.907 130.475 238.992 130.816C238.992 131.243 238.949 131.541 238.864 131.712C238.693 132.224 238.523 132.736 238.352 133.248C238.267 133.76 238.139 134.272 237.968 134.784C237.712 135.381 237.669 135.936 237.84 136.448C238.011 136.96 237.968 137.472 237.712 137.984C237.712 139.776 237.627 141.525 237.456 143.232C237.285 144.939 237.157 146.645 237.072 148.352C237.072 150.571 237.456 152.832 238.224 155.136C238.565 155.904 239.12 156.288 239.888 156.288C240.059 156.203 240.229 156.075 240.4 155.904C240.656 155.733 240.912 155.605 241.168 155.52C241.424 155.52 241.637 155.605 241.808 155.776C242.491 156.544 243.259 157.056 244.112 157.312C245.477 157.653 245.861 158.336 245.264 159.36C245.008 159.957 244.88 160.597 244.88 161.28C244.965 161.963 244.965 162.645 244.88 163.328C244.709 165.205 244.624 167.125 244.624 169.088C244.624 170.965 244.752 172.885 245.008 174.848C245.008 175.787 244.923 176.384 244.752 176.64C244.667 176.981 244.155 177.493 243.216 178.176H242.832C242.149 178.091 241.467 178.005 240.784 177.92C240.187 177.835 239.589 177.749 238.992 177.664C237.371 177.92 235.92 178.048 234.64 178.048C234.043 178.133 233.445 178.261 232.848 178.432C232.336 178.688 231.739 178.773 231.056 178.688C230.373 178.517 229.691 178.517 229.008 178.688C228.325 178.859 227.643 178.944 226.96 178.944C226.619 178.773 226.277 178.645 225.936 178.56C225.68 178.475 225.339 178.347 224.912 178.176C222.864 178.517 220.816 178.731 218.768 178.816C216.72 178.901 214.629 178.987 212.496 179.072C212.069 178.475 211.643 177.92 211.216 177.408C210.789 176.981 210.405 176.512 210.064 176C209.893 175.403 209.552 174.891 209.04 174.464C208.613 174.037 208.187 173.653 207.76 173.312C207.675 172.459 207.504 171.648 207.248 170.88C207.077 170.197 207.077 169.515 207.248 168.832C207.504 168.405 207.589 167.979 207.504 167.552C207.333 166.784 207.291 166.016 207.376 165.248C207.547 164.395 207.717 163.584 207.888 162.816V161.28C208.571 161.109 209.253 160.981 209.936 160.896C210.619 160.725 211.301 160.725 211.984 160.896C212.325 160.725 212.624 160.555 212.88 160.384C213.136 160.128 213.435 159.872 213.776 159.616C214.203 159.787 214.629 159.957 215.056 160.128C215.483 160.299 215.952 160.469 216.464 160.64C217.317 160.128 218.299 159.445 219.408 158.592C219.579 158.08 219.664 157.696 219.664 157.44C219.664 156.501 219.664 155.563 219.664 154.624C219.664 153.6 219.707 152.619 219.792 151.68V151.296C219.451 150.443 219.323 149.632 219.408 148.864C219.493 148.096 219.493 147.285 219.408 146.432V144.768C219.579 142.805 219.621 140.885 219.536 139.008C219.536 137.045 219.493 135.083 219.408 133.12L220.304 131.456C220.219 131.029 220.133 130.603 220.048 130.176C219.963 129.749 219.877 129.323 219.792 128.896C219.877 128.469 219.963 128.085 220.048 127.744C220.219 127.403 220.347 127.019 220.432 126.592C220.432 126.251 220.389 125.995 220.304 125.824C219.877 124.8 219.707 123.861 219.792 123.008V121.088C219.792 120.747 219.707 120.491 219.536 120.32C219.365 120.064 219.28 119.765 219.28 119.424C219.365 119.253 219.408 118.869 219.408 118.272C219.323 117.76 219.237 117.248 219.152 116.736C219.067 116.224 218.939 115.712 218.768 115.2C218.341 114.773 217.872 114.645 217.36 114.816C216.848 114.901 216.379 114.901 215.952 114.816C215.525 114.645 215.056 114.56 214.544 114.56C214.032 114.56 213.477 114.56 212.88 114.56C212.283 114.219 211.6 114.091 210.832 114.176C210.149 114.176 209.467 114.048 208.784 113.792C208.443 113.365 208.272 112.853 208.272 112.256C208.357 111.659 208.272 111.232 208.016 110.976C207.845 110.635 207.845 110.208 208.016 109.696C208.187 109.099 208.187 108.587 208.016 108.16C208.357 107.733 208.4 107.435 208.144 107.264C207.888 107.093 207.888 106.752 208.144 106.24C208.4 105.813 208.528 105.344 208.528 104.832C208.528 104.235 208.699 103.765 209.04 103.424C209.211 103.253 209.253 102.997 209.168 102.656C209.168 102.229 209.211 101.845 209.296 101.504C209.467 101.333 209.851 101.248 210.448 101.248C211.045 101.163 211.387 101.035 211.472 100.864C211.813 100.437 212.197 100.139 212.624 99.968C213.136 99.7973 213.648 99.584 214.16 99.328C214.331 99.328 214.544 99.328 214.8 99.328C215.056 99.2427 215.355 99.2 215.696 99.2C216.379 99.2 217.104 99.2 217.872 99.2C218.64 99.2 219.365 99.1573 220.048 99.072C220.731 98.9013 221.413 98.7733 222.096 98.688C222.779 98.5173 223.504 98.3893 224.272 98.304C225.04 98.1333 225.808 98.176 226.576 98.432C227.685 98.7733 229.051 98.7307 230.672 98.304C231.013 98.2187 231.312 98.1333 231.568 98.048C231.824 97.9627 232.037 97.8773 232.208 97.792C232.805 97.8773 233.317 97.9627 233.744 98.048C234.256 98.1333 234.683 98.176 235.024 98.176C235.28 98.176 235.536 98.1333 235.792 98.048C236.133 97.9627 236.389 97.92 236.56 97.92C237.413 97.92 238.181 97.9627 238.864 98.048C239.632 98.048 240.4 98.1333 241.168 98.304C242.789 98.56 244.24 98.6453 245.52 98.56C245.947 98.4747 246.288 98.4747 246.544 98.56C246.885 98.56 247.099 98.56 247.184 98.56C247.781 98.6453 248.208 98.8587 248.464 99.2C248.805 99.456 249.061 99.6693 249.232 99.84C250.597 101.205 250.896 102.613 250.128 104.064C250.043 104.149 250 104.448 250 104.96C250.085 105.131 250.128 105.344 250.128 105.6C250.213 105.771 250.299 106.027 250.384 106.368Z" fill="#FF355A"/>
<path d="M329.552 101.36C329.467 101.872 329.339 102.384 329.168 102.896C328.997 103.408 328.827 103.92 328.656 104.432C328.571 104.773 328.528 105.285 328.528 105.968C328.272 106.224 328.016 106.523 327.76 106.864C327.589 107.12 327.333 107.461 326.992 107.888C326.992 108.229 326.907 108.741 326.736 109.424C326.395 109.68 326.053 109.936 325.712 110.192C325.371 110.448 324.987 110.704 324.56 110.96C324.475 111.301 324.347 111.643 324.176 111.984C324.005 112.24 323.835 112.581 323.664 113.008C322.725 113.861 321.872 114.8 321.104 115.824C320.421 116.848 319.611 117.829 318.672 118.768C318.16 118.939 317.648 118.768 317.136 118.256C316.624 117.744 316.069 117.275 315.472 116.848C314.96 116.336 314.363 115.909 313.68 115.568C313.424 115.397 313.253 115.269 313.168 115.184C313.083 115.099 312.955 114.971 312.784 114.8C312.443 114.8 312.059 114.715 311.632 114.544C311.291 114.373 310.949 114.245 310.608 114.16C310.181 114.075 309.797 113.904 309.456 113.648C309.115 113.392 308.773 113.136 308.432 112.88L307.024 111.344C306.171 111.515 305.36 111.429 304.592 111.088C303.909 110.747 303.141 110.405 302.288 110.064C301.691 110.149 301.093 110.192 300.496 110.192C299.899 110.192 299.259 110.235 298.576 110.32C297.979 110.661 297.381 111.045 296.784 111.472C296.187 111.899 295.589 112.325 294.992 112.752C294.224 113.349 293.456 113.904 292.688 114.416C292.005 114.843 291.195 115.141 290.256 115.312C290.171 115.312 290.043 115.397 289.872 115.568C289.701 115.653 289.531 115.739 289.36 115.824C289.019 116.165 288.635 116.592 288.208 117.104C287.867 117.616 287.525 118.085 287.184 118.512C286.757 119.792 286.416 120.944 286.16 121.968C286.245 122.309 286.288 122.608 286.288 122.864C286.373 123.12 286.459 123.376 286.544 123.632C286.544 124.144 286.288 124.613 285.776 125.04C285.52 125.381 285.221 125.68 284.88 125.936C284.624 126.107 284.411 126.448 284.24 126.96L285.136 128.368C285.221 128.709 285.093 129.051 284.752 129.392C284.496 129.733 284.283 130.117 284.112 130.544C284.112 130.629 284.069 130.672 283.984 130.672C283.899 130.672 283.856 130.715 283.856 130.8C284.027 131.397 284.155 132.08 284.24 132.848C284.411 133.531 284.539 134.213 284.624 134.896C285.477 135.579 286.203 136.304 286.8 137.072C287.483 137.84 288.123 138.651 288.72 139.504C289.147 140.016 289.573 140.485 290 140.912C290.512 141.339 290.981 141.765 291.408 142.192C292.261 142.619 293.115 143.045 293.968 143.472C294.907 143.813 295.803 144.069 296.656 144.24C297.339 144.325 297.936 144.539 298.448 144.88C299.045 145.136 299.728 145.392 300.496 145.648C301.264 145.648 302.117 145.691 303.056 145.776C303.995 145.776 304.933 145.776 305.872 145.776C306.469 145.776 306.853 145.733 307.024 145.648C307.963 145.392 308.859 145.264 309.712 145.264C310.565 145.179 311.419 145.008 312.272 144.752C313.211 144.581 314.107 144.453 314.96 144.368C315.899 144.283 316.795 144.197 317.648 144.112C317.819 144.112 318.032 144.027 318.288 143.856C318.629 143.685 318.928 143.685 319.184 143.856C319.525 144.197 319.781 144.539 319.952 144.88C320.123 145.221 320.336 145.605 320.592 146.032C320.507 146.288 320.464 146.629 320.464 147.056C320.464 147.397 320.464 147.781 320.464 148.208C322.341 151.365 323.749 154.992 324.688 159.088C323.408 160.027 322.128 161.008 320.848 162.032C319.653 162.971 318.373 163.995 317.008 165.104C316.411 165.36 315.728 165.531 314.96 165.616C314.277 165.616 313.723 165.957 313.296 166.64C312.955 166.469 312.613 166.341 312.272 166.256C312.016 166.171 311.803 166.085 311.632 166C311.291 166.085 311.077 166.256 310.992 166.512C310.907 166.768 310.779 166.981 310.608 167.152C310.096 166.896 309.627 166.64 309.2 166.384C309.115 166.469 308.901 166.555 308.56 166.64C308.304 166.725 308.091 166.811 307.92 166.896C307.067 167.067 306.256 167.237 305.488 167.408C304.72 167.664 303.909 167.792 303.056 167.792C302.459 167.792 301.776 167.792 301.008 167.792C300.24 167.877 299.515 167.963 298.832 168.048C298.661 168.048 298.448 168.005 298.192 167.92C297.936 167.92 297.637 167.877 297.296 167.792C296.187 167.451 295.461 167.195 295.12 167.024C294.779 166.853 294.053 166.427 292.944 165.744C292.261 165.659 291.749 165.872 291.408 166.384C291.152 166.981 290.811 167.28 290.384 167.28H288.848C288.165 167.024 287.483 166.768 286.8 166.512C286.117 166.256 285.392 166.085 284.624 166C284.027 165.915 283.472 165.787 282.96 165.616C282.533 165.36 282.021 165.147 281.424 164.976C280.827 164.464 280.187 163.952 279.504 163.44C278.907 162.843 278.267 162.373 277.584 162.032C276.987 161.776 276.389 161.435 275.792 161.008C275.28 160.496 274.811 159.984 274.384 159.472C274.043 158.96 273.659 158.576 273.232 158.32C272.805 157.979 272.421 157.595 272.08 157.168C271.483 156.229 270.757 155.376 269.904 154.608C269.477 154.181 269.093 153.755 268.752 153.328C268.496 152.816 268.155 152.347 267.728 151.92C267.472 150.725 267.216 149.531 266.96 148.336C266.789 147.141 266.619 145.904 266.448 144.624C266.277 144.453 266.064 144.197 265.808 143.856C265.637 143.429 265.381 143.045 265.04 142.704C264.955 142.021 264.827 141.296 264.656 140.528C264.485 139.675 264.187 138.907 263.76 138.224C263.845 137.883 263.973 137.456 264.144 136.944C264.144 136.517 264.144 136.304 264.144 136.304C263.461 134.427 263.248 132.635 263.504 130.928C263.675 129.733 263.803 128.496 263.888 127.216C264.059 125.851 264.187 124.528 264.272 123.248C264.528 123.077 264.741 122.907 264.912 122.736C265.168 122.565 265.424 122.395 265.68 122.224C264.656 120.603 264.656 118.811 265.68 116.848C265.253 115.995 265.04 115.312 265.04 114.8C265.04 114.288 265.04 114.032 265.04 114.032C265.381 113.691 265.68 113.349 265.936 113.008C266.192 112.667 266.491 112.325 266.832 111.984C267.515 111.387 268.112 110.661 268.624 109.808C268.88 109.381 269.093 108.912 269.264 108.4C269.52 107.888 269.605 107.419 269.52 106.992C270.203 106.565 270.885 106.267 271.568 106.096C272.336 105.84 272.933 105.456 273.36 104.944C273.445 104.859 273.531 104.688 273.616 104.432C273.616 104.176 273.573 103.877 273.488 103.536C273.488 103.195 273.488 102.811 273.488 102.384C273.744 102.043 273.957 101.573 274.128 100.976C274.725 100.635 275.237 100.379 275.664 100.208C276.091 100.037 276.517 99.824 276.944 99.568C277.115 99.3973 277.243 99.2267 277.328 99.056C277.499 98.8853 277.627 98.7147 277.712 98.544C278.565 97.1787 279.632 96.1973 280.912 95.6C281.424 95.4293 281.936 95.216 282.448 94.96C282.96 94.704 283.429 94.4907 283.856 94.32C284.112 94.1493 284.325 93.9787 284.496 93.808C284.752 93.552 285.008 93.3387 285.264 93.168C285.861 92.9973 286.501 92.784 287.184 92.528C287.781 92.272 288.379 92.016 288.976 91.76C289.659 91.504 290.341 91.3333 291.024 91.248C291.621 91.0773 292.176 90.864 292.688 90.608C293.285 90.352 293.84 90.1813 294.352 90.096C294.779 89.9253 295.12 89.968 295.376 90.224C295.717 90.3947 296.059 90.5653 296.4 90.736H299.088C299.515 90.5653 299.813 90.352 299.984 90.096C300.155 89.7547 300.411 89.5413 300.752 89.456C301.947 89.2 302.843 89.0293 303.44 88.944C304.037 88.8587 304.805 88.8587 305.744 88.944C306.683 88.944 308.091 89.0293 309.968 89.2C310.395 89.2853 310.736 89.456 310.992 89.712C311.333 89.968 311.717 90.1387 312.144 90.224C312.741 90.224 313.296 90.3093 313.808 90.48C314.405 90.5653 315.003 90.6933 315.6 90.864C316.368 91.4613 317.179 92.016 318.032 92.528C318.885 92.9547 319.867 93.2107 320.976 93.296C321.488 94.1493 322.128 94.832 322.896 95.344C323.749 95.856 324.603 96.3253 325.456 96.752C326.224 97.1787 326.949 97.6907 327.632 98.288C328.315 98.8853 328.955 99.5253 329.552 100.208C329.552 100.379 329.552 100.592 329.552 100.848C329.637 101.019 329.637 101.189 329.552 101.36Z" fill="#FFA500"/>
<path d="M369.75 86.75V97.375H368.5C361.407 97.375 355.772 100.125 351.483 105.665L351.479 105.671C347.159 111.184 344.953 118.261 344.953 127C344.953 135.735 347.156 142.851 351.479 148.438H351.479C355.766 153.906 361.401 156.625 368.5 156.625C375.377 156.625 380.881 154.074 385.115 148.942L385.521 148.438C389.857 142.832 392.047 136.07 392.047 128.083C392.047 123.983 391.753 120.581 391.184 117.858C390.612 115.125 389.778 113.154 388.754 111.845L388.75 111.84L388.746 111.834C386.549 108.957 384.119 107.667 381.438 107.667C378.606 107.667 376.186 108.655 374.115 110.671C372.078 112.654 371.044 115.174 371.044 118.333C371.044 120.315 371.469 121.866 372.238 123.061C372.918 124.05 373.875 124.559 375.292 124.559C376.55 124.559 377.402 124.069 378.017 123.032C378.692 121.892 379.109 120.02 379.109 117.25V116H390.234V117.25C390.234 122.139 389.11 126.364 386.792 129.857L386.784 129.868C384.336 133.477 380.403 135.184 375.292 135.184C370.2 135.184 366.221 133.564 363.623 130.139C361.136 126.859 359.919 122.9 359.919 118.333C359.919 112.094 362.055 106.945 366.362 103.003C370.611 99.0419 375.619 97.042 381.33 97.042C386.681 97.0421 391.572 99.0058 395.975 102.838L396.399 103.215L396.401 103.216C398.83 105.42 400.721 108.586 402.131 112.612C403.554 116.676 404.25 121.407 404.25 126.783C404.25 138.501 401.091 148.228 394.686 155.861L394.682 155.866C388.234 163.475 379.458 167.25 368.5 167.25C357.542 167.25 348.766 163.475 342.318 155.866L342.314 155.862L343.271 155.059L342.314 155.861C335.912 148.231 332.75 138.577 332.75 127C332.75 115.425 335.91 105.806 342.314 98.2461L342.926 97.5381C349.311 90.3302 357.88 86.75 368.5 86.75H369.75Z" fill="#FF6600" stroke="#FF6600" stroke-width="2.5"/>
<path d="M61.44 90.024C61.44 90.7067 61.1413 91.1333 60.544 91.304C59.52 91.3893 58.5387 91.7307 57.6 92.328C56.7467 92.84 55.8507 93.224 54.912 93.48C53.8027 93.3947 52.736 93.4373 51.712 93.608C50.688 93.7787 49.5787 93.736 48.384 93.48C48.2133 93.6507 48 93.8213 47.744 93.992C47.488 94.1627 47.232 94.3333 46.976 94.504C46.6347 94.504 46.2507 94.5467 45.824 94.632C45.3973 94.7173 44.9707 94.76 44.544 94.76H41.344C40.6613 94.76 39.9787 94.8027 39.296 94.888C38.6133 94.888 37.9307 94.8453 37.248 94.76C36.48 94.76 35.7973 94.9307 35.2 95.272C34.6027 95.528 33.9627 95.656 33.28 95.656C32.9387 95.656 32.64 95.6987 32.384 95.784C32.128 95.784 31.872 95.8267 31.616 95.912C31.0187 95.7413 30.4213 95.6133 29.824 95.528C29.312 95.3573 28.7573 95.5707 28.16 96.168C27.7333 97.6187 27.3493 99.112 27.008 100.648C26.752 102.184 26.5387 103.677 26.368 105.128C26.112 106.664 26.112 108.115 26.368 109.48C26.4533 109.651 26.496 109.821 26.496 109.992C26.5813 110.163 26.6667 110.333 26.752 110.504H30.592C31.1893 110.76 31.7867 111.059 32.384 111.4C33.0667 111.741 33.7493 112.125 34.432 112.552C34.6027 112.637 34.816 112.723 35.072 112.808C35.4133 112.808 35.7547 112.851 36.096 112.936C36.352 113.021 36.6507 113.107 36.992 113.192C37.3333 113.277 37.6747 113.405 38.016 113.576C38.6133 113.576 39.168 113.405 39.68 113.064C40.192 112.723 40.7467 112.509 41.344 112.424H41.984C42.4107 112.424 42.7947 112.467 43.136 112.552C43.5627 112.637 43.9467 112.637 44.288 112.552C45.3973 112.296 46.5067 112.296 47.616 112.552C48.7253 112.723 49.792 112.808 50.816 112.808C51.4987 112.808 52.1387 112.936 52.736 113.192C53.4187 113.448 54.0587 113.747 54.656 114.088C54.9973 116.989 55.1253 119.933 55.04 122.92C55.04 125.821 54.9973 128.723 54.912 131.624C54.912 131.965 54.784 132.179 54.528 132.264C54.272 132.349 54.016 132.349 53.76 132.264C53.5893 132.179 53.376 132.093 53.12 132.008C52.9493 131.923 52.6933 131.837 52.352 131.752H44.928C44.16 131.667 43.4347 131.667 42.752 131.752C42.1547 131.837 41.5147 131.837 40.832 131.752C40.1493 131.667 39.4667 131.624 38.784 131.624C38.1013 131.539 37.376 131.453 36.608 131.368C36.0107 131.283 35.3707 131.24 34.688 131.24C34.0053 131.24 33.28 131.197 32.512 131.112C32.0853 131.112 31.616 131.027 31.104 130.856C30.6773 130.685 30.2507 130.557 29.824 130.472C29.2267 130.557 28.7573 130.771 28.416 131.112C28.16 131.453 27.8187 131.795 27.392 132.136C27.3067 132.307 27.1787 132.563 27.008 132.904C26.9227 133.16 26.7947 133.416 26.624 133.672C26.7093 133.928 26.752 134.227 26.752 134.568C27.1787 135.08 27.4347 135.677 27.52 136.36C27.6907 136.957 27.776 137.597 27.776 138.28C27.776 139.304 27.8187 140.328 27.904 141.352C28.0747 142.376 28.0747 143.4 27.904 144.424C27.904 145.277 27.904 146.131 27.904 146.984C27.9893 147.837 28.2027 148.648 28.544 149.416C28.6293 149.587 28.672 149.885 28.672 150.312C28.16 151.507 27.4773 152.659 26.624 153.768C25.7707 154.365 24.9173 154.749 24.064 154.92C23.296 155.176 22.4427 155.517 21.504 155.944C21.1627 155.859 20.7787 155.816 20.352 155.816C20.0107 155.816 19.6267 155.816 19.2 155.816C18.8587 155.901 18.304 156.2 17.536 156.712H13.184C12.5013 156.712 11.776 156.712 11.008 156.712C10.3253 156.797 9.55733 156.84 8.704 156.84C7.85067 156.84 7.25333 156.456 6.912 155.688C6.82667 155.347 6.784 154.963 6.784 154.536C6.784 154.109 6.74133 153.64 6.656 153.128C6.4 152.701 6.18667 152.317 6.016 151.976C5.84533 151.549 5.67467 151.165 5.504 150.824C5.41867 150.312 5.33333 149.8 5.248 149.288C5.248 148.776 5.20533 148.307 5.12 147.88C5.376 147.112 5.58933 146.387 5.76 145.704C6.016 145.021 6.272 144.296 6.528 143.528C6.18667 141.565 5.97333 139.56 5.888 137.512C5.80267 135.379 5.93067 133.245 6.272 131.112C6.272 130.685 6.18667 130.216 6.016 129.704C5.93067 129.192 6.016 128.637 6.272 128.04C6.784 127.101 6.784 126.205 6.272 125.352C6.18667 124.755 6.10133 124.157 6.016 123.56C6.016 122.963 6.10133 122.365 6.272 121.768C6.44267 121.512 6.528 121.213 6.528 120.872C6.528 120.531 6.528 120.189 6.528 119.848C6.61333 119.421 6.57067 118.952 6.4 118.44C6.22933 117.928 6.18667 117.416 6.272 116.904C6.44267 116.477 6.528 116.051 6.528 115.624C6.61333 115.112 6.656 114.6 6.656 114.088C6.656 113.491 6.69867 112.893 6.784 112.296C6.86933 111.699 6.99733 111.144 7.168 110.632C7.08267 110.035 6.99733 109.523 6.912 109.096C6.912 108.584 6.86933 108.072 6.784 107.56C7.21067 106.621 7.424 105.683 7.424 104.744C7.50933 103.72 7.552 102.696 7.552 101.672C7.552 100.989 7.552 100.307 7.552 99.624C7.552 98.9413 7.59467 98.3013 7.68 97.704C7.76533 97.0213 7.808 96.3813 7.808 95.784C7.89333 95.1013 7.936 94.4613 7.936 93.864C7.936 93.6933 7.89333 93.5227 7.808 93.352C7.808 93.096 7.85067 92.8827 7.936 92.712C8.27733 92.0293 8.40533 91.3893 8.32 90.792C8.32 90.1093 8.36267 89.4693 8.448 88.872C8.448 88.36 8.448 87.848 8.448 87.336C8.53333 86.7387 8.61867 86.184 8.704 85.672C8.61867 85.2453 8.49067 84.776 8.32 84.264C8.14933 83.752 8.02133 83.3253 7.936 82.984C8.02133 82.5573 8.10667 82.1307 8.192 81.704C8.36267 81.2773 8.448 80.8507 8.448 80.424C8.53333 79.4 9.216 78.7173 10.496 78.376C12.032 77.864 13.6533 77.48 15.36 77.224C15.9573 77.224 16.4267 77.0533 16.768 76.712C17.1093 76.5413 17.4933 76.456 17.92 76.456C18.432 76.5413 18.944 76.5413 19.456 76.456C20.0533 76.3707 20.6507 76.2853 21.248 76.2C21.9307 75.7733 22.6987 75.56 23.552 75.56C25.1733 75.4747 26.7947 75.2613 28.416 74.92C30.0373 74.5787 31.6587 74.3653 33.28 74.28C34.1333 74.1947 34.944 74.152 35.712 74.152C36.48 74.0667 37.2907 74.152 38.144 74.408C38.8267 74.4933 39.5093 74.5787 40.192 74.664C40.8747 74.664 41.5573 74.664 42.24 74.664C42.5813 74.664 42.9227 74.664 43.264 74.664C43.6053 74.5787 43.9467 74.536 44.288 74.536C45.4827 74.4507 46.3787 74.4507 46.976 74.536C47.5733 74.536 48.1707 74.5787 48.768 74.664C49.3653 74.7493 50.2613 74.92 51.456 75.176C52.0533 75.2613 52.608 75.3467 53.12 75.432C53.7173 75.432 54.272 75.5173 54.784 75.688C55.7227 76.1147 56.7467 76.4133 57.856 76.584C58.2827 76.6693 58.624 76.84 58.88 77.096C59.136 77.2667 59.3493 77.4373 59.52 77.608C59.8613 78.9733 59.8613 80.296 59.52 81.576C59.776 82.344 60.032 83.24 60.288 84.264C60.288 84.3493 60.2453 84.5627 60.16 84.904C60.16 85.16 60.16 85.3733 60.16 85.544C60.16 85.9707 60.2027 86.2267 60.288 86.312C60.4587 86.6533 60.6293 87.0373 60.8 87.464C60.9707 87.8053 61.0987 88.1467 61.184 88.488C61.3547 88.744 61.44 89 61.44 89.256C61.44 89.512 61.44 89.768 61.44 90.024Z" fill="#FF6600"/>
<path d="M226.347 90.4884C226.377 90.4492 226.41 90.4272 226.445 90.4225L226.399 90.4813C226.548 90.5314 226.674 90.6725 226.777 90.9045C226.844 91.1413 226.955 91.302 227.108 91.3865C227.157 91.4853 227.301 91.624 227.538 91.8026C227.775 91.9812 227.944 92.0461 228.044 91.9974C228.518 91.8276 229.094 91.7494 229.77 91.7629C229.889 91.8522 230.008 91.9415 230.126 92.0308C230.245 92.1201 230.401 92.2219 230.594 92.3363C230.629 92.3315 230.666 92.344 230.706 92.3738C230.741 92.3691 230.793 92.362 230.863 92.3525C230.972 92.3728 231.131 92.3687 231.34 92.3403C232.452 92.1542 233.578 92.212 234.72 92.5137C234.974 92.5496 235.243 92.5658 235.526 92.5624C235.805 92.5245 236.077 92.4349 236.342 92.2934C236.537 92.1615 236.74 92.0813 236.949 92.0529C237.118 91.9947 237.31 91.9687 237.524 91.9748C237.978 91.9132 238.404 91.785 238.804 91.5901C238.983 91.6009 239.18 91.6094 239.393 91.6155C239.573 91.6263 239.754 91.6544 239.938 91.6997C240.121 91.745 240.307 91.8076 240.496 91.8874C240.689 92.0017 240.888 92.0274 241.092 91.9645C241.118 91.8908 241.161 91.8146 241.221 91.7362C241.277 91.6232 241.33 91.493 241.381 91.3455C241.446 91.3015 241.529 91.2551 241.629 91.2064C241.724 91.1232 241.804 91.0596 241.869 91.0156C242.313 90.8851 242.711 90.673 243.062 90.3793C243.538 89.9632 244.008 89.6358 244.473 89.397C244.708 89.2948 244.901 89.1456 245.052 88.9494C245.163 88.7235 245.297 88.5296 245.452 88.3679C245.545 88.0039 245.622 87.6596 245.685 87.3349C245.747 87.0101 245.773 86.6729 245.761 86.3231C245.856 86.2399 245.934 86.159 245.994 86.0806C246.05 85.9676 246.108 85.8718 246.168 85.7934C246.359 85.6269 246.447 85.492 246.433 85.3884C246.425 85.0732 246.497 84.8175 246.648 84.6213C246.799 84.4251 246.923 84.1622 247.021 83.8327C247.011 83.7637 247.015 83.6579 247.031 83.5151C247.012 83.3771 247.011 83.2367 247.027 83.094C247.017 83.025 247.006 82.9387 246.992 82.8352C246.973 82.6972 246.976 82.5913 247.002 82.5176C247.104 82.2226 247.208 81.9449 247.315 81.6844C247.417 81.3894 247.504 81.1141 247.576 80.8584C247.552 80.6858 247.482 80.4318 247.366 80.0963C247.093 79.3954 247.014 78.6857 247.13 77.9672C247.201 77.7115 247.238 77.4605 247.241 77.2142C247.243 76.968 247.262 76.7194 247.299 76.4684C247.255 76.4041 247.208 76.3226 247.159 76.2238C247.071 76.0953 246.987 76.0012 246.908 75.9417L247.126 74.8051C247.173 74.6231 247.256 74.4537 247.377 74.2967C247.458 74.11 247.542 73.9405 247.628 73.7883C247.625 73.5075 247.538 73.2558 247.365 73.0333C247.158 72.8154 247.021 72.5881 246.953 72.3513C246.939 72.2478 246.942 72.142 246.963 72.0337C246.949 71.9302 246.935 71.8267 246.921 71.7232C246.59 71.3815 246.362 71.0084 246.236 70.6039C246.075 70.2041 245.947 69.7822 245.851 69.3384C245.588 69.2336 245.358 69.1068 245.16 68.9579C244.962 68.8091 244.81 68.6014 244.703 68.3349C244.654 68.2361 244.62 68.1177 244.601 67.9797C244.547 67.8464 244.494 67.7131 244.44 67.5799C244.228 67.3275 244.016 67.0752 243.805 66.8228C243.553 66.5407 243.324 66.2908 243.117 66.0729C243.023 65.9099 242.945 65.7272 242.882 65.5249C242.785 65.3274 242.656 65.1691 242.498 65.05C242.31 64.9702 242.169 64.8488 242.076 64.6857C241.948 64.5274 241.837 64.3668 241.744 64.2037C241.495 64.2024 241.279 64.179 241.095 64.1337C240.911 64.0884 240.747 64.058 240.603 64.0424C240.415 63.9626 240.314 63.8709 240.299 63.7674C240.129 63.2986 239.873 62.982 239.531 62.8176C239.15 62.6234 238.743 62.503 238.31 62.4563C238.166 62.4408 238.041 62.4401 237.937 62.4543C237.827 62.434 237.683 62.4185 237.504 62.4077C237.425 62.3481 237.326 62.2737 237.207 62.1844C237.084 62.0606 236.961 61.9368 236.837 61.813C236.619 61.7724 236.418 61.7295 236.234 61.6841C236.015 61.6436 235.831 61.5982 235.683 61.5482L235.316 61.5979C235.051 61.7393 234.786 61.8807 234.522 62.0221C234.217 62.1338 233.897 62.265 233.563 62.4159C233.279 62.4193 232.993 62.4054 232.705 62.3743C232.377 62.3134 232.078 62.3365 231.808 62.4434C231.773 62.4481 231.741 62.4701 231.711 62.5093C231.676 62.5141 231.639 62.5015 231.599 62.4718C231.355 62.5049 231.106 62.5036 230.853 62.4677C230.599 62.4319 230.353 62.4478 230.113 62.5155C229.904 62.5439 229.692 62.5551 229.478 62.549C229.23 62.5476 228.994 62.5094 228.77 62.4343C228.591 62.4235 228.432 62.4276 228.292 62.4465C228.113 62.4357 227.941 62.4766 227.776 62.5693C227.686 62.687 227.595 62.8048 227.505 62.9225C227.409 63.0057 227.301 63.1258 227.181 63.2827C226.906 63.3551 226.619 63.4644 226.319 63.6105C225.98 63.7269 225.643 63.8605 225.308 64.0114C225.139 64.0696 224.993 64.1772 224.873 64.3341C224.717 64.4958 224.522 64.6278 224.287 64.7299C224.087 64.8274 223.885 64.9075 223.68 64.9705C223.436 65.0036 223.192 65.0368 222.948 65.0699C222.465 65.6978 221.854 66.1673 221.115 66.4785C221.05 66.5225 220.985 66.5665 220.92 66.6105C220.855 66.6544 220.789 66.6984 220.724 66.7424C220.478 67.0218 220.252 67.3161 220.045 67.6253C219.799 67.9047 219.57 68.1817 219.359 68.4564C219.152 68.7656 219.053 69.0778 219.06 69.3931C218.814 69.6725 218.683 69.8836 218.666 70.0263C218.611 70.1393 218.62 70.4718 218.695 71.0239C218.5 71.1558 218.325 71.3026 218.169 71.4643C218.009 71.5915 217.928 71.7782 217.926 72.0245C217.875 72.172 217.824 72.3195 217.773 72.4669C217.717 72.5799 217.681 72.7078 217.665 72.8505C217.579 73.0028 217.491 73.1377 217.4 73.2555C217.27 73.3434 217.145 73.4659 217.024 73.6228C216.952 73.8786 216.898 74.1319 216.861 74.3829C216.819 74.5994 216.852 74.8409 216.959 75.1075C217.062 75.3395 217.114 75.5959 217.117 75.8767C217.119 76.1574 217.159 76.4507 217.236 76.7565C217.309 77.0278 217.349 77.3211 217.356 77.6363C217.363 77.9516 217.368 78.2496 217.371 78.5304C217.355 78.6731 217.358 78.8308 217.382 79.0033C217.4 79.1413 217.399 79.2644 217.379 79.3727C217.272 79.6331 217.235 79.8841 217.268 80.1256C217.266 80.3719 217.298 80.6134 217.366 80.8502C217.385 80.9882 217.404 81.1262 217.422 81.2642C217.402 81.3725 217.403 81.5129 217.426 81.6854C217.627 82.115 217.812 82.5642 217.982 83.033C218.148 83.4673 218.363 83.8773 218.629 84.2629C218.89 84.614 219.15 84.9651 219.411 85.3162C219.672 85.6674 219.965 85.9965 220.291 86.3036L220.411 87.1834C220.599 87.2633 220.79 87.3603 220.983 87.4747C221.137 87.5592 221.27 87.6289 221.384 87.6837C221.685 88.0646 221.893 88.4228 222.01 88.7584C222.087 89.0641 222.196 89.3479 222.339 89.6098C222.497 89.7288 222.655 89.8479 222.813 89.967C222.972 90.086 223.147 90.2027 223.34 90.317C223.533 90.4314 223.759 90.5237 224.017 90.5941C224.236 90.6346 224.478 90.5842 224.743 90.4428C225.047 90.3312 225.311 90.3129 225.534 90.388C225.679 90.4036 225.823 90.4191 225.967 90.4347C226.111 90.4502 226.238 90.4682 226.347 90.4884ZM225.596 78.6783C225.642 78.4963 225.673 78.3339 225.689 78.1912C225.666 78.0186 225.66 77.8438 225.671 77.6665C225.634 77.3905 225.621 77.1639 225.632 76.9866C225.664 76.7011 225.729 76.3936 225.827 76.0641C225.884 75.7049 225.962 75.3605 226.059 75.0311C226.075 74.8883 226.126 74.7408 226.212 74.5886C226.258 74.4066 226.307 74.2419 226.358 74.0944C226.562 73.5045 226.954 73.1175 227.532 72.9334C227.632 72.8847 227.75 72.8336 227.885 72.7802C228.015 72.6922 228.127 72.6067 228.223 72.5234C228.413 72.357 228.608 72.2251 228.808 72.1277C229.008 72.0302 229.21 71.9501 229.415 71.8871C229.684 71.7802 229.972 71.671 230.276 71.5593C230.576 71.4132 230.863 71.3039 231.137 71.2315C231.463 71.0116 231.796 70.9839 232.138 71.1483C233.131 71.3999 234.054 71.7841 234.905 72.301C235.752 72.7833 236.525 73.5041 237.224 74.4634C237.347 74.5872 237.473 74.7283 237.601 74.8866C237.694 75.0496 237.787 75.2127 237.88 75.3757C238.043 75.5293 238.191 75.7025 238.324 75.8953C238.452 76.0536 238.563 76.2143 238.656 76.3773C238.658 76.6581 238.567 76.8989 238.381 77.0998C238.195 77.3008 238.103 77.5416 238.106 77.8224C238.125 77.9604 238.196 78.0913 238.319 78.2151C238.438 78.3044 238.524 78.4157 238.578 78.549C238.527 78.6965 238.461 78.8636 238.379 79.0503C238.298 79.237 238.234 79.4214 238.188 79.6034C238.107 79.7901 238.063 79.9893 238.056 80.2011C238.01 80.3831 237.983 80.5799 237.977 80.7917C237.93 80.9737 237.901 81.1533 237.89 81.3306C237.844 81.5125 237.815 81.6922 237.803 81.8694L237.148 82.5382C237.053 82.6214 236.962 82.7391 236.877 82.8913C236.751 83.0138 236.623 83.119 236.493 83.207C236.089 83.3673 235.737 83.5205 235.437 83.6667C235.167 83.7736 234.928 83.8413 234.719 83.8697C234.509 83.8981 234.283 83.9289 234.038 83.962C234.038 83.962 234.056 83.9597 234.091 83.9549C234.091 83.9549 234.093 83.9722 234.098 84.0067L233.993 84.0209C234.028 84.0162 234.043 83.9965 234.038 83.962C233.959 83.9025 233.867 83.8798 233.763 83.8941C233.654 83.8738 233.564 83.8684 233.494 83.8778C233.285 83.9063 233.078 83.9519 232.874 84.0148C232.629 84.048 232.383 84.0639 232.134 84.0626C232.055 84.003 231.968 84.0149 231.873 84.0981C231.738 84.1515 231.62 84.2026 231.52 84.2513C231.381 84.2703 231.272 84.25 231.192 84.1905C231.174 84.0525 231.175 83.9293 231.196 83.8211C231.182 83.7176 231.117 83.6384 231.003 83.5836C230.517 83.4037 230.056 83.2731 229.618 83.192C229.425 83.0776 229.269 82.9758 229.151 82.8865C228.997 82.802 228.859 82.6978 228.735 82.574C228.586 82.5239 228.47 82.4519 228.386 82.3578C228.268 82.2685 228.136 82.2161 227.992 82.2005C227.664 82.1397 227.384 82.0372 227.151 81.8931C226.879 81.7192 226.624 81.543 226.387 81.3644C226.342 81.3001 226.318 81.2508 226.313 81.2162C226.269 81.152 226.225 81.0877 226.18 81.0234C225.689 80.282 225.494 79.5003 225.596 78.6783Z" fill="#FF355A"/>
</svg>
