<svg width="108" height="31" viewBox="0 0 108 31" fill="none" xmlns="http://www.w3.org/2000/svg">
<path d="M98.083 7.17407V10.0227H97.748C95.8459 10.0227 94.3346 10.7606 93.1846 12.2463L93.1836 12.2483C92.0251 13.7266 91.4336 15.6245 91.4336 17.968C91.4337 20.3104 92.0247 22.2179 93.1836 23.7161L93.4033 23.9827C94.5234 25.2713 95.9632 25.9124 97.748 25.9124C99.6518 25.9123 101.163 25.1827 102.312 23.7161C103.475 22.213 104.062 20.3997 104.062 18.2581C104.062 17.1585 103.984 16.2461 103.831 15.5159C103.678 14.7829 103.454 14.2546 103.18 13.9036L103.177 13.9006V13.8997C102.588 13.1288 101.936 12.7836 101.218 12.7834C100.458 12.7834 99.8092 13.0486 99.2539 13.5891C98.7076 14.121 98.4297 14.7967 98.4297 15.6438C98.4297 16.1732 98.5433 16.5878 98.748 16.9075L98.8203 17.0022C98.9969 17.2076 99.2356 17.3127 99.5693 17.3127C99.9065 17.3127 100.135 17.1817 100.3 16.9036C100.481 16.5978 100.593 16.0957 100.593 15.3528V15.0178H103.576V15.3528C103.576 16.6639 103.275 17.7969 102.653 18.7336L102.651 18.7366C101.995 19.7042 100.94 20.1624 99.5693 20.1624C98.204 20.1623 97.1371 19.7282 96.4404 18.8098C95.7735 17.9302 95.4463 16.8683 95.4463 15.6438C95.4463 13.9718 96.0185 12.5912 97.1719 11.5344C98.3119 10.4708 99.656 9.93385 101.188 9.93384C102.67 9.93384 104.02 10.495 105.229 11.5891H105.23C105.882 12.1803 106.388 13.0298 106.767 14.1096C107.148 15.1993 107.335 16.4679 107.335 17.9094C107.335 21.0516 106.488 23.6602 104.771 25.7073L104.77 25.7092C103.041 27.7495 100.687 28.7619 97.748 28.762C94.8094 28.762 92.4555 27.7495 90.7266 25.7092L90.7256 25.7073C89.0087 23.661 88.1612 21.0725 88.1611 17.968C88.1611 14.8634 89.0084 12.2827 90.7266 10.2551C92.455 8.19599 94.8088 7.17407 97.748 7.17407H98.083Z" fill="#FF6600" stroke="#FF6600" stroke-width="0.670426"/>
<path d="M34.7292 11.5055C34.5936 11.9349 34.537 12.3418 34.5596 12.726C34.5823 12.839 34.5823 12.9634 34.5596 13.099C34.537 13.212 34.5144 13.325 34.4918 13.438C34.4692 13.5284 34.4579 13.6415 34.4579 13.7771C34.4805 13.9127 34.4692 14.0257 34.424 14.1161C34.3788 14.2743 34.3788 14.4326 34.424 14.5908C34.4692 14.7264 34.5031 14.862 34.5257 14.9977C34.4805 15.1559 34.4353 15.3367 34.3901 15.5401C34.3449 15.721 34.3336 15.9244 34.3562 16.1504C34.3562 16.4217 34.3223 16.6929 34.2545 16.9641C34.2319 17.1224 34.2319 17.2806 34.2545 17.4388C34.3449 17.7326 34.3788 18.0152 34.3562 18.2864C34.3336 18.5577 34.2771 18.8289 34.1867 19.1001C34.0963 19.2584 34.0511 19.4166 34.0511 19.5748C34.0737 19.8234 34.0398 20.0608 33.9494 20.2868C33.859 20.5128 33.7572 20.7389 33.6442 20.9649C33.6216 21.0327 33.5764 21.0892 33.5086 21.1344C33.4408 21.1796 33.3843 21.2361 33.3391 21.3039C33.1809 21.8238 33.0565 22.1968 32.9661 22.4228C32.8757 22.6262 32.7062 22.954 32.4576 23.406C32.4349 23.4512 32.3897 23.5078 32.3219 23.5756C32.2541 23.6434 32.1976 23.6999 32.1524 23.7451C32.1298 23.7903 32.0959 23.8242 32.0507 23.8468C32.0281 23.8694 32.0168 23.892 32.0168 23.9146C31.9264 24.2085 31.7908 24.4571 31.6099 24.6605C31.4291 24.864 31.2483 25.0561 31.0675 25.2369C30.977 25.3273 30.8979 25.429 30.8301 25.542C30.7849 25.6325 30.7171 25.7342 30.6267 25.8472C30.4007 26.0054 30.1859 26.1636 29.9825 26.3219C29.7791 26.4801 29.5643 26.6383 29.3383 26.7965C29.2027 26.8869 29.0671 26.9661 28.9314 27.0339C28.7732 27.0791 28.615 27.1469 28.4568 27.2373C28.2986 27.3051 28.1403 27.3616 27.9821 27.4068C27.8239 27.4972 27.6657 27.5763 27.5074 27.6441C27.3492 27.6894 27.191 27.7572 27.0328 27.8476H26.253C26.14 27.8928 26.0156 27.9493 25.88 28.0171C25.767 28.0623 25.6427 28.0736 25.5071 28.051C25.3714 28.0284 25.2358 28.0623 25.1002 28.1527C24.9872 28.2205 24.8629 28.2657 24.7273 28.2883C24.6594 28.2657 24.5803 28.2431 24.4899 28.2205C24.3995 28.1979 24.3091 28.1866 24.2187 28.1866C24.1283 28.2544 24.0379 28.3222 23.9474 28.3901C23.8796 28.4353 23.8005 28.4918 23.7101 28.5596C23.6875 28.5596 23.6536 28.5709 23.6084 28.5935C23.5858 28.5935 23.5519 28.5935 23.5067 28.5935C23.4163 28.5935 23.3146 28.6048 23.2015 28.6274C23.1111 28.6274 23.0207 28.6161 22.9303 28.5935C22.7721 28.5031 22.6252 28.4692 22.4895 28.4918C22.3539 28.5144 22.207 28.4918 22.0488 28.424C21.8679 28.3787 21.7775 28.277 21.7775 28.1188C21.7775 27.9154 21.6645 27.7911 21.4385 27.7459C21.3707 27.7459 21.3029 27.7572 21.2351 27.7798C21.1899 27.7798 21.1333 27.7798 21.0655 27.7798C20.9751 27.7572 20.896 27.712 20.8282 27.6441C20.7604 27.5763 20.6813 27.5198 20.5909 27.4746C20.4779 27.3842 20.3535 27.3051 20.2179 27.2373C20.0823 27.1469 19.9354 27.0904 19.7772 27.0678C19.6415 27.0452 19.5059 27.0113 19.3703 26.9661C19.2573 26.8982 19.1443 26.853 19.0312 26.8304C18.7826 26.74 18.6018 26.5366 18.4888 26.2201C18.421 25.9263 18.2966 25.689 18.1158 25.5081C18.048 25.4177 17.9915 25.3386 17.9463 25.2708C17.9011 25.1804 17.8559 25.09 17.8107 24.9996C17.7655 24.9544 17.7203 24.8866 17.6751 24.7961C17.6298 24.7057 17.5846 24.6492 17.5394 24.6266C17.3134 24.491 17.1326 24.3215 16.997 24.118C16.8839 23.9146 16.7822 23.6999 16.6918 23.4739C16.6692 23.4513 16.6466 23.4173 16.624 23.3721C16.624 23.3269 16.6127 23.293 16.5901 23.2704C16.4319 23.18 16.3528 23.0444 16.3528 22.8636C16.3528 22.6827 16.3302 22.5132 16.285 22.355C16.2397 22.3098 16.1832 22.2533 16.1154 22.1855C16.0476 22.1177 15.9798 22.0386 15.912 21.9481C15.8668 21.7673 15.8103 21.5865 15.7425 21.4057C15.6747 21.2248 15.6182 21.0327 15.573 20.8293C15.573 20.4676 15.5617 20.2077 15.5391 20.0495C15.5391 19.8686 15.5277 19.6991 15.5051 19.5409C15.4825 19.3601 15.426 19.1114 15.3356 18.795C15.3356 18.6142 15.3695 18.4333 15.4373 18.2525C15.5277 18.0717 15.5504 17.857 15.5051 17.6083C15.4373 17.4953 15.3695 17.3597 15.3017 17.2015C15.2565 17.0432 15.1887 16.885 15.0983 16.7268C15.0983 16.6816 15.087 16.6251 15.0644 16.5573C15.0644 16.4895 15.0644 16.433 15.0644 16.3877C15.087 16.2069 15.0983 16.0374 15.0983 15.8792C15.0983 15.721 15.0983 15.5627 15.0983 15.4045C15.0983 15.2237 15.1209 15.0429 15.1661 14.862C15.2113 14.6586 15.2452 14.4778 15.2678 14.3196C15.313 14.0709 15.3469 13.8336 15.3695 13.6076C15.4147 13.3589 15.4599 13.1103 15.5051 12.8616C15.5504 12.5 15.6295 12.1383 15.7425 11.7767C15.8555 11.415 15.9798 11.0534 16.1154 10.6917C16.3641 10.5335 16.5901 10.3866 16.7935 10.251C17.0196 10.1154 17.2456 9.96844 17.4716 9.81021H18.9295L19.3025 9.94583C19.4155 9.96844 19.5285 9.96844 19.6415 9.94583C19.7545 9.90063 19.8676 9.86672 19.9806 9.84412C20.0936 9.91193 20.2179 9.99104 20.3535 10.0815C20.5118 10.1493 20.67 10.2397 20.8282 10.3527C20.8282 10.3979 20.8395 10.4544 20.8621 10.5222C20.9073 10.59 20.9299 10.6465 20.9299 10.6917C20.9299 10.85 20.9186 11.0195 20.896 11.2003C20.896 11.3811 20.8621 11.562 20.7943 11.7428C20.7491 11.9462 20.7491 12.1609 20.7943 12.387C20.8169 12.4548 20.8282 12.5678 20.8282 12.726C20.8056 12.9069 20.7717 13.099 20.7265 13.3024C20.6813 13.5058 20.6248 13.698 20.557 13.8788C20.5344 13.9692 20.5231 14.0596 20.5231 14.15C20.5231 14.2178 20.5344 14.2857 20.557 14.3535C20.6248 14.5343 20.6248 14.7038 20.557 14.862C20.5118 15.0203 20.5118 15.1785 20.557 15.3367C20.6926 15.6079 20.7378 15.9244 20.6926 16.286C20.6926 16.4669 20.7265 16.6138 20.7943 16.7268C20.9073 16.9302 20.9638 17.1337 20.9638 17.3371C20.9864 17.5179 20.9864 17.71 20.9638 17.9135C20.9186 18.0943 20.9073 18.2751 20.9299 18.4559C20.9751 18.6368 21.0316 18.8063 21.0994 18.9645C21.1899 19.1001 21.2577 19.2358 21.3029 19.3714C21.3481 19.4844 21.4159 19.62 21.5063 19.7782C21.6193 19.8912 21.7436 20.0156 21.8792 20.1512C22.0149 20.2868 22.1279 20.445 22.2183 20.6259C22.2409 20.7389 22.3313 20.8745 22.4895 21.0327C22.4895 21.0327 22.5234 21.0553 22.5912 21.1005C22.7043 21.1231 22.8173 21.1344 22.9303 21.1344C23.0659 21.1344 23.1902 21.1344 23.3033 21.1344C23.4163 21.2248 23.518 21.3039 23.6084 21.3718C23.6988 21.4396 23.7892 21.5074 23.8796 21.5752C24.0153 21.5074 24.1396 21.4396 24.2526 21.3718C24.3656 21.3039 24.4786 21.2248 24.5916 21.1344L25.0663 21.0327C25.0889 21.0327 25.1115 21.0327 25.1341 21.0327C25.1793 21.0101 25.2132 21.0101 25.2358 21.0327C25.8687 21.2361 26.3547 21.0214 26.6937 20.3885C26.7389 20.2529 26.8068 20.1173 26.8972 19.9817C26.9876 19.846 27.0554 19.6991 27.1006 19.5409C27.1458 19.4279 27.2023 19.3262 27.2701 19.2358C27.3379 19.1453 27.4057 19.0549 27.4735 18.9645V18.4898C27.5414 18.4446 27.6092 18.3881 27.677 18.3203C27.7674 18.2299 27.8578 18.1621 27.9482 18.1169C27.9934 18.0039 28.0273 17.8909 28.0499 17.7778C28.0951 17.6648 28.1516 17.5518 28.2194 17.4388C28.2647 17.3484 28.2986 17.2693 28.3212 17.2015C28.3664 17.1111 28.4229 17.0206 28.4907 16.9302C28.4681 16.8172 28.4455 16.7268 28.4229 16.659C28.4003 16.5912 28.3777 16.5121 28.3551 16.4217C28.5133 16.06 28.6037 15.7097 28.6263 15.3706C28.6489 15.2576 28.6489 15.1446 28.6263 15.0316C28.6263 14.8959 28.615 14.7603 28.5924 14.6247C28.6376 14.5117 28.6715 14.41 28.6941 14.3196C28.7393 14.2065 28.7732 14.1048 28.7958 14.0144C28.7958 13.8336 28.7732 13.6641 28.728 13.5058C28.7054 13.325 28.7167 13.1555 28.7619 12.9973C28.8071 12.839 28.8184 12.726 28.7958 12.6582C28.7054 12.2966 28.6828 11.9462 28.728 11.6072C28.7732 11.2681 28.841 10.9517 28.9314 10.6578C28.9088 10.5448 28.8862 10.4318 28.8636 10.3188C28.8636 10.2058 28.8636 10.0928 28.8636 9.97974C28.9088 9.93453 28.9541 9.90063 28.9993 9.87802C29.0445 9.85542 29.0784 9.81021 29.101 9.7424C29.214 9.78761 29.3044 9.83282 29.3722 9.87802C29.4626 9.90063 29.553 9.92323 29.6434 9.94583C29.9599 10.0588 30.2763 10.1493 30.5928 10.2171C30.9092 10.2849 31.237 10.2736 31.576 10.1832C31.9603 10.2058 32.3445 10.2284 32.7288 10.251C33.1356 10.251 33.5312 10.3075 33.9155 10.4205C34.2319 10.5109 34.424 10.6804 34.4918 10.9291L34.7292 11.5055Z" fill="#FFA500"/>
<path d="M54.2137 20.4736C54.259 20.5414 54.2703 20.6205 54.2477 20.7109C54.225 20.7787 54.1911 20.8465 54.1459 20.9143C54.0781 20.9595 54.0103 21.0273 53.9425 21.1178C53.8747 21.1856 53.7956 21.2421 53.7052 21.2873C53.5696 21.3777 53.4339 21.4794 53.2983 21.5924C53.1627 21.7054 53.0271 21.8185 52.8915 21.9315C52.5976 22.1575 52.3377 22.3835 52.1117 22.6096C51.9082 22.813 51.6596 23.0955 51.3657 23.4572C51.3205 23.5024 51.264 23.5476 51.1962 23.5928C51.151 23.6606 51.0945 23.7171 51.0267 23.7623C51.0041 23.7849 50.9589 23.8075 50.8911 23.8301C50.8459 23.8527 50.8007 23.8753 50.7555 23.8979C50.7328 23.8753 50.6989 23.8527 50.6537 23.8301C50.6085 23.8301 50.5633 23.8188 50.5181 23.7962C50.3373 23.6154 50.1452 23.4346 49.9417 23.2538C49.7609 23.0729 49.5688 22.9034 49.3654 22.7452C49.0715 22.5418 48.8116 22.3157 48.5855 22.0671C48.3595 21.7959 48.1222 21.5359 47.8735 21.2873C47.8057 21.2195 47.7492 21.1404 47.704 21.0499C47.6814 20.9369 47.6475 20.8352 47.6023 20.7448C47.5119 20.6996 47.4102 20.6544 47.2972 20.6092C47.2068 20.5414 47.1163 20.4736 47.0259 20.4058C46.9355 20.3153 46.8451 20.2136 46.7547 20.1006C46.6869 19.9876 46.6191 19.8746 46.5513 19.7616C46.4382 19.5807 46.3252 19.4112 46.2122 19.253C46.0992 19.0948 45.9636 18.9365 45.8054 18.7783C45.7149 18.6653 45.6471 18.541 45.6019 18.4054C45.5567 18.2698 45.4663 18.1567 45.3307 18.0663C45.1951 18.0211 45.0481 17.9872 44.8899 17.9646C44.7317 17.9194 44.5848 17.8855 44.4492 17.8629C44.2457 17.9081 44.0875 18.055 43.9745 18.3037C43.6807 18.9365 43.1947 19.4564 42.5166 19.8633C42.3358 19.9763 42.1775 20.1232 42.0419 20.304C41.9063 20.4849 41.7481 20.6657 41.5672 20.8465C41.296 21.276 40.9683 21.6489 40.584 21.9654C40.2224 22.2818 39.8155 22.5757 39.3634 22.8469C39.2956 22.9147 39.2165 22.9825 39.1261 23.0503C39.0357 23.1181 38.934 23.1972 38.821 23.2877L37.7699 23.6267C37.4083 23.4685 37.1031 23.2425 36.8545 22.9486C36.6284 22.6548 36.3572 22.4287 36.0408 22.2705C35.8599 21.9993 35.713 21.728 35.6 21.4568C35.487 21.1856 35.3966 20.9143 35.3288 20.6431C35.4418 20.3945 35.5435 20.1684 35.6339 19.965C35.7469 19.7616 35.8712 19.592 36.0069 19.4564C36.2781 19.253 36.4476 19.0044 36.5154 18.7105C36.6285 18.5749 36.7189 18.428 36.7867 18.2698C36.8771 18.2245 36.9449 18.2019 36.9901 18.2019C37.0579 18.2019 37.1257 18.1906 37.1935 18.168C37.3518 18.1228 37.4309 18.0437 37.4309 17.9307C37.4309 17.7951 37.4761 17.7047 37.5665 17.6595C37.6569 17.5917 37.7473 17.5464 37.8377 17.5238C37.9055 17.5012 37.962 17.5012 38.0072 17.5238C38.0751 17.5238 38.1429 17.5125 38.2107 17.4899C38.2333 17.4447 38.2559 17.4108 38.2785 17.3882C38.3011 17.343 38.3124 17.3091 38.3124 17.2865C38.3124 17.1509 38.3237 17.0266 38.3463 16.9136C38.3689 16.7779 38.4367 16.6649 38.5497 16.5745C38.5497 16.3259 38.6175 16.145 38.7532 16.032C38.9114 15.919 39.0809 15.7947 39.2617 15.6591C39.3295 15.4783 39.3973 15.2974 39.4652 15.1166C39.533 14.9358 39.5895 14.7889 39.6347 14.6758C39.7251 14.4498 39.8494 14.2916 40.0076 14.2012C40.1659 14.1108 40.2563 13.9751 40.2789 13.7943C40.2563 13.7717 40.245 13.7378 40.245 13.6926C40.132 13.5796 40.0076 13.4666 39.872 13.3536C39.759 13.2179 39.646 13.0823 39.533 12.9467C39.4199 12.8111 39.3182 12.6755 39.2278 12.5398C39.1374 12.3816 39.0244 12.246 38.8888 12.133C38.7984 12.0426 38.7305 11.9182 38.6853 11.76C38.6401 11.6018 38.5723 11.5001 38.4819 11.4549C38.4141 11.3871 38.3237 11.3306 38.2107 11.2854C38.1881 11.1723 38.1542 11.0706 38.109 10.9802C38.0864 10.8898 38.0638 10.7881 38.0411 10.6751C38.0185 10.6525 37.9846 10.6299 37.9394 10.6073C37.8942 10.5621 37.849 10.5282 37.8038 10.5055C37.5778 10.3925 37.3744 10.2456 37.1935 10.0648C37.0127 9.86135 36.8319 9.68053 36.6511 9.52231C36.5606 9.4545 36.4928 9.37539 36.4476 9.28497C36.312 8.96853 36.1312 8.69729 35.9051 8.47126C35.6791 8.22262 35.4418 7.96269 35.1931 7.69145C35.0801 7.48802 34.9671 7.27329 34.8541 7.04726C34.7411 6.79862 34.6394 6.54998 34.549 6.30135C34.4585 6.12052 34.3568 5.9397 34.2438 5.75887C34.1534 5.55544 34.0743 5.35201 34.0065 5.14859C33.9613 5.10338 33.9387 5.00167 33.9387 4.84344C34.1195 4.59481 34.3342 4.40268 34.5829 4.26706C34.8315 4.10884 35.0236 3.90541 35.1592 3.65677C35.2949 3.63417 35.4192 3.63417 35.5322 3.65677C35.6678 3.67938 35.7808 3.64547 35.8712 3.55506C35.9391 3.48725 36.0408 3.45334 36.1764 3.45334C36.4702 3.38554 36.7641 3.30643 37.0579 3.21601C37.3518 3.103 37.6456 3.02388 37.9394 2.97868C37.9846 2.95607 38.0412 2.93347 38.109 2.91087C38.1768 2.88827 38.2333 2.87696 38.2785 2.87696C38.5949 2.83176 38.8436 2.89957 39.0244 3.08039C39.0696 3.1256 39.1148 3.1708 39.16 3.21601C39.2278 3.23862 39.273 3.27252 39.2956 3.31773C39.4538 3.54376 39.6234 3.74719 39.8042 3.92801C40.0076 4.08624 40.2111 4.23316 40.4145 4.36877C40.5727 4.70782 40.6744 4.93386 40.7196 5.04687C40.7648 5.15989 40.8213 5.2503 40.8892 5.31811C40.957 5.36332 41.0926 5.45373 41.296 5.58935C41.3186 5.61195 41.3412 5.64586 41.3638 5.69106C41.3864 5.71367 41.3977 5.74757 41.3977 5.79278C41.4655 6.13182 41.6577 6.33525 41.9741 6.40306C42.1097 6.44827 42.1888 6.47087 42.2114 6.47087C42.3245 6.56129 42.381 6.6856 42.381 6.84383C42.4036 6.97945 42.494 7.10376 42.6522 7.21678C42.7878 7.21678 42.9008 7.26199 42.9913 7.3524C43.0591 7.375 43.1156 7.39761 43.1608 7.42021C43.2286 7.42021 43.2738 7.42021 43.2964 7.42021C43.4998 7.57843 43.6241 7.78186 43.6693 8.0305C43.7372 8.25653 43.8615 8.43735 44.0423 8.57297H44.2118C44.3927 8.50516 44.5735 8.43735 44.7543 8.36954C44.9351 8.30173 45.116 8.23392 45.2968 8.16611C45.3872 8.0531 45.4663 7.94008 45.5341 7.82707C45.6019 7.71405 45.681 7.60104 45.7715 7.48802C45.8845 7.30719 46.0088 7.12637 46.1444 6.94554C46.28 6.74211 46.4156 6.56129 46.5513 6.40306C46.6869 6.22224 46.7886 6.03011 46.8564 5.82668C46.9242 5.62325 47.0146 5.44243 47.1276 5.28421C47.2407 5.10338 47.3537 4.94516 47.4667 4.80954C47.6023 4.65132 47.7492 4.48179 47.9075 4.30097C48.0657 3.8263 48.2917 3.37423 48.5855 2.94477C48.902 2.51531 49.2636 2.11976 49.6705 1.75811C49.9191 1.84852 50.1452 1.92763 50.3486 1.99544C50.552 2.06325 50.7555 2.16496 50.9589 2.30058C51.2075 2.52661 51.5466 2.69614 51.976 2.80915C52.089 2.83176 52.1908 2.86566 52.2812 2.91087C52.3716 2.95607 52.462 2.98998 52.5524 3.01258C52.7106 3.1482 52.8124 3.28382 52.8576 3.41944C52.9254 3.55506 52.9819 3.70198 53.0271 3.8602C53.0723 3.88281 53.1175 3.90541 53.1627 3.92801C53.2305 3.95062 53.287 3.97322 53.3322 3.99582C53.3774 4.08624 53.4226 4.18795 53.4678 4.30097C53.5357 4.39138 53.5922 4.49309 53.6374 4.60611C53.7052 4.69652 53.7843 4.78694 53.8747 4.87735C53.9877 4.94516 54.0555 5.04687 54.0781 5.18249C54.0555 5.29551 54.0103 5.41983 53.9425 5.55544C53.8973 5.66846 53.8521 5.78148 53.8069 5.89449V6.60649C53.7165 6.76472 53.6035 6.87773 53.4678 6.94554C53.3548 6.99075 53.2418 7.04726 53.1288 7.11507C53.1062 7.16027 53.0723 7.20548 53.0271 7.25068C53.0045 7.27329 52.9706 7.30719 52.9254 7.3524C52.7897 7.60103 52.6428 7.83837 52.4846 8.0644C52.349 8.29043 52.1795 8.51646 51.976 8.7425C51.8404 8.90072 51.7161 9.07024 51.6031 9.25107C51.4901 9.43189 51.3657 9.61272 51.2301 9.79355V10.2004C51.1397 10.2908 51.038 10.3925 50.925 10.5055C50.8346 10.596 50.7555 10.709 50.6876 10.8446C50.5972 10.9802 50.4955 11.0932 50.3825 11.1836C50.2695 11.2741 50.1904 11.3984 50.1452 11.5566C50.0774 11.7148 49.9757 11.8391 49.84 11.9295C49.7044 11.9974 49.5914 12.1443 49.501 12.3703C49.4784 12.4607 49.4558 12.5737 49.4332 12.7094C49.4332 12.845 49.4106 12.9919 49.3654 13.1501C49.9078 13.8508 50.3825 14.5967 50.7894 15.3878V15.7947C50.9024 15.9077 51.0041 16.0094 51.0945 16.0998C51.2075 16.1903 51.2979 16.2807 51.3657 16.3711C51.7952 16.9136 52.2473 17.3882 52.7219 17.7951C52.8123 17.8855 52.8915 17.9872 52.9593 18.1002C53.0497 18.1906 53.0949 18.3037 53.0949 18.4393C53.1175 18.5297 53.1627 18.6201 53.2305 18.7105C53.2983 18.8009 53.3435 18.88 53.3661 18.9478C53.547 19.1739 53.6939 19.4225 53.8069 19.6938C53.9199 19.965 54.0555 20.2249 54.2137 20.4736Z" fill="#00C4D8"/>
<path d="M64.9657 11.7516C65.0335 11.9098 65.0675 12.0793 65.0675 12.2602C65.09 12.441 65.0449 12.6218 64.9318 12.8026C64.8866 12.8931 64.864 12.9835 64.864 13.0739C64.8866 13.1417 64.8979 13.2321 64.8979 13.3451C64.8527 13.4129 64.7962 13.4807 64.7284 13.5486C64.6606 13.5938 64.6041 13.6616 64.5589 13.752C64.5137 13.7972 64.4685 13.8537 64.4233 13.9215C64.4007 13.9893 64.3442 14.0458 64.2537 14.091C64.1407 14.0684 64.0051 14.0571 63.8469 14.0571C63.6887 14.0571 63.5417 14.0571 63.4061 14.0571C63.0671 14.0571 62.7619 14.1475 62.4907 14.3284C62.4003 14.4188 62.3099 14.4866 62.2194 14.5318C62.129 14.5544 62.0386 14.5883 61.9482 14.6335C61.8126 14.7691 61.7674 14.9047 61.8126 15.0404V15.6846C61.8352 15.888 61.8578 16.0914 61.8804 16.2948C61.9256 16.4757 61.9369 16.6791 61.9143 16.9051C61.8917 16.9503 61.8917 17.0181 61.9143 17.1086C61.9369 17.1764 61.9595 17.2329 61.9821 17.2781C61.9595 17.3685 61.9256 17.4476 61.8804 17.5154C61.8578 17.5606 61.8352 17.6284 61.8126 17.7188C61.8352 17.8093 61.8578 17.8997 61.8804 17.9901C61.903 18.0579 61.9256 18.137 61.9482 18.2274C61.9482 18.3404 61.9369 18.4195 61.9143 18.4648C61.8691 18.6004 61.8239 18.736 61.7787 18.8716C61.7561 19.0072 61.7222 19.1428 61.677 19.2785C61.6092 19.4367 61.5979 19.5836 61.6431 19.7192C61.6883 19.8548 61.677 19.9905 61.6092 20.1261C61.6092 20.6008 61.5866 21.0641 61.5414 21.5162C61.4961 21.9682 61.4622 22.4203 61.4396 22.8724C61.4396 23.4601 61.5414 24.059 61.7448 24.6693C61.8352 24.8728 61.9821 24.9745 62.1855 24.9745C62.2307 24.9519 62.276 24.918 62.3212 24.8728C62.389 24.8276 62.4568 24.7936 62.5246 24.771C62.5924 24.771 62.6489 24.7936 62.6941 24.8389C62.8749 25.0423 63.0784 25.1779 63.3044 25.2457C63.6661 25.3361 63.7678 25.517 63.6095 25.7882C63.5417 25.9464 63.5078 26.1159 63.5078 26.2968C63.5304 26.4776 63.5304 26.6584 63.5078 26.8392C63.4626 27.3365 63.44 27.8451 63.44 28.365C63.44 28.8622 63.4739 29.3708 63.5417 29.8907C63.5417 30.1393 63.5191 30.2975 63.4739 30.3653C63.4513 30.4558 63.3157 30.5914 63.0671 30.7722H62.9654C62.7845 30.7496 62.6037 30.727 62.4229 30.7044C62.2647 30.6818 62.1064 30.6592 61.9482 30.6366C61.5187 30.7044 61.1345 30.7383 60.7954 30.7383C60.6372 30.7609 60.479 30.7948 60.3208 30.84C60.1852 30.9078 60.0269 30.9304 59.8461 30.9078C59.6653 30.8626 59.4845 30.8626 59.3036 30.9078C59.1228 30.953 58.942 30.9756 58.7612 30.9756C58.6707 30.9304 58.5803 30.8965 58.4899 30.8739C58.4221 30.8513 58.3317 30.8174 58.2187 30.7722C57.6762 30.8626 57.1337 30.9191 56.5913 30.9417C56.0488 30.9643 55.495 30.9869 54.9299 31.0095C54.8169 30.8513 54.7039 30.7044 54.5909 30.5688C54.4779 30.4558 54.3761 30.3314 54.2857 30.1958C54.2405 30.0376 54.1501 29.902 54.0145 29.789C53.9015 29.6759 53.7885 29.5742 53.6754 29.4838C53.6528 29.2578 53.6076 29.0431 53.5398 28.8396C53.4946 28.6588 53.4946 28.478 53.5398 28.2971C53.6076 28.1841 53.6302 28.0711 53.6076 27.9581C53.5624 27.7547 53.5511 27.5512 53.5737 27.3478C53.6189 27.1218 53.6641 26.907 53.7093 26.7036V26.2968C53.8902 26.2516 54.071 26.2177 54.2518 26.195C54.4326 26.1498 54.6135 26.1498 54.7943 26.195C54.8847 26.1498 54.9638 26.1046 55.0316 26.0594C55.0994 25.9916 55.1786 25.9238 55.269 25.856C55.382 25.9012 55.495 25.9464 55.608 25.9916C55.721 26.0368 55.8453 26.082 55.981 26.1272C56.207 25.9916 56.4669 25.8108 56.7608 25.5848C56.806 25.4491 56.8286 25.3474 56.8286 25.2796C56.8286 25.031 56.8286 24.7823 56.8286 24.5337C56.8286 24.2625 56.8399 24.0025 56.8625 23.7539V23.6522C56.7721 23.4262 56.7382 23.2114 56.7608 23.008C56.7834 22.8046 56.7834 22.5898 56.7608 22.3638V21.923C56.806 21.4032 56.8173 20.8946 56.7947 20.3973C56.7947 19.8775 56.7834 19.3576 56.7608 18.8377L56.9981 18.3969C56.9755 18.2839 56.9529 18.1709 56.9303 18.0579C56.9077 17.9449 56.8851 17.8319 56.8625 17.7188C56.8851 17.6058 56.9077 17.5041 56.9303 17.4137C56.9755 17.3233 57.0094 17.2216 57.032 17.1086C57.032 17.0181 57.0207 16.9503 56.9981 16.9051C56.8851 16.6339 56.8399 16.3853 56.8625 16.1592V15.6507C56.8625 15.5602 56.8399 15.4924 56.7947 15.4472C56.7495 15.3794 56.7269 15.3003 56.7269 15.2099C56.7495 15.1647 56.7608 15.063 56.7608 14.9047C56.7382 14.7691 56.7156 14.6335 56.693 14.4979C56.6704 14.3623 56.6365 14.2267 56.5913 14.091C56.4782 13.978 56.3539 13.9441 56.2183 13.9893C56.0827 14.0119 55.9584 14.0119 55.8453 13.9893C55.7323 13.9441 55.608 13.9215 55.4724 13.9215C55.3368 13.9215 55.1899 13.9215 55.0316 13.9215C54.8734 13.8311 54.6926 13.7972 54.4892 13.8198C54.3083 13.8198 54.1275 13.7859 53.9467 13.7181C53.8563 13.6051 53.8111 13.4694 53.8111 13.3112C53.8337 13.153 53.8111 13.04 53.7432 12.9722C53.698 12.8818 53.698 12.7687 53.7432 12.6331C53.7885 12.4749 53.7885 12.3393 53.7432 12.2263C53.8337 12.1132 53.845 12.0341 53.7771 11.9889C53.7093 11.9437 53.7093 11.8533 53.7771 11.7177C53.845 11.6047 53.8789 11.4804 53.8789 11.3447C53.8789 11.1865 53.9241 11.0622 54.0145 10.9718C54.0597 10.9266 54.071 10.8588 54.0484 10.7684C54.0484 10.6553 54.0597 10.5536 54.0823 10.4632C54.1275 10.418 54.2292 10.3954 54.3874 10.3954C54.5457 10.3728 54.6361 10.3389 54.6587 10.2937C54.7491 10.1807 54.8508 10.1016 54.9638 10.0564C55.0994 10.0112 55.2351 9.95464 55.3707 9.88683C55.4159 9.88683 55.4724 9.88683 55.5402 9.88683C55.608 9.86423 55.6871 9.85293 55.7775 9.85293C55.9584 9.85293 56.1505 9.85293 56.3539 9.85293C56.5573 9.85293 56.7495 9.84163 56.9303 9.81902C57.1111 9.77382 57.292 9.73991 57.4728 9.71731C57.6536 9.6721 57.8457 9.6382 58.0492 9.61559C58.2526 9.57039 58.456 9.58169 58.6594 9.6495C58.9533 9.73991 59.3149 9.72861 59.7444 9.61559C59.8348 9.59299 59.9139 9.57039 59.9817 9.54778C60.0495 9.52518 60.106 9.50258 60.1513 9.47998C60.3095 9.50258 60.4451 9.52518 60.5581 9.54778C60.6937 9.57039 60.8067 9.58169 60.8972 9.58169C60.965 9.58169 61.0328 9.57039 61.1006 9.54778C61.191 9.52518 61.2588 9.51388 61.304 9.51388C61.5301 9.51388 61.7335 9.52518 61.9143 9.54778C62.1177 9.54778 62.3212 9.57039 62.5246 9.61559C62.9541 9.6834 63.3383 9.70601 63.6774 9.6834C63.7904 9.6608 63.8808 9.6608 63.9486 9.6834C64.039 9.6834 64.0955 9.6834 64.1181 9.6834C64.2763 9.70601 64.3894 9.76252 64.4572 9.85293C64.5476 9.92074 64.6154 9.97725 64.6606 10.0225C65.0222 10.3841 65.1014 10.7571 64.8979 11.1413C64.8753 11.1639 64.864 11.243 64.864 11.3786C64.8866 11.4239 64.8979 11.4804 64.8979 11.5482C64.9205 11.5934 64.9431 11.6612 64.9657 11.7516Z" fill="#FF355A"/>
<path d="M85.936 10.4252C85.9134 10.5608 85.8795 10.6964 85.8343 10.8321C85.789 10.9677 85.7438 11.1033 85.6986 11.2389C85.676 11.3293 85.6647 11.465 85.6647 11.6458C85.5969 11.7136 85.5291 11.7927 85.4613 11.8831C85.4161 11.9509 85.3483 12.0413 85.2579 12.1543C85.2579 12.2448 85.2353 12.3804 85.1901 12.5612C85.0996 12.629 85.0092 12.6968 84.9188 12.7646C84.8284 12.8324 84.7267 12.9003 84.6137 12.9681C84.5911 13.0585 84.5572 13.1489 84.512 13.2393C84.4668 13.3071 84.4216 13.3975 84.3764 13.5105C84.1277 13.7366 83.9017 13.9852 83.6982 14.2564C83.5174 14.5277 83.3027 14.7876 83.0541 15.0363C82.9184 15.0815 82.7828 15.0363 82.6472 14.9006C82.5116 14.765 82.3647 14.6407 82.2064 14.5277C82.0708 14.3921 81.9126 14.2791 81.7318 14.1886C81.664 14.1434 81.6188 14.1095 81.5962 14.0869C81.5735 14.0643 81.5396 14.0304 81.4944 13.9852C81.404 13.9852 81.3023 13.9626 81.1893 13.9174C81.0989 13.8722 81.0085 13.8383 80.9181 13.8157C80.805 13.7931 80.7033 13.7479 80.6129 13.6801C80.5225 13.6123 80.4321 13.5444 80.3417 13.4766L79.9687 13.0698C79.7427 13.115 79.528 13.0924 79.3245 13.002C79.1437 12.9116 78.9403 12.8211 78.7142 12.7307C78.556 12.7533 78.3978 12.7646 78.2396 12.7646C78.0814 12.7646 77.9118 12.7759 77.731 12.7985C77.5728 12.889 77.4146 12.9907 77.2563 13.1037C77.0981 13.2167 76.9399 13.3297 76.7817 13.4427C76.5782 13.601 76.3748 13.7479 76.1714 13.8835C75.9906 13.9965 75.7758 14.0756 75.5272 14.1208C75.5046 14.1208 75.4707 14.1434 75.4255 14.1886C75.3803 14.2112 75.3351 14.2338 75.2899 14.2564C75.1994 14.3469 75.0977 14.4599 74.9847 14.5955C74.8943 14.7311 74.8039 14.8554 74.7135 14.9685C74.6005 15.3075 74.51 15.6126 74.4422 15.8839C74.4648 15.9743 74.4761 16.0534 74.4761 16.1212C74.4987 16.189 74.5213 16.2568 74.544 16.3246C74.544 16.4603 74.4761 16.5846 74.3405 16.6976C74.2727 16.788 74.1936 16.8671 74.1032 16.9349C74.0354 16.9801 73.9789 17.0705 73.9337 17.2062L74.171 17.5791C74.1936 17.6695 74.1597 17.7599 74.0693 17.8504C74.0015 17.9408 73.945 18.0425 73.8998 18.1555C73.8998 18.1781 73.8885 18.1894 73.8659 18.1894C73.8433 18.1894 73.8319 18.2007 73.8319 18.2233C73.8772 18.3815 73.9111 18.5624 73.9337 18.7658C73.9789 18.9466 74.0128 19.1274 74.0354 19.3083C74.2614 19.4891 74.4535 19.6812 74.6118 19.8846C74.7926 20.0881 74.9621 20.3028 75.1203 20.5288C75.2333 20.6645 75.3464 20.7888 75.4594 20.9018C75.595 21.0148 75.7193 21.1278 75.8323 21.2408C76.0584 21.3539 76.2844 21.4669 76.5104 21.5799C76.7591 21.6703 76.9964 21.7381 77.2224 21.7833C77.4033 21.8059 77.5615 21.8624 77.6971 21.9528C77.8553 22.0207 78.0361 22.0885 78.2396 22.1563C78.443 22.1563 78.669 22.1676 78.9177 22.1902C79.1663 22.1902 79.4149 22.1902 79.6636 22.1902C79.8218 22.1902 79.9235 22.1789 79.9687 22.1563C80.2174 22.0885 80.4547 22.0546 80.6807 22.0546C80.9068 22.032 81.1328 21.9867 81.3588 21.9189C81.6075 21.8737 81.8448 21.8398 82.0708 21.8172C82.3195 21.7946 82.5568 21.772 82.7828 21.7494C82.828 21.7494 82.8845 21.7268 82.9523 21.6816C83.0428 21.6364 83.1219 21.6364 83.1897 21.6816C83.2801 21.772 83.3479 21.8624 83.3931 21.9528C83.4383 22.0433 83.4948 22.145 83.5626 22.258C83.54 22.3258 83.5287 22.4162 83.5287 22.5292C83.5287 22.6196 83.5287 22.7213 83.5287 22.8344C84.026 23.6707 84.399 24.6313 84.6476 25.7163C84.3085 25.9649 83.9695 26.2248 83.6304 26.4961C83.314 26.7447 82.975 27.016 82.6133 27.3098C82.4551 27.3776 82.2742 27.4228 82.0708 27.4454C81.89 27.4454 81.7431 27.5358 81.6301 27.7167C81.5396 27.6715 81.4492 27.6376 81.3588 27.6149C81.291 27.5923 81.2345 27.5697 81.1893 27.5471C81.0989 27.5697 81.0424 27.6149 81.0198 27.6828C80.9972 27.7506 80.9633 27.8071 80.9181 27.8523C80.7824 27.7845 80.6581 27.7167 80.5451 27.6489C80.5225 27.6715 80.466 27.6941 80.3756 27.7167C80.3078 27.7393 80.2513 27.7619 80.2061 27.7845C79.98 27.8297 79.7653 27.8749 79.5619 27.9201C79.3584 27.9879 79.1437 28.0218 78.9177 28.0218C78.7595 28.0218 78.5786 28.0218 78.3752 28.0218C78.1718 28.0444 77.9796 28.067 77.7988 28.0896C77.7536 28.0896 77.6971 28.0783 77.6293 28.0557C77.5615 28.0557 77.4824 28.0444 77.392 28.0218C77.0981 27.9314 76.906 27.8636 76.8156 27.8184C76.7252 27.7732 76.533 27.6602 76.2392 27.4793C76.0584 27.4567 75.9228 27.5132 75.8323 27.6489C75.7645 27.8071 75.6741 27.8862 75.5611 27.8862H75.1542C74.9734 27.8184 74.7926 27.7506 74.6118 27.6828C74.4309 27.6149 74.2388 27.5697 74.0354 27.5471C73.8772 27.5245 73.7302 27.4906 73.5946 27.4454C73.4816 27.3776 73.346 27.3211 73.1878 27.2759C73.0295 27.1403 72.86 27.0047 72.6792 26.869C72.521 26.7108 72.3514 26.5865 72.1706 26.4961C72.0124 26.4283 71.8542 26.3379 71.6959 26.2248C71.5603 26.0892 71.436 25.9536 71.323 25.818C71.2326 25.6824 71.1309 25.5807 71.0179 25.5128C70.9048 25.4224 70.8031 25.3207 70.7127 25.2077C70.5545 24.9591 70.3624 24.733 70.1363 24.5296C70.0233 24.4166 69.9216 24.3036 69.8312 24.1906C69.7634 24.0549 69.673 23.9306 69.5599 23.8176C69.4921 23.5012 69.4243 23.1847 69.3565 22.8683C69.3113 22.5518 69.2661 22.2241 69.2209 21.885C69.1757 21.8398 69.1192 21.772 69.0514 21.6816C69.0062 21.5686 68.9384 21.4669 68.8479 21.3765C68.8253 21.1956 68.7914 21.0035 68.7462 20.8001C68.701 20.574 68.6219 20.3706 68.5089 20.1898C68.5315 20.0994 68.5654 19.9864 68.6106 19.8507C68.6106 19.7377 68.6106 19.6812 68.6106 19.6812C68.4298 19.1839 68.3733 18.7093 68.4411 18.2572C68.4863 17.9408 68.5202 17.613 68.5428 17.274C68.588 16.9123 68.6219 16.562 68.6445 16.2229C68.7123 16.1777 68.7688 16.1325 68.814 16.0873C68.8818 16.0421 68.9497 15.9969 69.0175 15.9517C68.7462 15.5222 68.7462 15.0476 69.0175 14.5277C68.9045 14.3017 68.8479 14.1208 68.8479 13.9852C68.8479 13.8496 68.8479 13.7818 68.8479 13.7818C68.9384 13.6914 69.0175 13.601 69.0853 13.5105C69.1531 13.4201 69.2322 13.3297 69.3226 13.2393C69.5034 13.0811 69.6617 12.889 69.7973 12.6629C69.8651 12.5499 69.9216 12.4256 69.9668 12.29C70.0346 12.1544 70.0572 12.03 70.0346 11.917C70.2154 11.804 70.3963 11.7249 70.5771 11.6797C70.7805 11.6119 70.9387 11.5102 71.0518 11.3745C71.0744 11.3519 71.097 11.3067 71.1196 11.2389C71.1196 11.1711 71.1083 11.092 71.0857 11.0016C71.0857 10.9112 71.0857 10.8095 71.0857 10.6964C71.1535 10.606 71.21 10.4817 71.2552 10.3235C71.4134 10.2331 71.549 10.1653 71.662 10.1201C71.7751 10.0749 71.8881 10.0183 72.0011 9.95054C72.0463 9.90533 72.0802 9.86012 72.1028 9.81492C72.148 9.76971 72.1819 9.72451 72.2045 9.6793C72.4305 9.31765 72.7131 9.05771 73.0521 8.89949C73.1878 8.85428 73.3234 8.79777 73.459 8.72997C73.5946 8.66216 73.7189 8.60565 73.8319 8.56044C73.8998 8.51523 73.9563 8.47003 74.0015 8.42482C74.0693 8.35701 74.1371 8.3005 74.2049 8.2553C74.3631 8.21009 74.5326 8.15358 74.7135 8.08577C74.8717 8.01796 75.0299 7.95015 75.1881 7.88234C75.369 7.81454 75.5498 7.76933 75.7306 7.74672C75.8888 7.70152 76.0358 7.64501 76.1714 7.5772C76.3296 7.50939 76.4765 7.46418 76.6121 7.44158C76.7252 7.39637 76.8156 7.40768 76.8834 7.47549C76.9738 7.52069 77.0642 7.5659 77.1546 7.61111H77.8666C77.9796 7.5659 78.0587 7.50939 78.104 7.44158C78.1492 7.35117 78.217 7.29466 78.3074 7.27206C78.6238 7.20425 78.8612 7.15904 79.0194 7.13644C79.1776 7.11383 79.381 7.11383 79.6297 7.13644C79.8783 7.13644 80.2513 7.15904 80.7485 7.20425C80.8615 7.22685 80.952 7.27206 81.0198 7.33987C81.1102 7.40768 81.2119 7.45288 81.3249 7.47549C81.4831 7.47549 81.6301 7.49809 81.7657 7.5433C81.9239 7.5659 82.0821 7.5998 82.2403 7.64501C82.4438 7.80323 82.6585 7.95015 82.8845 8.08577C83.1106 8.19879 83.3705 8.2666 83.6644 8.2892C83.8 8.51523 83.9695 8.69606 84.1729 8.83168C84.3989 8.9673 84.625 9.09162 84.851 9.20463C85.0544 9.31765 85.2466 9.45327 85.4274 9.61149C85.6082 9.76971 85.7777 9.93924 85.936 10.1201C85.936 10.1653 85.936 10.2218 85.936 10.2896C85.9586 10.3348 85.9586 10.38 85.936 10.4252Z" fill="#FFA500"/>
<path d="M14.9181 7.42226C14.9181 7.60309 14.839 7.7161 14.6808 7.76131C14.4095 7.78391 14.1496 7.87433 13.901 8.03255C13.6749 8.16817 13.4376 8.26988 13.189 8.33769C12.8951 8.31509 12.6126 8.32639 12.3414 8.3716C12.0701 8.4168 11.7763 8.4055 11.4598 8.33769C11.4146 8.3829 11.3581 8.4281 11.2903 8.47331C11.2225 8.51852 11.1547 8.56372 11.0869 8.60893C10.9965 8.60893 10.8947 8.62023 10.7817 8.64283C10.6687 8.66544 10.5557 8.67674 10.4427 8.67674H9.59506C9.41424 8.67674 9.23341 8.68804 9.05258 8.71064C8.87176 8.71064 8.69093 8.69934 8.51011 8.67674C8.30668 8.67674 8.12585 8.72195 7.96763 8.81236C7.80941 8.88017 7.63988 8.91407 7.45906 8.91407C7.36865 8.91407 7.28954 8.92537 7.22173 8.94798C7.15392 8.94798 7.08611 8.95928 7.0183 8.98188C6.86007 8.93668 6.70185 8.90277 6.54363 8.88017C6.40801 8.83496 6.26109 8.89147 6.10287 9.04969C5.98985 9.43395 5.88814 9.8295 5.79772 10.2364C5.72991 10.6432 5.67341 11.0388 5.6282 11.423C5.56039 11.8299 5.56039 12.2141 5.6282 12.5758C5.6508 12.621 5.6621 12.6662 5.6621 12.7114C5.68471 12.7566 5.70731 12.8018 5.72991 12.847H6.74706C6.90528 12.9148 7.0635 12.994 7.22173 13.0844C7.40255 13.1748 7.58338 13.2765 7.7642 13.3895C7.80941 13.4121 7.86592 13.4347 7.93373 13.4573C8.02414 13.4573 8.11455 13.4686 8.20496 13.4912C8.27277 13.5138 8.35189 13.5364 8.4423 13.559C8.53271 13.5816 8.62312 13.6155 8.71354 13.6607C8.87176 13.6607 9.01868 13.6155 9.1543 13.5251C9.28992 13.4347 9.43684 13.3782 9.59506 13.3556H9.76459C9.8776 13.3556 9.97932 13.3669 10.0697 13.3895C10.1827 13.4121 10.2845 13.4121 10.3749 13.3895C10.6687 13.3217 10.9626 13.3217 11.2564 13.3895C11.5502 13.4347 11.8328 13.4573 12.104 13.4573C12.2848 13.4573 12.4544 13.4912 12.6126 13.559C12.7934 13.6268 12.9629 13.706 13.1212 13.7964C13.2116 14.5649 13.2455 15.3447 13.2229 16.1358C13.2229 16.9043 13.2116 17.6728 13.189 18.4413C13.189 18.5317 13.1551 18.5882 13.0873 18.6109C13.0194 18.6335 12.9516 18.6335 12.8838 18.6109C12.8386 18.5882 12.7821 18.5656 12.7143 18.543C12.6691 18.5204 12.6013 18.4978 12.5109 18.4752H10.5444C10.341 18.4526 10.1488 18.4526 9.96802 18.4752C9.80979 18.4978 9.64027 18.4978 9.45944 18.4752C9.27862 18.4526 9.09779 18.4413 8.91697 18.4413C8.73614 18.4187 8.54401 18.3961 8.34058 18.3735C8.18236 18.3509 8.01284 18.3396 7.83201 18.3396C7.65119 18.3396 7.45906 18.3283 7.25563 18.3057C7.14261 18.3057 7.0183 18.2831 6.88268 18.2379C6.76966 18.1927 6.65664 18.1588 6.54363 18.1362C6.38541 18.1588 6.26109 18.2153 6.17068 18.3057C6.10287 18.3961 6.01245 18.4865 5.89944 18.5769C5.87683 18.6222 5.84293 18.69 5.79772 18.7804C5.77512 18.8482 5.74122 18.916 5.69601 18.9838C5.71861 19.0516 5.72991 19.1307 5.72991 19.2211C5.84293 19.3568 5.91074 19.515 5.93334 19.6958C5.97855 19.854 6.00115 20.0236 6.00115 20.2044C6.00115 20.4756 6.01245 20.7469 6.03506 21.0181C6.08026 21.2893 6.08026 21.5606 6.03506 21.8318C6.03506 22.0578 6.03506 22.2839 6.03506 22.5099C6.05766 22.7359 6.11417 22.9507 6.20458 23.1541C6.22718 23.1993 6.23849 23.2784 6.23849 23.3914C6.10287 23.7079 5.92204 24.013 5.69601 24.3069C5.46998 24.4651 5.24395 24.5668 5.01791 24.612C4.81448 24.6798 4.58845 24.7702 4.33982 24.8832C4.2494 24.8606 4.14769 24.8493 4.03467 24.8493C3.94426 24.8493 3.84255 24.8493 3.72953 24.8493C3.63912 24.8719 3.4922 24.9511 3.28877 25.0867H2.136C1.95518 25.0867 1.76305 25.0867 1.55962 25.0867C1.3788 25.1093 1.17537 25.1206 0.949335 25.1206C0.723303 25.1206 0.56508 25.0189 0.474667 24.8154C0.452064 24.725 0.440763 24.6233 0.440763 24.5103C0.440763 24.3973 0.429461 24.273 0.406858 24.1373C0.339048 24.0243 0.28254 23.9226 0.237334 23.8322C0.192127 23.7192 0.146921 23.6175 0.101714 23.5271C0.0791112 23.3914 0.056508 23.2558 0.0339048 23.1202C0.0339048 22.9846 0.0226032 22.8603 0 22.7472C0.0678096 22.5438 0.124318 22.3517 0.169524 22.1709C0.237334 21.99 0.305143 21.7979 0.372953 21.5945C0.28254 21.0746 0.226032 20.5434 0.203429 20.0009C0.180826 19.4359 0.21473 18.8708 0.305143 18.3057C0.305143 18.1927 0.28254 18.0684 0.237334 17.9328C0.21473 17.7971 0.237334 17.6502 0.305143 17.492C0.440763 17.2434 0.440763 17.006 0.305143 16.78C0.28254 16.6218 0.259937 16.4635 0.237334 16.3053C0.237334 16.1471 0.259937 15.9889 0.305143 15.8307C0.35035 15.7628 0.372953 15.6837 0.372953 15.5933C0.372953 15.5029 0.372953 15.4125 0.372953 15.3221C0.395556 15.2091 0.384255 15.0847 0.339048 14.9491C0.293842 14.8135 0.28254 14.6779 0.305143 14.5423C0.35035 14.4293 0.372953 14.3162 0.372953 14.2032C0.395556 14.0676 0.406858 13.932 0.406858 13.7964C0.406858 13.6381 0.418159 13.4799 0.440763 13.3217C0.463366 13.1635 0.497271 13.0166 0.542477 12.8809C0.519874 12.7227 0.497271 12.5871 0.474667 12.4741C0.474667 12.3385 0.463366 12.2028 0.440763 12.0672C0.553779 11.8186 0.610287 11.57 0.610287 11.3213C0.63289 11.0501 0.644192 10.7788 0.644192 10.5076C0.644192 10.3268 0.644192 10.1459 0.644192 9.96512C0.644192 9.7843 0.655493 9.61477 0.678096 9.45655C0.700699 9.27572 0.712001 9.1062 0.712001 8.94798C0.734604 8.76715 0.745906 8.59763 0.745906 8.43941C0.745906 8.3942 0.734604 8.34899 0.712001 8.30379C0.712001 8.23598 0.723303 8.17947 0.745906 8.13426C0.836319 7.95344 0.870223 7.78391 0.84762 7.62569C0.84762 7.44486 0.858922 7.27534 0.881525 7.11712C0.881525 6.9815 0.881525 6.84588 0.881525 6.71026C0.904128 6.55204 0.926732 6.40512 0.949335 6.2695C0.926732 6.15648 0.892827 6.03216 0.84762 5.89655C0.802414 5.76093 0.768509 5.64791 0.745906 5.5575C0.768509 5.44448 0.791112 5.33146 0.813715 5.21845C0.858922 5.10543 0.881525 4.99242 0.881525 4.8794C0.904128 4.60816 1.08495 4.42734 1.424 4.33692C1.83086 4.2013 2.26032 4.09959 2.71239 4.03178C2.87061 4.03178 2.99493 3.98657 3.08534 3.89616C3.17575 3.85095 3.27747 3.82835 3.39048 3.82835C3.5261 3.85095 3.66172 3.85095 3.79734 3.82835C3.95556 3.80575 4.11378 3.78314 4.27201 3.76054C4.45283 3.64753 4.65626 3.59102 4.88229 3.59102C5.31175 3.56841 5.74122 3.51191 6.17068 3.42149C6.60014 3.33108 7.0296 3.27457 7.45906 3.25197C7.68509 3.22937 7.89982 3.21806 8.10325 3.21806C8.30668 3.19546 8.52141 3.21806 8.74744 3.28587C8.92827 3.30848 9.10909 3.33108 9.28992 3.35368C9.47074 3.35368 9.65157 3.35368 9.8324 3.35368C9.92281 3.35368 10.0132 3.35368 10.1036 3.35368C10.194 3.33108 10.2845 3.31978 10.3749 3.31978C10.6913 3.29718 10.9287 3.29718 11.0869 3.31978C11.2451 3.31978 11.4033 3.33108 11.5615 3.35368C11.7198 3.37629 11.9571 3.42149 12.2735 3.4893C12.4318 3.51191 12.5787 3.53451 12.7143 3.55711C12.8725 3.55711 13.0194 3.57972 13.1551 3.62492C13.4037 3.73794 13.6749 3.81705 13.9688 3.86226C14.0818 3.88486 14.1722 3.93007 14.24 3.99787C14.3078 4.04308 14.3643 4.08829 14.4095 4.13349C14.5 4.49515 14.5 4.8455 14.4095 5.18454C14.4774 5.38797 14.5452 5.62531 14.613 5.89655C14.613 5.91915 14.6017 5.97566 14.5791 6.06607C14.5791 6.13388 14.5791 6.19039 14.5791 6.23559C14.5791 6.34861 14.5904 6.41642 14.613 6.43902C14.6582 6.52943 14.7034 6.63115 14.7486 6.74417C14.7938 6.83458 14.8277 6.92499 14.8503 7.0154C14.8955 7.08321 14.9181 7.15102 14.9181 7.21883C14.9181 7.28664 14.9181 7.35445 14.9181 7.42226Z" fill="#FF6600"/>
<path d="M58.5988 7.66573C58.6068 7.65534 58.6154 7.64952 58.6247 7.64826L58.6127 7.66385C58.6521 7.67711 58.6854 7.71447 58.7126 7.77594C58.7305 7.83866 58.7598 7.88122 58.8005 7.90362C58.8134 7.92978 58.8513 7.96651 58.9142 8.01382C58.9771 8.06113 59.0218 8.07833 59.0482 8.06543C59.1738 8.02044 59.3263 7.99974 59.5055 8.00332C59.5369 8.02697 59.5684 8.05062 59.5998 8.07428C59.6312 8.09793 59.6726 8.1249 59.7237 8.15518C59.7329 8.15393 59.7428 8.15724 59.7533 8.16513C59.7625 8.16387 59.7764 8.16199 59.7948 8.15948C59.8238 8.16486 59.866 8.16378 59.9214 8.15625C60.2158 8.10696 60.5142 8.12228 60.8167 8.20219C60.8839 8.21169 60.955 8.21598 61.0302 8.21508C61.1041 8.20505 61.1761 8.1813 61.2463 8.14385C61.298 8.1089 61.3515 8.08766 61.407 8.08013C61.4519 8.06472 61.5027 8.05782 61.5594 8.05943C61.6795 8.04312 61.7925 8.00916 61.8984 7.95755C61.9458 7.96041 61.9978 7.96265 62.0545 7.96426C62.1019 7.96713 62.15 7.97456 62.1987 7.98657C62.2473 7.99857 62.2966 8.01515 62.3465 8.03629C62.3977 8.06657 62.4504 8.07338 62.5046 8.05671C62.5113 8.03718 62.5227 8.01702 62.5387 7.99623C62.5534 7.96631 62.5676 7.93181 62.5811 7.89274C62.5983 7.88109 62.6202 7.86882 62.6466 7.85591C62.6719 7.83387 62.6931 7.81703 62.7103 7.80538C62.8279 7.77079 62.9332 7.71461 63.0261 7.63683C63.1523 7.52662 63.2769 7.43988 63.4 7.37662C63.4622 7.34956 63.5133 7.31004 63.5533 7.25807C63.5828 7.19822 63.6182 7.14688 63.6594 7.10405C63.6839 7.00764 63.7044 6.91642 63.721 6.83041C63.7375 6.74439 63.7442 6.65506 63.741 6.56241C63.7663 6.54037 63.7869 6.51895 63.8029 6.49817C63.8176 6.46824 63.833 6.44288 63.849 6.42209C63.8995 6.37801 63.9228 6.34226 63.9191 6.31484C63.9172 6.23133 63.9362 6.1636 63.9762 6.11163C64.0162 6.05966 64.049 5.99004 64.0748 5.90276C64.0723 5.88449 64.0732 5.85644 64.0775 5.81863C64.0725 5.78207 64.0722 5.74489 64.0765 5.70708C64.074 5.6888 64.0709 5.66595 64.0672 5.63853C64.0622 5.60198 64.0631 5.57393 64.0698 5.5544C64.0969 5.47627 64.1245 5.4027 64.1528 5.33371C64.1798 5.25558 64.2028 5.18264 64.2218 5.11491C64.2156 5.06921 64.1971 5.00192 64.1662 4.91304C64.0939 4.72739 64.0731 4.53941 64.1037 4.3491C64.1227 4.28136 64.1325 4.21487 64.1331 4.14965C64.1336 4.08442 64.1388 4.01856 64.1486 3.95208C64.1368 3.93505 64.1245 3.91346 64.1115 3.8873C64.0881 3.85325 64.0659 3.82834 64.0449 3.81257L64.1028 3.51151C64.1151 3.46331 64.1372 3.41842 64.1692 3.37684C64.1907 3.32738 64.2129 3.28249 64.2356 3.24217C64.2349 3.1678 64.2117 3.10114 64.1661 3.04219C64.1112 2.98449 64.0748 2.92427 64.0569 2.86156C64.0532 2.83414 64.0541 2.80609 64.0596 2.77742C64.0559 2.75 64.0521 2.72259 64.0484 2.69517C63.9608 2.60467 63.9004 2.50585 63.867 2.39869C63.8244 2.29278 63.7904 2.18105 63.765 2.0635C63.6954 2.03572 63.6344 2.00212 63.582 1.9627C63.5296 1.92328 63.4892 1.86827 63.4608 1.79766C63.4478 1.7715 63.4389 1.74014 63.4339 1.70358C63.4197 1.66828 63.4055 1.63298 63.3913 1.59768C63.3352 1.53084 63.2791 1.464 63.2229 1.39716C63.1563 1.32243 63.0956 1.25622 63.0407 1.19852C63.016 1.15533 62.9954 1.10695 62.9787 1.05337C62.9528 1.00104 62.9188 0.959111 62.8769 0.927573C62.827 0.906429 62.7897 0.874263 62.765 0.831077C62.7311 0.789145 62.7018 0.746586 62.6771 0.7034C62.6112 0.703043 62.5539 0.696863 62.5053 0.684858C62.4566 0.672853 62.4132 0.66479 62.375 0.66067C62.325 0.639526 62.2982 0.615245 62.2945 0.587827C62.2494 0.463643 62.1816 0.379779 62.091 0.336237C61.9899 0.284809 61.8821 0.252915 61.7675 0.240554C61.7293 0.236434 61.6964 0.236256 61.6687 0.24002C61.6397 0.234644 61.6015 0.230524 61.5541 0.227658C61.5331 0.211889 61.5069 0.192178 61.4755 0.168525C61.4428 0.135732 61.4101 0.102939 61.3775 0.0701466C61.3195 0.0593966 61.2663 0.0480191 61.2176 0.0360139C61.1597 0.025264 61.111 0.0132593 61.0716 0L60.9746 0.0131743C60.9044 0.0506291 60.8342 0.0880841 60.764 0.125539C60.6834 0.15511 60.5987 0.189877 60.5101 0.229842C60.4349 0.230741 60.3592 0.227069 60.2828 0.218828C60.1959 0.202703 60.1168 0.208799 60.0454 0.237115C60.0361 0.238369 60.0275 0.244193 60.0195 0.254587C60.0103 0.255842 60.0004 0.252527 59.9899 0.244643C59.9253 0.253426 59.8594 0.253069 59.7922 0.243574C59.7251 0.234078 59.6598 0.238291 59.5964 0.256213C59.5409 0.263742 59.4849 0.2667 59.4282 0.265089C59.3623 0.264733 59.2998 0.25461 59.2406 0.234721C59.1932 0.231855 59.151 0.232932 59.1141 0.237951C59.0666 0.235085 59.0211 0.245928 58.9774 0.27048C58.9534 0.301662 58.9294 0.332843 58.9054 0.364025C58.8802 0.386067 58.8515 0.417876 58.8196 0.459452C58.7469 0.478629 58.6709 0.507572 58.5914 0.546282C58.5016 0.577107 58.4123 0.612502 58.3236 0.652467C58.2787 0.667879 58.2402 0.696373 58.2082 0.737949C58.167 0.780779 58.1153 0.815725 58.0531 0.842786C58.0002 0.868593 57.9466 0.88983 57.8924 0.906497C57.8278 0.91528 57.7631 0.924063 57.6984 0.932846C57.5705 1.09915 57.4086 1.22352 57.2128 1.30596C57.1956 1.31761 57.1784 1.32925 57.1611 1.3409C57.1439 1.35255 57.1267 1.3642 57.1094 1.37585C57.0442 1.44986 56.9843 1.52781 56.9295 1.60971C56.8643 1.68372 56.8037 1.75711 56.7477 1.82986C56.693 1.91176 56.6666 1.99446 56.6685 2.07797C56.6033 2.15198 56.5686 2.20789 56.5643 2.2457C56.5496 2.27563 56.5521 2.36371 56.572 2.50993C56.5203 2.54488 56.4738 2.58377 56.4326 2.6266C56.3901 2.66029 56.3686 2.70975 56.3681 2.77498C56.3546 2.81404 56.341 2.85311 56.3275 2.89218C56.3128 2.9221 56.3033 2.95597 56.299 2.99378C56.2762 3.03411 56.2529 3.06986 56.2289 3.10104C56.1944 3.12434 56.1612 3.15677 56.1292 3.19835C56.1102 3.26609 56.0958 3.3332 56.086 3.39968C56.075 3.45702 56.0837 3.521 56.1121 3.5916C56.1392 3.65307 56.1532 3.72098 56.1538 3.79535C56.1545 3.86972 56.1651 3.9474 56.1855 4.0284C56.2047 4.10026 56.2152 4.17794 56.2172 4.26145C56.2191 4.34496 56.2204 4.4239 56.2211 4.49826C56.2168 4.53608 56.2178 4.57783 56.224 4.62353C56.229 4.66008 56.2287 4.6927 56.2232 4.72137C56.1949 4.79036 56.1851 4.85684 56.1938 4.92082C56.1933 4.98605 56.202 5.05002 56.2199 5.11274C56.2248 5.1493 56.2298 5.18586 56.2348 5.22241C56.2293 5.25108 56.2296 5.28827 56.2358 5.33396C56.2889 5.44775 56.338 5.56674 56.3831 5.69093C56.4269 5.80597 56.484 5.91457 56.5543 6.01671C56.6234 6.10971 56.6925 6.20271 56.7616 6.29572C56.8307 6.38872 56.9084 6.4759 56.9947 6.55725L57.0263 6.7903C57.0763 6.81144 57.1268 6.83716 57.1779 6.86744C57.2186 6.88984 57.254 6.9083 57.2842 6.92281C57.3638 7.0237 57.419 7.11858 57.4499 7.20747C57.4703 7.28846 57.4994 7.36364 57.537 7.43299C57.5789 7.46452 57.6208 7.49606 57.6627 7.5276C57.7047 7.55914 57.7512 7.59005 57.8023 7.62033C57.8535 7.65062 57.9133 7.67507 57.9817 7.69371C58.0396 7.70446 58.1036 7.69111 58.1738 7.65365C58.2545 7.62408 58.3244 7.61924 58.3835 7.63913C58.4217 7.64325 58.4599 7.64737 58.4981 7.65149C58.5363 7.65561 58.5698 7.66036 58.5988 7.66573ZM58.3997 4.53744C58.412 4.48923 58.4202 4.44623 58.4245 4.40841C58.4183 4.36272 58.4167 4.31639 58.4198 4.26944C58.4098 4.19633 58.4064 4.1363 58.4094 4.08935C58.4179 4.01372 58.4351 3.93228 58.4609 3.84501C58.4762 3.74985 58.4967 3.65864 58.5225 3.57137C58.5268 3.53355 58.5403 3.49449 58.563 3.45417C58.5753 3.40596 58.5882 3.36233 58.6017 3.32326C58.6558 3.167 58.7594 3.06449 58.9128 3.01574C58.9392 3.00284 58.9703 2.98931 59.006 2.97515C59.0405 2.95185 59.0703 2.92918 59.0956 2.90714C59.146 2.86306 59.1977 2.82811 59.2507 2.8023C59.3036 2.7765 59.3572 2.75526 59.4114 2.73859C59.4828 2.71028 59.5588 2.68133 59.6395 2.65176C59.7189 2.61305 59.7949 2.58411 59.8676 2.56493C59.9538 2.50669 60.0421 2.49934 60.1327 2.54288C60.3958 2.60954 60.6401 2.71132 60.8657 2.84822C61.09 2.97598 61.2947 3.16691 61.4798 3.42101C61.5125 3.4538 61.5457 3.49117 61.5797 3.5331C61.6044 3.57628 61.629 3.61947 61.6537 3.66266C61.6969 3.70333 61.736 3.74921 61.7712 3.80028C61.8051 3.84221 61.8344 3.88477 61.8591 3.92796C61.8598 4.00233 61.8355 4.06612 61.7863 4.11935C61.7371 4.17257 61.7128 4.23637 61.7135 4.31073C61.7185 4.34729 61.7373 4.38197 61.77 4.41476C61.8014 4.43841 61.8242 4.46789 61.8384 4.50319C61.8249 4.54226 61.8074 4.58652 61.7859 4.63598C61.7644 4.68544 61.7475 4.73427 61.7353 4.78248C61.7137 4.83194 61.7021 4.88471 61.7003 4.9408C61.688 4.98901 61.681 5.04116 61.6792 5.09725C61.6669 5.14545 61.6593 5.19303 61.6563 5.23998C61.644 5.28819 61.6364 5.33576 61.6333 5.38271L61.4598 5.55986C61.4346 5.5819 61.4106 5.61308 61.3878 5.6534C61.3546 5.68584 61.3208 5.71371 61.2863 5.737C61.1792 5.77948 61.0859 5.82007 61.0065 5.85878C60.9351 5.88709 60.8716 5.90502 60.8162 5.91255C60.7608 5.92007 60.7007 5.92823 60.6361 5.93701C60.6361 5.93701 60.6407 5.93639 60.6499 5.93513C60.6499 5.93513 60.6506 5.9397 60.6518 5.94884L60.6241 5.9526C60.6333 5.95135 60.6373 5.94615 60.6361 5.93701C60.6151 5.92124 60.5908 5.91524 60.5631 5.919C60.5341 5.91363 60.5104 5.9122 60.4919 5.91471C60.4365 5.92223 60.3817 5.93433 60.3275 5.951C60.2628 5.95978 60.1976 5.964 60.1316 5.96364C60.1107 5.94787 60.0876 5.95101 60.0624 5.97305C60.0267 5.98721 59.9956 6.00074 59.9691 6.01364C59.9321 6.01866 59.9032 6.01329 59.8822 5.99752C59.8773 5.96096 59.8775 5.92834 59.8831 5.89967C59.8793 5.87225 59.8624 5.85129 59.8322 5.83677C59.7034 5.78911 59.5811 5.75453 59.4653 5.73303C59.4141 5.70275 59.3728 5.67578 59.3414 5.65212C59.3007 5.62973 59.264 5.60213 59.2314 5.56934C59.1919 5.55608 59.1611 5.53699 59.1389 5.51209C59.1075 5.48843 59.0727 5.47455 59.0345 5.47043C58.9476 5.4543 58.8734 5.42715 58.8117 5.38899C58.7396 5.34293 58.6721 5.29625 58.6092 5.24895C58.5975 5.23192 58.591 5.21884 58.5898 5.2097C58.5781 5.19268 58.5664 5.17566 58.5546 5.15863C58.4245 4.96223 58.3728 4.75517 58.3997 4.53744Z" fill="#FF355A"/>
</svg>
