<svg width="164" height="381" viewBox="0 0 164 381" fill="none" xmlns="http://www.w3.org/2000/svg">
<path d="M151.232 100.44C150.72 102.061 150.507 103.597 150.592 105.048C150.677 105.475 150.677 105.944 150.592 106.456C150.507 106.883 150.421 107.309 150.336 107.736C150.251 108.077 150.208 108.504 150.208 109.016C150.293 109.528 150.251 109.955 150.08 110.296C149.909 110.893 149.909 111.491 150.08 112.088C150.251 112.6 150.379 113.112 150.464 113.624C150.293 114.221 150.123 114.904 149.952 115.672C149.781 116.355 149.739 117.123 149.824 117.976C149.824 119 149.696 120.024 149.44 121.048C149.355 121.645 149.355 122.243 149.44 122.84C149.781 123.949 149.909 125.016 149.824 126.04C149.739 127.064 149.525 128.088 149.184 129.112C148.843 129.709 148.672 130.307 148.672 130.904C148.757 131.843 148.629 132.739 148.288 133.592C147.947 134.445 147.563 135.299 147.136 136.152C147.051 136.408 146.88 136.621 146.624 136.792C146.368 136.963 146.155 137.176 145.984 137.432C145.387 139.395 144.917 140.803 144.576 141.656C144.235 142.424 143.595 143.661 142.656 145.368C142.571 145.539 142.4 145.752 142.144 146.008C141.888 146.264 141.675 146.477 141.504 146.648C141.419 146.819 141.291 146.947 141.12 147.032C141.035 147.117 140.992 147.203 140.992 147.288C140.651 148.397 140.139 149.336 139.456 150.104C138.773 150.872 138.091 151.597 137.408 152.28C137.067 152.621 136.768 153.005 136.512 153.432C136.341 153.773 136.085 154.157 135.744 154.584C134.891 155.181 134.08 155.779 133.312 156.376C132.544 156.973 131.733 157.571 130.88 158.168C130.368 158.509 129.856 158.808 129.344 159.064C128.747 159.235 128.149 159.491 127.552 159.832C126.955 160.088 126.357 160.301 125.76 160.472C125.163 160.813 124.565 161.112 123.968 161.368C123.371 161.539 122.773 161.795 122.176 162.136H119.232C118.805 162.307 118.336 162.52 117.824 162.776C117.397 162.947 116.928 162.989 116.416 162.904C115.904 162.819 115.392 162.947 114.88 163.288C114.453 163.544 113.984 163.715 113.472 163.8C113.216 163.715 112.917 163.629 112.576 163.544C112.235 163.459 111.893 163.416 111.552 163.416C111.211 163.672 110.869 163.928 110.528 164.184C110.272 164.355 109.973 164.568 109.632 164.824C109.547 164.824 109.419 164.867 109.248 164.952C109.163 164.952 109.035 164.952 108.864 164.952C108.523 164.952 108.139 164.995 107.712 165.08C107.371 165.08 107.029 165.037 106.688 164.952C106.091 164.611 105.536 164.483 105.024 164.568C104.512 164.653 103.957 164.568 103.36 164.312C102.677 164.141 102.336 163.757 102.336 163.16C102.336 162.392 101.909 161.923 101.056 161.752C100.8 161.752 100.544 161.795 100.288 161.88C100.117 161.88 99.904 161.88 99.648 161.88C99.3067 161.795 99.008 161.624 98.752 161.368C98.496 161.112 98.1973 160.899 97.856 160.728C97.4293 160.387 96.96 160.088 96.448 159.832C95.936 159.491 95.3813 159.277 94.784 159.192C94.272 159.107 93.76 158.979 93.248 158.808C92.8213 158.552 92.3947 158.381 91.968 158.296C91.0293 157.955 90.3467 157.187 89.92 155.992C89.664 154.883 89.1947 153.987 88.512 153.304C88.256 152.963 88.0427 152.664 87.872 152.408C87.7013 152.067 87.5307 151.725 87.36 151.384C87.1893 151.213 87.0187 150.957 86.848 150.616C86.6773 150.275 86.5067 150.061 86.336 149.976C85.4827 149.464 84.8 148.824 84.288 148.056C83.8613 147.288 83.4773 146.477 83.136 145.624C83.0507 145.539 82.9653 145.411 82.88 145.24C82.88 145.069 82.8373 144.941 82.752 144.856C82.1547 144.515 81.856 144.003 81.856 143.32C81.856 142.637 81.7707 141.997 81.6 141.4C81.4293 141.229 81.216 141.016 80.96 140.76C80.704 140.504 80.448 140.205 80.192 139.864C80.0213 139.181 79.808 138.499 79.552 137.816C79.296 137.133 79.0827 136.408 78.912 135.64C78.912 134.275 78.8693 133.293 78.784 132.696C78.784 132.013 78.7413 131.373 78.656 130.776C78.5707 130.093 78.3573 129.155 78.016 127.96C78.016 127.277 78.144 126.595 78.4 125.912C78.7413 125.229 78.8267 124.419 78.656 123.48C78.4 123.053 78.144 122.541 77.888 121.944C77.7173 121.347 77.4613 120.749 77.12 120.152C77.12 119.981 77.0773 119.768 76.992 119.512C76.992 119.256 76.992 119.043 76.992 118.872C77.0773 118.189 77.12 117.549 77.12 116.952C77.12 116.355 77.12 115.757 77.12 115.16C77.12 114.477 77.2053 113.795 77.376 113.112C77.5467 112.344 77.6747 111.661 77.76 111.064C77.9307 110.125 78.0587 109.229 78.144 108.376C78.3147 107.437 78.4853 106.499 78.656 105.56C78.8267 104.195 79.1253 102.829 79.552 101.464C79.9787 100.099 80.448 98.7333 80.96 97.368C81.8987 96.7707 82.752 96.216 83.52 95.704C84.3733 95.192 85.2267 94.6373 86.08 94.04H91.584L92.992 94.552C93.4187 94.6373 93.8453 94.6373 94.272 94.552C94.6987 94.3813 95.1253 94.2533 95.552 94.168C95.9787 94.424 96.448 94.7227 96.96 95.064C97.5573 95.32 98.1547 95.6613 98.752 96.088C98.752 96.2587 98.7947 96.472 98.88 96.728C99.0507 96.984 99.136 97.1973 99.136 97.368C99.136 97.9653 99.0933 98.6053 99.008 99.288C99.008 99.9707 98.88 100.653 98.624 101.336C98.4533 102.104 98.4533 102.915 98.624 103.768C98.7093 104.024 98.752 104.451 98.752 105.048C98.6667 105.731 98.5387 106.456 98.368 107.224C98.1973 107.992 97.984 108.717 97.728 109.4C97.6427 109.741 97.6 110.083 97.6 110.424C97.6 110.68 97.6427 110.936 97.728 111.192C97.984 111.875 97.984 112.515 97.728 113.112C97.5573 113.709 97.5573 114.307 97.728 114.904C98.24 115.928 98.4107 117.123 98.24 118.488C98.24 119.171 98.368 119.725 98.624 120.152C99.0507 120.92 99.264 121.688 99.264 122.456C99.3493 123.139 99.3493 123.864 99.264 124.632C99.0933 125.315 99.0507 125.997 99.136 126.68C99.3067 127.363 99.52 128.003 99.776 128.6C100.117 129.112 100.373 129.624 100.544 130.136C100.715 130.563 100.971 131.075 101.312 131.672C101.739 132.099 102.208 132.568 102.72 133.08C103.232 133.592 103.659 134.189 104 134.872C104.085 135.299 104.427 135.811 105.024 136.408C105.024 136.408 105.152 136.493 105.408 136.664C105.835 136.749 106.261 136.792 106.688 136.792C107.2 136.792 107.669 136.792 108.096 136.792C108.523 137.133 108.907 137.432 109.248 137.688C109.589 137.944 109.931 138.2 110.272 138.456C110.784 138.2 111.253 137.944 111.68 137.688C112.107 137.432 112.533 137.133 112.96 136.792L114.752 136.408C114.837 136.408 114.923 136.408 115.008 136.408C115.179 136.323 115.307 136.323 115.392 136.408C117.781 137.176 119.616 136.365 120.896 133.976C121.067 133.464 121.323 132.952 121.664 132.44C122.005 131.928 122.261 131.373 122.432 130.776C122.603 130.349 122.816 129.965 123.072 129.624C123.328 129.283 123.584 128.941 123.84 128.6V126.808C124.096 126.637 124.352 126.424 124.608 126.168C124.949 125.827 125.291 125.571 125.632 125.4C125.803 124.973 125.931 124.547 126.016 124.12C126.187 123.693 126.4 123.267 126.656 122.84C126.827 122.499 126.955 122.2 127.04 121.944C127.211 121.603 127.424 121.261 127.68 120.92C127.595 120.493 127.509 120.152 127.424 119.896C127.339 119.64 127.253 119.341 127.168 119C127.765 117.635 128.107 116.312 128.192 115.032C128.277 114.605 128.277 114.179 128.192 113.752C128.192 113.24 128.149 112.728 128.064 112.216C128.235 111.789 128.363 111.405 128.448 111.064C128.619 110.637 128.747 110.253 128.832 109.912C128.832 109.229 128.747 108.589 128.576 107.992C128.491 107.309 128.533 106.669 128.704 106.072C128.875 105.475 128.917 105.048 128.832 104.792C128.491 103.427 128.405 102.104 128.576 100.824C128.747 99.544 129.003 98.3493 129.344 97.24C129.259 96.8133 129.173 96.3867 129.088 95.96C129.088 95.5333 129.088 95.1067 129.088 94.68C129.259 94.5093 129.429 94.3813 129.6 94.296C129.771 94.2107 129.899 94.04 129.984 93.784C130.411 93.9547 130.752 94.1253 131.008 94.296C131.349 94.3813 131.691 94.4667 132.032 94.552C133.227 94.9787 134.421 95.32 135.616 95.576C136.811 95.832 138.048 95.7893 139.328 95.448C140.779 95.5333 142.229 95.6187 143.68 95.704C145.216 95.704 146.709 95.9173 148.16 96.344C149.355 96.6853 150.08 97.3253 150.336 98.264L151.232 100.44Z" fill="#FFA500"/>
<path d="M81.792 229.296C81.9627 229.552 82.0053 229.851 81.92 230.192C81.8347 230.448 81.7067 230.704 81.536 230.96C81.28 231.131 81.024 231.387 80.768 231.728C80.512 231.984 80.2133 232.197 79.872 232.368C79.36 232.709 78.848 233.093 78.336 233.52C77.824 233.947 77.312 234.373 76.8 234.8C75.6907 235.653 74.7093 236.507 73.856 237.36C73.088 238.128 72.1493 239.195 71.04 240.56C70.8693 240.731 70.656 240.901 70.4 241.072C70.2293 241.328 70.016 241.541 69.76 241.712C69.6747 241.797 69.504 241.883 69.248 241.968C69.0773 242.053 68.9067 242.139 68.736 242.224C68.6507 242.139 68.5227 242.053 68.352 241.968C68.1813 241.968 68.0107 241.925 67.84 241.84C67.1573 241.157 66.432 240.475 65.664 239.792C64.9813 239.109 64.256 238.469 63.488 237.872C62.3787 237.104 61.3973 236.251 60.544 235.312C59.6907 234.288 58.7947 233.307 57.856 232.368C57.6 232.112 57.3867 231.813 57.216 231.472C57.1307 231.045 57.0027 230.661 56.832 230.32C56.4907 230.149 56.1067 229.979 55.68 229.808C55.3387 229.552 54.9973 229.296 54.656 229.04C54.3147 228.699 53.9733 228.315 53.632 227.888C53.376 227.461 53.12 227.035 52.864 226.608C52.4373 225.925 52.0107 225.285 51.584 224.688C51.1573 224.091 50.6453 223.493 50.048 222.896C49.7067 222.469 49.4507 222 49.28 221.488C49.1093 220.976 48.768 220.549 48.256 220.208C47.744 220.037 47.1893 219.909 46.592 219.824C45.9947 219.653 45.44 219.525 44.928 219.44C44.16 219.611 43.5627 220.165 43.136 221.104C42.0267 223.493 40.192 225.456 37.632 226.992C36.9493 227.419 36.352 227.973 35.84 228.656C35.328 229.339 34.7307 230.021 34.048 230.704C33.024 232.325 31.7867 233.733 30.336 234.928C28.9707 236.123 27.4347 237.232 25.728 238.256C25.472 238.512 25.1733 238.768 24.832 239.024C24.4907 239.28 24.1067 239.579 23.68 239.92L19.712 241.2C18.3467 240.603 17.1947 239.749 16.256 238.64C15.4027 237.531 14.3787 236.677 13.184 236.08C12.5013 235.056 11.9467 234.032 11.52 233.008C11.0933 231.984 10.752 230.96 10.496 229.936C10.9227 228.997 11.3067 228.144 11.648 227.376C12.0747 226.608 12.544 225.968 13.056 225.456C14.08 224.688 14.72 223.749 14.976 222.64C15.4027 222.128 15.744 221.573 16 220.976C16.3413 220.805 16.5973 220.72 16.768 220.72C17.024 220.72 17.28 220.677 17.536 220.592C18.1333 220.421 18.432 220.123 18.432 219.696C18.432 219.184 18.6027 218.843 18.944 218.672C19.2853 218.416 19.6267 218.245 19.968 218.16C20.224 218.075 20.4373 218.075 20.608 218.16C20.864 218.16 21.12 218.117 21.376 218.032C21.4613 217.861 21.5467 217.733 21.632 217.648C21.7173 217.477 21.76 217.349 21.76 217.264C21.76 216.752 21.8027 216.283 21.888 215.856C21.9733 215.344 22.2293 214.917 22.656 214.576C22.656 213.637 22.912 212.955 23.424 212.528C24.0213 212.101 24.6613 211.632 25.344 211.12C25.6 210.437 25.856 209.755 26.112 209.072C26.368 208.389 26.5813 207.835 26.752 207.408C27.0933 206.555 27.5627 205.957 28.16 205.616C28.7573 205.275 29.0987 204.763 29.184 204.08C29.0987 203.995 29.056 203.867 29.056 203.696C28.6293 203.269 28.16 202.843 27.648 202.416C27.2213 201.904 26.7947 201.392 26.368 200.88C25.9413 200.368 25.5573 199.856 25.216 199.344C24.8747 198.747 24.448 198.235 23.936 197.808C23.5947 197.467 23.3387 196.997 23.168 196.4C22.9973 195.803 22.7413 195.419 22.4 195.248C22.144 194.992 21.8027 194.779 21.376 194.608C21.2907 194.181 21.1627 193.797 20.992 193.456C20.9067 193.115 20.8213 192.731 20.736 192.304C20.6507 192.219 20.5227 192.133 20.352 192.048C20.1813 191.877 20.0107 191.749 19.84 191.664C18.9867 191.237 18.2187 190.683 17.536 190C16.8533 189.232 16.1707 188.549 15.488 187.952C15.1467 187.696 14.8907 187.397 14.72 187.056C14.208 185.861 13.5253 184.837 12.672 183.984C11.8187 183.045 10.9227 182.064 9.984 181.04C9.55733 180.272 9.13067 179.461 8.704 178.608C8.27733 177.669 7.89333 176.731 7.552 175.792C7.21067 175.109 6.82667 174.427 6.4 173.744C6.05867 172.976 5.76 172.208 5.504 171.44C5.33333 171.269 5.248 170.885 5.248 170.288C5.93067 169.349 6.74133 168.624 7.68 168.112C8.61867 167.515 9.344 166.747 9.856 165.808C10.368 165.723 10.8373 165.723 11.264 165.808C11.776 165.893 12.2027 165.765 12.544 165.424C12.8 165.168 13.184 165.04 13.696 165.04C14.8053 164.784 15.9147 164.485 17.024 164.144C18.1333 163.717 19.2427 163.419 20.352 163.248C20.5227 163.163 20.736 163.077 20.992 162.992C21.248 162.907 21.4613 162.864 21.632 162.864C22.8267 162.693 23.7653 162.949 24.448 163.632C24.6187 163.803 24.7893 163.973 24.96 164.144C25.216 164.229 25.3867 164.357 25.472 164.528C26.0693 165.381 26.7093 166.149 27.392 166.832C28.16 167.429 28.928 167.984 29.696 168.496C30.2933 169.776 30.6773 170.629 30.848 171.056C31.0187 171.483 31.232 171.824 31.488 172.08C31.744 172.251 32.256 172.592 33.024 173.104C33.1093 173.189 33.1947 173.317 33.28 173.488C33.3653 173.573 33.408 173.701 33.408 173.872C33.664 175.152 34.3893 175.92 35.584 176.176C36.096 176.347 36.3947 176.432 36.48 176.432C36.9067 176.773 37.12 177.243 37.12 177.84C37.2053 178.352 37.5467 178.821 38.144 179.248C38.656 179.248 39.0827 179.419 39.424 179.76C39.68 179.845 39.8933 179.931 40.064 180.016C40.32 180.016 40.4907 180.016 40.576 180.016C41.344 180.613 41.8133 181.381 41.984 182.32C42.24 183.173 42.7093 183.856 43.392 184.368H44.032C44.7147 184.112 45.3973 183.856 46.08 183.6C46.7627 183.344 47.4453 183.088 48.128 182.832C48.4693 182.405 48.768 181.979 49.024 181.552C49.28 181.125 49.5787 180.699 49.92 180.272C50.3467 179.589 50.816 178.907 51.328 178.224C51.84 177.456 52.352 176.773 52.864 176.176C53.376 175.493 53.76 174.768 54.016 174C54.272 173.232 54.6133 172.549 55.04 171.952C55.4667 171.269 55.8933 170.672 56.32 170.16C56.832 169.563 57.3867 168.923 57.984 168.24C58.5813 166.448 59.4347 164.741 60.544 163.12C61.7387 161.499 63.104 160.005 64.64 158.64C65.5787 158.981 66.432 159.28 67.2 159.536C67.968 159.792 68.736 160.176 69.504 160.688C70.4427 161.541 71.7227 162.181 73.344 162.608C73.7707 162.693 74.1547 162.821 74.496 162.992C74.8373 163.163 75.1787 163.291 75.52 163.376C76.1173 163.888 76.5013 164.4 76.672 164.912C76.928 165.424 77.1413 165.979 77.312 166.576C77.4827 166.661 77.6533 166.747 77.824 166.832C78.08 166.917 78.2933 167.003 78.464 167.088C78.6347 167.429 78.8053 167.813 78.976 168.24C79.232 168.581 79.4453 168.965 79.616 169.392C79.872 169.733 80.1707 170.075 80.512 170.416C80.9387 170.672 81.1947 171.056 81.28 171.568C81.1947 171.995 81.024 172.464 80.768 172.976C80.5973 173.403 80.4267 173.829 80.256 174.256V176.944C79.9147 177.541 79.488 177.968 78.976 178.224C78.5493 178.395 78.1227 178.608 77.696 178.864C77.6107 179.035 77.4827 179.205 77.312 179.376C77.2267 179.461 77.0987 179.589 76.928 179.76C76.416 180.699 75.8613 181.595 75.264 182.448C74.752 183.301 74.112 184.155 73.344 185.008C72.832 185.605 72.3627 186.245 71.936 186.928C71.5093 187.611 71.04 188.293 70.528 188.976V190.512C70.1867 190.853 69.8027 191.237 69.376 191.664C69.0347 192.005 68.736 192.432 68.48 192.944C68.1387 193.456 67.7547 193.883 67.328 194.224C66.9013 194.565 66.6027 195.035 66.432 195.632C66.176 196.229 65.792 196.699 65.28 197.04C64.768 197.296 64.3413 197.851 64 198.704C63.9147 199.045 63.8293 199.472 63.744 199.984C63.744 200.496 63.6587 201.051 63.488 201.648C65.536 204.293 67.328 207.109 68.864 210.096V211.632C69.2907 212.059 69.6747 212.443 70.016 212.784C70.4427 213.125 70.784 213.467 71.04 213.808C72.6613 215.856 74.368 217.648 76.16 219.184C76.5013 219.525 76.8 219.909 77.056 220.336C77.3973 220.677 77.568 221.104 77.568 221.616C77.6533 221.957 77.824 222.299 78.08 222.64C78.336 222.981 78.5067 223.28 78.592 223.536C79.2747 224.389 79.8293 225.328 80.256 226.352C80.6827 227.376 81.1947 228.357 81.792 229.296Z" fill="#00C4D8"/>
<path d="M130.156 214.81C130.411 215.408 130.538 216.048 130.537 216.731C130.622 217.413 130.45 218.096 130.023 218.778C129.852 219.119 129.766 219.46 129.765 219.802C129.85 220.058 129.893 220.399 129.892 220.826C129.721 221.081 129.507 221.337 129.251 221.593C128.995 221.763 128.781 222.019 128.61 222.36C128.439 222.53 128.268 222.744 128.097 222.999C128.011 223.255 127.798 223.468 127.456 223.638C127.03 223.553 126.518 223.509 125.92 223.508C125.323 223.508 124.768 223.507 124.256 223.506C122.976 223.505 121.824 223.844 120.799 224.526C120.457 224.866 120.116 225.122 119.774 225.292C119.433 225.377 119.091 225.505 118.75 225.675C118.237 226.186 118.066 226.698 118.236 227.21L118.232 229.642C118.317 230.41 118.401 231.178 118.485 231.947C118.655 232.629 118.697 233.398 118.61 234.251C118.525 234.421 118.524 234.677 118.609 235.019C118.694 235.275 118.779 235.488 118.864 235.659C118.779 236 118.65 236.299 118.479 236.555C118.394 236.725 118.308 236.981 118.222 237.322C118.307 237.664 118.392 238.005 118.477 238.347C118.562 238.603 118.647 238.901 118.732 239.243C118.731 239.67 118.688 239.968 118.602 240.139C118.431 240.65 118.26 241.162 118.088 241.674C118.002 242.186 117.874 242.698 117.702 243.21C117.446 243.807 117.402 244.361 117.572 244.873C117.742 245.386 117.699 245.898 117.442 246.409C117.44 248.201 117.352 249.95 117.179 251.657C117.006 253.363 116.876 255.07 116.788 256.776C116.785 258.995 117.166 261.257 117.931 263.562C118.272 264.33 118.826 264.715 119.594 264.716C119.765 264.631 119.935 264.503 120.106 264.333C120.363 264.162 120.619 264.035 120.875 263.95C121.131 263.95 121.344 264.036 121.515 264.207C122.196 264.976 122.963 265.489 123.816 265.746C125.181 266.089 125.564 266.772 124.966 267.795C124.709 268.392 124.58 269.032 124.579 269.715C124.664 270.397 124.663 271.08 124.576 271.763C124.403 273.64 124.315 275.56 124.313 277.522C124.31 279.4 124.436 281.32 124.689 283.283C124.688 284.221 124.602 284.819 124.431 285.074C124.345 285.416 123.832 285.927 122.893 286.608L122.509 286.608C121.826 286.522 121.144 286.435 120.461 286.349C119.864 286.263 119.267 286.177 118.669 286.091C117.048 286.345 115.597 286.471 114.317 286.469C113.72 286.554 113.122 286.681 112.524 286.851C112.012 287.106 111.415 287.191 110.732 287.104C110.05 286.933 109.367 286.932 108.684 287.102C108.001 287.271 107.318 287.356 106.636 287.355C106.295 287.184 105.954 287.055 105.612 286.97C105.356 286.884 105.015 286.755 104.589 286.584C102.54 286.923 100.492 287.133 98.444 287.216C96.3959 287.299 94.3051 287.381 92.1716 287.464C91.7458 286.866 91.3198 286.311 90.8938 285.798C90.4677 285.371 90.0844 284.901 89.7437 284.388C89.5738 283.791 89.2332 283.278 88.7217 282.851C88.2956 282.424 87.8695 282.039 87.4433 281.697C87.3591 280.844 87.1895 280.033 86.9345 279.265C86.7647 278.582 86.7656 277.899 86.9372 277.217C87.1938 276.79 87.2797 276.364 87.1949 275.937C87.0253 275.169 86.9836 274.401 87.07 273.633C87.2418 272.78 87.4135 271.969 87.5852 271.202L87.5872 269.666C88.2701 269.496 88.953 269.369 89.6357 269.284C90.3186 269.115 91.0013 269.115 91.6837 269.287C92.0253 269.117 92.3242 268.947 92.5804 268.776C92.8368 268.521 93.1358 268.265 93.4774 268.009C93.9039 268.181 94.3303 268.352 94.7568 268.523C95.1832 268.694 95.6523 268.866 96.1641 269.037C97.0181 268.526 98.0003 267.845 99.1108 266.993C99.2821 266.481 99.368 266.097 99.3683 265.841C99.3696 264.903 99.3708 263.964 99.372 263.025C99.3734 262.001 99.4174 261.02 99.504 260.081L99.5045 259.697C99.1643 258.844 99.0373 258.033 99.1237 257.265C99.21 256.497 99.2111 255.686 99.1269 254.833L99.1291 253.169C99.3024 251.206 99.3476 249.287 99.2648 247.409C99.2674 245.446 99.2273 243.484 99.1446 241.521L100.043 239.858C99.958 239.431 99.8732 239.005 99.7885 238.578C99.7037 238.151 99.6189 237.724 99.5342 237.297C99.6201 236.871 99.7059 236.487 99.7917 236.146C99.9628 235.805 100.091 235.421 100.177 234.994C100.178 234.653 100.135 234.397 100.05 234.226C99.6249 233.202 99.4555 232.263 99.542 231.409L99.5445 229.489C99.545 229.148 99.46 228.892 99.2895 228.721C99.1192 228.465 99.0343 228.166 99.0347 227.825C99.1203 227.654 99.1635 227.27 99.1643 226.673C99.0796 226.161 98.9949 225.649 98.9103 225.137C98.8256 224.624 98.6983 224.112 98.5283 223.6C98.1022 223.173 97.6331 223.044 97.1208 223.214C96.6087 223.299 96.1394 223.298 95.7128 223.212C95.2864 223.041 94.8172 222.955 94.3052 222.954C93.7932 222.954 93.2385 222.953 92.6412 222.952C92.0443 222.61 91.3618 222.481 90.5937 222.566C89.911 222.565 89.2285 222.436 88.5462 222.179C88.2054 221.752 88.0354 221.24 88.0362 220.642C88.1224 220.045 88.0376 219.618 87.7819 219.362C87.6117 219.02 87.6123 218.594 87.7836 218.082C87.9551 217.485 87.9558 216.973 87.7857 216.546C88.1276 216.12 88.1706 215.821 87.9149 215.65C87.6591 215.479 87.6595 215.138 87.9162 214.626C88.1728 214.2 88.3014 213.731 88.3021 213.219C88.3029 212.621 88.4742 212.152 88.816 211.811C88.9868 211.641 89.0299 211.385 88.945 211.043C88.9455 210.617 88.9887 210.233 89.0745 209.892C89.2454 209.721 89.6295 209.636 90.2268 209.637C90.8243 209.553 91.1658 209.425 91.2513 209.254C91.5932 208.828 91.9776 208.53 92.4045 208.36C92.9168 208.19 93.429 207.977 93.9414 207.722C94.112 207.722 94.3254 207.722 94.5814 207.723C94.8375 207.638 95.1362 207.596 95.4775 207.596C96.1602 207.597 96.8855 207.598 97.6535 207.599C98.4215 207.6 99.1469 207.558 99.8297 207.474C100.513 207.304 101.195 207.177 101.878 207.093C102.561 206.923 103.287 206.796 104.055 206.711C104.823 206.542 105.591 206.585 106.359 206.842C107.467 207.185 108.833 207.144 110.455 206.72C110.796 206.635 111.095 206.55 111.351 206.465C111.607 206.38 111.821 206.295 111.991 206.21C112.589 206.296 113.101 206.382 113.527 206.468C114.039 206.554 114.466 206.597 114.807 206.598C115.063 206.598 115.319 206.556 115.575 206.471C115.917 206.386 116.173 206.343 116.343 206.344C117.197 206.345 117.965 206.389 118.647 206.475C119.415 206.476 120.183 206.562 120.951 206.734C122.572 206.992 124.022 207.079 125.302 206.996C125.729 206.911 126.07 206.911 126.326 206.997C126.668 206.997 126.881 206.998 126.966 206.998C127.564 207.084 127.99 207.298 128.246 207.639C128.587 207.896 128.842 208.11 129.013 208.28C130.376 209.648 130.673 211.056 129.903 212.506C129.818 212.591 129.775 212.89 129.774 213.402C129.859 213.572 129.901 213.786 129.901 214.042C129.986 214.212 130.071 214.469 130.156 214.81Z" fill="#FF355A"/>
<path d="M71.552 268.36C71.4667 268.872 71.3387 269.384 71.168 269.896C70.9973 270.408 70.8267 270.92 70.656 271.432C70.5707 271.773 70.528 272.285 70.528 272.968C70.272 273.224 70.016 273.523 69.76 273.864C69.5893 274.12 69.3333 274.461 68.992 274.888C68.992 275.229 68.9067 275.741 68.736 276.424C68.3947 276.68 68.0533 276.936 67.712 277.192C67.3707 277.448 66.9867 277.704 66.56 277.96C66.4747 278.301 66.3467 278.643 66.176 278.984C66.0053 279.24 65.8347 279.581 65.664 280.008C64.7253 280.861 63.872 281.8 63.104 282.824C62.4213 283.848 61.6107 284.829 60.672 285.768C60.16 285.939 59.648 285.768 59.136 285.256C58.624 284.744 58.0693 284.275 57.472 283.848C56.96 283.336 56.3627 282.909 55.68 282.568C55.424 282.397 55.2533 282.269 55.168 282.184C55.0827 282.099 54.9547 281.971 54.784 281.8C54.4427 281.8 54.0587 281.715 53.632 281.544C53.2907 281.373 52.9493 281.245 52.608 281.16C52.1813 281.075 51.7973 280.904 51.456 280.648C51.1147 280.392 50.7733 280.136 50.432 279.88L49.024 278.344C48.1707 278.515 47.36 278.429 46.592 278.088C45.9093 277.747 45.1413 277.405 44.288 277.064C43.6907 277.149 43.0933 277.192 42.496 277.192C41.8987 277.192 41.2587 277.235 40.576 277.32C39.9787 277.661 39.3813 278.045 38.784 278.472C38.1867 278.899 37.5893 279.325 36.992 279.752C36.224 280.349 35.456 280.904 34.688 281.416C34.0053 281.843 33.1947 282.141 32.256 282.312C32.1707 282.312 32.0427 282.397 31.872 282.568C31.7013 282.653 31.5307 282.739 31.36 282.824C31.0187 283.165 30.6347 283.592 30.208 284.104C29.8667 284.616 29.5253 285.085 29.184 285.512C28.7573 286.792 28.416 287.944 28.16 288.968C28.2453 289.309 28.288 289.608 28.288 289.864C28.3733 290.12 28.4587 290.376 28.544 290.632C28.544 291.144 28.288 291.613 27.776 292.04C27.52 292.381 27.2213 292.68 26.88 292.936C26.624 293.107 26.4107 293.448 26.24 293.96L27.136 295.368C27.2213 295.709 27.0933 296.051 26.752 296.392C26.496 296.733 26.2827 297.117 26.112 297.544C26.112 297.629 26.0693 297.672 25.984 297.672C25.8987 297.672 25.856 297.715 25.856 297.8C26.0267 298.397 26.1547 299.08 26.24 299.848C26.4107 300.531 26.5387 301.213 26.624 301.896C27.4773 302.579 28.2027 303.304 28.8 304.072C29.4827 304.84 30.1227 305.651 30.72 306.504C31.1467 307.016 31.5733 307.485 32 307.912C32.512 308.339 32.9813 308.765 33.408 309.192C34.2613 309.619 35.1147 310.045 35.968 310.472C36.9067 310.813 37.8027 311.069 38.656 311.24C39.3387 311.325 39.936 311.539 40.448 311.88C41.0453 312.136 41.728 312.392 42.496 312.648C43.264 312.648 44.1173 312.691 45.056 312.776C45.9947 312.776 46.9333 312.776 47.872 312.776C48.4693 312.776 48.8533 312.733 49.024 312.648C49.9627 312.392 50.8587 312.264 51.712 312.264C52.5653 312.179 53.4187 312.008 54.272 311.752C55.2107 311.581 56.1067 311.453 56.96 311.368C57.8987 311.283 58.7947 311.197 59.648 311.112C59.8187 311.112 60.032 311.027 60.288 310.856C60.6293 310.685 60.928 310.685 61.184 310.856C61.5253 311.197 61.7813 311.539 61.952 311.88C62.1227 312.221 62.336 312.605 62.592 313.032C62.5067 313.288 62.464 313.629 62.464 314.056C62.464 314.397 62.464 314.781 62.464 315.208C64.3413 318.365 65.7493 321.992 66.688 326.088C65.408 327.027 64.128 328.008 62.848 329.032C61.6533 329.971 60.3733 330.995 59.008 332.104C58.4107 332.36 57.728 332.531 56.96 332.616C56.2773 332.616 55.7227 332.957 55.296 333.64C54.9547 333.469 54.6133 333.341 54.272 333.256C54.016 333.171 53.8027 333.085 53.632 333C53.2907 333.085 53.0773 333.256 52.992 333.512C52.9067 333.768 52.7787 333.981 52.608 334.152C52.096 333.896 51.6267 333.64 51.2 333.384C51.1147 333.469 50.9013 333.555 50.56 333.64C50.304 333.725 50.0907 333.811 49.92 333.896C49.0667 334.067 48.256 334.237 47.488 334.408C46.72 334.664 45.9093 334.792 45.056 334.792C44.4587 334.792 43.776 334.792 43.008 334.792C42.24 334.877 41.5147 334.963 40.832 335.048C40.6613 335.048 40.448 335.005 40.192 334.92C39.936 334.92 39.6373 334.877 39.296 334.792C38.1867 334.451 37.4613 334.195 37.12 334.024C36.7787 333.853 36.0533 333.427 34.944 332.744C34.2613 332.659 33.7493 332.872 33.408 333.384C33.152 333.981 32.8107 334.28 32.384 334.28H30.848C30.1653 334.024 29.4827 333.768 28.8 333.512C28.1173 333.256 27.392 333.085 26.624 333C26.0267 332.915 25.472 332.787 24.96 332.616C24.5333 332.36 24.0213 332.147 23.424 331.976C22.8267 331.464 22.1867 330.952 21.504 330.44C20.9067 329.843 20.2667 329.373 19.584 329.032C18.9867 328.776 18.3893 328.435 17.792 328.008C17.28 327.496 16.8107 326.984 16.384 326.472C16.0427 325.96 15.6587 325.576 15.232 325.32C14.8053 324.979 14.4213 324.595 14.08 324.168C13.4827 323.229 12.7573 322.376 11.904 321.608C11.4773 321.181 11.0933 320.755 10.752 320.328C10.496 319.816 10.1547 319.347 9.728 318.92C9.472 317.725 9.216 316.531 8.96 315.336C8.78933 314.141 8.61867 312.904 8.448 311.624C8.27733 311.453 8.064 311.197 7.808 310.856C7.63733 310.429 7.38133 310.045 7.04 309.704C6.95467 309.021 6.82667 308.296 6.656 307.528C6.48533 306.675 6.18667 305.907 5.76 305.224C5.84533 304.883 5.97333 304.456 6.144 303.944C6.144 303.517 6.144 303.304 6.144 303.304C5.46133 301.427 5.248 299.635 5.504 297.928C5.67467 296.733 5.80267 295.496 5.888 294.216C6.05867 292.851 6.18667 291.528 6.272 290.248C6.528 290.077 6.74133 289.907 6.912 289.736C7.168 289.565 7.424 289.395 7.68 289.224C6.656 287.603 6.656 285.811 7.68 283.848C7.25333 282.995 7.04 282.312 7.04 281.8C7.04 281.288 7.04 281.032 7.04 281.032C7.38133 280.691 7.68 280.349 7.936 280.008C8.192 279.667 8.49067 279.325 8.832 278.984C9.51467 278.387 10.112 277.661 10.624 276.808C10.88 276.381 11.0933 275.912 11.264 275.4C11.52 274.888 11.6053 274.419 11.52 273.992C12.2027 273.565 12.8853 273.267 13.568 273.096C14.336 272.84 14.9333 272.456 15.36 271.944C15.4453 271.859 15.5307 271.688 15.616 271.432C15.616 271.176 15.5733 270.877 15.488 270.536C15.488 270.195 15.488 269.811 15.488 269.384C15.744 269.043 15.9573 268.573 16.128 267.976C16.7253 267.635 17.2373 267.379 17.664 267.208C18.0907 267.037 18.5173 266.824 18.944 266.568C19.1147 266.397 19.2427 266.227 19.328 266.056C19.4987 265.885 19.6267 265.715 19.712 265.544C20.5653 264.179 21.632 263.197 22.912 262.6C23.424 262.429 23.936 262.216 24.448 261.96C24.96 261.704 25.4293 261.491 25.856 261.32C26.112 261.149 26.3253 260.979 26.496 260.808C26.752 260.552 27.008 260.339 27.264 260.168C27.8613 259.997 28.5013 259.784 29.184 259.528C29.7813 259.272 30.3787 259.016 30.976 258.76C31.6587 258.504 32.3413 258.333 33.024 258.248C33.6213 258.077 34.176 257.864 34.688 257.608C35.2853 257.352 35.84 257.181 36.352 257.096C36.7787 256.925 37.12 256.968 37.376 257.224C37.7173 257.395 38.0587 257.565 38.4 257.736H41.088C41.5147 257.565 41.8133 257.352 41.984 257.096C42.1547 256.755 42.4107 256.541 42.752 256.456C43.9467 256.2 44.8427 256.029 45.44 255.944C46.0373 255.859 46.8053 255.859 47.744 255.944C48.6827 255.944 50.0907 256.029 51.968 256.2C52.3947 256.285 52.736 256.456 52.992 256.712C53.3333 256.968 53.7173 257.139 54.144 257.224C54.7413 257.224 55.296 257.309 55.808 257.48C56.4053 257.565 57.0027 257.693 57.6 257.864C58.368 258.461 59.1787 259.016 60.032 259.528C60.8853 259.955 61.8667 260.211 62.976 260.296C63.488 261.149 64.128 261.832 64.896 262.344C65.7493 262.856 66.6027 263.325 67.456 263.752C68.224 264.179 68.9493 264.691 69.632 265.288C70.3147 265.885 70.9547 266.525 71.552 267.208C71.552 267.379 71.552 267.592 71.552 267.848C71.6373 268.019 71.6373 268.189 71.552 268.36Z" fill="#FFA500"/>
<path d="M112.75 298.75V309.375H111.5C104.407 309.375 98.7719 312.125 94.4834 317.665L94.4795 317.671C90.1591 323.184 87.9531 330.261 87.9531 339C87.9531 347.735 90.1565 354.851 94.4785 360.438H94.4795C98.7656 365.906 104.401 368.625 111.5 368.625C118.377 368.625 123.881 366.074 128.115 360.942L128.521 360.438C132.857 354.832 135.047 348.07 135.047 340.083C135.047 335.983 134.753 332.581 134.184 329.858C133.612 327.125 132.778 325.154 131.754 323.845L131.75 323.84L131.746 323.834C129.549 320.957 127.119 319.667 124.438 319.667C121.606 319.667 119.186 320.655 117.115 322.671C115.078 324.654 114.044 327.174 114.044 330.333C114.044 332.315 114.469 333.866 115.238 335.061C115.918 336.05 116.875 336.559 118.292 336.559C119.55 336.559 120.402 336.069 121.017 335.032C121.692 333.892 122.109 332.02 122.109 329.25V328H133.234V329.25C133.234 334.139 132.11 338.364 129.792 341.857L129.784 341.868C127.336 345.477 123.403 347.184 118.292 347.184C113.2 347.184 109.221 345.564 106.623 342.139C104.136 338.859 102.919 334.9 102.919 330.333C102.919 324.094 105.055 318.945 109.362 315.003C113.611 311.042 118.619 309.042 124.33 309.042C129.681 309.042 134.572 311.006 138.975 314.838L139.399 315.215L139.401 315.216C141.83 317.42 143.721 320.586 145.131 324.612C146.554 328.676 147.25 333.407 147.25 338.783C147.25 350.501 144.091 360.228 137.686 367.861L137.682 367.866C131.234 375.475 122.458 379.25 111.5 379.25C100.542 379.25 91.7656 375.475 85.3184 367.866L85.3145 367.862L86.2715 367.059L85.3145 367.861C78.9117 360.231 75.75 350.577 75.75 339C75.75 327.425 78.9101 317.806 85.3145 310.246L85.9258 309.538C92.3112 302.33 100.88 298.75 111.5 298.75H112.75Z" fill="#FF6600" stroke="#FF6600" stroke-width="2.5"/>
<path d="M76.44 85.024C76.44 85.7067 76.1413 86.1333 75.544 86.304C74.52 86.3893 73.5387 86.7307 72.6 87.328C71.7467 87.84 70.8507 88.224 69.912 88.48C68.8027 88.3947 67.736 88.4373 66.712 88.608C65.688 88.7787 64.5787 88.736 63.384 88.48C63.2133 88.6507 63 88.8213 62.744 88.992C62.488 89.1627 62.232 89.3333 61.976 89.504C61.6347 89.504 61.2507 89.5467 60.824 89.632C60.3973 89.7173 59.9707 89.76 59.544 89.76H56.344C55.6613 89.76 54.9787 89.8027 54.296 89.888C53.6133 89.888 52.9307 89.8453 52.248 89.76C51.48 89.76 50.7973 89.9307 50.2 90.272C49.6027 90.528 48.9627 90.656 48.28 90.656C47.9387 90.656 47.64 90.6987 47.384 90.784C47.128 90.784 46.872 90.8267 46.616 90.912C46.0187 90.7413 45.4213 90.6133 44.824 90.528C44.312 90.3573 43.7573 90.5707 43.16 91.168C42.7333 92.6187 42.3493 94.112 42.008 95.648C41.752 97.184 41.5387 98.6773 41.368 100.128C41.112 101.664 41.112 103.115 41.368 104.48C41.4533 104.651 41.496 104.821 41.496 104.992C41.5813 105.163 41.6667 105.333 41.752 105.504H45.592C46.1893 105.76 46.7867 106.059 47.384 106.4C48.0667 106.741 48.7493 107.125 49.432 107.552C49.6027 107.637 49.816 107.723 50.072 107.808C50.4133 107.808 50.7547 107.851 51.096 107.936C51.352 108.021 51.6507 108.107 51.992 108.192C52.3333 108.277 52.6747 108.405 53.016 108.576C53.6133 108.576 54.168 108.405 54.68 108.064C55.192 107.723 55.7467 107.509 56.344 107.424H56.984C57.4107 107.424 57.7947 107.467 58.136 107.552C58.5627 107.637 58.9467 107.637 59.288 107.552C60.3973 107.296 61.5067 107.296 62.616 107.552C63.7253 107.723 64.792 107.808 65.816 107.808C66.4987 107.808 67.1387 107.936 67.736 108.192C68.4187 108.448 69.0587 108.747 69.656 109.088C69.9973 111.989 70.1253 114.933 70.04 117.92C70.04 120.821 69.9973 123.723 69.912 126.624C69.912 126.965 69.784 127.179 69.528 127.264C69.272 127.349 69.016 127.349 68.76 127.264C68.5893 127.179 68.376 127.093 68.12 127.008C67.9493 126.923 67.6933 126.837 67.352 126.752H59.928C59.16 126.667 58.4347 126.667 57.752 126.752C57.1547 126.837 56.5147 126.837 55.832 126.752C55.1493 126.667 54.4667 126.624 53.784 126.624C53.1013 126.539 52.376 126.453 51.608 126.368C51.0107 126.283 50.3707 126.24 49.688 126.24C49.0053 126.24 48.28 126.197 47.512 126.112C47.0853 126.112 46.616 126.027 46.104 125.856C45.6773 125.685 45.2507 125.557 44.824 125.472C44.2267 125.557 43.7573 125.771 43.416 126.112C43.16 126.453 42.8187 126.795 42.392 127.136C42.3067 127.307 42.1787 127.563 42.008 127.904C41.9227 128.16 41.7947 128.416 41.624 128.672C41.7093 128.928 41.752 129.227 41.752 129.568C42.1787 130.08 42.4347 130.677 42.52 131.36C42.6907 131.957 42.776 132.597 42.776 133.28C42.776 134.304 42.8187 135.328 42.904 136.352C43.0747 137.376 43.0747 138.4 42.904 139.424C42.904 140.277 42.904 141.131 42.904 141.984C42.9893 142.837 43.2027 143.648 43.544 144.416C43.6293 144.587 43.672 144.885 43.672 145.312C43.16 146.507 42.4773 147.659 41.624 148.768C40.7707 149.365 39.9173 149.749 39.064 149.92C38.296 150.176 37.4427 150.517 36.504 150.944C36.1627 150.859 35.7787 150.816 35.352 150.816C35.0107 150.816 34.6267 150.816 34.2 150.816C33.8587 150.901 33.304 151.2 32.536 151.712H28.184C27.5013 151.712 26.776 151.712 26.008 151.712C25.3253 151.797 24.5573 151.84 23.704 151.84C22.8507 151.84 22.2533 151.456 21.912 150.688C21.8267 150.347 21.784 149.963 21.784 149.536C21.784 149.109 21.7413 148.64 21.656 148.128C21.4 147.701 21.1867 147.317 21.016 146.976C20.8453 146.549 20.6747 146.165 20.504 145.824C20.4187 145.312 20.3333 144.8 20.248 144.288C20.248 143.776 20.2053 143.307 20.12 142.88C20.376 142.112 20.5893 141.387 20.76 140.704C21.016 140.021 21.272 139.296 21.528 138.528C21.1867 136.565 20.9733 134.56 20.888 132.512C20.8027 130.379 20.9307 128.245 21.272 126.112C21.272 125.685 21.1867 125.216 21.016 124.704C20.9307 124.192 21.016 123.637 21.272 123.04C21.784 122.101 21.784 121.205 21.272 120.352C21.1867 119.755 21.1013 119.157 21.016 118.56C21.016 117.963 21.1013 117.365 21.272 116.768C21.4427 116.512 21.528 116.213 21.528 115.872C21.528 115.531 21.528 115.189 21.528 114.848C21.6133 114.421 21.5707 113.952 21.4 113.44C21.2293 112.928 21.1867 112.416 21.272 111.904C21.4427 111.477 21.528 111.051 21.528 110.624C21.6133 110.112 21.656 109.6 21.656 109.088C21.656 108.491 21.6987 107.893 21.784 107.296C21.8693 106.699 21.9973 106.144 22.168 105.632C22.0827 105.035 21.9973 104.523 21.912 104.096C21.912 103.584 21.8693 103.072 21.784 102.56C22.2107 101.621 22.424 100.683 22.424 99.744C22.5093 98.72 22.552 97.696 22.552 96.672C22.552 95.9893 22.552 95.3067 22.552 94.624C22.552 93.9413 22.5947 93.3013 22.68 92.704C22.7653 92.0213 22.808 91.3813 22.808 90.784C22.8933 90.1013 22.936 89.4613 22.936 88.864C22.936 88.6933 22.8933 88.5227 22.808 88.352C22.808 88.096 22.8507 87.8827 22.936 87.712C23.2773 87.0293 23.4053 86.3893 23.32 85.792C23.32 85.1093 23.3627 84.4693 23.448 83.872C23.448 83.36 23.448 82.848 23.448 82.336C23.5333 81.7387 23.6187 81.184 23.704 80.672C23.6187 80.2453 23.4907 79.776 23.32 79.264C23.1493 78.752 23.0213 78.3253 22.936 77.984C23.0213 77.5573 23.1067 77.1307 23.192 76.704C23.3627 76.2773 23.448 75.8507 23.448 75.424C23.5333 74.4 24.216 73.7173 25.496 73.376C27.032 72.864 28.6533 72.48 30.36 72.224C30.9573 72.224 31.4267 72.0533 31.768 71.712C32.1093 71.5413 32.4933 71.456 32.92 71.456C33.432 71.5413 33.944 71.5413 34.456 71.456C35.0533 71.3707 35.6507 71.2853 36.248 71.2C36.9307 70.7733 37.6987 70.56 38.552 70.56C40.1733 70.4747 41.7947 70.2613 43.416 69.92C45.0373 69.5787 46.6587 69.3653 48.28 69.28C49.1333 69.1947 49.944 69.152 50.712 69.152C51.48 69.0667 52.2907 69.152 53.144 69.408C53.8267 69.4933 54.5093 69.5787 55.192 69.664C55.8747 69.664 56.5573 69.664 57.24 69.664C57.5813 69.664 57.9227 69.664 58.264 69.664C58.6053 69.5787 58.9467 69.536 59.288 69.536C60.4827 69.4507 61.3787 69.4507 61.976 69.536C62.5733 69.536 63.1707 69.5787 63.768 69.664C64.3653 69.7493 65.2613 69.92 66.456 70.176C67.0533 70.2613 67.608 70.3467 68.12 70.432C68.7173 70.432 69.272 70.5173 69.784 70.688C70.7227 71.1147 71.7467 71.4133 72.856 71.584C73.2827 71.6693 73.624 71.84 73.88 72.096C74.136 72.2667 74.3493 72.4373 74.52 72.608C74.8613 73.9733 74.8613 75.296 74.52 76.576C74.776 77.344 75.032 78.24 75.288 79.264C75.288 79.3493 75.2453 79.5627 75.16 79.904C75.16 80.16 75.16 80.3733 75.16 80.544C75.16 80.9707 75.2027 81.2267 75.288 81.312C75.4587 81.6533 75.6293 82.0373 75.8 82.464C75.9707 82.8053 76.0987 83.1467 76.184 83.488C76.3547 83.744 76.44 84 76.44 84.256C76.44 84.512 76.44 84.768 76.44 85.024Z" fill="#FF6600"/>
<path d="M106.14 198.898C106.171 198.859 106.203 198.837 106.238 198.832L106.193 198.891C106.341 198.941 106.467 199.083 106.569 199.315C106.637 199.552 106.747 199.713 106.9 199.797C106.949 199.896 107.092 200.035 107.329 200.214C107.566 200.393 107.735 200.458 107.835 200.409C108.309 200.24 108.885 200.163 109.562 200.177C109.68 200.267 109.799 200.356 109.917 200.446C110.036 200.535 110.192 200.637 110.385 200.752C110.42 200.747 110.457 200.76 110.496 200.789C110.531 200.785 110.583 200.778 110.653 200.768C110.763 200.789 110.922 200.785 111.131 200.757C112.243 200.572 113.369 200.631 114.511 200.935C114.764 200.971 115.033 200.987 115.317 200.984C115.596 200.947 115.868 200.858 116.133 200.716C116.328 200.585 116.531 200.505 116.74 200.477C116.91 200.419 117.101 200.393 117.315 200.399C117.769 200.338 118.196 200.211 118.596 200.016C118.775 200.027 118.971 200.036 119.185 200.043C119.364 200.054 119.546 200.082 119.729 200.127C119.913 200.173 120.099 200.236 120.287 200.316C120.48 200.43 120.679 200.456 120.884 200.394C120.909 200.32 120.952 200.244 121.013 200.166C121.069 200.053 121.122 199.923 121.173 199.775C121.238 199.731 121.321 199.685 121.421 199.636C121.516 199.553 121.597 199.49 121.662 199.446C122.106 199.316 122.504 199.104 122.855 198.811C123.332 198.396 123.803 198.069 124.268 197.831C124.503 197.729 124.696 197.58 124.847 197.384C124.959 197.158 125.092 196.965 125.248 196.803C125.341 196.439 125.419 196.095 125.482 195.77C125.545 195.446 125.571 195.108 125.559 194.759C125.655 194.676 125.732 194.595 125.793 194.516C125.849 194.403 125.907 194.308 125.967 194.229C126.158 194.063 126.247 193.928 126.233 193.825C126.226 193.51 126.298 193.254 126.449 193.058C126.6 192.862 126.725 192.599 126.823 192.27C126.813 192.201 126.817 192.095 126.833 191.952C126.815 191.814 126.813 191.674 126.83 191.531C126.821 191.462 126.809 191.376 126.795 191.272C126.776 191.134 126.78 191.028 126.806 190.955C126.908 190.66 127.013 190.382 127.12 190.122C127.222 189.827 127.309 189.552 127.382 189.296C127.358 189.124 127.289 188.87 127.172 188.534C126.901 187.833 126.823 187.123 126.939 186.405C127.012 186.149 127.049 185.898 127.051 185.652C127.054 185.405 127.073 185.157 127.111 184.906C127.067 184.842 127.02 184.76 126.971 184.661C126.883 184.533 126.799 184.438 126.72 184.379L126.94 183.242C126.987 183.061 127.071 182.891 127.192 182.734C127.273 182.548 127.357 182.378 127.443 182.226C127.441 181.946 127.354 181.694 127.182 181.471C126.975 181.253 126.838 181.025 126.77 180.788C126.756 180.685 126.76 180.579 126.781 180.471C126.767 180.367 126.753 180.264 126.739 180.16C126.409 179.818 126.181 179.445 126.056 179.04C125.895 178.64 125.768 178.218 125.672 177.774C125.41 177.669 125.179 177.542 124.982 177.393C124.784 177.244 124.632 177.036 124.525 176.769C124.476 176.67 124.443 176.552 124.424 176.414C124.371 176.28 124.317 176.147 124.264 176.014C124.052 175.761 123.841 175.508 123.629 175.256C123.378 174.973 123.149 174.723 122.942 174.505C122.849 174.342 122.771 174.159 122.709 173.957C122.611 173.759 122.483 173.601 122.325 173.481C122.137 173.401 121.996 173.28 121.903 173.116C121.775 172.958 121.665 172.797 121.572 172.634C121.323 172.632 121.107 172.609 120.923 172.563C120.74 172.517 120.576 172.487 120.431 172.471C120.243 172.391 120.142 172.299 120.128 172.196C119.958 171.727 119.703 171.41 119.361 171.245C118.98 171.05 118.573 170.929 118.14 170.882C117.996 170.866 117.872 170.865 117.767 170.879C117.658 170.859 117.514 170.843 117.335 170.832C117.256 170.773 117.157 170.698 117.038 170.609C116.915 170.485 116.792 170.361 116.669 170.237C116.45 170.196 116.249 170.153 116.065 170.107C115.847 170.066 115.663 170.021 115.514 169.97L115.148 170.02C114.883 170.161 114.618 170.302 114.352 170.443C114.048 170.554 113.728 170.685 113.393 170.835C113.109 170.838 112.823 170.824 112.535 170.793C112.207 170.731 111.908 170.754 111.639 170.86C111.604 170.865 111.571 170.887 111.541 170.926C111.506 170.931 111.469 170.918 111.429 170.889C111.185 170.921 110.936 170.92 110.683 170.884C110.429 170.847 110.183 170.863 109.943 170.93C109.734 170.958 109.523 170.969 109.309 170.963C109.06 170.961 108.824 170.923 108.601 170.847C108.422 170.836 108.262 170.84 108.123 170.859C107.944 170.848 107.772 170.889 107.607 170.981C107.516 171.099 107.425 171.216 107.334 171.334C107.239 171.417 107.131 171.537 107.01 171.694C106.735 171.766 106.448 171.875 106.148 172.02C105.809 172.136 105.471 172.269 105.137 172.42C104.967 172.478 104.821 172.585 104.7 172.742C104.545 172.903 104.349 173.035 104.114 173.137C103.914 173.234 103.712 173.314 103.507 173.377C103.263 173.41 103.019 173.442 102.775 173.475C102.291 174.102 101.679 174.571 100.94 174.881C100.875 174.925 100.81 174.969 100.744 175.013C100.679 175.057 100.614 175.101 100.549 175.145C100.303 175.424 100.076 175.718 99.8687 176.027C99.6221 176.306 99.393 176.583 99.1813 176.857C98.9742 177.166 98.8742 177.478 98.881 177.793C98.6345 178.072 98.503 178.283 98.4867 178.426C98.4309 178.539 98.4401 178.871 98.5143 179.424C98.319 179.555 98.1433 179.702 97.9875 179.863C97.827 179.99 97.7456 180.177 97.7432 180.423C97.692 180.571 97.6408 180.718 97.5896 180.865C97.5337 180.978 97.4977 181.106 97.4813 181.249C97.3953 181.401 97.3069 181.536 97.2161 181.653C97.0859 181.741 96.9603 181.863 96.8393 182.02C96.7672 182.276 96.7124 182.529 96.6752 182.78C96.6332 182.997 96.6657 183.238 96.7726 183.505C96.8749 183.737 96.9271 183.993 96.9293 184.274C96.9316 184.555 96.971 184.848 97.0477 185.154C97.1197 185.426 97.1591 185.719 97.166 186.034C97.1729 186.349 97.1775 186.647 97.1797 186.928C97.1634 187.071 97.1668 187.229 97.19 187.401C97.2086 187.539 97.2074 187.662 97.1864 187.771C97.0794 188.031 97.0421 188.282 97.0746 188.523C97.0722 188.77 97.1047 189.011 97.172 189.248C97.1906 189.386 97.2092 189.524 97.2277 189.662C97.2068 189.77 97.2079 189.911 97.2311 190.083C97.4309 190.513 97.6157 190.963 97.7853 191.432C97.9503 191.866 98.1652 192.276 98.4302 192.662C98.6905 193.014 98.9509 193.365 99.2112 193.717C99.4715 194.068 99.7644 194.398 100.09 194.705L100.208 195.585C100.397 195.665 100.587 195.763 100.78 195.877C100.934 195.962 101.067 196.032 101.181 196.087C101.481 196.468 101.689 196.827 101.805 197.162C101.882 197.468 101.991 197.752 102.133 198.014C102.291 198.133 102.449 198.253 102.607 198.372C102.765 198.491 102.941 198.608 103.134 198.723C103.327 198.837 103.552 198.93 103.81 199.001C104.029 199.042 104.271 198.992 104.536 198.85C104.841 198.739 105.104 198.721 105.328 198.797C105.472 198.812 105.616 198.828 105.76 198.844C105.904 198.86 106.031 198.878 106.14 198.898ZM105.404 187.087C105.451 186.905 105.482 186.743 105.499 186.6C105.475 186.428 105.47 186.253 105.481 186.075C105.444 185.799 105.432 185.573 105.443 185.395C105.476 185.11 105.541 184.803 105.639 184.473C105.697 184.114 105.775 183.77 105.873 183.44C105.889 183.298 105.94 183.15 106.026 182.998C106.073 182.816 106.122 182.652 106.173 182.504C106.378 181.915 106.77 181.528 107.349 181.345C107.449 181.296 107.566 181.245 107.701 181.192C107.831 181.104 107.944 181.019 108.04 180.936C108.23 180.77 108.426 180.638 108.626 180.541C108.826 180.444 109.028 180.364 109.233 180.301C109.502 180.194 109.79 180.086 110.094 179.974C110.394 179.829 110.682 179.72 110.956 179.648C111.282 179.428 111.615 179.401 111.957 179.566C112.95 179.819 113.872 180.204 114.723 180.722C115.569 181.206 116.341 181.927 117.038 182.888C117.161 183.012 117.287 183.153 117.415 183.311C117.508 183.474 117.601 183.638 117.694 183.801C117.856 183.955 118.004 184.128 118.136 184.321C118.264 184.479 118.375 184.64 118.468 184.803C118.47 185.084 118.378 185.325 118.192 185.526C118.006 185.726 117.914 185.967 117.916 186.248C117.935 186.386 118.005 186.517 118.129 186.641C118.247 186.73 118.333 186.842 118.387 186.975C118.335 187.122 118.269 187.289 118.188 187.476C118.106 187.663 118.042 187.847 117.996 188.029C117.914 188.215 117.87 188.415 117.863 188.626C117.816 188.808 117.79 189.005 117.783 189.217C117.736 189.399 117.707 189.578 117.695 189.756C117.649 189.938 117.62 190.117 117.608 190.294L116.952 190.962C116.857 191.045 116.766 191.163 116.68 191.315C116.554 191.437 116.426 191.542 116.296 191.63C115.891 191.79 115.539 191.943 115.239 192.089C114.969 192.195 114.73 192.262 114.52 192.291C114.311 192.319 114.084 192.349 113.84 192.382C113.84 192.382 113.858 192.38 113.893 192.375C113.893 192.375 113.895 192.392 113.9 192.427L113.795 192.441C113.83 192.436 113.845 192.417 113.84 192.382C113.761 192.322 113.669 192.3 113.565 192.314C113.455 192.293 113.366 192.288 113.296 192.297C113.087 192.325 112.88 192.371 112.675 192.433C112.431 192.466 112.185 192.482 111.936 192.48C111.857 192.42 111.77 192.432 111.674 192.515C111.539 192.568 111.422 192.619 111.322 192.668C111.182 192.687 111.073 192.666 110.994 192.607C110.975 192.469 110.977 192.345 110.998 192.237C110.984 192.134 110.92 192.055 110.806 192C110.32 191.819 109.858 191.688 109.421 191.606C109.228 191.491 109.072 191.389 108.954 191.3C108.8 191.215 108.662 191.111 108.539 190.987C108.39 190.937 108.274 190.864 108.19 190.77C108.072 190.681 107.94 190.628 107.796 190.612C107.468 190.551 107.188 190.448 106.956 190.304C106.684 190.13 106.429 189.953 106.192 189.774C106.148 189.71 106.123 189.66 106.119 189.626C106.074 189.562 106.03 189.497 105.986 189.433C105.496 188.691 105.302 187.909 105.404 187.087Z" fill="#FF355A"/>
</svg>
