<svg width="238" height="235" viewBox="0 0 238 235" fill="none" xmlns="http://www.w3.org/2000/svg">
<path d="M115.27 2.88124C116.053 -0.96029 121.543 -0.960312 122.325 2.88122L135.262 66.3634C135.799 68.9964 138.926 70.1348 141.03 68.4627L191.745 28.1481C194.814 25.7085 199.019 29.2369 197.15 32.6829L166.254 89.6286C164.973 91.9905 166.637 94.8729 169.323 94.9441L234.087 96.6607C238.006 96.7646 238.96 102.171 235.312 103.609L175.041 127.372C172.541 128.358 171.963 131.636 173.975 133.417L222.484 176.361C225.42 178.96 222.675 183.714 218.957 182.471L157.511 161.934C154.963 161.082 152.413 163.221 152.809 165.879L162.365 229.957C162.943 233.835 157.785 235.712 155.735 232.37L121.867 177.141C120.462 174.85 117.134 174.85 115.729 177.141L81.8603 232.37C79.8107 235.712 74.6525 233.835 75.2307 229.957L84.7864 165.879C85.1827 163.221 82.6331 161.082 80.0846 161.934L18.639 182.471C14.9207 183.714 12.1761 178.96 15.1115 176.361L63.6204 133.417C65.6323 131.636 65.0544 128.358 62.5545 127.372L2.28324 103.609C-1.36399 102.171 -0.410804 96.7646 3.50831 96.6607L68.2725 94.9441C70.9587 94.8729 72.6228 91.9905 71.3414 89.6286L40.4459 32.6829C38.5763 29.2369 42.7814 25.7085 45.8504 28.148L96.566 68.4627C98.6695 70.1348 101.797 68.9964 102.334 66.3634L115.27 2.88124Z" fill="#00C4D8"/>
</svg>
